<?xml version="1.0" encoding="utf-8"?>
<!-- Generator: Adobe Illustrator 21.1.0, SVG Export Plug-In . SVG Version: 6.00 Build 0)  -->
<svg version="1.1" id="Calque_1" xmlns="http://www.w3.org/2000/svg" xmlns:xlink="http://www.w3.org/1999/xlink" x="0px" y="0px"
	 viewBox="0 0 128.4 47.5" style="enable-background:new 0 0 128.4 47.5;" xml:space="preserve">
<style type="text/css">
	.st0{fill:#C6C6C6;}
</style>
<g>
	<path class="st0" d="M47.6,849.4c0.4-0.2,0.7-0.3,1.1-0.2c0.4,0,0.8,0.1,1.1,0.2c0.4,0.1,0.8,0.2,1.2,0.2c0.4,0,0.8,0.1,1.2,0.2
		c0.1-0.1,0.2-0.2,0.3-0.3c0.1-0.1,0.2-0.1,0.3-0.2c0.3,0,0.5,0,0.8,0c0.3,0,0.5,0.1,0.8,0.1c0.2,0,0.3,0,0.5,0c0.2,0,0.3,0,0.5,0.1
		c0.2,0.1,0.4,0.1,0.6,0.2c0.2,0.1,0.4,0.1,0.6,0.2c0.3,0,0.5,0,0.7,0.1c0.2,0.1,0.5,0.3,0.7,0.4c0,0.1,0,0.2,0.1,0.3
		c0,0.1,0,0.2,0.1,0.3c0.2,0.1,0.4,0.2,0.5,0.4c0.1,0.2,0.2,0.4,0.2,0.6c0.1,0.5,0.2,1,0.3,1.5c0.1,0.5,0.1,1,0.1,1.6
		c0,0.3,0,0.5-0.1,0.7c-0.1,0.2-0.1,0.4,0,0.6c0.1,0.5,0.1,1,0,1.5c-0.1,0.5-0.2,1-0.4,1.5c0,0.1-0.1,0.2-0.2,0.2
		c-0.1,0-0.2,0-0.3,0.1c0-0.2,0.1-0.3,0.2-0.5c-0.2,0.1-0.3,0.3-0.4,0.6c-0.1,0.3,0,0.5,0.2,0.7c0.1,0,0.2,0.1,0.2,0.2
		c-0.1,0.3-0.2,0.6-0.3,0.9c-0.1,0.3,0,0.6,0.3,0.9c0.1,0.1,0.2,0.2,0.2,0.3c0,0.1,0.1,0.3,0.1,0.4c0,0.1,0.1,0.1,0.2,0.1
		c0.1,0,0.1,0.1,0.2,0.1c-0.1,0.4-0.1,0.8,0,1.1c0.1,0.4,0.2,0.7,0.2,1.1c0,0.3,0.1,0.6,0.1,0.9c0,0.3,0,0.6-0.1,0.9h0.2
		c-0.2,0.6-0.3,1.3-0.3,2c0,0.7-0.1,1.4-0.1,2c-0.1,0.4-0.3,0.8-0.4,1.2c-0.1,0.4-0.4,0.7-0.7,1c-0.2,0.2-0.4,0.3-0.6,0.5
		c-0.2,0.1-0.4,0.3-0.6,0.4c0,0,0-0.1,0.1-0.2c0-0.1,0-0.1,0.1-0.2c-0.3,0.4-0.7,0.6-1.1,0.7c-0.5,0.1-0.9,0.1-1.4,0.2
		c-0.5,0.2-1,0.3-1.6,0.3c-0.6,0-1.1-0.1-1.7-0.1c-0.5,0-1.1,0-1.7,0c-0.6,0-1.1-0.1-1.7-0.4c-0.1,0-0.2-0.1-0.3-0.2
		c-0.1-0.1-0.1-0.2-0.2-0.3c-0.1,0-0.2,0-0.4,0c-0.1-0.3-0.1-0.6-0.1-0.9c0-0.3,0.1-0.6,0.2-0.9c0-0.3-0.1-0.5-0.1-0.7
		c0-0.2,0-0.5-0.1-0.7c-0.1-0.4-0.1-0.7,0-1c0.1-0.3,0.1-0.7,0.1-1c0-0.3,0-0.5,0.1-0.7c0.1-0.2,0.2-0.5,0.1-0.7
		c0-0.2-0.1-0.3-0.1-0.5c-0.1-0.1-0.1-0.3-0.2-0.4c0,0,0.1,0,0.1,0c0,0,0.1,0,0.1,0c-0.1,0-0.2-0.1-0.3-0.2c0.1,0,0.2-0.1,0.2-0.2
		c0-0.1-0.1-0.2-0.1-0.2c0,0-0.1,0-0.1,0c0,0-0.1,0-0.1,0.1c0-0.3,0-0.7-0.1-1c0-0.4,0-0.7,0-1.1c0-0.2,0.1-0.4,0.2-0.6
		c0.1-0.2,0.2-0.4,0.1-0.6c-0.1-0.2-0.2-0.5-0.2-0.9c0-1,0-1.9,0-2.9c0-1,0-1.9,0.1-2.9c0.1-0.5,0.1-1.1,0.1-1.6
		c0-0.5-0.1-1.1-0.1-1.6c-0.1-0.8-0.1-1.6,0.1-2.3c0-0.1,0.1-0.2,0.2-0.3c0.1-0.1,0.2-0.2,0.2-0.3c0-0.1-0.1-0.2-0.1-0.4
		C47.4,849.6,47.4,849.5,47.6,849.4z M49.6,871.2c0.1,0.1,0.3,0.2,0.4,0.3c0.1,0.1,0.3,0.2,0.5,0.2c0.1,0,0.2,0,0.4-0.1
		c0.1,0,0.3-0.1,0.4-0.1c0,0,0,0,0-0.1c0,0,0-0.1,0-0.1c-0.2-0.1-0.4-0.2-0.6-0.4c-0.2-0.1-0.4-0.2-0.6-0.4
		c-0.1,0.1-0.1,0.2-0.2,0.3C49.8,871,49.7,871.1,49.6,871.2z M50.3,868.1c0,0.2,0,0.4,0.1,0.5c0.1,0.2,0.2,0.3,0.3,0.4
		c0.1-0.1,0.3-0.1,0.4-0.1c0.2,0.1,0.3,0.1,0.4,0.2c-0.1-0.3-0.3-0.5-0.4-0.6c-0.1-0.1-0.2-0.2-0.3-0.3c-0.1-0.1-0.1-0.3-0.2-0.4
		c-0.1,0-0.1,0-0.2,0.1C50.4,868,50.3,868,50.3,868.1z M52.4,853.4c-0.1,0.3-0.2,0.5-0.2,0.8c0,0.3,0,0.6-0.1,0.8
		c0,1.2,0,2.5-0.1,3.7c-0.1,0-0.2,0-0.3,0.1c-0.1,0-0.2,0.1-0.2,0.2c-0.1,0.2-0.2,0.4-0.1,0.6c0,0.2,0.1,0.4,0.1,0.6
		c0.1,0,0.2,0,0.4,0c0.1,0,0.3,0,0.4,0c0.1,0,0.2-0.1,0.3-0.1c0.1-0.1,0.2-0.1,0.2-0.2c0.1,0,0.2,0,0.4,0.1c0.1,0,0.2,0,0.4,0
		c0.2-0.1,0.4-0.3,0.6-0.4c0.2-0.1,0.3-0.3,0.4-0.6c0.1-0.2,0.1-0.3,0.1-0.5c0-0.2,0-0.3,0-0.5c0-0.5,0-1,0-1.5c0-0.5,0-1-0.1-1.4
		c0-0.2-0.1-0.3-0.1-0.5c0-0.2-0.1-0.3-0.2-0.4c-0.3-0.3-0.6-0.4-0.9-0.5C53.1,853.5,52.7,853.5,52.4,853.4z M52.9,864.2
		c-0.3,0-0.5,0.2-0.6,0.4c-0.1,0.2-0.2,0.4-0.2,0.7c0.1,0.4,0.1,0.8,0,1.3c-0.1,0.4-0.1,0.8-0.1,1.3c0,0.3,0,0.7,0,1
		c0,0.3,0,0.7,0,1c0,0.2,0,0.4-0.1,0.6c0,0.2,0,0.4,0.1,0.6c0,0.1,0.1,0.2,0.2,0.4c0.1,0.1,0.2,0.2,0.3,0.3c0.3,0,0.6,0.1,0.9,0.1
		c0.3,0,0.6,0,0.9,0c0.2-0.3,0.3-0.5,0.4-0.8c0.1-0.3,0.2-0.6,0.3-0.8c0.2,0.1,0.3,0.2,0.5,0.1c0.2,0,0.3-0.1,0.4-0.2
		c0-0.1-0.1-0.2-0.1-0.3c0-0.1,0-0.2,0-0.3c0.1-0.2,0.1-0.5,0.1-0.7c0-0.3-0.1-0.5-0.3-0.6c-0.1,0.2-0.2,0.4-0.2,0.6
		c-0.1,0.2-0.1,0.4,0,0.6h-0.3c0-0.3-0.1-0.6-0.1-0.9s0-0.6,0-0.9c0,0,0.1-0.1,0.2-0.1c0.1,0,0.1-0.1,0.2-0.1c0-0.2-0.1-0.4-0.2-0.5
		c-0.1-0.2-0.2-0.3-0.2-0.5c0-0.3-0.1-0.5-0.2-0.7c-0.1-0.2-0.2-0.5-0.3-0.7c-0.2-0.2-0.4-0.3-0.7-0.4
		C53.4,864.1,53.1,864.1,52.9,864.2z M52.3,860.8c0,0,0,0.1,0,0.1c0,0,0,0.1,0,0.1c0,0,0.1-0.1,0.2-0.1c0.1,0,0.1-0.1,0.2-0.1H52.3z
		 M54.2,863.5c0,0.1,0,0.1,0.1,0.2c0,0.1,0,0.1,0.1,0.2c0.1,0,0.2-0.1,0.3-0.1c0.1,0,0.2-0.1,0.3-0.1
		C54.7,863.5,54.4,863.4,54.2,863.5z M55,853.1c0,0,0,0.1,0,0.2c0,0.1,0,0.2,0,0.2l0.2-0.1c0.2,0.4,0.4,0.8,0.4,1.3
		c0,0.5,0.2,0.9,0.5,1.3c0-0.1,0-0.2,0-0.2c0.1,0,0.1,0.1,0.2,0.2c0.1,0.1,0.1,0.1,0.2,0.2c0-0.1-0.1-0.2-0.1-0.4
		c0-0.1-0.1-0.2-0.1-0.4c0.1,0,0.2,0.1,0.2,0.1c0.1,0,0.1,0.1,0.2,0.1c0,0-0.1,0.1-0.1,0.1c0,0,0,0.1-0.1,0.1
		c0.4-0.1,0.7-0.2,0.9-0.4c0-0.1-0.1-0.3-0.1-0.4c0-0.1,0-0.3,0-0.5c-0.2,0.1-0.4,0.2-0.7,0.1c-0.2,0-0.4-0.2-0.5-0.4
		c0,0,0.2,0,0.4,0.1c0-0.2,0.1-0.3,0.1-0.3c-0.1,0-0.2,0.1-0.3,0.1C55.9,853.8,55.5,853.4,55,853.1z M55.2,867c0,0.4,0,0.7,0.1,1
		c0.1-0.1,0.2-0.3,0.2-0.5C55.5,867.3,55.4,867.1,55.2,867z M56.6,856.3c0.1,0.1,0.2,0.2,0.2,0.4c0-0.2,0.1-0.5,0.2-0.6
		c-0.1,0-0.2,0.1-0.2,0.1C56.8,856.2,56.7,856.3,56.6,856.3z M57,853.4c0,0.2,0,0.3-0.1,0.5c-0.1,0.1-0.1,0.3-0.2,0.4
		c0.1,0,0.1,0.1,0.2,0.1c0.1,0,0.2,0.1,0.2,0.1c0-0.2,0-0.4,0-0.6c0-0.2,0-0.4-0.1-0.6C57.1,853.3,57.1,853.3,57,853.4z M56.9,851.5
		c0,0.2,0,0.4,0,0.6c0,0.2,0.1,0.4,0.2,0.6c0.2-0.2,0.4-0.2,0.6-0.1c0.2,0.1,0.4,0.3,0.5,0.4c0,0,0.1,0,0.1,0c0,0,0.1,0,0.1,0
		c0-0.2,0-0.4-0.1-0.6c0-0.2-0.1-0.3-0.2-0.4c-0.1-0.2-0.3-0.3-0.6-0.3C57.3,851.6,57.1,851.5,56.9,851.5z M57.2,856.3
		c-0.1,0-0.1,0-0.1,0.1c0,0.1,0,0.1,0.1,0.1c0,0,0.1,0,0.1-0.1C57.3,856.4,57.3,856.3,57.2,856.3z M57.2,857.6
		c0,0.2,0.1,0.4,0.1,0.5c0.1,0,0.1-0.1,0.2-0.1s0.1,0,0.2-0.1c-0.1-0.1-0.2-0.2-0.2-0.2C57.4,857.7,57.3,857.6,57.2,857.6z
		 M57.7,855.5c-0.1,0-0.1,0.1-0.1,0.2c0,0.1,0.1,0.1,0.1,0.1c0.1,0,0.1-0.1,0.1-0.1C57.8,855.5,57.7,855.5,57.7,855.5z M57.8,851
		C57.7,851,57.7,851,57.8,851c-0.1,0.1,0,0.2,0,0.2C57.8,851.2,57.9,851.1,57.8,851C57.9,851,57.8,851,57.8,851z M57.8,857.8
		c0,0.1,0.1,0.3,0.1,0.4c0,0.1,0,0.3,0.1,0.5c0,0,0.1,0,0.1,0c0,0,0.1,0,0.1,0c0-0.1,0-0.3,0-0.5s0-0.3,0-0.5c-0.1,0-0.2,0-0.2,0.1
		C58,857.8,57.9,857.8,57.8,857.8z M58,868.8c0,0.1,0,0.1-0.1,0.2c0,0.1,0,0.1-0.1,0.2c0,0,0.1,0,0.1,0c0,0,0.1,0,0.1,0
		c0-0.1,0-0.2,0.1-0.4C58.1,868.8,58,868.8,58,868.8z M58.3,869.5c-0.1,0-0.1,0.1-0.1,0.2c0,0.1,0.1,0.1,0.1,0.1
		c0.1,0,0.1-0.1,0.1-0.2S58.4,869.5,58.3,869.5z M58.5,868.4C58.5,868.5,58.5,868.5,58.5,868.4c0,0.1,0,0.1,0,0.1
		c0,0.1,0,0.1,0.1,0.1c0,0,0.1,0,0.1-0.1c0,0,0-0.1,0-0.1C58.6,868.4,58.6,868.4,58.5,868.4z M58.5,866.3c0,0.2,0.1,0.4,0.1,0.6
		c0,0.2,0.2,0.4,0.4,0.4c0-0.3,0-0.5,0-0.6c0-0.1-0.1-0.2-0.2-0.3C58.7,866.4,58.6,866.3,58.5,866.3z"/>
	<path class="st0" d="M61.9,849.5c0-0.2,0.2-0.3,0.4-0.3c0.2,0,0.4,0,0.5,0c0.2,0,0.4,0.1,0.6,0.2c0.2,0.1,0.4,0.1,0.6,0.2
		c0,0.1,0,0.3,0,0.5c0-0.1,0-0.1,0-0.2c0,0,0.1-0.1,0.1-0.1c0.1,0.1,0.2,0.3,0.2,0.4c0.1,0.1,0.2,0.2,0.4,0.3
		c0.1-0.2,0.2-0.3,0.3-0.4c0.1-0.1,0.3-0.2,0.4-0.3c-0.1,0-0.2,0-0.3,0.1c-0.1,0-0.2,0-0.3,0.1c-0.1-0.1-0.2-0.2-0.3-0.3
		c-0.1-0.1-0.2-0.2-0.2-0.4c0.2,0,0.4,0,0.5,0c0.1,0.1,0.3,0.1,0.4,0.2c0.1,0.1,0.2,0.2,0.4,0.4c0.1,0.1,0.2,0.3,0.3,0.4
		c0,0,0-0.1,0-0.2c0-0.1,0-0.1,0-0.2c0,0,0.1,0,0.1,0.1c0,0,0,0,0.1,0.1c0,0.3,0,0.6,0.2,0.9c0.2,0.3,0.3,0.6,0.3,0.9
		c0,0.4,0.1,0.8,0,1.1c0,0.4-0.1,0.7-0.1,1.1c0,0.4-0.1,0.8-0.1,1.2c0,0.4,0,0.8,0,1.2c0,0.3,0,0.6-0.1,0.9c0,0.3-0.1,0.6-0.1,0.9
		c0,0.3,0,0.6,0.1,0.9c0,0.3,0.1,0.6,0.1,0.9c0,0.4,0,0.8-0.1,1.2c-0.1,0.4-0.1,0.7,0,1.1c0,0.2,0,0.4,0.1,0.7
		c0.1,0.2,0.1,0.5,0,0.7c0,0.6,0,1.2,0,1.9c0.1,0.6,0,1.2-0.1,1.8c0,0.4,0.1,0.7,0.2,1.1c0.1,0.4,0.1,0.7,0,1.1
		c-0.1,0.6-0.1,1.1-0.1,1.7c0.1,0.6,0.1,1.1-0.1,1.7c0,0.3-0.1,0.6-0.1,0.9c0,0.3,0,0.6-0.1,0.9c-0.3,0.5-0.7,0.7-1.2,0.6
		c-0.4,0-0.7-0.1-1.1,0c-0.3,0-0.7,0-1-0.1c-0.2-0.2-0.5-0.3-0.7-0.5c-0.2-0.2-0.4-0.4-0.6-0.7c-0.1-0.4-0.1-0.8-0.1-1.2
		c0-0.4,0.1-0.8,0.1-1.2c0-0.3,0-0.7-0.1-1c-0.1-0.3-0.1-0.6-0.1-1c0-0.3,0-0.5,0-0.7c0-0.2,0-0.5,0-0.7c0-0.5,0.1-1,0-1.5
		c0-0.5,0-1,0-1.5c0-0.3,0-0.7,0-1c0-0.3,0-0.6-0.1-1c0-0.3,0-0.7,0-1c0-0.3,0-0.6,0.1-1c0.1-0.2,0.1-0.5,0.1-0.7c0-0.2,0-0.5,0-0.7
		c0.1-0.4,0.1-0.7,0-1.1c-0.1-0.3-0.1-0.7-0.2-1c0-0.3,0-0.5,0-0.8c0-0.3,0.1-0.5,0.4-0.7c0,0-0.1,0-0.2,0c0.1-0.1,0.2-0.2,0.2-0.3
		c0.1-0.1,0.1-0.2,0.2-0.2c-0.1,0-0.1,0-0.2,0c0,0-0.1,0-0.2,0c0-0.3,0-0.6,0.1-0.8c0.1-0.3,0.1-0.5,0-0.8c0-0.5-0.1-1-0.1-1.5
		c-0.1-0.5,0-1,0.1-1.5c0-0.3,0.1-0.7,0.1-1C61.8,850.1,61.8,849.8,61.9,849.5z M61.9,869.1c-0.1,0-0.1,0.1-0.1,0.1
		c0,0.1,0.1,0.1,0.1,0.1c0.1,0,0.1-0.1,0.1-0.1C62,869.1,61.9,869.1,61.9,869.1z M61.9,860.6c-0.1,0-0.1,0-0.1,0.1
		c0,0.1,0,0.1,0.1,0.1c0.1,0,0.1,0,0.1-0.1C62.1,860.7,62,860.6,61.9,860.6z M62.1,868.3c-0.1,0-0.1,0-0.1,0.1c0,0.1,0,0.1,0.1,0.1
		C62.1,868.5,62.2,868.4,62.1,868.3C62.2,868.3,62.2,868.3,62.1,868.3z M62.1,872.7v0.4c0-0.1,0.1-0.2,0.1-0.2
		c0-0.1,0.1-0.1,0.1-0.2C62.3,872.7,62.2,872.7,62.1,872.7z M62.5,870.1c0,0.2-0.1,0.3-0.1,0.5c0,0.2,0,0.3,0,0.5
		c0,0.1,0.1,0.2,0.1,0.3c0.1,0.1,0.1,0.2,0.2,0.2c0-0.3,0-0.5-0.1-0.8C62.7,870.6,62.6,870.3,62.5,870.1z M63,874.8
		c-0.1,0-0.1,0-0.1,0.1c0,0.1,0,0.1,0.1,0.1C63,875,63.1,875,63,874.8C63.1,874.9,63,874.8,63,874.8z M63.9,873.3
		c-0.1,0.1-0.1,0.2-0.1,0.3c0.1,0,0.2,0,0.3-0.1v-0.2C63.9,873.3,63.9,873.3,63.9,873.3z M63.8,874.7c0,0.1,0,0.2,0.1,0.1
		C64,874.7,64,874.7,63.8,874.7z M64.1,870.4c0,0.2,0.1,0.5,0,0.7c0,0.2,0,0.5-0.1,0.7c0.1-0.1,0.2-0.1,0.3-0.2
		c0.1-0.1,0.1-0.2,0.2-0.3c0-0.2,0.1-0.3,0.1-0.5c0-0.2,0-0.3-0.1-0.5c-0.1,0-0.2,0-0.2,0C64.2,870.4,64.1,870.4,64.1,870.4z
		 M64.6,874.3c-0.1,0-0.1,0.1-0.1,0.1c0,0.1,0.1,0.1,0.1,0.1C64.7,874.5,64.7,874.4,64.6,874.3C64.7,874.3,64.7,874.3,64.6,874.3z
		 M65.6,869.3c-0.1,0.6-0.1,1.2,0.2,1.8c0.1-0.3,0.2-0.6,0.2-1C66.1,869.8,65.9,869.5,65.6,869.3z M65.6,872.8
		c0.2,0,0.3,0.1,0.4,0.1c0-0.1,0-0.2,0.1-0.3c-0.1,0-0.1,0.1-0.2,0.1S65.6,872.8,65.6,872.8z"/>
	<path class="st0" d="M69.5,849.5c0.4,0,0.8-0.1,1.2-0.2c0.4-0.1,0.8-0.1,1.2,0c0.2,0.1,0.4,0.2,0.6,0.4c0.1,0.2,0.2,0.4,0.3,0.6
		c-0.1,0.3-0.1,0.6,0,0.8c0.1,0.3,0.2,0.5,0.3,0.8c0.1,0.2,0.1,0.4,0.1,0.6c0,0.2,0,0.4-0.1,0.5c-0.1,0.2-0.1,0.4-0.1,0.5
		c0,0.2,0,0.4,0,0.6c0,0.1,0.1,0.3,0.2,0.4c0.1,0.1,0.2,0.3,0.3,0.4c-0.1,0.2-0.2,0.3-0.3,0.5c-0.1,0.2-0.1,0.4,0,0.6
		c0,0.2,0.1,0.4,0.1,0.5c0.1,0.2,0.2,0.3,0.2,0.5c0.1,0.2,0.2,0.3,0.2,0.5c0.1,0.2,0.1,0.3,0.1,0.5c0,0.3-0.1,0.6-0.1,0.9
		c0,0.3,0.1,0.6,0.1,0.9c-0.1,0-0.2,0-0.4,0c-0.1,0-0.2,0-0.4-0.1c-0.1,0-0.2-0.1-0.3-0.2c-0.1-0.1-0.2-0.1-0.3-0.2
		c0,0.3,0,0.5,0.1,0.7c0.1,0.2,0.1,0.5,0.2,0.7c0.1,0.2,0.2,0.5,0.2,0.7c0,0.2,0.1,0.5,0.2,0.7c0.2,0.2,0.4,0.3,0.7,0.4
		c0.3,0.1,0.5,0.3,0.6,0.5c0.1,0.1,0.2,0.2,0.3,0.4c0.1,0.1,0.3,0.2,0.4,0.2c0,0-0.1,0.1-0.1,0.2c0,0.1-0.1,0.1-0.1,0.2
		c0.1-0.1,0.2-0.1,0.3-0.2c0.1-0.1,0.2-0.2,0.3-0.3c0.1-0.3,0.2-0.6,0.2-0.9c0-0.3,0.1-0.6,0.1-1c0-0.3,0.1-0.7,0.2-1
		c0.1-0.3,0.2-0.6,0.4-0.9c0-0.1,0.1-0.2,0.2-0.3c0.1,0.1,0.3,0.1,0.5,0.1c0-0.1-0.1-0.2-0.1-0.3c0-0.1,0-0.2,0.1-0.3
		c0.1-0.2,0.1-0.4,0.1-0.6c0-0.2,0-0.4,0-0.7c-0.1,0.1-0.1,0.1-0.2,0.2c-0.1,0.1-0.1,0.2-0.2,0.2c0-0.1,0-0.2-0.1-0.3
		c0-0.1,0-0.2-0.1-0.3c0,0,0.1-0.1,0.1-0.1c0,0,0.1-0.1,0.1-0.1c-0.1,0-0.2,0-0.2,0c0.1-0.3,0.2-0.7,0.2-1c0-0.3,0.1-0.7,0.1-1
		c0.1-0.5,0.2-1,0.3-1.5c0.1-0.5,0.1-1,0.3-1.5c0-0.3,0.1-0.7,0.3-1c0.1-0.3,0.2-0.6,0.3-1c0-0.2,0-0.4,0.1-0.5
		c0.1-0.1,0.3-0.3,0.4-0.4c0,0.1,0,0.2,0,0.3c0.1-0.1,0.2-0.2,0.4-0.3c0.1-0.1,0.3-0.1,0.4,0c0.2,0.1,0.3,0.1,0.5,0.1
		c0.2,0,0.3-0.1,0.5-0.2c0.2-0.1,0.3-0.1,0.5-0.1c0.2,0,0.3,0,0.5,0.1c0.3,0,0.6,0.1,0.9,0.3c0.3,0.2,0.4,0.4,0.5,0.7
		c0.1,0.3,0.1,0.5,0,0.7c-0.1,0.2-0.2,0.4-0.2,0.7l-0.2,1.8c-0.1,0.4-0.2,0.7-0.3,1c-0.1,0.3-0.2,0.7-0.2,1c0,0.4-0.1,0.7-0.2,1.1
		c-0.1,0.4-0.2,0.7-0.2,1.1c-0.1,0.6-0.2,1.1-0.3,1.7c-0.1,0.6-0.2,1.1-0.3,1.7c0,0.5-0.1,0.9-0.3,1.4c-0.1,0.4-0.3,0.9-0.4,1.3
		c0,0,0,0,0.1,0c0,0,0,0,0.1,0c-0.2,0.3-0.3,0.7-0.3,1c0,0.4-0.1,0.7-0.2,1.1c-0.1,0.5-0.2,0.9-0.3,1.4c-0.1,0.4-0.2,0.9-0.3,1.4
		c0,0.2-0.1,0.4-0.2,0.6c-0.1,0.2-0.1,0.4-0.1,0.6c0,0.5,0,0.9-0.2,1.3c-0.2,0.4-0.3,0.8-0.4,1.2c-0.1,0.5-0.3,0.9-0.6,1.3
		c-0.2,0.4-0.5,0.8-0.8,1.2c0.1,0,0.1-0.1,0.2-0.1c0.1,0,0.1-0.1,0.2-0.1c-0.1,0.3-0.3,0.5-0.6,0.6c-0.3,0.1-0.5,0.2-0.7,0.4
		c-0.5,0.1-1,0.2-1.5,0.1c-0.5-0.1-1-0.2-1.5-0.2c0-0.4-0.2-0.7-0.6-0.9c0-0.3,0-0.6-0.2-0.9c-0.2-0.3-0.3-0.6-0.3-0.9
		c-0.1-0.2-0.1-0.5-0.1-0.7c0-0.2-0.1-0.5-0.2-0.7c-0.3-0.9-0.6-1.8-0.7-2.7c-0.1-0.9-0.3-1.8-0.5-2.7c-0.2-0.6-0.3-1.2-0.4-1.8
		c-0.1-0.6-0.2-1.2-0.4-1.8c0-0.2-0.1-0.4-0.1-0.6c0-0.2,0-0.4,0.1-0.6c0.1-0.1,0.2-0.1,0.3-0.1c0.1,0,0.2,0,0.3-0.1
		c0,0-0.1,0-0.1-0.1c0,0-0.1,0-0.1-0.1c-0.1,0.1-0.3,0.2-0.6,0.2c0.1-0.1,0.2-0.3,0.3-0.3c0.1-0.1,0.2-0.2,0.3-0.3c0,0,0,0.1,0,0.2
		c0,0.1,0,0.1,0,0.2c0.1-0.4,0-0.8-0.2-1.1c-0.1,0-0.1,0-0.2-0.1c-0.1,0-0.2,0-0.2-0.1c-0.1,0-0.1-0.1-0.2-0.1c0-0.1-0.1-0.1,0-0.3
		c0-0.4-0.1-0.8-0.2-1.2c-0.1-0.4-0.2-0.8-0.2-1.2c0-0.3-0.1-0.6-0.2-0.9c-0.1-0.3-0.2-0.6-0.1-0.9c0-0.2,0-0.5-0.1-0.7
		c-0.1-0.2-0.1-0.4,0.1-0.6c0,0-0.1,0-0.1,0c0,0-0.1,0-0.1,0c0-0.2,0-0.4,0-0.6c0-0.2,0-0.4-0.1-0.6c-0.1-0.1-0.2-0.3-0.2-0.4
		c0-0.1-0.1-0.3-0.1-0.4c0.1,0,0.2,0,0.3-0.1c0.1,0,0.1,0,0.2-0.1c-0.1,0-0.2-0.1-0.2-0.1c0-0.2-0.1-0.5-0.2-0.7
		c-0.1-0.2-0.1-0.5,0-0.7c0.1-0.3,0.3-0.4,0.6-0.4C69.1,849.4,69.3,849.5,69.5,849.5z M68.6,851.7c0,0-0.1,0.1-0.1,0.1
		c0,0.1,0.1,0.1,0.2,0C68.7,851.7,68.7,851.6,68.6,851.7z M68.7,850.5c0.2-0.1,0.4-0.3,0.6-0.6C69,850,68.8,850.2,68.7,850.5z
		 M69,854.3c0.1,0,0.2,0,0.3,0c0.1,0,0.2,0,0.3,0c0,0,0-0.1,0-0.1c0,0,0-0.1,0-0.1c-0.1,0-0.2,0.1-0.3,0.2
		C69.2,854.2,69.1,854.3,69,854.3z M69.4,854.6c0,0-0.1,0.1,0,0.1c0,0,0.1,0,0.1,0c0,0,0-0.1,0-0.1
		C69.5,854.6,69.5,854.6,69.4,854.6z M70.3,854.8c0.1,0.5,0.3,0.9,0.7,1.3c0.3,0.4,0.7,0.7,1.1,1.1c0-0.1-0.1-0.3-0.1-0.4
		c0,0,0.1,0,0.1-0.1c0,0,0.1,0,0.1-0.1c0,0.1,0.1,0.3,0.1,0.5c0,0,0.1,0,0.1-0.1c0,0,0.1,0,0.1-0.1c0-0.1,0-0.2,0-0.2
		c-0.2-0.1-0.4-0.2-0.6-0.3c-0.2-0.1-0.4-0.3-0.5-0.5c-0.2-0.2-0.3-0.4-0.5-0.7C70.8,855,70.6,854.9,70.3,854.8z M72.1,857.4
		c0,0.1,0,0.1,0.1,0.2c0.1,0,0.1,0,0.2,0c0-0.1,0-0.1,0-0.2C72.2,857.3,72.2,857.3,72.1,857.4z M72.5,858c-0.1,0-0.1,0.1-0.1,0.2
		c0,0.1,0.1,0.1,0.2,0.1c0.1,0,0.1-0.1,0.1-0.1C72.6,858.1,72.6,858,72.5,858z M72.9,855.3c0,0-0.1,0.1,0,0.2c0,0.1,0.1,0.1,0.1,0
		c0,0,0.1-0.1,0-0.2C73,855.2,72.9,855.2,72.9,855.3z M73.1,857c0,0-0.1,0-0.1,0.1c0,0.1,0,0.1,0.1,0.1c0,0,0.1,0,0.1-0.1
		C73.2,857,73.2,857,73.1,857z M73.1,859.1v0.1c0.1,0,0.2,0.1,0.3,0.2c0.1,0.1,0.2,0.1,0.3,0.2c0-0.1,0.1-0.2,0.1-0.3
		c0-0.1,0-0.2,0.1-0.3c-0.1,0-0.3,0-0.4,0C73.4,859.1,73.3,859.1,73.1,859.1z M77.2,860.1L77.2,860.1c0,0.2,0,0.2,0.1,0.1
		C77.4,860.1,77.4,860.1,77.2,860.1z M78,856.5c0,0-0.1,0.1,0,0.1c0,0,0.1,0,0.1,0c0,0,0-0.1,0-0.1C78.1,856.4,78,856.4,78,856.5z
		 M78.9,851.3c-0.1,0.2-0.2,0.3-0.2,0.6c0,0.2,0,0.4-0.1,0.6c0.1,0,0.2,0.1,0.4,0.1c0.1,0,0.3,0.1,0.4,0.1c0.1-0.2,0.2-0.3,0.4-0.5
		c0.1-0.2,0.3-0.4,0.4-0.6c0,0.1,0,0.2,0,0.3c0,0.1,0,0.2,0,0.3c0.1-0.1,0.2-0.2,0.4-0.3c0,0.1,0.1,0.2,0.2,0.3
		c0.1,0.1,0.2,0.2,0.4,0.1c0.1,0,0.2-0.1,0.2-0.2c0-0.1,0.1-0.2,0.1-0.2c0.1-0.2,0.2-0.4,0.3-0.6c0.1-0.2,0.1-0.4,0-0.7
		c-0.2,0-0.4,0.1-0.5,0.1c-0.2,0-0.3,0-0.5,0c-0.3-0.1-0.7,0-1,0.1C79.4,850.8,79.2,851,78.9,851.3z M78.9,863.7
		c0,0.1,0,0.2,0.1,0.1C79.1,863.7,79.1,863.7,78.9,863.7z M80,852.6c0-0.1,0.1-0.2,0.2-0.3c0.1-0.1,0.2-0.2,0.2-0.2
		c-0.1,0.1-0.1,0.1-0.2,0.2C80.1,852.5,80,852.6,80,852.6z M80.2,854.6c0.1-0.1,0.2-0.1,0.4-0.2c0.1,0,0.2-0.1,0.3-0.2
		c-0.1-0.1-0.3-0.1-0.5,0C80.2,854.3,80.1,854.4,80.2,854.6z M81.1,854.3c-0.1,0.2-0.2,0.3-0.2,0.5c0,0.2,0,0.3-0.1,0.5
		c0.2,0,0.3,0.1,0.5,0.2c0.2-0.3,0.3-0.5,0.3-0.8c0-0.3-0.1-0.6-0.2-0.8c0,0-0.1,0.1-0.2,0.2C81.2,854.2,81.1,854.2,81.1,854.3z"/>
	<path class="st0" d="M91.6,849.1c0.5,0,0.9,0,1.4-0.1c0.5,0,0.9,0,1.4,0.2c0.2,0,0.4,0.1,0.7,0.2c0.2,0.1,0.4,0.2,0.5,0.4
		c0,0.1,0.1,0.2,0.2,0.4c0.1,0,0.3-0.1,0.5-0.1c0,0.1,0,0.2,0,0.3c0,0.1,0,0.2,0.1,0.3c0.4,0.5,0.7,1,1.2,1.4
		c0.1,0.3,0.2,0.5,0.3,0.8c0.1,0.3,0.2,0.5,0.4,0.8c0,0.2,0,0.4,0,0.6c0,0.2-0.1,0.4-0.1,0.6c0,0.1,0.1,0.2,0.2,0.2
		c0.1,0,0.1,0.1,0.2,0.2c0,0.1-0.1,0.2-0.1,0.2c0,0.2,0.1,0.4,0.1,0.5c0,0.2,0.1,0.3,0.1,0.5c0,0.1,0,0.2,0,0.4
		c-0.1,0.1-0.1,0.2-0.1,0.4c-0.1,0.5-0.1,1.1,0.1,1.6c0.1,0.5,0.2,1.1,0.3,1.6c0,0.3,0,0.7-0.2,1c-0.1,0.3-0.1,0.6,0,1
		c0.1,0.4,0.2,0.7,0.1,1.1c0,0.4-0.1,0.7-0.1,1.1c0,0-0.1,0-0.2,0.1c-0.1,0-0.1,0-0.2,0.1c0-0.1,0-0.2,0.1-0.4c0-0.1,0-0.2-0.1-0.4
		c0,0.4-0.1,0.7,0,1.1c0,0.4,0.1,0.7,0.2,1c0.1,0.5,0.1,1.1,0.1,1.7c0,0.6,0,1.1,0,1.7c0,0.9-0.2,1.8-0.5,2.7
		c-0.2,0.4-0.5,0.8-0.7,1.1c-0.3,0.4-0.6,0.7-0.9,1.1c-0.1,0.1-0.3,0.3-0.4,0.3c-0.2,0.1-0.3,0.2-0.5,0.3c-0.2,0.1-0.4,0.2-0.6,0.3
		c-0.2,0.1-0.4,0.2-0.7,0.2c-0.2,0-0.4,0-0.5,0c-0.2,0-0.3,0-0.5,0c-0.1,0.1-0.2,0.2-0.2,0.4c-0.3-0.1-0.6-0.2-0.9-0.2
		c0,0-0.1,0.1-0.2,0.1c-0.1,0-0.1,0-0.2,0.1c-0.1,0-0.1-0.1-0.2-0.1c0,0,0,0.1,0,0.1s0,0,0,0.1c-0.4,0-0.8,0-1.1-0.1
		c-0.3-0.1-0.7-0.3-1.1-0.4c-0.2-0.1-0.4-0.2-0.5-0.3c-0.1-0.1-0.3-0.2-0.5-0.3c-0.4-0.2-0.7-0.4-0.9-0.8c-0.2-0.3-0.4-0.5-0.6-0.6
		c-0.2-0.2-0.4-0.4-0.5-0.7c0-0.2,0.1-0.4,0.2-0.5c0.1-0.1,0.3-0.3,0.4-0.4c0,0-0.1-0.1-0.1-0.1c0,0-0.1,0-0.1-0.1
		c-0.1,0.1-0.1,0.2-0.2,0.3c-0.1,0.1-0.1,0.2-0.2,0.3c-0.2-0.4-0.3-0.8-0.3-1.2c0.1-0.2,0.2-0.4,0.4-0.6c0,0.1,0,0.2,0,0.2
		c0,0,0.1,0,0.1-0.1c0,0,0.1,0,0.1-0.1c0,0-0.1-0.1-0.1-0.2c0-0.1-0.1-0.1-0.1-0.2c0.1,0,0.3-0.1,0.4-0.1c0.2,0,0.2-0.2,0.1-0.4
		c-0.1-0.1-0.2-0.3-0.3-0.3c-0.1-0.1-0.2-0.2-0.4-0.2c-0.1-0.1-0.2-0.2-0.4-0.2c-0.1-0.1-0.2-0.2-0.2-0.3c-0.1-0.2-0.1-0.4-0.1-0.6
		c0-0.2,0-0.4,0-0.6c0-0.5,0-1-0.1-1.6c0-0.5,0.1-1,0.2-1.5c0.1-0.2,0.1-0.4,0-0.6c-0.1-0.2-0.1-0.4-0.2-0.6c0-0.3,0-0.5,0-0.7
		c0.1-0.2,0.1-0.4,0.1-0.7c0-0.5-0.1-0.9-0.1-1.3c0-0.4,0-0.9-0.1-1.3c0.1-0.4,0.1-0.7,0.1-1c0-0.3,0-0.7,0-1c0-0.2,0-0.5,0-0.7
		c0-0.2,0-0.5,0-0.7c0-0.3,0.1-0.5,0.3-0.6c0.2-0.1,0.4-0.3,0.5-0.5c0,0.4,0.1,0.8,0,1.2c0,0.4,0.1,0.7,0.3,1
		c0.1-0.1,0.2-0.2,0.3-0.4c0.1-0.1,0.1-0.3,0.2-0.4c-0.1-0.2-0.2-0.4-0.3-0.6c-0.1-0.2-0.2-0.4-0.3-0.5c0.1-0.2,0.2-0.4,0.3-0.5
		c0.1-0.2,0.2-0.3,0.3-0.4c0.1-0.1,0.1-0.3,0.1-0.4c-0.1-0.2-0.1-0.3-0.3-0.3c0.3,0,0.5-0.2,0.5-0.4c0.1-0.2,0.1-0.5,0.1-0.7
		c0-0.2,0.1-0.4,0.2-0.5c0.1-0.1,0.3-0.3,0.5-0.4c0.1-0.1,0.2-0.1,0.3-0.1c0.1,0.1,0.2,0.1,0.3,0.2c0-0.1,0-0.3,0.1-0.4
		c0-0.1,0.1-0.3,0.2-0.4c0.1-0.1,0.2-0.2,0.3-0.3c0.1-0.1,0.3-0.1,0.4-0.2c0,0.1-0.1,0.3-0.1,0.4c0.2,0,0.4,0.1,0.6,0.2
		c0.2,0.1,0.4,0.1,0.6,0.1c0-0.2,0.1-0.4,0.1-0.6C91.3,849.4,91.4,849.2,91.6,849.1z M85.9,865.6C85.9,865.6,85.8,865.6,85.9,865.6
		c0,0.2,0,0.2,0.1,0.1C86,865.6,86,865.5,85.9,865.6z M87,856.3c-0.1,0-0.1,0.1-0.1,0.1c0,0.1,0.1,0.1,0.1,0.1
		c0.1,0,0.1-0.1,0.1-0.2S87,856.3,87,856.3z M87.3,852.9c0.1,0,0.1,0.1,0.1,0.2c-0.1,0.1-0.1,0.1-0.2-0.1
		C87.2,853,87.3,853,87.3,852.9C87.3,853,87.3,853,87.3,852.9z M87.4,872.6c0,0.1,0,0.2,0,0.3s0,0.2,0,0.3c0,0,0.1,0,0.2,0.1
		s0.1,0,0.2,0.1c0-0.1,0.1-0.2,0.2-0.4c-0.1,0-0.2-0.1-0.3-0.2C87.6,872.7,87.5,872.7,87.4,872.6z M88.3,853.4
		c0,0.1,0.1,0.2,0.1,0.3c0,0.1,0.1,0.2,0.1,0.3c0-0.3,0-0.5,0.1-0.8c0,0-0.1,0.1-0.2,0.1C88.5,853.3,88.4,853.3,88.3,853.4z
		 M88.6,869c0.1,0.3,0.2,0.5,0.5,0.6c0-0.2-0.1-0.5-0.2-0.7C88.8,868.9,88.7,868.9,88.6,869z M88.8,850c0.1,0,0.1,0,0.2,0
		c0,0.1,0,0.1-0.1,0.1c-0.1,0-0.1,0-0.1,0C88.7,850.1,88.7,850,88.8,850z M89.6,850c0,0-0.1,0.1,0,0.1c0,0,0.1,0,0.1,0
		c0,0,0.1-0.1,0-0.1C89.7,849.9,89.6,849.9,89.6,850z M89.9,861.9c0,0,0,0.1,0,0.1c0,0,0,0.1,0,0.1c0,0,0.1,0,0.2-0.1
		c0.1,0,0.2,0,0.2-0.1c0,0-0.1-0.1-0.2-0.1C90,861.9,90,861.9,89.9,861.9z M90.8,853.3c0,0-0.1-0.1-0.1-0.1c0,0-0.1-0.1-0.1-0.1
		c0,0.1,0,0.2,0,0.4c0,0.1,0,0.2,0,0.4c0,0.2,0,0.4-0.1,0.5c-0.1,0.2-0.2,0.3-0.2,0.5c0.1,0,0.1-0.1,0.2-0.2
		c0.1-0.1,0.2-0.1,0.3-0.2c0,0.2-0.1,0.5-0.1,0.7c0,0.2-0.1,0.4-0.1,0.7c0,0.9,0,1.7,0,2.5s0,1.7,0,2.5c0,0.3,0,0.7,0.1,1
		c0.1,0.4,0.1,0.7,0,1.1c0,0-0.1,0-0.1,0.1c0,0-0.1,0-0.1,0.1c-0.1-0.1-0.2-0.2-0.3-0.3c-0.1-0.1-0.2-0.2-0.4-0.3
		c0,0.5,0.1,0.9,0.2,1.4c0.1,0.5,0.2,0.9,0.1,1.4c0,0,0,0,0.1,0c0,0,0.1,0,0.1,0c0,0,0-0.1,0-0.2c0-0.1,0-0.2,0-0.2h0.4
		c0,0.1-0.1,0.2-0.2,0.4c-0.1,0.1-0.2,0.2-0.2,0.4c-0.1,0.1-0.1,0.2-0.1,0.4c0,0.1,0,0.3,0.2,0.4l0.2-0.6c0.1,0.4,0,0.7-0.1,1.2
		c0,0.1,0,0.1,0,0.2c0.1,0.1,0.1,0.2,0.2,0.2c0.2,0.4,0.3,0.8,0.2,1.3c-0.1,0.5-0.1,0.9-0.1,1.4c0.1,0.3,0.3,0.6,0.5,0.9
		c0.2,0.2,0.4,0.5,0.6,0.8v0.3c0.2-0.2,0.5-0.3,0.7-0.4c0.3-0.1,0.5-0.2,0.7-0.5c0.1-0.1,0.3-0.2,0.4-0.3c0.1-0.1,0.3-0.2,0.4-0.3
		h-0.1c0-0.3,0-0.6-0.1-0.8c-0.1-0.3-0.1-0.5,0-0.8c0-0.1,0.1-0.3,0.2-0.5c0.1-0.2,0.1-0.3,0-0.5c0,0,0.1-0.1,0.1-0.3
		c-0.1,0.1-0.2,0.2-0.3,0.2c0-0.3,0-0.6,0.1-0.9c0.1-0.3,0.2-0.5,0.4-0.8l-0.2-0.1c0-0.4,0-0.7-0.1-1.1c0-0.4-0.1-0.7-0.1-1.1
		c0.1,0,0.2,0,0.3,0.1c0.1,0,0.2,0,0.3,0c0,0.1-0.1,0.3-0.2,0.4c-0.1,0.1-0.1,0.3-0.2,0.5c0.2-0.2,0.3-0.5,0.4-0.7
		c0.1,0,0.2,0.1,0.3,0.1c0.1,0,0.2,0.1,0.2,0.2c0.1,0.3,0.2,0.5,0.2,0.8c0,0.3,0,0.6,0.1,0.9c0,0.2,0.1,0.4,0.1,0.6
		c0,0.2,0.1,0.4,0.3,0.5c0-0.1,0.1-0.2,0.1-0.3c0-0.1,0.1-0.2,0.1-0.3c0,0,0.1,0,0.2,0c0.1,0,0.1,0,0.2,0c0.1-0.2,0.1-0.4,0.1-0.6
		c-0.1-0.5-0.3-1-0.6-1.5c-0.3-0.5-0.5-0.9-0.7-1.4c-0.1-0.2-0.2-0.3-0.2-0.5c0-0.2-0.1-0.3-0.2-0.4c-0.2,0-0.3,0-0.4,0.1
		c-0.1,0.1-0.2,0.2-0.3,0.3c-0.2-0.7-0.2-1.3-0.1-2c0.1-0.7,0.1-1.3,0.1-1.9c0-0.5,0-0.9-0.1-1.4c0-0.5,0.1-0.9,0.3-1.3h-0.2
		c0,0,0.1-0.1,0.1-0.2c0-0.1,0-0.1,0.1-0.2c-0.1,0-0.1,0-0.1,0c0.1-0.2,0.1-0.5,0.1-0.7c0-0.2-0.1-0.4-0.1-0.6c0-0.1,0-0.2,0-0.3
		c0-0.1,0-0.2-0.1-0.2c-0.3-0.2-0.6-0.3-0.9-0.5c-0.3-0.1-0.6-0.3-0.8-0.6c-0.2-0.2-0.5-0.3-0.7-0.2C91,852.8,90.8,853,90.8,853.3z
		 M90.1,855.7c0,0-0.1,0-0.2,0c-0.1,0-0.1,0.1-0.1,0.1c0,0,0.1,0,0.2,0C90.2,855.8,90.2,855.8,90.1,855.7z M90.1,863.6
		c0.1,0,0.2,0,0.3-0.1c0.1,0,0.2,0,0.3-0.1c0,0,0,0.1-0.1,0.3C90.4,863.7,90.3,863.6,90.1,863.6z M90.3,874.8c0,0-0.1,0.1-0.1,0.1
		c0,0.1,0,0.1,0.1,0.1c0.1,0,0.1,0,0.1-0.1S90.4,874.8,90.3,874.8z M90.2,863.7h0.4c-0.1,0.2-0.1,0.3,0,0.5c0,0.2,0.1,0.3,0.2,0.4
		c0,0-0.1,0-0.2,0c-0.1,0-0.1,0-0.2,0C90.3,864.3,90.3,864,90.2,863.7z M90.3,849.5c0.1,0,0.2-0.1,0.3-0.1c0.1,0,0.2-0.1,0.3-0.1
		c0,0,0,0.1,0.1,0.1c0,0,0,0.1,0.1,0.1c-0.1,0-0.3,0.1-0.4,0.1c-0.1,0-0.3,0-0.4,0.1V849.5z M90.7,875.1c0.1,0,0.2-0.1,0.3-0.1
		c0.1,0,0.2-0.1,0.3-0.1C91.1,874.8,90.9,874.9,90.7,875.1z M92.4,852.7c0.2,0.2,0.4,0.3,0.7,0.2c-0.1,0-0.2-0.1-0.3-0.1
		C92.7,852.7,92.6,852.7,92.4,852.7z M94,868.9c0,0-0.1,0.1,0,0.2c0,0.1,0.1,0.1,0.1,0c0,0,0.1-0.1,0-0.2
		C94.1,868.9,94,868.9,94,868.9z M94,863.1c0.1,0,0.1,0,0.1,0.1c0,0.1,0,0.1-0.1,0.1c-0.1,0-0.1,0-0.1-0.1
		C94,863.2,94,863.1,94,863.1z M95.6,856.7c0.1,0.3,0.2,0.5,0.3,0.8c0.1,0.3,0.2,0.5,0.4,0.7c0.1-0.2,0.1-0.5-0.1-0.7
		c-0.1-0.2-0.2-0.4-0.3-0.6c0,0,0.1-0.1,0.2-0.1c0.1,0,0.1-0.1,0.2-0.1c-0.1,0-0.2,0-0.3,0C95.8,856.7,95.7,856.7,95.6,856.7z
		 M95.6,867.8c0,0,0.1-0.1,0.2-0.2c0.1-0.1,0.2-0.1,0.2-0.2c-0.1,0.1-0.2,0.1-0.2,0.2C95.7,867.7,95.6,867.7,95.6,867.8z
		 M96.6,857.8c0,0.1,0,0.2,0,0.3c0,0.1,0,0.2-0.1,0.4c0.1,0,0.2,0,0.2,0c0,0.1-0.1,0.2-0.1,0.3c-0.1,0-0.2-0.1-0.3-0.1
		c-0.1,0-0.2-0.1-0.3-0.1c0,0.2-0.1,0.4-0.1,0.6c0,0.2,0,0.4,0,0.6c0,0.3,0.1,0.6,0.3,0.9c0.2,0.3,0.3,0.6,0.4,0.9
		c0,0.1,0.1,0.2,0.2,0.3c0.1,0.1,0.2,0.2,0.2,0.3c0-0.1,0.1-0.3,0.1-0.4c0-0.2,0-0.3,0-0.4c-0.1-0.2-0.2-0.5-0.4-0.7
		c0.1,0,0.2-0.1,0.3-0.1c0.1,0,0.2-0.1,0.2-0.1c0-0.1,0-0.2,0-0.3c0-0.1,0-0.2-0.1-0.3c0-0.1-0.1-0.1-0.2-0.1c-0.1,0-0.2,0-0.2,0
		c0-0.2,0.2-0.4,0.5-0.4c0-0.3,0-0.5-0.1-0.8C97.1,858.1,96.9,857.9,96.6,857.8z M96.4,866.9c0,0-0.1,0.1,0,0.2c0,0.1,0.1,0.1,0.1,0
		c0,0,0.1-0.1,0-0.1C96.4,866.9,96.4,866.8,96.4,866.9z M97.1,865.2c-0.1,0-0.1,0-0.2,0c-0.1,0-0.1,0-0.2,0c-0.1,0.3-0.1,0.6-0.1,1
		c0,0.4,0.2,0.6,0.6,0.8c0-0.2,0.1-0.4,0.1-0.5c0-0.2,0-0.3,0-0.5c-0.1-0.3-0.1-0.6,0-0.9C97.2,865.1,97.1,865.2,97.1,865.2z
		 M96.8,864.7c0,0-0.1,0-0.1,0.1c0,0,0,0.1,0,0.1c0,0,0.1,0,0.2-0.1C97,864.7,96.9,864.7,96.8,864.7z M96.8,855
		c0,0.3,0.1,0.5,0.1,0.7c0.2-0.1,0.3-0.2,0.5-0.2C97.2,855.2,97,855.1,96.8,855z M96.9,856.2c0.2,0,0.4,0,0.6,0
		c0.2,0,0.3-0.1,0.4-0.2c-0.2,0-0.3,0.1-0.5,0.1C97.2,856.1,97,856.2,96.9,856.2z M97.6,854.7c0,0-0.1,0-0.2,0c-0.1,0-0.1,0.1,0,0.2
		c0,0,0.1,0,0.2,0C97.6,854.8,97.7,854.8,97.6,854.7z M97.6,860.3c0,0-0.1,0.1-0.1,0.1c0,0.1,0,0.1,0.1,0c0.1,0,0.1,0,0.1-0.1
		S97.7,860.2,97.6,860.3z M98.2,863c0,0.1,0,0.2,0,0.4c0,0.1,0,0.3,0,0.4h0.2c0.1-0.1,0.2-0.2,0.2-0.2c0,0-0.1,0-0.2,0
		c-0.1,0-0.1,0-0.2,0c0.1-0.2,0.3-0.4,0.5-0.6c-0.1,0-0.2,0-0.2,0.1C98.4,863,98.3,863,98.2,863z"/>
	<path class="st0" d="M101.2,849.5c0-0.2,0.2-0.3,0.4-0.3c0.2,0,0.4,0,0.5,0c0.2,0,0.4,0.1,0.6,0.2c0.2,0.1,0.4,0.1,0.6,0.2
		c0,0.1,0,0.3,0,0.5c0-0.1,0-0.1,0-0.2c0,0,0.1-0.1,0.1-0.1c0.1,0.1,0.2,0.3,0.2,0.4c0.1,0.1,0.2,0.2,0.4,0.3
		c0.1-0.2,0.2-0.3,0.3-0.4c0.1-0.1,0.3-0.2,0.4-0.3c-0.1,0-0.2,0-0.3,0.1c-0.1,0-0.2,0-0.3,0.1c-0.1-0.1-0.2-0.2-0.3-0.3
		c-0.1-0.1-0.2-0.2-0.2-0.4c0.2,0,0.4,0,0.5,0c0.1,0.1,0.3,0.1,0.4,0.2c0.1,0.1,0.2,0.2,0.4,0.4c0.1,0.1,0.2,0.3,0.3,0.4
		c0,0,0-0.1,0-0.2c0-0.1,0-0.1,0-0.2c0,0,0.1,0,0.1,0.1c0,0,0,0,0.1,0.1c0,0.3,0,0.6,0.2,0.9c0.2,0.3,0.3,0.6,0.3,0.9
		c0,0.4,0.1,0.8,0,1.1c0,0.4-0.1,0.7-0.1,1.1c0,0.4-0.1,0.8-0.1,1.2c0,0.4,0,0.8,0,1.2c0,0.3,0,0.6-0.1,0.9c0,0.3-0.1,0.6-0.1,0.9
		c0,0.3,0,0.6,0.1,0.9c0,0.3,0.1,0.6,0.1,0.9c0,0.4,0,0.8-0.1,1.2c-0.1,0.4-0.1,0.7,0,1.1c0,0.2,0,0.4,0.1,0.7
		c0.1,0.2,0.1,0.5,0,0.7c0,0.6,0,1.2,0,1.9c0.1,0.6,0,1.2-0.1,1.8c0,0.4,0.1,0.7,0.2,1.1c0.1,0.4,0.1,0.7,0,1.1
		c-0.1,0.6-0.1,1.1-0.1,1.7c0.1,0.6,0.1,1.1-0.1,1.7c0,0.3-0.1,0.6-0.1,0.9c0,0.3,0,0.6-0.1,0.9c-0.3,0.5-0.7,0.7-1.2,0.6
		c-0.4,0-0.7-0.1-1.1,0c-0.3,0-0.7,0-1-0.1c-0.2-0.2-0.5-0.3-0.7-0.5c-0.2-0.2-0.4-0.4-0.6-0.7c-0.1-0.4-0.1-0.8-0.1-1.2
		c0-0.4,0.1-0.8,0.1-1.2c0-0.3,0-0.7-0.1-1c-0.1-0.3-0.1-0.6-0.1-1c0-0.3,0-0.5,0-0.7c0-0.2,0-0.5,0-0.7c0-0.5,0.1-1,0-1.5
		c0-0.5,0-1,0-1.5c0-0.3,0-0.7,0-1c0-0.3,0-0.6-0.1-1c0-0.3,0-0.7,0-1c0-0.3,0-0.6,0.1-1c0.1-0.2,0.1-0.5,0.1-0.7c0-0.2,0-0.5,0-0.7
		c0.1-0.4,0.1-0.7,0-1.1c-0.1-0.3-0.1-0.7-0.2-1c0-0.3,0-0.5,0-0.8c0-0.3,0.1-0.5,0.4-0.7c0,0-0.1,0-0.2,0c0.1-0.1,0.2-0.2,0.2-0.3
		c0.1-0.1,0.1-0.2,0.2-0.2c-0.1,0-0.1,0-0.2,0c0,0-0.1,0-0.2,0c0-0.3,0-0.6,0.1-0.8c0.1-0.3,0.1-0.5,0-0.8c0-0.5-0.1-1-0.1-1.5
		c-0.1-0.5,0-1,0.1-1.5c0-0.3,0.1-0.7,0.1-1C101.1,850.1,101.1,849.8,101.2,849.5z M101.2,869.1c-0.1,0-0.1,0.1-0.1,0.1
		c0,0.1,0.1,0.1,0.1,0.1c0.1,0,0.1-0.1,0.1-0.1C101.3,869.1,101.2,869.1,101.2,869.1z M101.3,860.6c-0.1,0-0.1,0-0.1,0.1
		c0,0.1,0,0.1,0.1,0.1c0.1,0,0.1,0,0.1-0.1C101.4,860.7,101.4,860.6,101.3,860.6z M101.4,868.3c-0.1,0-0.1,0-0.1,0.1
		c0,0.1,0,0.1,0.1,0.1C101.5,868.5,101.5,868.4,101.4,868.3C101.5,868.3,101.5,868.3,101.4,868.3z M101.4,872.7v0.4
		c0-0.1,0.1-0.2,0.1-0.2c0-0.1,0.1-0.1,0.1-0.2C101.6,872.7,101.6,872.7,101.4,872.7z M101.8,870.1c0,0.2-0.1,0.3-0.1,0.5
		c0,0.2,0,0.3,0,0.5c0,0.1,0.1,0.2,0.1,0.3c0.1,0.1,0.1,0.2,0.2,0.2c0-0.3,0-0.5-0.1-0.8C102,870.6,101.9,870.3,101.8,870.1z
		 M102.3,874.8c-0.1,0-0.1,0-0.1,0.1c0,0.1,0,0.1,0.1,0.1C102.4,875,102.4,875,102.3,874.8C102.4,874.9,102.4,874.8,102.3,874.8z
		 M103.2,873.3c-0.1,0.1-0.1,0.2-0.1,0.3c0.1,0,0.2,0,0.3-0.1v-0.2C103.3,873.3,103.2,873.3,103.2,873.3z M103.1,874.7
		c0,0.1,0,0.2,0.1,0.1C103.3,874.7,103.3,874.7,103.1,874.7z M103.4,870.4c0,0.2,0.1,0.5,0,0.7c0,0.2,0,0.5-0.1,0.7
		c0.1-0.1,0.2-0.1,0.3-0.2c0.1-0.1,0.1-0.2,0.2-0.3c0-0.2,0.1-0.3,0.1-0.5c0-0.2,0-0.3-0.1-0.5c-0.1,0-0.2,0-0.2,0
		C103.5,870.4,103.5,870.4,103.4,870.4z M104,874.3c-0.1,0-0.1,0.1-0.1,0.1c0,0.1,0.1,0.1,0.1,0.1
		C104.1,874.5,104.1,874.4,104,874.3C104,874.3,104,874.3,104,874.3z M105,869.3c-0.1,0.6-0.1,1.2,0.2,1.8c0.1-0.3,0.2-0.6,0.2-1
		C105.4,869.8,105.3,869.5,105,869.3z M104.9,872.8c0.2,0,0.3,0.1,0.4,0.1c0-0.1,0-0.2,0.1-0.3c-0.1,0-0.1,0.1-0.2,0.1
		S105,872.8,104.9,872.8z"/>
	<path class="st0" d="M117.6,849.2c0.2,0,0.3,0,0.4,0.1c0.1,0.1,0.2,0.2,0.4,0.3c0.1-0.3,0.3-0.4,0.6-0.4c0.3,0,0.5,0,0.7,0
		c0,0.1-0.1,0.2-0.1,0.3c0,0.1,0,0.2,0,0.3c-0.6,0.1-1.3,0.2-2,0.2c0-0.1,0.1-0.3,0.1-0.4l-0.6,0.7c0.3,0.1,0.6,0.1,0.9,0
		c0.3-0.1,0.6-0.2,0.9-0.2c0.1,0,0.2,0.1,0.2,0.1c0.1,0,0.1,0.1,0.2,0.1c0.1-0.1,0.3-0.1,0.5-0.2c0.2-0.1,0.3-0.1,0.5-0.2
		c0-0.2,0-0.3,0.2-0.5c0.2-0.1,0.3-0.2,0.5-0.1c0.3,0,0.4,0.1,0.4,0.4c0,0.2,0,0.4-0.1,0.6c-0.1,0.3-0.2,0.6-0.4,0.9
		c-0.2,0.2-0.4,0.5-0.5,0.9c-0.1,0.4-0.3,0.8-0.5,1.2c-0.2,0.4-0.4,0.8-0.6,1.2c-0.2,0.3-0.4,0.7-0.6,1c-0.2,0.3-0.4,0.6-0.6,1
		c-0.1,0.2-0.2,0.4-0.3,0.7c0,0.3-0.2,0.5-0.4,0.7c0,0.3,0,0.5-0.1,0.7c-0.1,0.2-0.2,0.4-0.3,0.7c-0.1,0.3-0.3,0.5-0.5,0.7
		c-0.2,0.2-0.4,0.5-0.4,0.8c0,0.3-0.1,0.5-0.1,0.7c0,0.2,0,0.5,0.1,0.7c0.1,0.2,0.1,0.4,0.1,0.6c0,0.2,0.1,0.4,0.1,0.6
		c0,0.2,0.1,0.4,0.3,0.5c0.1,0.1,0.3,0.3,0.4,0.5c0.5,0.7,0.8,1.5,1,2.3c0.3,0.4,0.5,0.8,0.6,1.2c0.2,0.4,0.4,0.9,0.6,1.3
		c0,0.1,0.1,0.2,0.2,0.3c0.1,0.1,0.1,0.2,0.1,0.3c0,0.1-0.1,0.2-0.2,0.3c-0.1,0-0.3,0.1-0.4,0.1c0.1,0.3,0.2,0.7,0.3,1
		c0.1,0.3,0.2,0.6,0.2,1c0,0.2-0.1,0.4-0.2,0.6c-0.1,0.2-0.1,0.4,0,0.6c0.1,0.1,0.2,0.2,0.4,0.2c0.2,0,0.3-0.1,0.4-0.1
		c0-0.1,0.1-0.3,0.1-0.4c0-0.2,0.1-0.2,0.4-0.1c0,0.1,0,0.2,0.1,0.3c0.1,0.1,0.1,0.2,0,0.3c-0.1,0.1-0.2,0.2-0.3,0.2
		c-0.1,0-0.2,0.1-0.4,0.1c-0.1,0.2-0.3,0.3-0.5,0.2c-0.2-0.1-0.5-0.1-0.6,0c-0.2,0-0.3,0.1-0.2,0.3c0,0.2,0.1,0.3,0.2,0.4
		c0.2,0,0.3,0.1,0.5,0.2c0.2,0.1,0.4,0.1,0.6,0c0.1,0,0.2,0,0.3,0c0.1,0,0.2,0.1,0.2,0.1c0,0.1-0.1,0.2-0.1,0.3
		c0,0.1-0.1,0.2-0.3,0.1c-0.5,0-0.9,0-1.4,0c-0.5,0-0.9,0-1.4-0.1c0.1-0.1,0.2-0.2,0.2-0.2c-0.2,0.1-0.4,0.1-0.6-0.1
		c-0.2-0.2-0.3-0.3-0.4-0.5c-0.1-0.3-0.2-0.6-0.3-0.9c-0.1-0.3-0.3-0.6-0.5-0.9c-0.3-0.3-0.5-0.7-0.6-1.1c-0.1-0.4-0.2-0.8-0.4-1.2
		c-0.3-0.6-0.6-1.3-0.9-1.9c-0.3-0.6-0.7-1.2-1.1-1.8c0,0,0,0-0.1,0c0,0,0,0-0.1-0.1c0,0.2,0,0.5,0,0.7c0,0.2,0.1,0.5,0.1,0.7
		c0,0.2,0.1,0.5,0.1,0.7c0,0.2,0,0.5-0.1,0.7c-0.1,0.3-0.1,0.7-0.1,1c0,0.3,0,0.7,0.1,1c0,0.1-0.1,0.2-0.2,0.4
		c-0.1,0.1-0.2,0.2-0.3,0.3c-0.1,0-0.1,0-0.2-0.1c0-0.1-0.1-0.1-0.1-0.2c0,0-0.1,0.1-0.1,0.1c0,0-0.1,0.1-0.1,0.1
		c0-0.1-0.1-0.3-0.2-0.4c-0.1-0.1-0.1-0.2-0.2-0.4c0,0.2-0.1,0.4-0.1,0.6c0,0.2-0.1,0.4-0.1,0.6c-0.1,0.2-0.2,0.3-0.3,0.4
		c-0.1,0.1-0.2,0.3-0.3,0.4c-0.1-0.1-0.3-0.3-0.4-0.4c-0.2-0.1-0.3-0.2-0.6-0.3c-0.1,0.1-0.2,0.3-0.3,0.4c-0.1,0.2-0.2,0.3-0.4,0.3
		c0.1,0.2,0.1,0.5,0,0.7c-0.1,0.2-0.1,0.4-0.2,0.6c-0.1-0.1-0.3-0.1-0.4-0.2c-0.1-0.1-0.2-0.2-0.2-0.3c-0.1-0.8-0.1-1.7-0.1-2.5
		c0-0.8,0-1.7,0-2.5c0-0.6,0-1.3,0-1.9c0.1-0.7,0-1.3-0.1-1.9c0.3,0,0.5-0.2,0.6-0.3c0.1-0.2,0.2-0.4,0.3-0.6c0-0.1,0-0.2-0.1-0.2
		c-0.1,0-0.2-0.1-0.2-0.1v0.5c-0.1,0-0.1-0.1-0.2-0.2c-0.1-0.1-0.1-0.1-0.2-0.2c0-0.2,0-0.5,0.1-0.7c0-0.2,0-0.4,0-0.7
		c0-0.1,0-0.2,0-0.4c0-0.1,0-0.2,0-0.4c0-0.1,0.1-0.1,0.2-0.2c0.1-0.1,0.1-0.2,0.2-0.3c-0.2-0.2-0.3-0.4-0.3-0.6
		c0-0.2,0-0.4,0.2-0.6c0,0-0.1,0-0.2,0c0-0.3,0-0.5,0-0.7c0-0.2,0-0.5-0.1-0.7c-0.1-0.4-0.1-0.8,0-1.2c0.1-0.4,0.1-0.7,0-1.1
		c-0.1-0.4-0.1-0.8-0.1-1.2c0.1-0.4,0.1-0.8,0.1-1.2c0-0.2,0-0.5,0.1-0.7c-0.1,0-0.1,0-0.1,0c0-0.1,0.1-0.2,0.1-0.3
		c0-0.1,0-0.2,0-0.3c0-0.4-0.1-0.7-0.1-1.1c0-0.4,0-0.7,0.1-1.1c-0.1-0.3,0-0.5,0.3-0.5c0,0.2,0.1,0.3,0.1,0.5
		c0,0.2,0.1,0.3,0.1,0.4c0-0.1,0-0.1,0.1-0.2c0,0,0-0.1,0.1-0.1c0,0,0.1,0,0.1,0.1c0.1-0.1,0.2-0.2,0.3-0.3c0.1-0.1,0.2-0.2,0.3-0.3
		c0-0.1-0.1-0.2-0.2-0.4c-0.1-0.1,0-0.3,0.1-0.4c0.3,0,0.5-0.1,0.8,0c0.2,0,0.5,0.1,0.8,0.1c0.2,0,0.4,0,0.6,0c0.2,0,0.4,0,0.6,0
		c0.1,0,0.2,0.1,0.2,0.2c0,0.1,0,0.2,0.1,0.4c-0.1,0-0.2,0.1-0.3,0.2c-0.1,0.1-0.2,0.1-0.3,0.2c-0.1,0-0.2-0.1-0.4-0.2
		c-0.1-0.1-0.2-0.1-0.4-0.2c-0.2,0-0.3,0.1-0.5,0.1c-0.2,0-0.3,0.1-0.5,0.1c0.1,0,0.1,0.1,0.2,0.1c0.1,0,0.1,0.1,0.2,0.1
		c0.2,0.3,0.5,0.6,0.9,0.7c0.1,0,0.2,0,0.3,0c0.1,0,0.2,0,0.3-0.1c0.1,0.4,0.2,0.7,0.3,1.1c0.1,0.4,0.2,0.7,0.1,1.1
		c-0.1,0.2-0.1,0.4-0.2,0.6c0,0.2-0.1,0.4-0.2,0.6c-0.1,0.2-0.2,0.4-0.5,0.4c-0.2,0-0.5,0.1-0.6,0.1c0.3,0.4,0.7,0.8,1.1,1.2
		c0.1,0,0.2-0.1,0.4-0.1c0,0.1,0,0.3,0.1,0.4c0,0.1,0,0.3,0.1,0.4c0.1,0,0.2,0.1,0.4,0.2c0.1-0.1,0.2-0.2,0.3-0.4
		c0.1-0.1,0.2-0.2,0.3-0.4c0.1-0.2,0.2-0.3,0.3-0.5c0.1-0.2,0.1-0.3,0.2-0.5c0.2-0.3,0.4-0.6,0.6-0.9c0.2-0.3,0.4-0.6,0.7-0.8
		c0.2-0.2,0.4-0.4,0.6-0.6c0.2-0.2,0.4-0.4,0.5-0.7c-0.1,0-0.2,0-0.3-0.1c-0.1,0-0.2,0-0.3-0.1c0-0.1,0.1-0.1,0.2-0.2
		c0.1-0.1,0.1-0.1,0.2-0.2c0,0-0.1,0-0.3,0c0.2-0.2,0.4-0.5,0.6-0.7c0,0-0.1,0-0.1,0c0,0-0.1,0-0.1,0c0.1-0.1,0.1-0.3,0.2-0.4
		c0-0.2,0.1-0.3,0.1-0.4c0-0.1,0.1-0.1,0.2-0.1c0.1,0,0.2,0,0.3,0c0,0,0.1-0.1,0.1-0.3c-0.1,0-0.2,0-0.2,0c-0.1,0-0.1,0-0.2,0
		c0.2-0.2,0.3-0.4,0.5-0.6C117.1,849.3,117.3,849.2,117.6,849.2z M107.9,867.9c-0.1,0-0.1,0.1-0.1,0.1c0,0.1,0.1,0.1,0.2,0
		c0.1,0,0.1-0.1,0.1-0.2C108,867.9,108,867.9,107.9,867.9z M108.1,863.5c0,0,0,0.1,0.1,0.2c0,0.1,0,0.2,0.1,0.2
		c0.1,0,0.1-0.1,0.2-0.2c0-0.1,0.1-0.1,0.2-0.2C108.4,863.5,108.2,863.5,108.1,863.5z M108.3,863.1c0,0-0.1,0-0.1,0.1
		c0,0.1,0,0.1,0,0.2c0.1,0,0.1,0,0.2-0.1C108.5,863.2,108.5,863.1,108.3,863.1z M110.2,873.6c0.2,0.1,0.5,0.2,0.7,0.2v0.2
		c-0.1,0-0.2,0.1-0.3,0.1c-0.1,0-0.2,0-0.3-0.1c-0.1,0-0.1-0.1-0.1-0.2C110.2,873.8,110.2,873.7,110.2,873.6z M111.8,873.1
		c0.1-0.1,0.2-0.1,0.3-0.1c0.1,0,0.2,0,0.3,0c0,0-0.1,0.1-0.1,0.1c0,0-0.1,0.1-0.1,0.1c0.1,0,0.2,0,0.4-0.1
		c-0.1,0.3-0.1,0.5-0.1,0.8c0,0.3-0.1,0.6-0.2,0.8c-0.1,0.1-0.2,0.2-0.3,0.2c-0.1,0.1-0.2,0.1-0.3,0.2c0,0,0-0.1,0.1-0.1
		c0,0,0-0.1,0.1-0.1c-0.2,0-0.3,0.1-0.5,0.1c-0.2,0-0.3,0-0.5-0.1c-0.1-0.1-0.2-0.2-0.2-0.4c0-0.1-0.1-0.3-0.1-0.4
		c0.1,0,0.2,0,0.3-0.1c0.1,0,0.2,0,0.3-0.1c0.1-0.2,0.3-0.4,0.4-0.6C111.5,873.5,111.6,873.3,111.8,873.1z M110.4,853.3
		c0,0.3,0,0.6,0.1,0.9c0.1,0.3,0.1,0.6,0.2,0.8c0.1,0,0.1-0.1,0.2-0.2s0.1-0.1,0.2-0.2c-0.1,0-0.1-0.1-0.2-0.1
		c-0.1,0-0.1-0.1-0.2-0.2c0.1-0.2,0.2-0.4,0.3-0.6c-0.1-0.1-0.2-0.1-0.3-0.2C110.7,853.4,110.6,853.3,110.4,853.3z M110.8,858
		c0,0,0,0.1-0.1,0.1c0,0.1,0.1,0.1,0.2,0C110.9,858,110.9,858,110.8,858z M111.1,853.1c0,0-0.1,0-0.1,0.1c0,0.1,0,0.1,0,0.2
		c0.1,0,0.1,0,0.2-0.1C111.2,853.3,111.2,853.2,111.1,853.1z M111.7,850.4c0.1,0,0.2,0,0.3-0.1c0,0.3,0,0.5-0.2,0.7
		C111.7,850.9,111.7,850.6,111.7,850.4z M115.4,860.5c0,0-0.1,0-0.1,0.1c0,0.1,0,0.1,0.1,0.1c0.1,0,0.1-0.1,0.1-0.1
		C115.5,860.5,115.5,860.5,115.4,860.5z M115.7,859.8c0,0,0.1,0.1,0.2,0.1c0.1,0,0.1,0.1,0.2,0.1c0,0-0.1-0.1-0.1-0.1
		c0,0,0-0.1-0.1-0.1c0.2-0.1,0.3-0.3,0.4-0.5c0.1-0.2,0.1-0.4,0.2-0.6c-0.2,0.1-0.4,0.3-0.5,0.4
		C115.8,859.3,115.7,859.5,115.7,859.8z M115.7,869.9c0,0.2,0,0.4,0,0.6c0,0.2,0.1,0.4,0.2,0.6c0.2,0.4,0.4,0.7,0.6,1.1
		c0.2,0.4,0.4,0.7,0.6,1.1c0.1,0,0.2,0,0.3,0c0.1,0,0.2,0,0.3,0c0.3,0,0.4-0.1,0.6-0.4c0.1-0.2,0.2-0.5,0.3-0.6
		c0-0.3-0.1-0.5-0.4-0.7c-0.3-0.2-0.5-0.3-0.7-0.4c0,0,0.1,0.1,0.1,0.2c0,0.1,0.1,0.1,0.1,0.2c-0.1,0-0.2-0.1-0.3-0.2
		c-0.1-0.1-0.2-0.1-0.2-0.2c0.1-0.1,0.1-0.2,0.1-0.3c0,0-0.1,0.1-0.2,0.1c-0.1-0.1-0.1-0.3-0.2-0.4c-0.1-0.2-0.2-0.3-0.3-0.3
		c-0.2,0-0.4-0.1-0.5-0.2C116.1,870,115.9,870,115.7,869.9z M115.9,860.2v0.4c0-0.1,0.1-0.1,0.1-0.2c0-0.1,0.1-0.2,0.1-0.2
		c0,0-0.1,0-0.1,0.1C116,860.2,116,860.2,115.9,860.2z M116.4,869.3c-0.1,0-0.1,0.1-0.1,0.2c0,0.1,0.1,0.1,0.2,0
		c0.1,0,0.1-0.1,0.1-0.2C116.6,869.3,116.5,869.2,116.4,869.3z M116.6,850.8c-0.1,0-0.1,0.1-0.1,0.1c0,0.1,0.1,0.1,0.1,0
		C116.7,850.9,116.7,850.8,116.6,850.8C116.7,850.7,116.6,850.7,116.6,850.8z M116.8,870.1c0.1,0,0.2-0.1,0.2-0.1v-0.4
		c0,0.1-0.1,0.1-0.1,0.2C116.9,870,116.8,870,116.8,870.1z M119,851.3c0,0.1,0,0.2,0,0.3c0,0.1,0,0.2,0,0.3c0.1,0,0.2-0.1,0.4-0.2
		c0.1-0.1,0.3-0.1,0.4-0.2v0.3c0-0.1,0.1-0.2,0.2-0.3c0.1-0.1,0.1-0.2,0.2-0.3c-0.2-0.1-0.4-0.2-0.6-0.1
		C119.5,851.2,119.3,851.2,119,851.3z M120.6,874.8c0-0.1,0.1-0.2,0.1-0.3c0-0.1,0.1-0.2,0.1-0.2c0,0,0,0.1,0,0.2c0,0.1,0,0.1,0,0.2
		C120.8,874.6,120.7,874.7,120.6,874.8z M121,874.2c0,0,0.1,0,0.2,0c0.1,0,0.1,0.1,0,0.1c0,0.1-0.1,0.1-0.2,0
		C121,874.3,121,874.3,121,874.2z"/>
</g>
<g>
	<g>
		<path class="st0" d="M20.9,858.8c-0.1,0.1-0.1,0.2-0.1,0.2c0.1-0.1,0.1-0.2,0.2-0.3C21,858.7,20.9,858.8,20.9,858.8z"/>
		<path class="st0" d="M29.6,858.8c-0.1-0.1-0.1-0.1-0.2-0.2c0.1,0.1,0.2,0.2,0.3,0.4C29.7,859,29.7,858.9,29.6,858.8z"/>
		<path class="st0" d="M16.1,859.5c0,0.1-0.1,0.1-0.1,0.2c0.1,0,0.2,0.1,0.3,0.1C16.3,859.7,16.2,859.6,16.1,859.5z"/>
		<path class="st0" d="M12.2,869.9c-0.2,0-0.3-0.1-0.2-0.3c0.5-0.6,1-1.3,1.8-1.7c0.3-0.1,0.6-0.2,0.9-0.3c0.1-0.2,0.3-0.4,0.4-0.6
			c-0.1,0-0.2-0.1-0.4-0.1c-0.4,0-0.7,0-1.1,0c-0.1,0-0.2,0-0.3-0.1c0.1-0.1,0.2-0.1,0.3-0.2c0.2-0.1,0.4-0.3,0.7-0.4
			c0.8-0.5,1.1-1.1,1.1-2c0-0.1,0-0.3,0-0.4c-0.2-0.5-0.6-1-1-1.4c0,0,0,0-0.1,0c0.1,0.2,0.2,0.3,0.3,0.5c0.1,0.2,0.2,0.3,0.4,0.5
			c0,0.1,0.1,0.2,0.1,0.2c-0.1,0-0.2,0.1-0.3,0.1c-0.5,0-0.8-0.2-1.1-0.5c0,0-0.1-0.1-0.1-0.1c-0.3,0.4-0.5,0.7-0.8,1.1
			c-1.8,2.5-3.6,5.1-5.4,7.6C7.3,872,7,872.4,7,872.8c0,0.8,0.5,1.5,1.2,1.8c0.7,0.2,1.5-0.1,1.9-0.7c1-1.4,1.9-2.7,2.9-4.1
			C12.8,869.9,12.5,869.9,12.2,869.9z"/>
		<path class="st0" d="M43.1,871.9c-1.3-1.9-2.7-3.8-4-5.7c-0.8-1.1-1.5-2.1-2.3-3.2c-0.2,0.2-0.4,0.4-0.7,0.6
			c-0.2,0.1-0.4,0.1-0.6,0.1c-0.2,0-0.2-0.1-0.1-0.3c0.2-0.3,0.4-0.6,0.7-0.9c0,0,0.1-0.1,0-0.2c-0.1,0.1-0.2,0.2-0.3,0.3
			c-0.3,0.4-0.6,0.8-0.7,1.2c-0.1,0.8,0,1.5,0.7,2c0.3,0.2,0.6,0.4,1,0.6c0.1,0.1,0.2,0.1,0.3,0.2c0,0,0,0.1,0,0.1
			c-0.2,0-0.5,0-0.7,0c-0.2,0-0.4,0-0.6,0c-0.1,0-0.2,0.1-0.2,0.2c0,0.1,0,0.2,0.1,0.3c0.2,0.2,0.4,0.3,0.6,0.4
			c0.7,0.3,1.3,0.8,1.8,1.3c0.1,0.1,0.2,0.3,0.4,0.4c0.1,0.1,0.1,0.2,0.1,0.2c-0.1,0-0.2,0.1-0.3,0.1c-0.3,0-0.5,0-0.8,0
			c0.5,0.7,0.9,1.3,1.4,2c0.5,0.7,1,1.4,1.5,2.1c0.6,0.8,1.7,1,2.5,0.4C43.5,873.8,43.7,872.7,43.1,871.9z"/>
		<path class="st0" d="M18.1,858.4c1,0.1,1.9-0.1,2.8-0.5c0.3-0.1,0.6-0.2,0.9-0.3c0.9-1.2,1.8-2.5,2.7-3.8c0.2-0.3,0.5-0.7,0.8-1.1
			c0.1,0.1,0.1,0.2,0.2,0.2c1.1,1.5,2.2,3,3.2,4.5c0.3,0.1,0.6,0.2,0.8,0.3c0.4,0.1,0.7,0.3,1.1,0.4c0.1,0,0.3,0.1,0.4,0.1
			c0.8,0.1,1.7,0,2.5-0.1c-0.8-1.1-1.6-2.3-2.4-3.4c-1.4-2-2.9-4.1-4.3-6.1c-0.7-1-2.2-1-2.9-0.1c-0.3,0.4-0.5,0.7-0.8,1.1
			c-1.9,2.6-3.7,5.3-5.6,7.9c-0.1,0.2-0.3,0.4-0.4,0.6C17.4,858.3,17.7,858.4,18.1,858.4z"/>
		<path class="st0" d="M34.2,859.3c-0.1,0.1-0.2,0.3-0.3,0.5c0.1-0.1,0.3-0.2,0.4-0.2C34.3,859.5,34.3,859.4,34.2,859.3z"/>
	</g>
	<path class="st0" d="M23.8,858.7c0.1,0.1,0.2,0.3,0.3,0.4c0.2,0.2,0.2,0.4-0.1,0.7c-0.2,0.2-0.4,0.2-0.5,0c-0.4-0.4-1-0.4-1.5-0.5
		c-0.3-0.1-0.7-0.1-1-0.2c-0.2-0.1-0.3-0.2-0.1-0.3c0.2-0.2,0.5-0.3,0.7-0.4c0.5-0.1,1-0.2,1.6-0.3c0.6,0,1.3,0,1.9,0
		c0.2,0,0.4,0,0.6,0c0.8,0,1.6,0,2.3,0.1c0.5,0.1,0.9,0.3,1.4,0.4c0.1,0,0.2,0.1,0.2,0.2c0.1,0.1,0.1,0.2-0.1,0.3
		c-0.5,0.1-1.1,0.2-1.6,0.3c-0.3,0.1-0.6,0.2-0.9,0.4c-0.2,0.1-0.4,0.2-0.5,0c-0.2-0.2-0.3-0.4-0.1-0.7c0.1-0.2,0.2-0.3,0.3-0.5
		c-0.1,0-0.1,0-0.2,0.1c-0.3,0.2-0.5,0.4-0.8,0.6c-0.2,0.2-0.2,0.3,0,0.4c0.2,0.2,0.4,0.3,0.6,0.5c0.5,0.4,0.8,1,1,1.6
		c0.2,0.9,0.5,1.8,0.8,2.7c0.2,0.8,0.4,1.6,0.3,2.4c0,0.2-0.1,0.5-0.2,0.7c-0.1,0.2-0.2,0.2-0.3,0.1c0,0-0.1,0-0.1-0.1
		c-0.6-0.6-1.1-1.1-1.7-1.7c-0.2-0.2-0.3-0.4-0.2-0.6c0.1-0.3,0.1-0.6,0.1-1c0-0.2,0.1-0.4,0.4-0.5c0.2-0.1,0.4-0.1,0.6-0.2
		c0.1-0.1,0.2-0.1,0.2-0.3c-0.2-0.6-0.3-1.2-0.5-1.7c-0.2-0.5-0.5-0.7-1-0.7c-0.3,0-0.7,0-1,0c-0.3,0-0.5,0.1-0.6,0.3
		c-0.5,0.6-0.6,1.4-0.7,2.1c0,0.1,0.1,0.2,0.2,0.3c0.2,0.1,0.4,0.2,0.6,0.2c0.2,0.1,0.3,0.2,0.3,0.4c0,0.4,0.1,0.8,0.1,1.2
		c0,0.1-0.1,0.3-0.2,0.4c-0.6,0.6-1.2,1.2-1.8,1.8c-0.2,0.2-0.3,0.2-0.4-0.1c-0.3-0.6-0.2-1.3-0.1-1.9c0.2-1.5,0.8-2.9,1.2-4.3
		c0.1-0.4,0.5-0.7,0.8-1c0.2-0.2,0.5-0.4,0.7-0.5c0.2-0.1,0.2-0.2,0-0.4C24.5,859.2,24.2,858.9,23.8,858.7
		C23.8,858.7,23.8,858.7,23.8,858.7z"/>
	<path class="st0" d="M25.4,869.6c-0.8-0.1-1.4-0.2-2-0.5c-0.3-0.1-0.3-0.4-0.2-0.7c0.3-0.6,0.7-1,1.3-1.4c1-0.6,0.6-0.7,1.6,0
		c0.5,0.3,0.9,0.8,1.2,1.3c0.2,0.4,0.2,0.6-0.3,0.8C26.4,869.3,25.8,869.5,25.4,869.6z"/>
	<path class="st0" d="M20.9,860.7c0,0,0.1-0.2,0.2-0.2c0.4-0.1,0.8-0.1,1.2,0.2c0.2,0.2,0.2,0.2,0,0.3c-0.2,0.1-0.4,0.2-0.6,0.3
		C21.3,861.4,20.9,861.2,20.9,860.7z"/>
	<path class="st0" d="M28.9,860.5c0,0,0.1,0,0.1,0c0.1,0.1,0.4,0.1,0.4,0.2c0,0.2-0.1,0.4-0.2,0.5c-0.1,0.2-0.3,0.2-0.5,0.1
		c-0.2-0.1-0.5-0.2-0.7-0.3c-0.1,0-0.1-0.1-0.2-0.2c0.1-0.1,0.1-0.2,0.2-0.2C28.4,860.6,28.7,860.5,28.9,860.5
		C28.9,860.4,28.9,860.4,28.9,860.5z"/>
	<path class="st0" d="M14.5,858.8c0.7,0.2,1.5,0.2,1.8,1.1C15.7,859.5,15.1,859.2,14.5,858.8C14.5,858.8,14.5,858.8,14.5,858.8z"/>
	<path class="st0" d="M33.9,859.8c0.2-0.7,0.6-0.8,1.8-1C35.1,859.2,34.6,859.5,33.9,859.8z"/>
</g>
<g>
	<path class="st0" d="M47.6,12.9c0.4-0.2,0.7-0.3,1.1-0.2c0.4,0,0.8,0.1,1.1,0.2c0.4,0.1,0.8,0.2,1.2,0.2c0.4,0,0.8,0.1,1.2,0.2
		c0.1-0.1,0.2-0.2,0.3-0.3c0.1-0.1,0.2-0.1,0.3-0.2c0.3,0,0.5,0,0.8,0c0.3,0,0.5,0.1,0.8,0.1c0.2,0,0.3,0,0.5,0c0.2,0,0.3,0,0.5,0.1
		c0.2,0.1,0.4,0.1,0.6,0.2c0.2,0.1,0.4,0.1,0.6,0.2c0.3,0,0.5,0,0.7,0.1c0.2,0.1,0.5,0.3,0.7,0.4c0,0.1,0,0.2,0.1,0.3
		c0,0.1,0,0.2,0.1,0.3c0.2,0.1,0.4,0.2,0.5,0.4c0.1,0.2,0.2,0.4,0.2,0.6c0.1,0.5,0.2,1,0.3,1.5c0.1,0.5,0.1,1,0.1,1.6
		c0,0.3,0,0.5-0.1,0.7c-0.1,0.2-0.1,0.4,0,0.6c0.1,0.5,0.1,1,0,1.5c-0.1,0.5-0.2,1-0.4,1.5c0,0.1-0.1,0.2-0.2,0.2
		c-0.1,0-0.2,0-0.3,0.1c0-0.2,0.1-0.3,0.2-0.5c-0.2,0.1-0.3,0.3-0.4,0.6c-0.1,0.3,0,0.5,0.2,0.7c0.1,0,0.2,0.1,0.2,0.2
		c-0.1,0.3-0.2,0.6-0.3,0.9c-0.1,0.3,0,0.6,0.3,0.9c0.1,0.1,0.2,0.2,0.2,0.3c0,0.1,0.1,0.3,0.1,0.4c0,0.1,0.1,0.1,0.2,0.1
		c0.1,0,0.1,0.1,0.2,0.1c-0.1,0.4-0.1,0.8,0,1.1c0.1,0.4,0.2,0.7,0.2,1.1c0,0.3,0.1,0.6,0.1,0.9c0,0.3,0,0.6-0.1,0.9h0.2
		c-0.2,0.6-0.3,1.3-0.3,2c0,0.7-0.1,1.4-0.1,2c-0.1,0.4-0.3,0.8-0.4,1.2c-0.1,0.4-0.4,0.7-0.7,1c-0.2,0.2-0.4,0.3-0.6,0.5
		c-0.2,0.1-0.4,0.3-0.6,0.4c0,0,0-0.1,0.1-0.2c0-0.1,0-0.1,0.1-0.2c-0.3,0.4-0.7,0.6-1.1,0.7c-0.5,0.1-0.9,0.1-1.4,0.2
		c-0.5,0.2-1,0.3-1.6,0.3c-0.6,0-1.1-0.1-1.7-0.1c-0.5,0-1.1,0-1.7,0c-0.6,0-1.1-0.1-1.7-0.4c-0.1,0-0.2-0.1-0.3-0.2
		c-0.1-0.1-0.1-0.2-0.2-0.3c-0.1,0-0.2,0-0.4,0c-0.1-0.3-0.1-0.6-0.1-0.9c0-0.3,0.1-0.6,0.2-0.9c0-0.3-0.1-0.5-0.1-0.7
		c0-0.2,0-0.5-0.1-0.7c-0.1-0.4-0.1-0.7,0-1c0.1-0.3,0.1-0.7,0.1-1c0-0.3,0-0.5,0.1-0.7c0.1-0.2,0.2-0.5,0.1-0.7
		c0-0.2-0.1-0.3-0.1-0.5c-0.1-0.1-0.1-0.3-0.2-0.4c0,0,0.1,0,0.1,0c0,0,0.1,0,0.1,0c-0.1,0-0.2-0.1-0.3-0.2c0.1,0,0.2-0.1,0.2-0.2
		c0-0.1-0.1-0.2-0.1-0.2c0,0-0.1,0-0.1,0c0,0-0.1,0-0.1,0.1c0-0.3,0-0.7-0.1-1c0-0.4,0-0.7,0-1.1c0-0.2,0.1-0.4,0.2-0.6
		c0.1-0.2,0.2-0.4,0.1-0.6c-0.1-0.2-0.2-0.5-0.2-0.9c0-1,0-1.9,0-2.9c0-1,0-1.9,0.1-2.9c0.1-0.5,0.1-1.1,0.1-1.6
		c0-0.5-0.1-1.1-0.1-1.6c-0.1-0.8-0.1-1.6,0.1-2.3c0-0.1,0.1-0.2,0.2-0.3c0.1-0.1,0.2-0.2,0.2-0.3c0-0.1-0.1-0.2-0.1-0.4
		C47.4,13.1,47.4,13,47.6,12.9z M49.6,34.7c0.1,0.1,0.3,0.2,0.4,0.3c0.1,0.1,0.3,0.2,0.5,0.2c0.1,0,0.2,0,0.4-0.1
		c0.1,0,0.3-0.1,0.4-0.1c0,0,0,0,0-0.1c0,0,0-0.1,0-0.1c-0.2-0.1-0.4-0.2-0.6-0.4c-0.2-0.1-0.4-0.2-0.6-0.4
		c-0.1,0.1-0.1,0.2-0.2,0.3C49.8,34.5,49.7,34.6,49.6,34.7z M50.3,31.6c0,0.2,0,0.4,0.1,0.5c0.1,0.2,0.2,0.3,0.3,0.4
		c0.1-0.1,0.3-0.1,0.4-0.1c0.2,0.1,0.3,0.1,0.4,0.2c-0.1-0.3-0.3-0.5-0.4-0.6C51,32,51,31.9,50.9,31.7c-0.1-0.1-0.1-0.3-0.2-0.4
		c-0.1,0-0.1,0-0.2,0.1C50.4,31.5,50.3,31.5,50.3,31.6z M52.4,16.9c-0.1,0.3-0.2,0.5-0.2,0.8c0,0.3,0,0.6-0.1,0.8
		c0,1.2,0,2.5-0.1,3.7c-0.1,0-0.2,0-0.3,0.1c-0.1,0-0.2,0.1-0.2,0.2c-0.1,0.2-0.2,0.4-0.1,0.6c0,0.2,0.1,0.4,0.1,0.6
		c0.1,0,0.2,0,0.4,0c0.1,0,0.3,0,0.4,0c0.1,0,0.2-0.1,0.3-0.1c0.1-0.1,0.2-0.1,0.2-0.2c0.1,0,0.2,0,0.4,0.1c0.1,0,0.2,0,0.4,0
		c0.2-0.1,0.4-0.3,0.6-0.4c0.2-0.1,0.3-0.3,0.4-0.6c0.1-0.2,0.1-0.3,0.1-0.5c0-0.2,0-0.3,0-0.5c0-0.5,0-1,0-1.5c0-0.5,0-1-0.1-1.4
		c0-0.2-0.1-0.3-0.1-0.5c0-0.2-0.1-0.3-0.2-0.4c-0.3-0.3-0.6-0.4-0.9-0.5C53.1,17,52.7,17,52.4,16.9z M52.9,27.7
		c-0.3,0-0.5,0.2-0.6,0.4c-0.1,0.2-0.2,0.4-0.2,0.7c0.1,0.4,0.1,0.8,0,1.3C52,30.5,52,30.9,52,31.3c0,0.3,0,0.7,0,1c0,0.3,0,0.7,0,1
		c0,0.2,0,0.4-0.1,0.6c0,0.2,0,0.4,0.1,0.6c0,0.1,0.1,0.2,0.2,0.4c0.1,0.1,0.2,0.2,0.3,0.3c0.3,0,0.6,0.1,0.9,0.1c0.3,0,0.6,0,0.9,0
		c0.2-0.3,0.3-0.5,0.4-0.8c0.1-0.3,0.2-0.6,0.3-0.8c0.2,0.1,0.3,0.2,0.5,0.1c0.2,0,0.3-0.1,0.4-0.2c0-0.1-0.1-0.2-0.1-0.3
		c0-0.1,0-0.2,0-0.3c0.1-0.2,0.1-0.5,0.1-0.7c0-0.3-0.1-0.5-0.3-0.6c-0.1,0.2-0.2,0.4-0.2,0.6c-0.1,0.2-0.1,0.4,0,0.6h-0.3
		c0-0.3-0.1-0.6-0.1-0.9c0-0.3,0-0.6,0-0.9c0,0,0.1-0.1,0.2-0.1c0.1,0,0.1-0.1,0.2-0.1c0-0.2-0.1-0.4-0.2-0.5
		c-0.1-0.2-0.2-0.3-0.2-0.5c0-0.3-0.1-0.5-0.2-0.7c-0.1-0.2-0.2-0.5-0.3-0.7c-0.2-0.2-0.4-0.3-0.7-0.4
		C53.4,27.6,53.1,27.6,52.9,27.7z M52.3,24.3c0,0,0,0.1,0,0.1c0,0,0,0.1,0,0.1c0,0,0.1-0.1,0.2-0.1c0.1,0,0.1-0.1,0.2-0.1H52.3z
		 M54.2,27c0,0.1,0,0.1,0.1,0.2c0,0.1,0,0.1,0.1,0.2c0.1,0,0.2-0.1,0.3-0.1c0.1,0,0.2-0.1,0.3-0.1C54.7,27,54.4,26.9,54.2,27z
		 M55,16.6c0,0,0,0.1,0,0.2c0,0.1,0,0.2,0,0.2l0.2-0.1c0.2,0.4,0.4,0.8,0.4,1.3c0,0.5,0.2,0.9,0.5,1.3c0-0.1,0-0.2,0-0.2
		c0.1,0,0.1,0.1,0.2,0.2c0.1,0.1,0.1,0.1,0.2,0.2c0-0.1-0.1-0.2-0.1-0.4c0-0.1-0.1-0.2-0.1-0.4c0.1,0,0.2,0.1,0.2,0.1
		c0.1,0,0.1,0.1,0.2,0.1c0,0-0.1,0.1-0.1,0.1c0,0,0,0.1-0.1,0.1c0.4-0.1,0.7-0.2,0.9-0.4c0-0.1-0.1-0.3-0.1-0.4c0-0.1,0-0.3,0-0.5
		c-0.2,0.1-0.4,0.2-0.7,0.1c-0.2,0-0.4-0.2-0.5-0.4c0,0,0.2,0,0.4,0.1c0-0.2,0.1-0.3,0.1-0.3c-0.1,0-0.2,0.1-0.3,0.1
		C55.9,17.3,55.5,16.9,55,16.6z M55.2,30.5c0,0.4,0,0.7,0.1,1c0.1-0.1,0.2-0.3,0.2-0.5C55.5,30.8,55.4,30.6,55.2,30.5z M56.6,19.8
		c0.1,0.1,0.2,0.2,0.2,0.4c0-0.2,0.1-0.5,0.2-0.6c-0.1,0-0.2,0.1-0.2,0.1C56.8,19.7,56.7,19.8,56.6,19.8z M57,16.9
		c0,0.2,0,0.3-0.1,0.5c-0.1,0.1-0.1,0.3-0.2,0.4c0.1,0,0.1,0.1,0.2,0.1c0.1,0,0.2,0.1,0.2,0.1c0-0.2,0-0.4,0-0.6
		c0-0.2,0-0.4-0.1-0.6C57.1,16.8,57.1,16.8,57,16.9z M56.9,15c0,0.2,0,0.4,0,0.6c0,0.2,0.1,0.4,0.2,0.6c0.2-0.2,0.4-0.2,0.6-0.1
		c0.2,0.1,0.4,0.3,0.5,0.4c0,0,0.1,0,0.1,0c0,0,0.1,0,0.1,0c0-0.2,0-0.4-0.1-0.6c0-0.2-0.1-0.3-0.2-0.4c-0.1-0.2-0.3-0.3-0.6-0.3
		C57.3,15.1,57.1,15,56.9,15z M57.2,19.8c-0.1,0-0.1,0-0.1,0.1c0,0.1,0,0.1,0.1,0.1c0,0,0.1,0,0.1-0.1
		C57.3,19.9,57.3,19.8,57.2,19.8z M57.2,21.1c0,0.2,0.1,0.4,0.1,0.5c0.1,0,0.1-0.1,0.2-0.1c0.1,0,0.1,0,0.2-0.1
		c-0.1-0.1-0.2-0.2-0.2-0.2C57.4,21.2,57.3,21.1,57.2,21.1z M57.7,19c-0.1,0-0.1,0.1-0.1,0.2c0,0.1,0.1,0.1,0.1,0.1
		c0.1,0,0.1-0.1,0.1-0.1C57.8,19,57.7,19,57.7,19z M57.8,14.5C57.7,14.5,57.7,14.5,57.8,14.5c-0.1,0.1,0,0.2,0,0.2
		C57.8,14.7,57.9,14.6,57.8,14.5C57.9,14.5,57.8,14.5,57.8,14.5z M57.8,21.3c0,0.1,0.1,0.3,0.1,0.4c0,0.1,0,0.3,0.1,0.5
		c0,0,0.1,0,0.1,0c0,0,0.1,0,0.1,0c0-0.1,0-0.3,0-0.5c0-0.2,0-0.3,0-0.5c-0.1,0-0.2,0-0.2,0.1S57.9,21.3,57.8,21.3z M58,32.3
		c0,0.1,0,0.1-0.1,0.2c0,0.1,0,0.1-0.1,0.2c0,0,0.1,0,0.1,0c0,0,0.1,0,0.1,0c0-0.1,0-0.2,0.1-0.4C58.1,32.3,58,32.3,58,32.3z
		 M58.3,33c-0.1,0-0.1,0.1-0.1,0.2c0,0.1,0.1,0.1,0.1,0.1c0.1,0,0.1-0.1,0.1-0.2S58.4,33,58.3,33z M58.5,31.9
		C58.5,32,58.5,32,58.5,31.9c0,0.1,0,0.1,0,0.1c0,0.1,0,0.1,0.1,0.1c0,0,0.1,0,0.1-0.1c0,0,0-0.1,0-0.1C58.6,32,58.6,31.9,58.5,31.9
		z M58.5,29.8c0,0.2,0.1,0.4,0.1,0.6c0,0.2,0.2,0.4,0.4,0.4c0-0.3,0-0.5,0-0.6c0-0.1-0.1-0.2-0.2-0.3C58.7,29.9,58.6,29.8,58.5,29.8
		z"/>
	<path class="st0" d="M61.9,13c0-0.2,0.2-0.3,0.4-0.3c0.2,0,0.4,0,0.5,0c0.2,0,0.4,0.1,0.6,0.2c0.2,0.1,0.4,0.1,0.6,0.2
		c0,0.1,0,0.3,0,0.5c0-0.1,0-0.1,0-0.2c0,0,0.1-0.1,0.1-0.1c0.1,0.1,0.2,0.3,0.2,0.4c0.1,0.1,0.2,0.2,0.4,0.3
		c0.1-0.2,0.2-0.3,0.3-0.4c0.1-0.1,0.3-0.2,0.4-0.3c-0.1,0-0.2,0-0.3,0.1c-0.1,0-0.2,0-0.3,0.1c-0.1-0.1-0.2-0.2-0.3-0.3
		c-0.1-0.1-0.2-0.2-0.2-0.4c0.2,0,0.4,0,0.5,0c0.1,0.1,0.3,0.1,0.4,0.2c0.1,0.1,0.2,0.2,0.4,0.4c0.1,0.1,0.2,0.3,0.3,0.4
		c0,0,0-0.1,0-0.2c0-0.1,0-0.1,0-0.2c0,0,0.1,0,0.1,0.1c0,0,0,0,0.1,0.1c0,0.3,0,0.6,0.2,0.9c0.2,0.3,0.3,0.6,0.3,0.9
		c0,0.4,0.1,0.8,0,1.1c0,0.4-0.1,0.7-0.1,1.1c0,0.4-0.1,0.8-0.1,1.2c0,0.4,0,0.8,0,1.2c0,0.3,0,0.6-0.1,0.9c0,0.3-0.1,0.6-0.1,0.9
		c0,0.3,0,0.6,0.1,0.9c0,0.3,0.1,0.6,0.1,0.9c0,0.4,0,0.8-0.1,1.2c-0.1,0.4-0.1,0.7,0,1.1c0,0.2,0,0.4,0.1,0.7
		c0.1,0.2,0.1,0.5,0,0.7c0,0.6,0,1.2,0,1.9c0.1,0.6,0,1.2-0.1,1.8c0,0.4,0.1,0.7,0.2,1.1c0.1,0.4,0.1,0.7,0,1.1
		c-0.1,0.6-0.1,1.1-0.1,1.7c0.1,0.6,0.1,1.1-0.1,1.7c0,0.3-0.1,0.6-0.1,0.9c0,0.3,0,0.6-0.1,0.9c-0.3,0.5-0.7,0.7-1.2,0.6
		c-0.4,0-0.7-0.1-1.1,0c-0.3,0-0.7,0-1-0.1c-0.2-0.2-0.5-0.3-0.7-0.5c-0.2-0.2-0.4-0.4-0.6-0.7c-0.1-0.4-0.1-0.8-0.1-1.2
		c0-0.4,0.1-0.8,0.1-1.2c0-0.3,0-0.7-0.1-1c-0.1-0.3-0.1-0.6-0.1-1c0-0.3,0-0.5,0-0.7c0-0.2,0-0.5,0-0.7c0-0.5,0.1-1,0-1.5
		c0-0.5,0-1,0-1.5c0-0.3,0-0.7,0-1c0-0.3,0-0.6-0.1-1c0-0.3,0-0.7,0-1c0-0.3,0-0.6,0.1-1c0.1-0.2,0.1-0.5,0.1-0.7c0-0.2,0-0.5,0-0.7
		c0.1-0.4,0.1-0.7,0-1.1c-0.1-0.3-0.1-0.7-0.2-1c0-0.3,0-0.5,0-0.8c0-0.3,0.1-0.5,0.4-0.7c0,0-0.1,0-0.2,0c0.1-0.1,0.2-0.2,0.2-0.3
		c0.1-0.1,0.1-0.2,0.2-0.2c-0.1,0-0.1,0-0.2,0c0,0-0.1,0-0.2,0c0-0.3,0-0.6,0.1-0.8c0.1-0.3,0.1-0.5,0-0.8c0-0.5-0.1-1-0.1-1.5
		c-0.1-0.5,0-1,0.1-1.5c0-0.3,0.1-0.7,0.1-1C61.8,13.6,61.8,13.3,61.9,13z M61.9,32.6c-0.1,0-0.1,0.1-0.1,0.1c0,0.1,0.1,0.1,0.1,0.1
		c0.1,0,0.1-0.1,0.1-0.1C62,32.6,61.9,32.6,61.9,32.6z M61.9,24.1c-0.1,0-0.1,0-0.1,0.1c0,0.1,0,0.1,0.1,0.1c0.1,0,0.1,0,0.1-0.1
		C62.1,24.2,62,24.1,61.9,24.1z M62.1,31.8c-0.1,0-0.1,0-0.1,0.1c0,0.1,0,0.1,0.1,0.1C62.1,32,62.2,31.9,62.1,31.8
		C62.2,31.8,62.2,31.8,62.1,31.8z M62.1,36.2v0.4c0-0.1,0.1-0.2,0.1-0.2c0-0.1,0.1-0.1,0.1-0.2C62.3,36.2,62.2,36.2,62.1,36.2z
		 M62.5,33.6c0,0.2-0.1,0.3-0.1,0.5c0,0.2,0,0.3,0,0.5c0,0.1,0.1,0.2,0.1,0.3c0.1,0.1,0.1,0.2,0.2,0.2c0-0.3,0-0.5-0.1-0.8
		C62.7,34.1,62.6,33.8,62.5,33.6z M63,38.3c-0.1,0-0.1,0-0.1,0.1c0,0.1,0,0.1,0.1,0.1C63,38.5,63.1,38.5,63,38.3
		C63.1,38.4,63,38.3,63,38.3z M63.9,36.8c-0.1,0.1-0.1,0.2-0.1,0.3c0.1,0,0.2,0,0.3-0.1v-0.2C63.9,36.8,63.9,36.8,63.9,36.8z
		 M63.8,38.2c0,0.1,0,0.2,0.1,0.1C64,38.2,64,38.2,63.8,38.2z M64.1,33.9c0,0.2,0.1,0.5,0,0.7c0,0.2,0,0.5-0.1,0.7
		c0.1-0.1,0.2-0.1,0.3-0.2c0.1-0.1,0.1-0.2,0.2-0.3c0-0.2,0.1-0.3,0.1-0.5c0-0.2,0-0.3-0.1-0.5c-0.1,0-0.2,0-0.2,0
		C64.2,33.9,64.1,33.9,64.1,33.9z M64.6,37.8c-0.1,0-0.1,0.1-0.1,0.1c0,0.1,0.1,0.1,0.1,0.1C64.7,38,64.7,37.9,64.6,37.8
		C64.7,37.8,64.7,37.8,64.6,37.8z M65.6,32.8c-0.1,0.6-0.1,1.2,0.2,1.8c0.1-0.3,0.2-0.6,0.2-1C66.1,33.3,65.9,33,65.6,32.8z
		 M65.6,36.3c0.2,0,0.3,0.1,0.4,0.1c0-0.1,0-0.2,0.1-0.3c-0.1,0-0.1,0.1-0.2,0.1S65.6,36.3,65.6,36.3z"/>
	<path class="st0" d="M69.5,13c0.4,0,0.8-0.1,1.2-0.2c0.4-0.1,0.8-0.1,1.2,0c0.2,0.1,0.4,0.2,0.6,0.4c0.1,0.2,0.2,0.4,0.3,0.6
		c-0.1,0.3-0.1,0.6,0,0.8c0.1,0.3,0.2,0.5,0.3,0.8c0.1,0.2,0.1,0.4,0.1,0.6c0,0.2,0,0.4-0.1,0.5c-0.1,0.2-0.1,0.4-0.1,0.5
		c0,0.2,0,0.4,0,0.6c0,0.1,0.1,0.3,0.2,0.4c0.1,0.1,0.2,0.3,0.3,0.4c-0.1,0.2-0.2,0.3-0.3,0.5s-0.1,0.4,0,0.6c0,0.2,0.1,0.4,0.1,0.5
		c0.1,0.2,0.2,0.3,0.2,0.5c0.1,0.2,0.2,0.3,0.2,0.5C74,21,74,21.2,74,21.4c0,0.3-0.1,0.6-0.1,0.9c0,0.3,0.1,0.6,0.1,0.9
		c-0.1,0-0.2,0-0.4,0c-0.1,0-0.2,0-0.4-0.1c-0.1,0-0.2-0.1-0.3-0.2c-0.1-0.1-0.2-0.1-0.3-0.2c0,0.3,0,0.5,0.1,0.7
		c0.1,0.2,0.1,0.5,0.2,0.7c0.1,0.2,0.2,0.5,0.2,0.7c0,0.2,0.1,0.5,0.2,0.7c0.2,0.2,0.4,0.3,0.7,0.4c0.3,0.1,0.5,0.3,0.6,0.5
		c0.1,0.1,0.2,0.2,0.3,0.4c0.1,0.1,0.3,0.2,0.4,0.2c0,0-0.1,0.1-0.1,0.2c0,0.1-0.1,0.1-0.1,0.2c0.1-0.1,0.2-0.1,0.3-0.2
		c0.1-0.1,0.2-0.2,0.3-0.3c0.1-0.3,0.2-0.6,0.2-0.9c0-0.3,0.1-0.6,0.1-1c0-0.3,0.1-0.7,0.2-1c0.1-0.3,0.2-0.6,0.4-0.9
		c0-0.1,0.1-0.2,0.2-0.3c0.1,0.1,0.3,0.1,0.5,0.1c0-0.1-0.1-0.2-0.1-0.3c0-0.1,0-0.2,0.1-0.3c0.1-0.2,0.1-0.4,0.1-0.6
		c0-0.2,0-0.4,0-0.7c-0.1,0.1-0.1,0.1-0.2,0.2c-0.1,0.1-0.1,0.2-0.2,0.2c0-0.1,0-0.2-0.1-0.3c0-0.1,0-0.2-0.1-0.3
		c0,0,0.1-0.1,0.1-0.1c0,0,0.1-0.1,0.1-0.1c-0.1,0-0.2,0-0.2,0c0.1-0.3,0.2-0.7,0.2-1c0-0.3,0.1-0.7,0.1-1c0.1-0.5,0.2-1,0.3-1.5
		c0.1-0.5,0.1-1,0.3-1.5c0-0.3,0.1-0.7,0.3-1c0.1-0.3,0.2-0.6,0.3-1c0-0.2,0-0.4,0.1-0.5c0.1-0.1,0.3-0.3,0.4-0.4c0,0.1,0,0.2,0,0.3
		c0.1-0.1,0.2-0.2,0.4-0.3c0.1-0.1,0.3-0.1,0.4,0c0.2,0.1,0.3,0.1,0.5,0.1c0.2,0,0.3-0.1,0.5-0.2c0.2-0.1,0.3-0.1,0.5-0.1
		c0.2,0,0.3,0,0.5,0.1c0.3,0,0.6,0.1,0.9,0.3c0.3,0.2,0.4,0.4,0.5,0.7c0.1,0.3,0.1,0.5,0,0.7c-0.1,0.2-0.2,0.4-0.2,0.7l-0.2,1.8
		c-0.1,0.4-0.2,0.7-0.3,1c-0.1,0.3-0.2,0.7-0.2,1c0,0.4-0.1,0.7-0.2,1.1c-0.1,0.4-0.2,0.7-0.2,1.1c-0.1,0.6-0.2,1.1-0.3,1.7
		c-0.1,0.6-0.2,1.1-0.3,1.7c0,0.5-0.1,0.9-0.3,1.4c-0.1,0.4-0.3,0.9-0.4,1.3c0,0,0,0,0.1,0c0,0,0,0,0.1,0c-0.2,0.3-0.3,0.7-0.3,1
		c0,0.4-0.1,0.7-0.2,1.1c-0.1,0.5-0.2,0.9-0.3,1.4c-0.1,0.4-0.2,0.9-0.3,1.4c0,0.2-0.1,0.4-0.2,0.6c-0.1,0.2-0.1,0.4-0.1,0.6
		c0,0.5,0,0.9-0.2,1.3c-0.2,0.4-0.3,0.8-0.4,1.2c-0.1,0.5-0.3,0.9-0.6,1.3c-0.2,0.4-0.5,0.8-0.8,1.2c0.1,0,0.1-0.1,0.2-0.1
		c0.1,0,0.1-0.1,0.2-0.1c-0.1,0.3-0.3,0.5-0.6,0.6c-0.3,0.1-0.5,0.2-0.7,0.4c-0.5,0.1-1,0.2-1.5,0.1c-0.5-0.1-1-0.2-1.5-0.2
		c0-0.4-0.2-0.7-0.6-0.9c0-0.3,0-0.6-0.2-0.9c-0.2-0.3-0.3-0.6-0.3-0.9c-0.1-0.2-0.1-0.5-0.1-0.7c0-0.2-0.1-0.5-0.2-0.7
		c-0.3-0.9-0.6-1.8-0.7-2.7c-0.1-0.9-0.3-1.8-0.5-2.7c-0.2-0.6-0.3-1.2-0.4-1.8c-0.1-0.6-0.2-1.2-0.4-1.8c0-0.2-0.1-0.4-0.1-0.6
		c0-0.2,0-0.4,0.1-0.6c0.1-0.1,0.2-0.1,0.3-0.1c0.1,0,0.2,0,0.3-0.1c0,0-0.1,0-0.1-0.1c0,0-0.1,0-0.1-0.1c-0.1,0.1-0.3,0.2-0.6,0.2
		c0.1-0.1,0.2-0.3,0.3-0.3c0.1-0.1,0.2-0.2,0.3-0.3c0,0,0,0.1,0,0.2c0,0.1,0,0.1,0,0.2c0.1-0.4,0-0.8-0.2-1.1c-0.1,0-0.1,0-0.2-0.1
		c-0.1,0-0.2,0-0.2-0.1c-0.1,0-0.1-0.1-0.2-0.1c0-0.1-0.1-0.1,0-0.3c0-0.4-0.1-0.8-0.2-1.2c-0.1-0.4-0.2-0.8-0.2-1.2
		c0-0.3-0.1-0.6-0.2-0.9c-0.1-0.3-0.2-0.6-0.1-0.9c0-0.2,0-0.5-0.1-0.7c-0.1-0.2-0.1-0.4,0.1-0.6c0,0-0.1,0-0.1,0c0,0-0.1,0-0.1,0
		c0-0.2,0-0.4,0-0.6c0-0.2,0-0.4-0.1-0.6c-0.1-0.1-0.2-0.3-0.2-0.4c0-0.1-0.1-0.3-0.1-0.4c0.1,0,0.2,0,0.3-0.1c0.1,0,0.1,0,0.2-0.1
		c-0.1,0-0.2-0.1-0.2-0.1c0-0.2-0.1-0.5-0.2-0.7c-0.1-0.2-0.1-0.5,0-0.7c0.1-0.3,0.3-0.4,0.6-0.4C69.1,12.9,69.3,13,69.5,13z
		 M68.6,15.2c0,0-0.1,0.1-0.1,0.1c0,0.1,0.1,0.1,0.2,0C68.7,15.2,68.7,15.1,68.6,15.2z M68.7,14c0.2-0.1,0.4-0.3,0.6-0.6
		C69,13.5,68.8,13.7,68.7,14z M69,17.8c0.1,0,0.2,0,0.3,0c0.1,0,0.2,0,0.3,0c0,0,0-0.1,0-0.1c0,0,0-0.1,0-0.1
		c-0.1,0-0.2,0.1-0.3,0.2C69.2,17.7,69.1,17.8,69,17.8z M69.4,18.1c0,0-0.1,0.1,0,0.1c0,0,0.1,0,0.1,0c0,0,0-0.1,0-0.1
		C69.5,18.1,69.5,18.1,69.4,18.1z M70.3,18.3c0.1,0.5,0.3,0.9,0.7,1.3c0.3,0.4,0.7,0.7,1.1,1.1c0-0.1-0.1-0.3-0.1-0.4
		c0,0,0.1,0,0.1-0.1c0,0,0.1,0,0.1-0.1c0,0.1,0.1,0.3,0.1,0.5c0,0,0.1,0,0.1-0.1c0,0,0.1,0,0.1-0.1c0-0.1,0-0.2,0-0.2
		c-0.2-0.1-0.4-0.2-0.6-0.3c-0.2-0.1-0.4-0.3-0.5-0.5c-0.2-0.2-0.3-0.4-0.5-0.7C70.8,18.5,70.6,18.4,70.3,18.3z M72.1,20.9
		c0,0.1,0,0.1,0.1,0.2c0.1,0,0.1,0,0.2,0c0-0.1,0-0.1,0-0.2C72.2,20.8,72.2,20.8,72.1,20.9z M72.5,21.5c-0.1,0-0.1,0.1-0.1,0.2
		c0,0.1,0.1,0.1,0.2,0.1c0.1,0,0.1-0.1,0.1-0.1C72.6,21.6,72.6,21.5,72.5,21.5z M72.9,18.8c0,0-0.1,0.1,0,0.2c0,0.1,0.1,0.1,0.1,0
		c0,0,0.1-0.1,0-0.2C73,18.7,72.9,18.7,72.9,18.8z M73.1,20.5c0,0-0.1,0-0.1,0.1c0,0.1,0,0.1,0.1,0.1c0,0,0.1,0,0.1-0.1
		C73.2,20.5,73.2,20.5,73.1,20.5z M73.1,22.6v0.1c0.1,0,0.2,0.1,0.3,0.2c0.1,0.1,0.2,0.1,0.3,0.2c0-0.1,0.1-0.2,0.1-0.3
		c0-0.1,0-0.2,0.1-0.3c-0.1,0-0.3,0-0.4,0C73.4,22.6,73.3,22.6,73.1,22.6z M77.2,23.6L77.2,23.6c0,0.2,0,0.2,0.1,0.1
		C77.4,23.6,77.4,23.6,77.2,23.6z M78,20c0,0-0.1,0.1,0,0.1c0,0,0.1,0,0.1,0c0,0,0-0.1,0-0.1C78.1,19.9,78,19.9,78,20z M78.9,14.8
		c-0.1,0.2-0.2,0.3-0.2,0.6c0,0.2,0,0.4-0.1,0.6c0.1,0,0.2,0.1,0.4,0.1c0.1,0,0.3,0.1,0.4,0.1c0.1-0.2,0.2-0.3,0.4-0.5
		c0.1-0.2,0.3-0.4,0.4-0.6c0,0.1,0,0.2,0,0.3c0,0.1,0,0.2,0,0.3c0.1-0.1,0.2-0.2,0.4-0.3c0,0.1,0.1,0.2,0.2,0.3
		c0.1,0.1,0.2,0.2,0.4,0.1c0.1,0,0.2-0.1,0.2-0.2c0-0.1,0.1-0.2,0.1-0.2c0.1-0.2,0.2-0.4,0.3-0.6c0.1-0.2,0.1-0.4,0-0.7
		c-0.2,0-0.4,0.1-0.5,0.1c-0.2,0-0.3,0-0.5,0c-0.3-0.1-0.7,0-1,0.1C79.4,14.3,79.2,14.5,78.9,14.8z M78.9,27.2c0,0.1,0,0.2,0.1,0.1
		C79.1,27.2,79.1,27.2,78.9,27.2z M80,16.1c0-0.1,0.1-0.2,0.2-0.3c0.1-0.1,0.2-0.2,0.2-0.2c-0.1,0.1-0.1,0.1-0.2,0.2
		C80.1,16,80,16.1,80,16.1z M80.2,18.1c0.1-0.1,0.2-0.1,0.4-0.2c0.1,0,0.2-0.1,0.3-0.2c-0.1-0.1-0.3-0.1-0.5,0
		C80.2,17.8,80.1,18,80.2,18.1z M81.1,17.8c-0.1,0.2-0.2,0.3-0.2,0.5c0,0.2,0,0.3-0.1,0.5c0.2,0,0.3,0.1,0.5,0.2
		c0.2-0.3,0.3-0.5,0.3-0.8c0-0.3-0.1-0.6-0.2-0.8c0,0-0.1,0.1-0.2,0.2C81.2,17.7,81.1,17.8,81.1,17.8z"/>
	<path class="st0" d="M91.6,12.6c0.5,0,0.9,0,1.4-0.1c0.5,0,0.9,0,1.4,0.2c0.2,0,0.4,0.1,0.7,0.2c0.2,0.1,0.4,0.2,0.5,0.4
		c0,0.1,0.1,0.2,0.2,0.4c0.1,0,0.3-0.1,0.5-0.1c0,0.1,0,0.2,0,0.3c0,0.1,0,0.2,0.1,0.3c0.4,0.5,0.7,1,1.2,1.4
		c0.1,0.3,0.2,0.5,0.3,0.8c0.1,0.3,0.2,0.5,0.4,0.8c0,0.2,0,0.4,0,0.6c0,0.2-0.1,0.4-0.1,0.6c0,0.1,0.1,0.2,0.2,0.2
		c0.1,0,0.1,0.1,0.2,0.2c0,0.1-0.1,0.2-0.1,0.2c0,0.2,0.1,0.4,0.1,0.5c0,0.2,0.1,0.3,0.1,0.5c0,0.1,0,0.2,0,0.4
		c-0.1,0.1-0.1,0.2-0.1,0.4c-0.1,0.5-0.1,1.1,0.1,1.6c0.1,0.5,0.2,1.1,0.3,1.6c0,0.3,0,0.7-0.2,1c-0.1,0.3-0.1,0.6,0,1
		c0.1,0.4,0.2,0.7,0.1,1.1c0,0.4-0.1,0.7-0.1,1.1c0,0-0.1,0-0.2,0.1c-0.1,0-0.1,0-0.2,0.1c0-0.1,0-0.2,0.1-0.4c0-0.1,0-0.2-0.1-0.4
		c0,0.4-0.1,0.7,0,1.1c0,0.4,0.1,0.7,0.2,1c0.1,0.5,0.1,1.1,0.1,1.7c0,0.6,0,1.1,0,1.7c0,0.9-0.2,1.8-0.5,2.7
		c-0.2,0.4-0.5,0.8-0.7,1.1c-0.3,0.4-0.6,0.7-0.9,1.1c-0.1,0.1-0.3,0.3-0.4,0.3c-0.2,0.1-0.3,0.2-0.5,0.3c-0.2,0.1-0.4,0.2-0.6,0.3
		c-0.2,0.1-0.4,0.2-0.7,0.2c-0.2,0-0.4,0-0.5,0c-0.2,0-0.3,0-0.5,0c-0.1,0.1-0.2,0.2-0.2,0.4c-0.3-0.1-0.6-0.2-0.9-0.2
		c0,0-0.1,0.1-0.2,0.1c-0.1,0-0.1,0-0.2,0.1c-0.1,0-0.1-0.1-0.2-0.1c0,0,0,0.1,0,0.1s0,0,0,0.1c-0.4,0-0.8,0-1.1-0.1
		c-0.3-0.1-0.7-0.3-1.1-0.4c-0.2-0.1-0.4-0.2-0.5-0.3c-0.1-0.1-0.3-0.2-0.5-0.3c-0.4-0.2-0.7-0.4-0.9-0.8c-0.2-0.3-0.4-0.5-0.6-0.6
		c-0.2-0.2-0.4-0.4-0.5-0.7c0-0.2,0.1-0.4,0.2-0.5c0.1-0.1,0.3-0.3,0.4-0.4c0,0-0.1-0.1-0.1-0.1c0,0-0.1,0-0.1-0.1
		c-0.1,0.1-0.1,0.2-0.2,0.3c-0.1,0.1-0.1,0.2-0.2,0.3c-0.2-0.4-0.3-0.8-0.3-1.2c0.1-0.2,0.2-0.4,0.4-0.6c0,0.1,0,0.2,0,0.2
		c0,0,0.1,0,0.1-0.1c0,0,0.1,0,0.1-0.1c0,0-0.1-0.1-0.1-0.2c0-0.1-0.1-0.1-0.1-0.2c0.1,0,0.3-0.1,0.4-0.1c0.2,0,0.2-0.2,0.1-0.4
		c-0.1-0.1-0.2-0.3-0.3-0.3c-0.1-0.1-0.2-0.2-0.4-0.2c-0.1-0.1-0.2-0.2-0.4-0.2c-0.1-0.1-0.2-0.2-0.2-0.3c-0.1-0.2-0.1-0.4-0.1-0.6
		c0-0.2,0-0.4,0-0.6c0-0.5,0-1-0.1-1.6c0-0.5,0.1-1,0.2-1.5c0.1-0.2,0.1-0.4,0-0.6c-0.1-0.2-0.1-0.4-0.2-0.6c0-0.3,0-0.5,0-0.7
		c0.1-0.2,0.1-0.4,0.1-0.7c0-0.5-0.1-0.9-0.1-1.3c0-0.4,0-0.9-0.1-1.3c0.1-0.4,0.1-0.7,0.1-1c0-0.3,0-0.7,0-1c0-0.2,0-0.5,0-0.7
		c0-0.2,0-0.5,0-0.7c0-0.3,0.1-0.5,0.3-0.6c0.2-0.1,0.4-0.3,0.5-0.5c0,0.4,0.1,0.8,0,1.2c0,0.4,0.1,0.7,0.3,1
		c0.1-0.1,0.2-0.2,0.3-0.4c0.1-0.1,0.1-0.3,0.2-0.4c-0.1-0.2-0.2-0.4-0.3-0.6c-0.1-0.2-0.2-0.4-0.3-0.5c0.1-0.2,0.2-0.4,0.3-0.5
		c0.1-0.2,0.2-0.3,0.3-0.4c0.1-0.1,0.1-0.3,0.1-0.4c-0.1-0.2-0.1-0.3-0.3-0.3c0.3,0,0.5-0.2,0.5-0.4c0.1-0.2,0.1-0.5,0.1-0.7
		c0-0.2,0.1-0.4,0.2-0.5c0.1-0.1,0.3-0.3,0.5-0.4c0.1-0.1,0.2-0.1,0.3-0.1c0.1,0.1,0.2,0.1,0.3,0.2c0-0.1,0-0.3,0.1-0.4
		c0-0.1,0.1-0.3,0.2-0.4c0.1-0.1,0.2-0.2,0.3-0.3c0.1-0.1,0.3-0.1,0.4-0.2c0,0.1-0.1,0.3-0.1,0.4c0.2,0,0.4,0.1,0.6,0.2
		c0.2,0.1,0.4,0.1,0.6,0.1c0-0.2,0.1-0.4,0.1-0.6C91.3,12.9,91.4,12.7,91.6,12.6z M85.9,29.1C85.9,29.1,85.8,29.1,85.9,29.1
		c0,0.2,0,0.2,0.1,0.1C86,29.1,86,29,85.9,29.1z M87,19.8c-0.1,0-0.1,0.1-0.1,0.1C86.9,20,87,20,87,20c0.1,0,0.1-0.1,0.1-0.2
		S87,19.8,87,19.8z M87.3,16.4c0.1,0,0.1,0.1,0.1,0.2c-0.1,0.1-0.1,0.1-0.2-0.1C87.2,16.5,87.3,16.5,87.3,16.4
		C87.3,16.5,87.3,16.5,87.3,16.4z M87.4,36.1c0,0.1,0,0.2,0,0.3s0,0.2,0,0.3c0,0,0.1,0,0.2,0.1s0.1,0,0.2,0.1c0-0.1,0.1-0.2,0.2-0.4
		c-0.1,0-0.2-0.1-0.3-0.2C87.6,36.2,87.5,36.2,87.4,36.1z M88.3,16.9c0,0.1,0.1,0.2,0.1,0.3c0,0.1,0.1,0.2,0.1,0.3
		c0-0.3,0-0.5,0.1-0.8c0,0-0.1,0.1-0.2,0.1C88.5,16.8,88.4,16.8,88.3,16.9z M88.6,32.5c0.1,0.3,0.2,0.5,0.5,0.6
		c0-0.2-0.1-0.5-0.2-0.7C88.8,32.4,88.7,32.4,88.6,32.5z M88.8,13.5c0.1,0,0.1,0,0.2,0c0,0.1,0,0.1-0.1,0.1c-0.1,0-0.1,0-0.1,0
		C88.7,13.6,88.7,13.5,88.8,13.5z M89.6,13.5c0,0-0.1,0.1,0,0.1c0,0,0.1,0,0.1,0c0,0,0.1-0.1,0-0.1C89.7,13.4,89.6,13.4,89.6,13.5z
		 M89.9,25.4c0,0,0,0.1,0,0.1c0,0,0,0.1,0,0.1c0,0,0.1,0,0.2-0.1c0.1,0,0.2,0,0.2-0.1c0,0-0.1-0.1-0.2-0.1
		C90,25.4,90,25.4,89.9,25.4z M90.8,16.8c0,0-0.1-0.1-0.1-0.1c0,0-0.1-0.1-0.1-0.1c0,0.1,0,0.2,0,0.4c0,0.1,0,0.2,0,0.4
		c0,0.2,0,0.4-0.1,0.5c-0.1,0.2-0.2,0.3-0.2,0.5c0.1,0,0.1-0.1,0.2-0.2c0.1-0.1,0.2-0.1,0.3-0.2c0,0.2-0.1,0.5-0.1,0.7
		c0,0.2-0.1,0.4-0.1,0.7c0,0.9,0,1.7,0,2.5s0,1.7,0,2.5c0,0.3,0,0.7,0.1,1c0.1,0.4,0.1,0.7,0,1.1c0,0-0.1,0-0.1,0.1
		c0,0-0.1,0-0.1,0.1c-0.1-0.1-0.2-0.2-0.3-0.3c-0.1-0.1-0.2-0.2-0.4-0.3c0,0.5,0.1,0.9,0.2,1.4c0.1,0.5,0.2,0.9,0.1,1.4
		c0,0,0,0,0.1,0c0,0,0.1,0,0.1,0c0,0,0-0.1,0-0.2c0-0.1,0-0.2,0-0.2h0.4c0,0.1-0.1,0.2-0.2,0.4c-0.1,0.1-0.2,0.2-0.2,0.4
		c-0.1,0.1-0.1,0.2-0.1,0.4c0,0.1,0,0.3,0.2,0.4l0.2-0.6c0.1,0.4,0,0.7-0.1,1.2c0,0.1,0,0.1,0,0.2c0.1,0.1,0.1,0.2,0.2,0.2
		c0.2,0.4,0.3,0.8,0.2,1.3c-0.1,0.5-0.1,0.9-0.1,1.4c0.1,0.3,0.3,0.6,0.5,0.9c0.2,0.2,0.4,0.5,0.6,0.8v0.3c0.2-0.2,0.5-0.3,0.7-0.4
		c0.3-0.1,0.5-0.2,0.7-0.5c0.1-0.1,0.3-0.2,0.4-0.3c0.1-0.1,0.3-0.2,0.4-0.3h-0.1c0-0.3,0-0.6-0.1-0.8c-0.1-0.3-0.1-0.5,0-0.8
		c0-0.1,0.1-0.3,0.2-0.5c0.1-0.2,0.1-0.3,0-0.5c0,0,0.1-0.1,0.1-0.3c-0.1,0.1-0.2,0.2-0.3,0.2c0-0.3,0-0.6,0.1-0.9
		c0.1-0.3,0.2-0.5,0.4-0.8L94,29.4c0-0.4,0-0.7-0.1-1.1c0-0.4-0.1-0.7-0.1-1.1c0.1,0,0.2,0,0.3,0.1c0.1,0,0.2,0,0.3,0
		c0,0.1-0.1,0.3-0.2,0.4c-0.1,0.1-0.1,0.3-0.2,0.5c0.2-0.2,0.3-0.5,0.4-0.7c0.1,0,0.2,0.1,0.3,0.1c0.1,0,0.2,0.1,0.2,0.2
		c0.1,0.3,0.2,0.5,0.2,0.8c0,0.3,0,0.6,0.1,0.9c0,0.2,0.1,0.4,0.1,0.6s0.1,0.4,0.3,0.5c0-0.1,0.1-0.2,0.1-0.3c0-0.1,0.1-0.2,0.1-0.3
		c0,0,0.1,0,0.2,0c0.1,0,0.1,0,0.2,0c0.1-0.2,0.1-0.4,0.1-0.6c-0.1-0.5-0.3-1-0.6-1.5c-0.3-0.5-0.5-0.9-0.7-1.4
		c-0.1-0.2-0.2-0.3-0.2-0.5c0-0.2-0.1-0.3-0.2-0.4c-0.2,0-0.3,0-0.4,0.1c-0.1,0.1-0.2,0.2-0.3,0.3c-0.2-0.7-0.2-1.3-0.1-2
		c0.1-0.7,0.1-1.3,0.1-1.9c0-0.5,0-0.9-0.1-1.4c0-0.5,0.1-0.9,0.3-1.3h-0.2c0,0,0.1-0.1,0.1-0.2c0-0.1,0-0.1,0.1-0.2
		c-0.1,0-0.1,0-0.1,0c0.1-0.2,0.1-0.5,0.1-0.7c0-0.2-0.1-0.4-0.1-0.6c0-0.1,0-0.2,0-0.3c0-0.1,0-0.2-0.1-0.2
		c-0.3-0.2-0.6-0.3-0.9-0.5c-0.3-0.1-0.6-0.3-0.8-0.6c-0.2-0.2-0.5-0.3-0.7-0.2C91,16.3,90.8,16.5,90.8,16.8z M90.1,19.2
		c0,0-0.1,0-0.2,0c-0.1,0-0.1,0.1-0.1,0.1c0,0,0.1,0,0.2,0C90.2,19.3,90.2,19.3,90.1,19.2z M90.1,27.1c0.1,0,0.2,0,0.3-0.1
		c0.1,0,0.2,0,0.3-0.1c0,0,0,0.1-0.1,0.3C90.4,27.2,90.3,27.1,90.1,27.1z M90.3,38.3c0,0-0.1,0.1-0.1,0.1c0,0.1,0,0.1,0.1,0.1
		c0.1,0,0.1,0,0.1-0.1S90.4,38.3,90.3,38.3z M90.2,27.2h0.4c-0.1,0.2-0.1,0.3,0,0.5c0,0.2,0.1,0.3,0.2,0.4c0,0-0.1,0-0.2,0
		c-0.1,0-0.1,0-0.2,0C90.3,27.8,90.3,27.5,90.2,27.2z M90.3,13c0.1,0,0.2-0.1,0.3-0.1c0.1,0,0.2-0.1,0.3-0.1c0,0,0,0.1,0.1,0.1
		c0,0,0,0.1,0.1,0.1c-0.1,0-0.3,0.1-0.4,0.1c-0.1,0-0.3,0-0.4,0.1V13z M90.7,38.6c0.1,0,0.2-0.1,0.3-0.1c0.1,0,0.2-0.1,0.3-0.1
		C91.1,38.3,90.9,38.4,90.7,38.6z M92.4,16.2c0.2,0.2,0.4,0.3,0.7,0.2c-0.1,0-0.2-0.1-0.3-0.1C92.7,16.2,92.6,16.2,92.4,16.2z
		 M94,32.4c0,0-0.1,0.1,0,0.2c0,0.1,0.1,0.1,0.1,0c0,0,0.1-0.1,0-0.2C94.1,32.4,94,32.4,94,32.4z M94,26.6c0.1,0,0.1,0,0.1,0.1
		c0,0.1,0,0.1-0.1,0.1c-0.1,0-0.1,0-0.1-0.1C94,26.7,94,26.6,94,26.6z M95.6,20.2c0.1,0.3,0.2,0.5,0.3,0.8c0.1,0.3,0.2,0.5,0.4,0.7
		c0.1-0.2,0.1-0.5-0.1-0.7c-0.1-0.2-0.2-0.4-0.3-0.6c0,0,0.1-0.1,0.2-0.1c0.1,0,0.1-0.1,0.2-0.1c-0.1,0-0.2,0-0.3,0
		C95.8,20.2,95.7,20.2,95.6,20.2z M95.6,31.3c0,0,0.1-0.1,0.2-0.2c0.1-0.1,0.2-0.1,0.2-0.2C96,31,95.9,31,95.8,31.1
		C95.7,31.2,95.6,31.2,95.6,31.3z M96.6,21.3c0,0.1,0,0.2,0,0.3c0,0.1,0,0.2-0.1,0.4c0.1,0,0.2,0,0.2,0c0,0.1-0.1,0.2-0.1,0.3
		c-0.1,0-0.2-0.1-0.3-0.1c-0.1,0-0.2-0.1-0.3-0.1c0,0.2-0.1,0.4-0.1,0.6c0,0.2,0,0.4,0,0.6c0,0.3,0.1,0.6,0.3,0.9
		c0.2,0.3,0.3,0.6,0.4,0.9c0,0.1,0.1,0.2,0.2,0.3c0.1,0.1,0.2,0.2,0.2,0.3c0-0.1,0.1-0.3,0.1-0.4c0-0.2,0-0.3,0-0.4
		c-0.1-0.2-0.2-0.5-0.4-0.7c0.1,0,0.2-0.1,0.3-0.1c0.1,0,0.2-0.1,0.2-0.1c0-0.1,0-0.2,0-0.3c0-0.1,0-0.2-0.1-0.3
		c0-0.1-0.1-0.1-0.2-0.1c-0.1,0-0.2,0-0.2,0c0-0.2,0.2-0.4,0.5-0.4c0-0.3,0-0.5-0.1-0.8C97.1,21.6,96.9,21.4,96.6,21.3z M96.4,30.4
		c0,0-0.1,0.1,0,0.2c0,0.1,0.1,0.1,0.1,0c0,0,0.1-0.1,0-0.1C96.4,30.4,96.4,30.4,96.4,30.4z M97.1,28.7c-0.1,0-0.1,0-0.2,0
		c-0.1,0-0.1,0-0.2,0c-0.1,0.3-0.1,0.6-0.1,1c0,0.4,0.2,0.6,0.6,0.8c0-0.2,0.1-0.4,0.1-0.5c0-0.2,0-0.3,0-0.5
		c-0.1-0.3-0.1-0.6,0-0.9C97.2,28.6,97.1,28.7,97.1,28.7z M96.8,28.2c0,0-0.1,0-0.1,0.1c0,0,0,0.1,0,0.1c0,0,0.1,0,0.2-0.1
		C97,28.2,96.9,28.2,96.8,28.2z M96.8,18.5c0,0.3,0.1,0.5,0.1,0.7c0.2-0.1,0.3-0.2,0.5-0.2C97.2,18.7,97,18.6,96.8,18.5z M96.9,19.7
		c0.2,0,0.4,0,0.6,0c0.2,0,0.3-0.1,0.4-0.2c-0.2,0-0.3,0.1-0.5,0.1C97.2,19.6,97,19.7,96.9,19.7z M97.6,18.2c0,0-0.1,0-0.2,0
		c-0.1,0-0.1,0.1,0,0.2c0,0,0.1,0,0.2,0C97.6,18.3,97.7,18.3,97.6,18.2z M97.6,23.8c0,0-0.1,0.1-0.1,0.1c0,0.1,0,0.1,0.1,0
		c0.1,0,0.1,0,0.1-0.1C97.8,23.8,97.7,23.7,97.6,23.8z M98.2,26.5c0,0.1,0,0.2,0,0.4c0,0.1,0,0.3,0,0.4h0.2c0.1-0.1,0.2-0.2,0.2-0.2
		c0,0-0.1,0-0.2,0c-0.1,0-0.1,0-0.2,0c0.1-0.2,0.3-0.4,0.5-0.6c-0.1,0-0.2,0-0.2,0.1C98.4,26.5,98.3,26.5,98.2,26.5z"/>
	<path class="st0" d="M101.2,13c0-0.2,0.2-0.3,0.4-0.3c0.2,0,0.4,0,0.5,0c0.2,0,0.4,0.1,0.6,0.2c0.2,0.1,0.4,0.1,0.6,0.2
		c0,0.1,0,0.3,0,0.5c0-0.1,0-0.1,0-0.2c0,0,0.1-0.1,0.1-0.1c0.1,0.1,0.2,0.3,0.2,0.4c0.1,0.1,0.2,0.2,0.4,0.3
		c0.1-0.2,0.2-0.3,0.3-0.4c0.1-0.1,0.3-0.2,0.4-0.3c-0.1,0-0.2,0-0.3,0.1c-0.1,0-0.2,0-0.3,0.1c-0.1-0.1-0.2-0.2-0.3-0.3
		c-0.1-0.1-0.2-0.2-0.2-0.4c0.2,0,0.4,0,0.5,0c0.1,0.1,0.3,0.1,0.4,0.2c0.1,0.1,0.2,0.2,0.4,0.4c0.1,0.1,0.2,0.3,0.3,0.4
		c0,0,0-0.1,0-0.2c0-0.1,0-0.1,0-0.2c0,0,0.1,0,0.1,0.1c0,0,0,0,0.1,0.1c0,0.3,0,0.6,0.2,0.9c0.2,0.3,0.3,0.6,0.3,0.9
		c0,0.4,0.1,0.8,0,1.1c0,0.4-0.1,0.7-0.1,1.1c0,0.4-0.1,0.8-0.1,1.2c0,0.4,0,0.8,0,1.2c0,0.3,0,0.6-0.1,0.9c0,0.3-0.1,0.6-0.1,0.9
		c0,0.3,0,0.6,0.1,0.9c0,0.3,0.1,0.6,0.1,0.9c0,0.4,0,0.8-0.1,1.2c-0.1,0.4-0.1,0.7,0,1.1c0,0.2,0,0.4,0.1,0.7
		c0.1,0.2,0.1,0.5,0,0.7c0,0.6,0,1.2,0,1.9c0.1,0.6,0,1.2-0.1,1.8c0,0.4,0.1,0.7,0.2,1.1c0.1,0.4,0.1,0.7,0,1.1
		c-0.1,0.6-0.1,1.1-0.1,1.7c0.1,0.6,0.1,1.1-0.1,1.7c0,0.3-0.1,0.6-0.1,0.9c0,0.3,0,0.6-0.1,0.9c-0.3,0.5-0.7,0.7-1.2,0.6
		c-0.4,0-0.7-0.1-1.1,0c-0.3,0-0.7,0-1-0.1c-0.2-0.2-0.5-0.3-0.7-0.5c-0.2-0.2-0.4-0.4-0.6-0.7c-0.1-0.4-0.1-0.8-0.1-1.2
		c0-0.4,0.1-0.8,0.1-1.2c0-0.3,0-0.7-0.1-1c-0.1-0.3-0.1-0.6-0.1-1c0-0.3,0-0.5,0-0.7c0-0.2,0-0.5,0-0.7c0-0.5,0.1-1,0-1.5
		c0-0.5,0-1,0-1.5c0-0.3,0-0.7,0-1c0-0.3,0-0.6-0.1-1c0-0.3,0-0.7,0-1c0-0.3,0-0.6,0.1-1c0.1-0.2,0.1-0.5,0.1-0.7c0-0.2,0-0.5,0-0.7
		c0.1-0.4,0.1-0.7,0-1.1c-0.1-0.3-0.1-0.7-0.2-1c0-0.3,0-0.5,0-0.8c0-0.3,0.1-0.5,0.4-0.7c0,0-0.1,0-0.2,0c0.1-0.1,0.2-0.2,0.2-0.3
		c0.1-0.1,0.1-0.2,0.2-0.2c-0.1,0-0.1,0-0.2,0c0,0-0.1,0-0.2,0c0-0.3,0-0.6,0.1-0.8c0.1-0.3,0.1-0.5,0-0.8c0-0.5-0.1-1-0.1-1.5
		c-0.1-0.5,0-1,0.1-1.5c0-0.3,0.1-0.7,0.1-1C101.1,13.6,101.1,13.3,101.2,13z M101.2,32.6c-0.1,0-0.1,0.1-0.1,0.1
		c0,0.1,0.1,0.1,0.1,0.1c0.1,0,0.1-0.1,0.1-0.1C101.3,32.6,101.2,32.6,101.2,32.6z M101.3,24.1c-0.1,0-0.1,0-0.1,0.1
		c0,0.1,0,0.1,0.1,0.1c0.1,0,0.1,0,0.1-0.1C101.4,24.2,101.4,24.1,101.3,24.1z M101.4,31.8c-0.1,0-0.1,0-0.1,0.1
		c0,0.1,0,0.1,0.1,0.1C101.5,32,101.5,31.9,101.4,31.8C101.5,31.8,101.5,31.8,101.4,31.8z M101.4,36.2v0.4c0-0.1,0.1-0.2,0.1-0.2
		c0-0.1,0.1-0.1,0.1-0.2C101.6,36.2,101.6,36.2,101.4,36.2z M101.8,33.6c0,0.2-0.1,0.3-0.1,0.5c0,0.2,0,0.3,0,0.5
		c0,0.1,0.1,0.2,0.1,0.3c0.1,0.1,0.1,0.2,0.2,0.2c0-0.3,0-0.5-0.1-0.8C102,34.1,101.9,33.8,101.8,33.6z M102.3,38.3
		c-0.1,0-0.1,0-0.1,0.1c0,0.1,0,0.1,0.1,0.1C102.4,38.5,102.4,38.5,102.3,38.3C102.4,38.4,102.4,38.3,102.3,38.3z M103.2,36.8
		c-0.1,0.1-0.1,0.2-0.1,0.3c0.1,0,0.2,0,0.3-0.1v-0.2C103.3,36.8,103.2,36.8,103.2,36.8z M103.1,38.2c0,0.1,0,0.2,0.1,0.1
		C103.3,38.2,103.3,38.2,103.1,38.2z M103.4,33.9c0,0.2,0.1,0.5,0,0.7c0,0.2,0,0.5-0.1,0.7c0.1-0.1,0.2-0.1,0.3-0.2
		c0.1-0.1,0.1-0.2,0.2-0.3c0-0.2,0.1-0.3,0.1-0.5c0-0.2,0-0.3-0.1-0.5c-0.1,0-0.2,0-0.2,0C103.5,33.9,103.5,33.9,103.4,33.9z
		 M104,37.8c-0.1,0-0.1,0.1-0.1,0.1c0,0.1,0.1,0.1,0.1,0.1C104.1,38,104.1,37.9,104,37.8C104,37.8,104,37.8,104,37.8z M105,32.8
		c-0.1,0.6-0.1,1.2,0.2,1.8c0.1-0.3,0.2-0.6,0.2-1C105.4,33.3,105.3,33,105,32.8z M104.9,36.3c0.2,0,0.3,0.1,0.4,0.1
		c0-0.1,0-0.2,0.1-0.3c-0.1,0-0.1,0.1-0.2,0.1S105,36.3,104.9,36.3z"/>
	<path class="st0" d="M117.6,12.7c0.2,0,0.3,0,0.4,0.1c0.1,0.1,0.2,0.2,0.4,0.3c0.1-0.3,0.3-0.4,0.6-0.4c0.3,0,0.5,0,0.7,0
		c0,0.1-0.1,0.2-0.1,0.3c0,0.1,0,0.2,0,0.3c-0.6,0.1-1.3,0.2-2,0.2c0-0.1,0.1-0.3,0.1-0.4l-0.6,0.7c0.3,0.1,0.6,0.1,0.9,0
		c0.3-0.1,0.6-0.2,0.9-0.2c0.1,0,0.2,0.1,0.2,0.1c0.1,0,0.1,0.1,0.2,0.1c0.1-0.1,0.3-0.1,0.5-0.2c0.2-0.1,0.3-0.1,0.5-0.2
		c0-0.2,0-0.3,0.2-0.5c0.2-0.1,0.3-0.2,0.5-0.1c0.3,0,0.4,0.1,0.4,0.4c0,0.2,0,0.4-0.1,0.6c-0.1,0.3-0.2,0.6-0.4,0.9
		c-0.2,0.2-0.4,0.5-0.5,0.9c-0.1,0.4-0.3,0.8-0.5,1.2c-0.2,0.4-0.4,0.8-0.6,1.2c-0.2,0.3-0.4,0.7-0.6,1c-0.2,0.3-0.4,0.6-0.6,1
		c-0.1,0.2-0.2,0.4-0.3,0.7c0,0.3-0.2,0.5-0.4,0.7c0,0.3,0,0.5-0.1,0.7c-0.1,0.2-0.2,0.4-0.3,0.7c-0.1,0.3-0.3,0.5-0.5,0.7
		c-0.2,0.2-0.4,0.5-0.4,0.8c0,0.3-0.1,0.5-0.1,0.7c0,0.2,0,0.5,0.1,0.7c0.1,0.2,0.1,0.4,0.1,0.6c0,0.2,0.1,0.4,0.1,0.6
		c0,0.2,0.1,0.4,0.3,0.5c0.1,0.1,0.3,0.3,0.4,0.5c0.5,0.7,0.8,1.5,1,2.3c0.3,0.4,0.5,0.8,0.6,1.2c0.2,0.4,0.4,0.9,0.6,1.3
		c0,0.1,0.1,0.2,0.2,0.3c0.1,0.1,0.1,0.2,0.1,0.3c0,0.1-0.1,0.2-0.2,0.3c-0.1,0-0.3,0.1-0.4,0.1c0.1,0.3,0.2,0.7,0.3,1
		c0.1,0.3,0.2,0.6,0.2,1c0,0.2-0.1,0.4-0.2,0.6c-0.1,0.2-0.1,0.4,0,0.6c0.1,0.1,0.2,0.2,0.4,0.2c0.2,0,0.3-0.1,0.4-0.1
		c0-0.1,0.1-0.3,0.1-0.4c0-0.2,0.1-0.2,0.4-0.1c0,0.1,0,0.2,0.1,0.3c0.1,0.1,0.1,0.2,0,0.3c-0.1,0.1-0.2,0.2-0.3,0.2
		c-0.1,0-0.2,0.1-0.4,0.1c-0.1,0.2-0.3,0.3-0.5,0.2c-0.2-0.1-0.5-0.1-0.6,0c-0.2,0-0.3,0.1-0.2,0.3c0,0.2,0.1,0.3,0.2,0.4
		c0.2,0,0.3,0.1,0.5,0.2c0.2,0.1,0.4,0.1,0.6,0c0.1,0,0.2,0,0.3,0c0.1,0,0.2,0.1,0.2,0.1c0,0.1-0.1,0.2-0.1,0.3
		c0,0.1-0.1,0.2-0.3,0.1c-0.5,0-0.9,0-1.4,0s-0.9,0-1.4-0.1c0.1-0.1,0.2-0.2,0.2-0.2c-0.2,0.1-0.4,0.1-0.6-0.1
		c-0.2-0.2-0.3-0.3-0.4-0.5c-0.1-0.3-0.2-0.6-0.3-0.9c-0.1-0.3-0.3-0.6-0.5-0.9c-0.3-0.3-0.5-0.7-0.6-1.1c-0.1-0.4-0.2-0.8-0.4-1.2
		c-0.3-0.6-0.6-1.3-0.9-1.9c-0.3-0.6-0.7-1.2-1.1-1.8c0,0,0,0-0.1,0c0,0,0,0-0.1-0.1c0,0.2,0,0.5,0,0.7c0,0.2,0.1,0.5,0.1,0.7
		c0,0.2,0.1,0.5,0.1,0.7c0,0.2,0,0.5-0.1,0.7c-0.1,0.3-0.1,0.7-0.1,1c0,0.3,0,0.7,0.1,1c0,0.1-0.1,0.2-0.2,0.4
		c-0.1,0.1-0.2,0.2-0.3,0.3c-0.1,0-0.1,0-0.2-0.1c0-0.1-0.1-0.1-0.1-0.2c0,0-0.1,0.1-0.1,0.1c0,0-0.1,0.1-0.1,0.1
		c0-0.1-0.1-0.3-0.2-0.4c-0.1-0.1-0.1-0.2-0.2-0.4c0,0.2-0.1,0.4-0.1,0.6c0,0.2-0.1,0.4-0.1,0.6c-0.1,0.2-0.2,0.3-0.3,0.4
		c-0.1,0.1-0.2,0.3-0.3,0.4c-0.1-0.1-0.3-0.3-0.4-0.4c-0.2-0.1-0.3-0.2-0.6-0.3c-0.1,0.1-0.2,0.3-0.3,0.4c-0.1,0.2-0.2,0.3-0.4,0.3
		c0.1,0.2,0.1,0.5,0,0.7c-0.1,0.2-0.1,0.4-0.2,0.6c-0.1-0.1-0.3-0.1-0.4-0.2c-0.1-0.1-0.2-0.2-0.2-0.3c-0.1-0.8-0.1-1.7-0.1-2.5
		c0-0.8,0-1.7,0-2.5c0-0.6,0-1.3,0-1.9c0.1-0.7,0-1.3-0.1-1.9c0.3,0,0.5-0.2,0.6-0.3c0.1-0.2,0.2-0.4,0.3-0.6c0-0.1,0-0.2-0.1-0.2
		c-0.1,0-0.2-0.1-0.2-0.1v0.5c-0.1,0-0.1-0.1-0.2-0.2c-0.1-0.1-0.1-0.1-0.2-0.2c0-0.2,0-0.5,0.1-0.7c0-0.2,0-0.4,0-0.7
		c0-0.1,0-0.2,0-0.4c0-0.1,0-0.2,0-0.4c0-0.1,0.1-0.1,0.2-0.2c0.1-0.1,0.1-0.2,0.2-0.3c-0.2-0.2-0.3-0.4-0.3-0.6
		c0-0.2,0-0.4,0.2-0.6c0,0-0.1,0-0.2,0c0-0.3,0-0.5,0-0.7c0-0.2,0-0.5-0.1-0.7c-0.1-0.4-0.1-0.8,0-1.2c0.1-0.4,0.1-0.7,0-1.1
		c-0.1-0.4-0.1-0.8-0.1-1.2c0.1-0.4,0.1-0.8,0.1-1.2c0-0.2,0-0.5,0.1-0.7c-0.1,0-0.1,0-0.1,0c0-0.1,0.1-0.2,0.1-0.3
		c0-0.1,0-0.2,0-0.3c0-0.4-0.1-0.7-0.1-1.1c0-0.4,0-0.7,0.1-1.1c-0.1-0.3,0-0.5,0.3-0.5c0,0.2,0.1,0.3,0.1,0.5
		c0,0.2,0.1,0.3,0.1,0.4c0-0.1,0-0.1,0.1-0.2c0,0,0-0.1,0.1-0.1c0,0,0.1,0,0.1,0.1c0.1-0.1,0.2-0.2,0.3-0.3c0.1-0.1,0.2-0.2,0.3-0.3
		c0-0.1-0.1-0.2-0.2-0.4c-0.1-0.1,0-0.3,0.1-0.4c0.3,0,0.5-0.1,0.8,0c0.2,0,0.5,0.1,0.8,0.1c0.2,0,0.4,0,0.6,0c0.2,0,0.4,0,0.6,0
		c0.1,0,0.2,0.1,0.2,0.2c0,0.1,0,0.2,0.1,0.4c-0.1,0-0.2,0.1-0.3,0.2c-0.1,0.1-0.2,0.1-0.3,0.2c-0.1,0-0.2-0.1-0.4-0.2
		c-0.1-0.1-0.2-0.1-0.4-0.2c-0.2,0-0.3,0.1-0.5,0.1c-0.2,0-0.3,0.1-0.5,0.1c0.1,0,0.1,0.1,0.2,0.1c0.1,0,0.1,0.1,0.2,0.1
		c0.2,0.3,0.5,0.6,0.9,0.7c0.1,0,0.2,0,0.3,0c0.1,0,0.2,0,0.3-0.1c0.1,0.4,0.2,0.7,0.3,1.1c0.1,0.4,0.2,0.7,0.1,1.1
		c-0.1,0.2-0.1,0.4-0.2,0.6c0,0.2-0.1,0.4-0.2,0.6c-0.1,0.2-0.2,0.4-0.5,0.4c-0.2,0-0.5,0.1-0.6,0.1c0.3,0.4,0.7,0.8,1.1,1.2
		c0.1,0,0.2-0.1,0.4-0.1c0,0.1,0,0.3,0.1,0.4c0,0.1,0,0.3,0.1,0.4c0.1,0,0.2,0.1,0.4,0.2c0.1-0.1,0.2-0.2,0.3-0.4
		c0.1-0.1,0.2-0.2,0.3-0.4c0.1-0.2,0.2-0.3,0.3-0.5c0.1-0.2,0.1-0.3,0.2-0.5c0.2-0.3,0.4-0.6,0.6-0.9c0.2-0.3,0.4-0.6,0.7-0.8
		c0.2-0.2,0.4-0.4,0.6-0.6c0.2-0.2,0.4-0.4,0.5-0.7c-0.1,0-0.2,0-0.3-0.1c-0.1,0-0.2,0-0.3-0.1c0-0.1,0.1-0.1,0.2-0.2
		c0.1-0.1,0.1-0.1,0.2-0.2c0,0-0.1,0-0.3,0c0.2-0.2,0.4-0.5,0.6-0.7c0,0-0.1,0-0.1,0c0,0-0.1,0-0.1,0c0.1-0.1,0.1-0.3,0.2-0.4
		c0-0.2,0.1-0.3,0.1-0.4c0-0.1,0.1-0.1,0.2-0.1c0.1,0,0.2,0,0.3,0c0,0,0.1-0.1,0.1-0.3c-0.1,0-0.2,0-0.2,0c-0.1,0-0.1,0-0.2,0
		c0.2-0.2,0.3-0.4,0.5-0.6C117.1,12.8,117.3,12.7,117.6,12.7z M107.9,31.4c-0.1,0-0.1,0.1-0.1,0.1c0,0.1,0.1,0.1,0.2,0
		c0.1,0,0.1-0.1,0.1-0.2C108,31.4,108,31.4,107.9,31.4z M108.1,27c0,0,0,0.1,0.1,0.2c0,0.1,0,0.2,0.1,0.2c0.1,0,0.1-0.1,0.2-0.2
		c0-0.1,0.1-0.1,0.2-0.2C108.4,27,108.2,27,108.1,27z M108.3,26.6c0,0-0.1,0-0.1,0.1c0,0.1,0,0.1,0,0.2c0.1,0,0.1,0,0.2-0.1
		C108.5,26.7,108.5,26.6,108.3,26.6z M110.2,37.1c0.2,0.1,0.5,0.2,0.7,0.2v0.2c-0.1,0-0.2,0.1-0.3,0.1c-0.1,0-0.2,0-0.3-0.1
		c-0.1,0-0.1-0.1-0.1-0.2C110.2,37.3,110.2,37.2,110.2,37.1z M111.8,36.6c0.1-0.1,0.2-0.1,0.3-0.1c0.1,0,0.2,0,0.3,0
		c0,0-0.1,0.1-0.1,0.1c0,0-0.1,0.1-0.1,0.1c0.1,0,0.2,0,0.4-0.1c-0.1,0.3-0.1,0.5-0.1,0.8c0,0.3-0.1,0.6-0.2,0.8
		c-0.1,0.1-0.2,0.2-0.3,0.2c-0.1,0.1-0.2,0.1-0.3,0.2c0,0,0-0.1,0.1-0.1c0,0,0-0.1,0.1-0.1c-0.2,0-0.3,0.1-0.5,0.1
		c-0.2,0-0.3,0-0.5-0.1c-0.1-0.1-0.2-0.2-0.2-0.4c0-0.1-0.1-0.3-0.1-0.4c0.1,0,0.2,0,0.3-0.1c0.1,0,0.2,0,0.3-0.1
		c0.1-0.2,0.3-0.4,0.4-0.6C111.5,37,111.6,36.8,111.8,36.6z M110.4,16.8c0,0.3,0,0.6,0.1,0.9c0.1,0.3,0.1,0.6,0.2,0.8
		c0.1,0,0.1-0.1,0.2-0.2s0.1-0.1,0.2-0.2c-0.1,0-0.1-0.1-0.2-0.1c-0.1,0-0.1-0.1-0.2-0.2c0.1-0.2,0.2-0.4,0.3-0.6
		c-0.1-0.1-0.2-0.1-0.3-0.2C110.7,16.9,110.6,16.8,110.4,16.8z M110.8,21.5c0,0,0,0.1-0.1,0.1c0,0.1,0.1,0.1,0.2,0
		C110.9,21.5,110.9,21.5,110.8,21.5z M111.1,16.6c0,0-0.1,0-0.1,0.1c0,0.1,0,0.1,0,0.2c0.1,0,0.1,0,0.2-0.1
		C111.2,16.8,111.2,16.7,111.1,16.6z M111.7,13.9c0.1,0,0.2,0,0.3-0.1c0,0.3,0,0.5-0.2,0.7C111.7,14.4,111.7,14.1,111.7,13.9z
		 M115.4,24c0,0-0.1,0-0.1,0.1c0,0.1,0,0.1,0.1,0.1c0.1,0,0.1-0.1,0.1-0.1C115.5,24,115.5,24,115.4,24z M115.7,23.3
		c0,0,0.1,0.1,0.2,0.1c0.1,0,0.1,0.1,0.2,0.1c0,0-0.1-0.1-0.1-0.1c0,0,0-0.1-0.1-0.1c0.2-0.1,0.3-0.3,0.4-0.5
		c0.1-0.2,0.1-0.4,0.2-0.6c-0.2,0.1-0.4,0.3-0.5,0.4C115.8,22.8,115.7,23,115.7,23.3z M115.7,33.4c0,0.2,0,0.4,0,0.6
		c0,0.2,0.1,0.4,0.2,0.6c0.2,0.4,0.4,0.7,0.6,1.1c0.2,0.4,0.4,0.7,0.6,1.1c0.1,0,0.2,0,0.3,0c0.1,0,0.2,0,0.3,0
		c0.3,0,0.4-0.1,0.6-0.4c0.1-0.2,0.2-0.5,0.3-0.6c0-0.3-0.1-0.5-0.4-0.7c-0.3-0.2-0.5-0.3-0.7-0.4c0,0,0.1,0.1,0.1,0.2
		c0,0.1,0.1,0.1,0.1,0.2c-0.1,0-0.2-0.1-0.3-0.2c-0.1-0.1-0.2-0.1-0.2-0.2c0.1-0.1,0.1-0.2,0.1-0.3c0,0-0.1,0.1-0.2,0.1
		c-0.1-0.1-0.1-0.3-0.2-0.4c-0.1-0.2-0.2-0.3-0.3-0.3c-0.2,0-0.4-0.1-0.5-0.2C116.1,33.5,115.9,33.5,115.7,33.4z M115.9,23.7v0.4
		c0-0.1,0.1-0.1,0.1-0.2c0-0.1,0.1-0.2,0.1-0.2c0,0-0.1,0-0.1,0.1C116,23.7,116,23.7,115.9,23.7z M116.4,32.8
		c-0.1,0-0.1,0.1-0.1,0.2c0,0.1,0.1,0.1,0.2,0c0.1,0,0.1-0.1,0.1-0.2C116.6,32.8,116.5,32.7,116.4,32.8z M116.6,14.3
		c-0.1,0-0.1,0.1-0.1,0.1c0,0.1,0.1,0.1,0.1,0C116.7,14.4,116.7,14.3,116.6,14.3C116.7,14.2,116.6,14.2,116.6,14.3z M116.8,33.6
		c0.1,0,0.2-0.1,0.2-0.1v-0.4c0,0.1-0.1,0.1-0.1,0.2C116.9,33.5,116.8,33.5,116.8,33.6z M119,14.8c0,0.1,0,0.2,0,0.3
		c0,0.1,0,0.2,0,0.3c0.1,0,0.2-0.1,0.4-0.2c0.1-0.1,0.3-0.1,0.4-0.2v0.3c0-0.1,0.1-0.2,0.2-0.3c0.1-0.1,0.1-0.2,0.2-0.3
		c-0.2-0.1-0.4-0.2-0.6-0.1C119.5,14.7,119.3,14.8,119,14.8z M120.6,38.3c0-0.1,0.1-0.2,0.1-0.3c0-0.1,0.1-0.2,0.1-0.2
		c0,0,0,0.1,0,0.2c0,0.1,0,0.1,0,0.2C120.8,38.1,120.7,38.2,120.6,38.3z M121,37.7c0,0,0.1,0,0.2,0c0.1,0,0.1,0.1,0,0.1
		c0,0.1-0.1,0.1-0.2,0C121,37.8,121,37.8,121,37.7z"/>
</g>
<g>
	<g>
		<path class="st0" d="M20.9,22.3c-0.1,0.1-0.1,0.2-0.1,0.2c0.1-0.1,0.1-0.2,0.2-0.3C21,22.2,20.9,22.3,20.9,22.3z"/>
		<path class="st0" d="M29.6,22.3c-0.1-0.1-0.1-0.1-0.2-0.2c0.1,0.1,0.2,0.2,0.3,0.4C29.7,22.5,29.7,22.4,29.6,22.3z"/>
		<path class="st0" d="M16.1,23.1c0,0.1-0.1,0.1-0.1,0.2c0.1,0,0.2,0.1,0.3,0.1C16.3,23.2,16.2,23.1,16.1,23.1z"/>
		<path class="st0" d="M12.2,33.4c-0.2,0-0.3-0.1-0.2-0.3c0.5-0.6,1-1.3,1.8-1.7c0.3-0.1,0.6-0.2,0.9-0.3c0.1-0.2,0.3-0.4,0.4-0.6
			c-0.1,0-0.2-0.1-0.4-0.1c-0.4,0-0.7,0-1.1,0c-0.1,0-0.2,0-0.3-0.1c0.1-0.1,0.2-0.1,0.3-0.2c0.2-0.1,0.4-0.3,0.7-0.4
			c0.8-0.5,1.1-1.1,1.1-2c0-0.1,0-0.3,0-0.4c-0.2-0.5-0.6-1-1-1.4c0,0,0,0-0.1,0c0.1,0.2,0.2,0.3,0.3,0.5c0.1,0.2,0.2,0.3,0.4,0.5
			c0,0.1,0.1,0.2,0.1,0.2c-0.1,0-0.2,0.1-0.3,0.1c-0.5,0-0.8-0.2-1.1-0.5c0,0-0.1-0.1-0.1-0.1c-0.3,0.4-0.5,0.7-0.8,1.1
			c-1.8,2.5-3.6,5.1-5.4,7.6C7.3,35.5,7,35.9,7,36.3c0,0.8,0.5,1.5,1.2,1.8c0.7,0.2,1.5-0.1,1.9-0.7c1-1.4,1.9-2.7,2.9-4.1
			C12.8,33.4,12.5,33.4,12.2,33.4z"/>
		<path class="st0" d="M43.1,35.4c-1.3-1.9-2.7-3.8-4-5.7c-0.8-1.1-1.5-2.1-2.3-3.2c-0.2,0.2-0.4,0.4-0.7,0.6
			c-0.2,0.1-0.4,0.1-0.6,0.1c-0.2,0-0.2-0.1-0.1-0.3c0.2-0.3,0.4-0.6,0.7-0.9c0,0,0.1-0.1,0-0.2c-0.1,0.1-0.2,0.2-0.3,0.3
			c-0.3,0.4-0.6,0.8-0.7,1.2c-0.1,0.8,0,1.5,0.7,2c0.3,0.2,0.6,0.4,1,0.6c0.1,0.1,0.2,0.1,0.3,0.2c0,0,0,0.1,0,0.1
			c-0.2,0-0.5,0-0.7,0c-0.2,0-0.4,0-0.6,0c-0.1,0-0.2,0.1-0.2,0.2c0,0.1,0,0.2,0.1,0.3c0.2,0.2,0.4,0.3,0.6,0.4
			c0.7,0.3,1.3,0.8,1.8,1.3c0.1,0.1,0.2,0.3,0.4,0.4c0.1,0.1,0.1,0.2,0.1,0.2c-0.1,0-0.2,0.1-0.3,0.1c-0.3,0-0.5,0-0.8,0
			c0.5,0.7,0.9,1.3,1.4,2c0.5,0.7,1,1.4,1.5,2.1c0.6,0.8,1.7,1,2.5,0.4C43.5,37.3,43.7,36.2,43.1,35.4z"/>
		<path class="st0" d="M18.1,21.9c1,0.1,1.9-0.1,2.8-0.5c0.3-0.1,0.6-0.2,0.9-0.3c0.9-1.2,1.8-2.5,2.7-3.8c0.2-0.3,0.5-0.7,0.8-1.1
			c0.1,0.1,0.1,0.2,0.2,0.2c1.1,1.5,2.2,3,3.2,4.5c0.3,0.1,0.6,0.2,0.8,0.3c0.4,0.1,0.7,0.3,1.1,0.4c0.1,0,0.3,0.1,0.4,0.1
			c0.8,0.1,1.7,0,2.5-0.1c-0.8-1.1-1.6-2.3-2.4-3.4c-1.4-2-2.9-4.1-4.3-6.1c-0.7-1-2.2-1-2.9-0.1c-0.3,0.4-0.5,0.7-0.8,1.1
			c-1.9,2.6-3.7,5.3-5.6,7.9c-0.1,0.2-0.3,0.4-0.4,0.6C17.4,21.8,17.7,21.9,18.1,21.9z"/>
		<path class="st0" d="M34.2,22.8c-0.1,0.1-0.2,0.3-0.3,0.5c0.1-0.1,0.3-0.2,0.4-0.2C34.3,23,34.3,22.9,34.2,22.8z"/>
	</g>
	<path class="st0" d="M23.8,22.2c0.1,0.1,0.2,0.3,0.3,0.4c0.2,0.2,0.2,0.4-0.1,0.7c-0.2,0.2-0.4,0.2-0.5,0C23,23,22.5,23,22,22.8
		c-0.3-0.1-0.7-0.1-1-0.2c-0.2-0.1-0.3-0.2-0.1-0.3c0.2-0.2,0.5-0.3,0.7-0.4c0.5-0.1,1-0.2,1.6-0.3c0.6,0,1.3,0,1.9,0
		c0.2,0,0.4,0,0.6,0c0.8,0,1.6,0,2.3,0.1c0.5,0.1,0.9,0.3,1.4,0.4c0.1,0,0.2,0.1,0.2,0.2c0.1,0.1,0.1,0.2-0.1,0.3
		C29,22.7,28.5,22.8,28,23c-0.3,0.1-0.6,0.2-0.9,0.4c-0.2,0.1-0.4,0.2-0.5,0c-0.2-0.2-0.3-0.4-0.1-0.7c0.1-0.2,0.2-0.3,0.3-0.5
		c-0.1,0-0.1,0-0.2,0.1c-0.3,0.2-0.5,0.4-0.8,0.6c-0.2,0.2-0.2,0.3,0,0.4c0.2,0.2,0.4,0.3,0.6,0.5c0.5,0.4,0.8,1,1,1.6
		c0.2,0.9,0.5,1.8,0.8,2.7c0.2,0.8,0.4,1.6,0.3,2.4c0,0.2-0.1,0.5-0.2,0.7c-0.1,0.2-0.2,0.2-0.3,0.1c0,0-0.1,0-0.1-0.1
		c-0.6-0.6-1.1-1.1-1.7-1.7c-0.2-0.2-0.3-0.4-0.2-0.6c0.1-0.3,0.1-0.6,0.1-1c0-0.2,0.1-0.4,0.4-0.5c0.2-0.1,0.4-0.1,0.6-0.2
		c0.1-0.1,0.2-0.1,0.2-0.3c-0.2-0.6-0.3-1.2-0.5-1.7c-0.2-0.5-0.5-0.7-1-0.7c-0.3,0-0.7,0-1,0c-0.3,0-0.5,0.1-0.6,0.3
		c-0.5,0.6-0.6,1.4-0.7,2.1c0,0.1,0.1,0.2,0.2,0.3c0.2,0.1,0.4,0.2,0.6,0.2c0.2,0.1,0.3,0.2,0.3,0.4c0,0.4,0.1,0.8,0.1,1.2
		c0,0.1-0.1,0.3-0.2,0.4c-0.6,0.6-1.2,1.2-1.8,1.8c-0.2,0.2-0.3,0.2-0.4-0.1c-0.3-0.6-0.2-1.3-0.1-1.9c0.2-1.5,0.8-2.9,1.2-4.3
		c0.1-0.4,0.5-0.7,0.8-1c0.2-0.2,0.5-0.4,0.7-0.5c0.2-0.1,0.2-0.2,0-0.4C24.5,22.7,24.2,22.4,23.8,22.2
		C23.8,22.2,23.8,22.2,23.8,22.2z"/>
	<path class="st0" d="M25.4,33.1c-0.8-0.1-1.4-0.2-2-0.5c-0.3-0.1-0.3-0.4-0.2-0.7c0.3-0.6,0.7-1,1.3-1.4c1-0.6,0.6-0.7,1.6,0
		c0.5,0.3,0.9,0.8,1.2,1.3c0.2,0.4,0.2,0.6-0.3,0.8C26.4,32.8,25.8,33,25.4,33.1z"/>
	<path class="st0" d="M20.9,24.2c0,0,0.1-0.2,0.2-0.2c0.4-0.1,0.8-0.1,1.2,0.2c0.2,0.2,0.2,0.2,0,0.3c-0.2,0.1-0.4,0.2-0.6,0.3
		C21.3,24.9,20.9,24.7,20.9,24.2z"/>
	<path class="st0" d="M28.9,24c0,0,0.1,0,0.1,0c0.1,0.1,0.4,0.1,0.4,0.2c0,0.2-0.1,0.4-0.2,0.5c-0.1,0.2-0.3,0.2-0.5,0.1
		c-0.2-0.1-0.5-0.2-0.7-0.3c-0.1,0-0.1-0.1-0.2-0.2c0.1-0.1,0.1-0.2,0.2-0.2C28.4,24.1,28.7,24,28.9,24C28.9,23.9,28.9,23.9,28.9,24
		z"/>
	<path class="st0" d="M14.5,22.3c0.7,0.2,1.5,0.2,1.8,1.1C15.7,23,15.1,22.7,14.5,22.3C14.5,22.3,14.5,22.3,14.5,22.3z"/>
	<path class="st0" d="M33.9,23.3c0.2-0.7,0.6-0.8,1.8-1C35.1,22.7,34.6,23,33.9,23.3z"/>
</g>
</svg>
