<?xml version="1.0" encoding="utf-8"?>
<!-- Generator: Adobe Illustrator 15.0.0, SVG Export Plug-In . SVG Version: 6.00 Build 0)  -->
<!DOCTYPE svg PUBLIC "-//W3C//DTD SVG 1.1//EN" "http://www.w3.org/Graphics/SVG/1.1/DTD/svg11.dtd">
<svg version="1.1" id="Calque_1" xmlns="http://www.w3.org/2000/svg" xmlns:xlink="http://www.w3.org/1999/xlink" x="0px" y="0px"
	 width="113.39px" height="113.39px" viewBox="0 0 113.39 113.39" enable-background="new 0 0 113.39 113.39" xml:space="preserve">
<path fill="#EBC78F" d="M57.48,24.556c-0.398,0.543-0.772,1.04-1.132,1.548c-1.316,1.861-2.626,3.728-3.943,5.588
	c-1.332,1.882-2.67,3.76-4.007,5.639c-1.854,2.606-3.713,5.209-5.563,7.818c-2.46,3.469-4.911,6.943-7.369,10.413
	c-0.645,0.91-1.852,1.327-2.833,0.989c-1.163-0.4-1.897-1.444-1.825-2.628c0.038-0.636,0.36-1.156,0.72-1.662
	c2.641-3.717,5.272-7.439,7.913-11.156c2.216-3.119,4.442-6.229,6.658-9.349c2.741-3.857,5.476-7.719,8.213-11.578
	c0.386-0.544,0.761-1.096,1.155-1.633c1.006-1.37,3.139-1.341,4.177,0.141c2.098,2.989,4.209,5.97,6.321,8.949
	c1.411,1.989,2.838,3.967,4.248,5.956c2.525,3.563,5.04,7.133,7.565,10.695c1.966,2.773,3.938,5.543,5.913,8.312
	c0.788,1.104,0.561,2.737-0.502,3.517c-1.213,0.889-2.802,0.666-3.656-0.53c-0.744-1.04-1.461-2.101-2.202-3.143
	c-1.266-1.78-2.548-3.549-3.812-5.33c-1.828-2.576-3.643-5.162-5.469-7.74c-1.688-2.382-3.384-4.758-5.075-7.137
	c-1.738-2.444-3.474-4.891-5.212-7.335C57.688,24.795,57.6,24.7,57.48,24.556z"/>
<g>
	<path fill="#2B1C10" d="M74.781,45.209c-0.355,0-0.711-0.003-1.066,0c-0.278,0.003-0.56-0.013-0.833,0.027
		c-0.135,0.02-0.327,0.121-0.361,0.228c-0.034,0.11,0.053,0.319,0.155,0.4c0.282,0.227,0.576,0.476,0.909,0.596
		c1.074,0.389,1.851,1.146,2.586,1.966c0.186,0.206,0.364,0.42,0.526,0.646c0.074,0.104,0.1,0.241,0.148,0.364
		c-0.126,0.04-0.251,0.112-0.378,0.115c-0.45,0.013-0.902-0.004-1.354,0c-0.367,0.003-0.632,0.182-0.775,0.518
		c-0.232,0.541-0.459,1.085-0.679,1.631c-0.221,0.552-0.229,0.552-0.796,0.456c-0.255-0.042-0.526-0.075-0.774-0.029
		c-0.182,0.033-0.402,0.165-0.494,0.319c-0.499,0.827-0.963,1.676-1.415,2.548c0.123-0.131,0.249-0.259,0.37-0.392
		c0.35-0.386,0.689-0.783,1.049-1.16c0.684-0.718,0.766-0.716,1.512-0.049c0.365,0.326,0.4,0.319,0.629-0.111
		c0.415-0.782,0.838-1.561,1.242-2.349c0.156-0.304,0.321-0.37,0.606-0.154c0.842,0.634,1.59,1.347,2.091,2.29
		c0.22,0.413,0.175,0.382-0.179,0.657c-0.465,0.362-0.946,0.767-1.251,1.259c-0.555,0.896-1.07,1.836-1.447,2.817
		c-0.655,1.706-1.799,2.972-3.314,3.896c-2.089,1.273-3.713,3.072-5.512,4.677c-1.179,1.052-2.428,2.025-3.59,3.094
		c-1.214,1.115-2.428,2.243-3.51,3.48c-0.515,0.588-0.726,1.442-1.071,2.177c-0.036,0.078-0.041,0.173-0.084,0.246
		c-0.063,0.11-0.148,0.209-0.224,0.313c-0.08-0.102-0.188-0.192-0.234-0.308c-0.188-0.466-0.354-0.94-0.537-1.409
		c-0.381-0.976-1.2-1.598-1.875-2.339c-1.504-1.653-3.332-2.938-4.979-4.429c-0.875-0.793-1.771-1.565-2.592-2.413
		c-1.193-1.235-2.55-2.247-3.973-3.191c-1.388-0.921-2.509-2.075-3.096-3.688c-0.243-0.666-0.582-1.299-0.886-1.942
		c-0.384-0.814-0.965-1.479-1.612-2.09c-0.037-0.035-0.081-0.064-0.123-0.096c-0.154-0.113-0.4-0.202-0.438-0.346
		c-0.036-0.139,0.142-0.334,0.228-0.503c0.462-0.91,1.212-1.553,2-2.16c0.251-0.194,0.425-0.164,0.576,0.129
		c0.407,0.786,0.832,1.563,1.244,2.347c0.236,0.447,0.274,0.459,0.667,0.129c0.013-0.011,0.023-0.025,0.036-0.037
		c0.713-0.605,0.904-0.581,1.436,0.18c0.945,1.353,1.9,2.698,2.829,4.062c0.185,0.271,0.323,0.319,0.576,0.121
		c0.29-0.229,0.505-0.151,0.745,0.135c1.362,1.623,2.743,3.23,4.125,4.837c0.342,0.396,0.36,0.387,0.744,0.061
		c0.053-0.046,0.101-0.097,0.155-0.14c0.538-0.421,0.67-0.419,1.136,0.071c0.312,0.328,0.599,0.678,0.901,1.013
		c0.088,0.098,0.192,0.181,0.363,0.211c-0.549-0.789-1.087-1.587-1.651-2.364c-0.323-0.445-0.595-0.445-0.983-0.061
		c-0.427,0.421-0.411,0.408-0.826-0.065c-1.329-1.515-2.666-3.023-4.01-4.525c-0.424-0.474-0.467-0.47-0.967-0.095
		c-0.286,0.217-0.377-0.048-0.48-0.194c-0.564-0.811-1.127-1.626-1.667-2.455c-0.303-0.465-0.571-0.952-0.836-1.44
		c-0.291-0.536-0.595-0.699-1.18-0.592c-0.841,0.155-0.826,0.149-1.114-0.683c-0.152-0.44-0.369-0.858-0.55-1.289
		c-0.169-0.403-0.478-0.58-0.902-0.577c-0.434,0.003-0.867,0.017-1.301,0.011c-0.354-0.005-0.458-0.153-0.261-0.399
		c0.754-0.935,1.517-1.872,2.604-2.44c0.427-0.224,0.909-0.338,1.365-0.507c0.327-0.121,0.464-0.027,0.512,0.333
		c0.119,0.912,0.265,1.821,0.431,2.726c0.068,0.372,0.204,0.735,0.337,1.092c0.085,0.229,0.226,0.274,0.424,0.069
		c0.254-0.262,0.525-0.509,0.81-0.737c0.329-0.265,0.455-0.261,0.651,0.116c0.417,0.799,0.791,1.622,1.181,2.436
		c0.126,0.264,0.248,0.529,0.375,0.801c0.469-0.464,0.468-0.464,0.812,0.132c0.145,0.251,0.292,0.501,0.518,0.719
		c-0.173-0.521-0.331-1.05-0.531-1.561c-0.037-0.097-0.274-0.212-0.358-0.176c-0.443,0.188-0.553-0.12-0.672-0.411
		c-0.252-0.609-0.492-1.224-0.736-1.836c-0.013-0.032-0.025-0.064-0.04-0.096c-0.382-0.806-0.564-0.875-1.365-0.513
		c-0.063,0.028-0.128,0.055-0.189,0.086c-0.668,0.334-0.708,0.333-0.769-0.439c-0.06-0.762-0.053-1.529-0.06-2.295
		c-0.009-1.036-0.309-1.376-1.348-1.434c-0.538-0.029-1.079-0.008-1.618-0.018c-0.115-0.002-0.229-0.041-0.389-0.165
		c0.145-0.096,0.287-0.195,0.437-0.286c0.325-0.197,0.654-0.39,0.981-0.586c1.104-0.664,1.567-1.676,1.57-2.93
		c0-0.189,0.002-0.397-0.071-0.564c-0.351-0.801-0.837-1.511-1.472-2.112c-0.03,0.019-0.061,0.037-0.091,0.056
		c0.159,0.243,0.31,0.492,0.478,0.729c0.171,0.24,0.367,0.464,0.534,0.707c0.07,0.103,0.096,0.237,0.141,0.357
		c-0.128,0.038-0.256,0.105-0.385,0.109c-0.66,0.02-1.209-0.276-1.576-0.78c-0.384-0.526-0.738-1.105-0.955-1.714
		c-0.477-1.34-0.653-2.736-0.437-4.158c0.121-0.798,0.469-1.469,1.259-1.781c0.273-0.108,0.615-0.146,0.904-0.094
		c1.844,0.336,3.682,0.678,5.561,0.791c1.441,0.087,2.787-0.158,4.107-0.729c1.101-0.476,2.264-0.731,3.46-0.913
		c1.6-0.241,3.196-0.182,4.788-0.12c1.492,0.059,2.955,0.403,4.354,0.96c0.532,0.212,1.059,0.438,1.595,0.642
		c0.175,0.066,0.368,0.095,0.557,0.11c1.62,0.139,3.229,0.025,4.828-0.251c0.957-0.166,1.912-0.338,2.866-0.518
		c0.669-0.126,1.381,0.25,1.778,0.925c0.371,0.629,0.423,1.33,0.417,2.019c-0.012,1.293-0.218,2.564-0.76,3.754
		c-0.347,0.759-0.816,1.429-1.638,1.736c-0.252,0.094-0.543,0.112-0.815,0.109c-0.271-0.003-0.324-0.16-0.157-0.381
		c0.323-0.43,0.645-0.861,0.964-1.295c0.049-0.066,0.08-0.146,0.05-0.281c-0.159,0.164-0.351,0.306-0.47,0.494
		c-0.371,0.582-0.901,1.146-1.024,1.783c-0.214,1.104,0.042,2.196,1.004,2.955c0.446,0.353,0.95,0.634,1.43,0.944
		c0.155,0.101,0.317,0.191,0.477,0.286C74.807,45.079,74.794,45.144,74.781,45.209z M55.324,33.244
		c0.046-0.037,0.091-0.073,0.137-0.11c0.448,0.375,0.889,0.761,1.348,1.122c0.285,0.226,0.203,0.392-0.034,0.569
		c-0.348,0.26-0.709,0.505-1.035,0.79c-0.47,0.411-0.967,0.827-1.13,1.462c-0.551,2.132-1.412,4.181-1.739,6.369
		c-0.142,0.946-0.171,1.907,0.204,2.825c0.144,0.35,0.246,0.378,0.517,0.105c0.869-0.875,1.733-1.754,2.584-2.646
		c0.134-0.14,0.261-0.361,0.256-0.542c-0.015-0.606-0.09-1.211-0.143-1.816c-0.025-0.283-0.141-0.489-0.438-0.578
		c-0.315-0.095-0.635-0.193-0.928-0.34c-0.146-0.073-0.351-0.268-0.337-0.386c0.127-1.112,0.394-2.188,1.056-3.121
		c0.221-0.312,0.526-0.482,0.936-0.466c0.504,0.021,1.014,0.047,1.513-0.006c0.793-0.083,1.288,0.306,1.535,0.976
		c0.305,0.824,0.508,1.687,0.762,2.53c0.077,0.256-0.086,0.356-0.266,0.433c-0.304,0.128-0.609,0.258-0.927,0.344
		c-0.388,0.106-0.519,0.363-0.536,0.729c-0.021,0.47-0.015,0.945-0.097,1.404c-0.07,0.393,0.037,0.664,0.304,0.933
		c0.821,0.825,1.627,1.663,2.438,2.496c0.037,0.038,0.076,0.071,0.113,0.108c0.184,0.18,0.346,0.178,0.434-0.08
		c0.11-0.327,0.25-0.658,0.283-0.998c0.122-1.207-0.072-2.39-0.4-3.548c-0.368-1.302-0.81-2.585-1.135-3.896
		c-0.24-0.97-0.68-1.771-1.464-2.383c-0.314-0.246-0.63-0.49-0.942-0.738c-0.338-0.269-0.347-0.361-0.014-0.637
		c0.375-0.31,0.764-0.603,1.153-0.895c0.066-0.05,0.165-0.058,0.248-0.084c-0.099,0.298-0.261,0.517-0.42,0.736
		c-0.254,0.351-0.215,0.611,0.136,0.958c0.264,0.261,0.496,0.171,0.792,0.012c0.436-0.232,0.901-0.433,1.378-0.561
		c0.769-0.206,1.557-0.342,2.337-0.507c0.274-0.059,0.313-0.201,0.13-0.396c-0.105-0.112-0.226-0.24-0.364-0.287
		c-0.653-0.226-1.304-0.536-1.979-0.61c-1.137-0.126-2.29-0.103-3.437-0.13c-0.311-0.008-0.623,0.035-0.935,0.033
		c-0.921-0.006-1.846-0.079-2.763-0.016c-0.771,0.053-1.544,0.222-2.298,0.411c-0.373,0.094-0.731,0.313-1.048,0.542
		c-0.269,0.195-0.219,0.369,0.111,0.454c0.485,0.126,0.987,0.192,1.474,0.315c0.749,0.19,1.563,0.193,2.192,0.741
		c0.263,0.228,0.524,0.244,0.784-0.015c0.351-0.349,0.382-0.598,0.12-0.954C55.632,33.682,55.479,33.462,55.324,33.244z
		 M57.671,49.209c0.7-0.203,1.559-0.411,2.385-0.707c0.61-0.219,0.682-0.58,0.378-1.153c-0.427-0.802-1.039-1.429-1.786-1.927
		c-1.455-0.971-0.897-0.946-2.33-0.005c-0.78,0.513-1.407,1.177-1.838,2.015c-0.229,0.447-0.153,0.801,0.271,1.007
		C55.618,48.86,56.553,49.042,57.671,49.209z M51.145,36.115c-0.017,0.73,0.507,1.097,1.095,0.863
		c0.305-0.121,0.612-0.238,0.905-0.382c0.354-0.171,0.354-0.236,0.024-0.482c-0.548-0.41-1.165-0.381-1.783-0.244
		C51.271,35.896,51.189,36.065,51.145,36.115z M62.895,35.795c-0.012-0.031-0.021-0.063-0.031-0.094
		c-0.368,0.128-0.741,0.244-1.101,0.392c-0.114,0.047-0.192,0.179-0.288,0.272c0.1,0.083,0.187,0.191,0.301,0.244
		c0.328,0.153,0.675,0.271,1.001,0.429c0.293,0.143,0.541,0.052,0.682-0.18c0.144-0.236,0.247-0.533,0.242-0.801
		c-0.002-0.092-0.386-0.181-0.601-0.26C63.039,35.775,62.963,35.795,62.895,35.795z M41.742,33.327
		c-0.018,0.042-0.036,0.085-0.054,0.127c0.884,0.477,1.769,0.953,2.713,1.463C43.93,33.585,42.717,33.659,41.742,33.327z
		 M70.227,34.858c0.916-0.492,1.774-0.953,2.632-1.414C71.141,33.686,70.477,33.901,70.227,34.858z"/>
	<path fill="#EBC78F" d="M55.324,33.244c0.155,0.218,0.308,0.438,0.467,0.653c0.262,0.356,0.23,0.605-0.12,0.954
		c-0.26,0.259-0.521,0.242-0.784,0.015c-0.63-0.548-1.443-0.551-2.192-0.741c-0.486-0.123-0.988-0.189-1.474-0.315
		c-0.33-0.085-0.38-0.259-0.111-0.454c0.316-0.229,0.675-0.448,1.048-0.542c0.754-0.189,1.526-0.358,2.298-0.411
		c0.917-0.063,1.842,0.01,2.763,0.016c0.312,0.002,0.624-0.041,0.935-0.033c1.146,0.027,2.3,0.004,3.437,0.13
		c0.675,0.074,1.325,0.385,1.979,0.61c0.139,0.047,0.259,0.175,0.364,0.287c0.184,0.195,0.145,0.338-0.13,0.396
		c-0.78,0.165-1.568,0.301-2.337,0.507c-0.477,0.128-0.942,0.328-1.378,0.561c-0.296,0.159-0.528,0.249-0.792-0.012
		c-0.351-0.347-0.39-0.607-0.136-0.958c0.159-0.22,0.321-0.438,0.42-0.736c-0.083,0.026-0.182,0.034-0.248,0.084
		c-0.39,0.292-0.778,0.585-1.153,0.895c-0.333,0.275-0.324,0.368,0.014,0.637c0.313,0.248,0.628,0.492,0.942,0.738
		c0.784,0.612,1.224,1.413,1.464,2.383c0.325,1.312,0.767,2.595,1.135,3.896c0.328,1.158,0.522,2.341,0.4,3.548
		c-0.033,0.34-0.173,0.671-0.283,0.998c-0.088,0.258-0.25,0.26-0.434,0.08c-0.037-0.037-0.076-0.07-0.113-0.108
		c-0.812-0.833-1.617-1.671-2.438-2.496c-0.267-0.269-0.374-0.54-0.304-0.933c0.082-0.459,0.075-0.935,0.097-1.404
		c0.018-0.366,0.148-0.623,0.536-0.729c0.317-0.086,0.623-0.216,0.927-0.344c0.18-0.076,0.343-0.177,0.266-0.433
		c-0.254-0.844-0.457-1.706-0.762-2.53c-0.247-0.67-0.742-1.059-1.535-0.976c-0.499,0.053-1.009,0.027-1.513,0.006
		c-0.409-0.017-0.715,0.154-0.936,0.466c-0.662,0.933-0.929,2.009-1.056,3.121c-0.014,0.118,0.19,0.313,0.337,0.386
		c0.293,0.146,0.612,0.245,0.928,0.34c0.298,0.089,0.413,0.295,0.438,0.578c0.053,0.605,0.128,1.21,0.143,1.816
		c0.005,0.181-0.122,0.402-0.256,0.542c-0.851,0.893-1.715,1.771-2.584,2.646c-0.271,0.272-0.373,0.244-0.517-0.105
		c-0.375-0.918-0.346-1.879-0.204-2.825c0.327-2.188,1.188-4.237,1.739-6.369c0.163-0.635,0.66-1.051,1.13-1.462
		c0.326-0.285,0.688-0.53,1.035-0.79c0.237-0.178,0.319-0.344,0.034-0.569c-0.459-0.361-0.899-0.747-1.348-1.122
		C55.415,33.171,55.37,33.207,55.324,33.244z"/>
	<path fill="#EBC78F" d="M57.671,49.209c-1.118-0.167-2.053-0.349-2.92-0.771c-0.425-0.206-0.501-0.56-0.271-1.007
		c0.431-0.838,1.058-1.502,1.838-2.015c1.433-0.941,0.875-0.966,2.33,0.005c0.747,0.498,1.359,1.125,1.786,1.927
		c0.304,0.573,0.232,0.935-0.378,1.153C59.229,48.798,58.371,49.006,57.671,49.209z"/>
	<path fill="#EBC78F" d="M51.145,36.115c0.045-0.05,0.127-0.22,0.241-0.245c0.618-0.137,1.235-0.166,1.783,0.244
		c0.329,0.246,0.329,0.312-0.024,0.482c-0.293,0.144-0.601,0.261-0.905,0.382C51.651,37.212,51.128,36.846,51.145,36.115z"/>
	<path fill="#EBC78F" d="M62.895,35.795c0.068,0,0.145-0.02,0.205,0.003c0.215,0.079,0.599,0.168,0.601,0.26
		c0.005,0.268-0.099,0.564-0.242,0.801c-0.141,0.231-0.389,0.322-0.682,0.18c-0.326-0.158-0.673-0.275-1.001-0.429
		c-0.114-0.053-0.201-0.161-0.301-0.244c0.096-0.094,0.174-0.226,0.288-0.272c0.359-0.147,0.732-0.264,1.101-0.392
		C62.873,35.732,62.883,35.764,62.895,35.795z"/>
	<path fill="#EBC78F" d="M41.742,33.327c0.975,0.332,2.188,0.258,2.659,1.59c-0.944-0.51-1.829-0.986-2.713-1.463
		C41.706,33.412,41.725,33.369,41.742,33.327z"/>
	<path fill="#EBC78F" d="M70.227,34.858c0.25-0.957,0.914-1.173,2.632-1.414C72.001,33.905,71.143,34.366,70.227,34.858z"/>
</g>
<g>
	<path fill="#EBC78F" d="M20.854,71.292c0.355-0.189,0.729-0.261,1.12-0.214c0.392,0.048,0.765,0.107,1.12,0.178
		c0.403,0.119,0.818,0.19,1.245,0.214s0.841,0.095,1.244,0.213c0.095-0.094,0.195-0.183,0.303-0.267
		c0.106-0.082,0.219-0.136,0.338-0.16c0.26-0.022,0.521-0.018,0.782,0.019c0.261,0.035,0.521,0.077,0.782,0.124
		c0.165,0.024,0.332,0.036,0.498,0.036c0.165,0,0.319,0.047,0.462,0.142c0.189,0.071,0.373,0.148,0.552,0.231
		c0.178,0.083,0.373,0.137,0.586,0.16c0.261-0.048,0.504,0,0.729,0.142c0.225,0.143,0.456,0.273,0.693,0.392
		c0.023,0.119,0.041,0.231,0.054,0.338c0.012,0.106,0.041,0.22,0.089,0.338c0.236,0.071,0.408,0.201,0.516,0.391
		c0.106,0.19,0.184,0.38,0.23,0.569c0.119,0.521,0.226,1.037,0.32,1.547c0.095,0.511,0.143,1.038,0.143,1.583
		c0.047,0.261,0.023,0.498-0.071,0.711c-0.095,0.214-0.106,0.427-0.035,0.641c0.118,0.521,0.13,1.037,0.035,1.547
		s-0.237,1.001-0.427,1.476c-0.048,0.119-0.124,0.178-0.231,0.178c-0.106,0-0.219,0.023-0.338,0.071
		c0.023-0.166,0.083-0.332,0.178-0.498c-0.189,0.119-0.326,0.314-0.408,0.587c-0.084,0.272-0.019,0.504,0.195,0.693
		c0.095,0.048,0.178,0.106,0.249,0.178c-0.143,0.284-0.243,0.599-0.303,0.942s0.029,0.646,0.267,0.907
		c0.095,0.095,0.154,0.207,0.179,0.338c0.022,0.13,0.059,0.267,0.106,0.408c0.047,0.071,0.106,0.119,0.178,0.143
		s0.143,0.06,0.213,0.106c-0.095,0.403-0.083,0.782,0.036,1.138c0.118,0.356,0.201,0.724,0.249,1.103
		c0.023,0.285,0.053,0.575,0.089,0.872c0.035,0.296-0.007,0.586-0.125,0.871h0.178c-0.166,0.64-0.261,1.298-0.284,1.974
		s-0.06,1.357-0.106,2.045c-0.143,0.379-0.285,0.765-0.427,1.155c-0.143,0.392-0.392,0.718-0.747,0.979
		c-0.19,0.166-0.38,0.319-0.569,0.462s-0.379,0.272-0.568,0.392c0.023-0.048,0.041-0.107,0.053-0.178
		c0.012-0.071,0.041-0.143,0.089-0.214c-0.284,0.403-0.664,0.635-1.138,0.693c-0.475,0.06-0.925,0.125-1.352,0.195
		c-0.497,0.237-1.025,0.332-1.582,0.285c-0.558-0.048-1.108-0.071-1.653-0.071c-0.546-0.024-1.109-0.024-1.689,0
		c-0.581,0.023-1.133-0.095-1.654-0.355c-0.118-0.048-0.207-0.118-0.267-0.214c-0.06-0.094-0.112-0.201-0.16-0.319
		c-0.07,0.023-0.189,0.035-0.355,0.035c-0.095-0.308-0.13-0.61-0.106-0.907c0.023-0.296,0.083-0.598,0.178-0.906
		c-0.048-0.261-0.065-0.51-0.053-0.747c0.011-0.236-0.007-0.485-0.054-0.747c-0.095-0.355-0.089-0.705,0.018-1.049
		s0.125-0.682,0.054-1.014c-0.048-0.261-0.013-0.51,0.106-0.747c0.118-0.236,0.154-0.485,0.106-0.746
		c-0.023-0.189-0.071-0.35-0.142-0.48c-0.071-0.13-0.131-0.267-0.179-0.409c0.048-0.023,0.095-0.035,0.143-0.035
		s0.095-0.012,0.143-0.035c-0.071-0.048-0.166-0.131-0.285-0.249c0.095-0.048,0.179-0.119,0.249-0.214
		c-0.048-0.095-0.095-0.165-0.142-0.213c-0.048,0-0.089,0.006-0.125,0.018c-0.035,0.012-0.077,0.03-0.124,0.053
		c-0.024-0.331-0.048-0.675-0.071-1.031c-0.023-0.355-0.013-0.711,0.035-1.066c0.023-0.214,0.095-0.409,0.214-0.587
		c0.118-0.178,0.154-0.373,0.106-0.587c-0.143-0.236-0.213-0.521-0.213-0.854c0-0.972-0.007-1.938-0.019-2.898
		c-0.012-0.96,0.006-1.926,0.054-2.897c0.095-0.546,0.13-1.085,0.106-1.618c-0.023-0.534-0.06-1.073-0.106-1.618
		c-0.143-0.806-0.095-1.577,0.143-2.312c0.047-0.119,0.118-0.214,0.213-0.285c0.095-0.07,0.154-0.165,0.178-0.284
		c-0.048-0.118-0.095-0.249-0.142-0.392C20.699,71.541,20.734,71.411,20.854,71.292z M22.916,93.127
		c0.143,0.095,0.278,0.19,0.409,0.284c0.13,0.096,0.29,0.166,0.479,0.214c0.119,0,0.249-0.018,0.392-0.054
		c0.143-0.035,0.284-0.076,0.427-0.124c-0.024-0.023-0.035-0.048-0.035-0.071s-0.013-0.059-0.036-0.106
		c-0.213-0.118-0.421-0.237-0.622-0.355c-0.202-0.119-0.397-0.249-0.587-0.392c-0.071,0.119-0.143,0.226-0.214,0.32
		C23.059,92.938,22.987,93.032,22.916,93.127z M23.627,89.997c-0.048,0.19-0.023,0.368,0.071,0.534s0.201,0.308,0.32,0.427
		c0.143-0.119,0.29-0.148,0.444-0.089s0.29,0.124,0.409,0.195c-0.119-0.261-0.262-0.45-0.427-0.569
		c-0.119-0.094-0.208-0.207-0.267-0.338c-0.06-0.13-0.137-0.254-0.231-0.373c-0.071,0-0.143,0.018-0.213,0.054
		C23.663,89.873,23.627,89.927,23.627,89.997z M25.654,75.346c-0.143,0.262-0.22,0.528-0.231,0.801s-0.029,0.551-0.053,0.835
		c0.023,1.233-0.013,2.467-0.107,3.699c-0.095,0-0.195,0.018-0.302,0.053c-0.106,0.036-0.184,0.113-0.231,0.231
		c-0.119,0.19-0.154,0.386-0.106,0.587c0.047,0.201,0.095,0.397,0.143,0.587c0.118,0,0.249,0,0.391,0
		c0.143,0,0.284,0.012,0.427,0.035c0.118-0.023,0.219-0.071,0.303-0.143c0.082-0.07,0.16-0.13,0.23-0.178
		c0.119,0,0.237,0.019,0.356,0.054c0.118,0.035,0.236,0.03,0.355-0.018c0.213-0.143,0.414-0.285,0.604-0.427
		c0.189-0.143,0.331-0.344,0.427-0.604c0.071-0.166,0.112-0.332,0.124-0.498s0.018-0.344,0.018-0.533
		c-0.048-0.498-0.048-0.99,0-1.477c0.048-0.485,0.023-0.966-0.07-1.439c-0.048-0.166-0.078-0.338-0.089-0.516
		c-0.013-0.179-0.078-0.326-0.196-0.445c-0.261-0.284-0.575-0.444-0.942-0.479C26.336,75.435,25.986,75.394,25.654,75.346z
		 M26.188,86.121c-0.261,0.048-0.456,0.178-0.587,0.392c-0.13,0.213-0.195,0.438-0.195,0.676c0.071,0.427,0.065,0.848-0.018,1.262
		c-0.083,0.415-0.113,0.836-0.089,1.263c0.047,0.332,0.047,0.67,0,1.014c-0.048,0.344-0.048,0.682,0,1.014
		c-0.024,0.189-0.048,0.373-0.071,0.551s0,0.362,0.071,0.552c0.047,0.118,0.101,0.243,0.16,0.373c0.059,0.131,0.16,0.22,0.302,0.267
		c0.308,0.048,0.599,0.084,0.871,0.106c0.272,0.024,0.563,0.024,0.872,0c0.165-0.26,0.296-0.527,0.391-0.8s0.189-0.551,0.284-0.836
		c0.166,0.119,0.326,0.16,0.48,0.125c0.154-0.036,0.29-0.112,0.409-0.231c-0.048-0.118-0.083-0.225-0.106-0.32
		c-0.024-0.094-0.024-0.201,0-0.319c0.07-0.214,0.101-0.45,0.089-0.712c-0.013-0.261-0.125-0.462-0.338-0.604
		c-0.096,0.19-0.173,0.374-0.231,0.552c-0.06,0.178-0.054,0.361,0.018,0.551h-0.32c-0.047-0.308-0.07-0.622-0.07-0.942
		s0-0.634,0-0.942c0.047-0.047,0.112-0.083,0.195-0.106s0.147-0.071,0.195-0.143c-0.048-0.189-0.124-0.361-0.23-0.516
		c-0.107-0.153-0.16-0.325-0.16-0.516c0-0.261-0.054-0.51-0.16-0.747c-0.106-0.236-0.208-0.462-0.303-0.675
		c-0.189-0.214-0.421-0.332-0.693-0.356C26.68,86.026,26.425,86.05,26.188,86.121z M25.619,82.743c0,0.048-0.007,0.095-0.019,0.142
		c-0.012,0.048-0.018,0.096-0.018,0.143c0.048-0.047,0.106-0.095,0.178-0.143c0.071-0.047,0.13-0.094,0.178-0.142H25.619z
		 M27.468,85.41c0.023,0.071,0.041,0.137,0.054,0.195c0.012,0.06,0.029,0.125,0.053,0.195c0.095-0.047,0.201-0.082,0.32-0.106
		c0.118-0.023,0.226-0.059,0.32-0.106C27.953,85.374,27.705,85.315,27.468,85.41z M28.286,75.062c0,0.048-0.007,0.119-0.018,0.213
		c-0.013,0.096-0.019,0.179-0.019,0.249l0.214-0.106c0.236,0.403,0.379,0.83,0.427,1.28c0.047,0.451,0.201,0.878,0.462,1.28
		c0-0.118,0.012-0.189,0.036-0.213c0.07,0.047,0.142,0.101,0.213,0.159c0.071,0.06,0.143,0.125,0.214,0.196
		c-0.048-0.119-0.096-0.237-0.143-0.355c-0.048-0.119-0.095-0.237-0.143-0.356c0.095,0.048,0.172,0.084,0.231,0.107
		c0.059,0.023,0.136,0.06,0.231,0.106c-0.048,0.048-0.077,0.095-0.089,0.143c-0.013,0.047-0.042,0.095-0.089,0.142
		c0.355-0.118,0.651-0.236,0.889-0.355c-0.048-0.143-0.083-0.284-0.106-0.427c-0.024-0.143-0.036-0.296-0.036-0.462
		c-0.213,0.118-0.444,0.16-0.693,0.124c-0.249-0.035-0.421-0.184-0.516-0.444c0.048,0,0.166,0.023,0.355,0.071
		c0.048-0.166,0.095-0.272,0.143-0.32c-0.143,0.048-0.249,0.071-0.32,0.071C29.222,75.666,28.807,75.299,28.286,75.062z
		 M28.535,88.896c0,0.379,0.035,0.723,0.106,1.031c0.118-0.143,0.178-0.32,0.178-0.534C28.819,89.18,28.725,89.014,28.535,88.896z
		 M29.922,78.227c0.071,0.095,0.153,0.237,0.249,0.427c0.047-0.236,0.118-0.45,0.213-0.641c-0.095,0.048-0.172,0.084-0.23,0.107
		C30.094,78.144,30.017,78.18,29.922,78.227z M30.313,75.274c0.023,0.167,0.006,0.32-0.053,0.463
		c-0.06,0.143-0.113,0.284-0.16,0.427c0.071,0.048,0.147,0.083,0.231,0.106c0.082,0.024,0.159,0.06,0.23,0.106
		c0-0.189,0-0.379,0-0.568s-0.023-0.379-0.071-0.569C30.42,75.239,30.36,75.252,30.313,75.274z M30.206,73.39
		c-0.023,0.19-0.03,0.392-0.018,0.604c0.012,0.214,0.076,0.416,0.195,0.605c0.166-0.189,0.355-0.22,0.569-0.089
		c0.213,0.13,0.391,0.255,0.533,0.373c0.047-0.023,0.089-0.036,0.125-0.036c0.035,0,0.076-0.011,0.124-0.035
		c-0.023-0.189-0.048-0.373-0.071-0.551s-0.106-0.326-0.249-0.445c-0.142-0.189-0.332-0.296-0.568-0.319
		C30.609,73.474,30.396,73.438,30.206,73.39z M30.526,78.262c-0.071,0-0.113,0.036-0.125,0.107c-0.012,0.07,0.019,0.106,0.089,0.106
		c0.048,0,0.077-0.036,0.09-0.106C30.591,78.298,30.573,78.262,30.526,78.262z M30.526,79.471c0.047,0.237,0.095,0.416,0.143,0.534
		c0.07-0.048,0.142-0.077,0.213-0.089s0.13-0.029,0.178-0.054c-0.071-0.095-0.154-0.172-0.249-0.231
		C30.716,79.572,30.621,79.519,30.526,79.471z M30.953,77.408c-0.095,0.024-0.131,0.077-0.106,0.16
		c0.023,0.084,0.07,0.113,0.142,0.089c0.071-0.023,0.095-0.071,0.071-0.142C31.036,77.444,31,77.408,30.953,77.408z M31.06,72.893
		c-0.048,0-0.071,0.029-0.071,0.089s0.023,0.089,0.071,0.089s0.077-0.029,0.089-0.089S31.131,72.893,31.06,72.893z M31.131,79.72
		c0.047,0.143,0.076,0.285,0.089,0.427c0.012,0.143,0.041,0.297,0.089,0.463c0.047-0.023,0.095-0.036,0.143-0.036
		c0.047,0,0.094-0.012,0.142-0.035c0-0.143,0-0.296,0-0.462s0.012-0.32,0.036-0.463c-0.096,0.024-0.178,0.042-0.249,0.054
		S31.226,79.696,31.131,79.72z M31.237,90.709c-0.023,0.071-0.041,0.137-0.053,0.195c-0.013,0.06-0.03,0.125-0.054,0.195
		c0.047,0,0.095-0.005,0.143-0.018c0.047-0.012,0.082-0.018,0.106-0.018c0-0.118,0.035-0.249,0.106-0.392
		C31.367,90.673,31.285,90.686,31.237,90.709z M31.558,91.42c-0.071,0.024-0.102,0.077-0.089,0.16
		c0.012,0.083,0.054,0.102,0.124,0.054c0.071-0.023,0.107-0.077,0.107-0.16S31.652,91.373,31.558,91.42z M31.807,90.354
		c0,0.023-0.006,0.041-0.018,0.053c-0.013,0.013-0.019,0.03-0.019,0.054c0,0.071,0.019,0.101,0.054,0.089s0.065-0.035,0.089-0.071
		c0.023-0.035,0.029-0.064,0.018-0.089C31.919,90.365,31.878,90.354,31.807,90.354z M31.807,88.184
		c0.023,0.19,0.059,0.386,0.106,0.587c0.047,0.202,0.166,0.351,0.355,0.444c0-0.261-0.012-0.45-0.035-0.568
		c0-0.119-0.054-0.208-0.16-0.267C31.967,88.32,31.878,88.255,31.807,88.184z"/>
	<path fill="#EBC78F" d="M35.186,71.435c0.047-0.189,0.165-0.29,0.355-0.303c0.189-0.012,0.355-0.006,0.498,0.018
		c0.213,0.048,0.42,0.106,0.622,0.178c0.201,0.071,0.396,0.143,0.587,0.214c-0.024,0.119-0.036,0.284-0.036,0.498
		c0-0.071,0.012-0.131,0.036-0.178c0.023-0.048,0.059-0.095,0.106-0.143c0.071,0.143,0.154,0.279,0.249,0.409
		s0.213,0.23,0.355,0.302c0.071-0.165,0.178-0.302,0.32-0.409c0.142-0.106,0.272-0.195,0.391-0.267
		c-0.118,0.024-0.219,0.048-0.302,0.071c-0.084,0.024-0.173,0.048-0.267,0.071c-0.096-0.095-0.19-0.201-0.285-0.32
		c-0.095-0.118-0.166-0.236-0.213-0.355c0.189-0.047,0.355-0.041,0.498,0.018c0.142,0.06,0.278,0.143,0.408,0.249
		c0.131,0.106,0.249,0.231,0.356,0.374c0.106,0.142,0.219,0.261,0.338,0.355c0-0.048-0.007-0.101-0.019-0.16
		c-0.012-0.059-0.018-0.112-0.018-0.16c0.048,0.023,0.077,0.042,0.089,0.054s0.041,0.029,0.089,0.053
		c-0.048,0.332,0.018,0.641,0.196,0.925c0.178,0.284,0.29,0.593,0.337,0.925c0.048,0.379,0.054,0.753,0.019,1.12
		c-0.036,0.368-0.054,0.741-0.054,1.12c-0.048,0.403-0.065,0.807-0.054,1.209c0.012,0.403,0.019,0.807,0.019,1.209
		c0,0.333-0.024,0.641-0.071,0.925c-0.048,0.284-0.084,0.581-0.106,0.889c0,0.309,0.022,0.611,0.07,0.907
		c0.048,0.297,0.071,0.587,0.071,0.871c0.023,0.403,0,0.789-0.071,1.156c-0.07,0.367-0.083,0.741-0.035,1.12
		c0,0.213,0.029,0.433,0.089,0.658c0.059,0.226,0.065,0.456,0.018,0.693c-0.048,0.616-0.035,1.238,0.036,1.866
		c0.07,0.629,0.023,1.239-0.143,1.832c0.047,0.355,0.106,0.711,0.178,1.066s0.083,0.712,0.035,1.067
		c-0.118,0.568-0.136,1.132-0.053,1.688c0.083,0.558,0.064,1.109-0.054,1.654c-0.048,0.309-0.077,0.61-0.089,0.906
		c-0.012,0.297-0.041,0.6-0.089,0.907c-0.284,0.498-0.699,0.711-1.244,0.64c-0.38-0.047-0.741-0.059-1.085-0.035
		s-0.693,0-1.049-0.071c-0.237-0.165-0.469-0.338-0.693-0.516c-0.226-0.178-0.422-0.396-0.587-0.657
		c-0.096-0.403-0.131-0.801-0.107-1.191c0.023-0.392,0.06-0.788,0.107-1.191c0.023-0.332,0.005-0.658-0.054-0.979
		c-0.06-0.319-0.077-0.646-0.054-0.978c0-0.261-0.012-0.51-0.035-0.747c-0.023-0.236-0.023-0.474,0-0.711
		c0.047-0.475,0.054-0.96,0.018-1.458c-0.035-0.498-0.029-0.983,0.018-1.458c0.023-0.332,0.023-0.658,0-0.979
		c-0.023-0.319-0.041-0.646-0.053-0.978c-0.013-0.332-0.018-0.658-0.018-0.979c0-0.319,0.047-0.646,0.142-0.978
		c0.095-0.236,0.118-0.474,0.071-0.711c-0.048-0.237-0.048-0.475,0-0.712c0.071-0.379,0.077-0.734,0.018-1.066
		s-0.137-0.663-0.23-0.996c0-0.261,0-0.527,0-0.8s0.118-0.504,0.355-0.693c-0.048-0.023-0.131-0.036-0.249-0.036
		c0.095-0.094,0.172-0.183,0.231-0.267c0.059-0.082,0.124-0.16,0.195-0.23c-0.071,0-0.131,0.006-0.178,0.018
		c-0.048,0.012-0.106,0.018-0.178,0.018c-0.024-0.284,0-0.563,0.071-0.836c0.07-0.272,0.082-0.539,0.035-0.8
		c-0.024-0.521-0.065-1.031-0.124-1.529c-0.06-0.498-0.042-0.983,0.053-1.458c0.047-0.332,0.071-0.658,0.071-0.978
		C35.043,72.057,35.09,71.742,35.186,71.435z M35.149,91.029c-0.071,0.023-0.089,0.065-0.053,0.124
		c0.035,0.06,0.076,0.077,0.124,0.054c0.071-0.023,0.089-0.071,0.054-0.143C35.238,90.993,35.197,90.981,35.149,91.029z
		 M35.221,82.529c-0.071,0-0.112,0.042-0.124,0.125c-0.013,0.083,0.029,0.124,0.124,0.124c0.071,0,0.112-0.041,0.124-0.124
		S35.315,82.529,35.221,82.529z M35.398,90.211c-0.071,0-0.112,0.03-0.124,0.089c-0.013,0.06,0.018,0.089,0.089,0.089
		s0.106-0.029,0.106-0.089C35.47,90.241,35.445,90.211,35.398,90.211z M35.398,94.62v0.427c0.047-0.094,0.089-0.171,0.125-0.23
		c0.035-0.06,0.076-0.137,0.124-0.231C35.6,94.609,35.517,94.62,35.398,94.62z M35.754,91.989c-0.048,0.166-0.083,0.338-0.106,0.516
		s-0.023,0.35,0,0.516c0.023,0.119,0.071,0.22,0.143,0.302c0.071,0.084,0.142,0.16,0.213,0.231
		c-0.023-0.261-0.041-0.521-0.053-0.782C35.938,92.511,35.872,92.25,35.754,91.989z M36.288,96.754c-0.071,0-0.107,0.03-0.107,0.089
		c0,0.06,0.036,0.09,0.107,0.09c0.047,0,0.07-0.03,0.07-0.09C36.358,96.784,36.335,96.754,36.288,96.754z M37.141,95.226
		c-0.07,0.095-0.118,0.189-0.142,0.284c0.095,0,0.189-0.023,0.284-0.071v-0.178C37.212,95.261,37.164,95.249,37.141,95.226z
		 M37.105,96.647c-0.023,0.119,0.012,0.166,0.106,0.143C37.283,96.647,37.248,96.601,37.105,96.647z M37.354,92.345
		c0.047,0.237,0.059,0.469,0.035,0.693c-0.023,0.226-0.048,0.457-0.07,0.693c0.094-0.071,0.183-0.143,0.267-0.213
		c0.082-0.071,0.147-0.166,0.195-0.285c0.023-0.165,0.059-0.338,0.106-0.516s0.012-0.338-0.106-0.479
		c-0.095,0-0.172,0.012-0.231,0.035C37.49,92.298,37.426,92.321,37.354,92.345z M37.924,96.221
		c-0.071,0.024-0.102,0.071-0.089,0.143c0.012,0.071,0.053,0.095,0.124,0.071c0.047-0.023,0.065-0.071,0.054-0.143
		C38,96.221,37.971,96.197,37.924,96.221z M38.919,91.242c-0.142,0.617-0.083,1.233,0.178,1.85c0.095-0.309,0.166-0.646,0.214-1.014
		C39.357,91.711,39.227,91.433,38.919,91.242z M38.848,94.728c0.189,0.048,0.32,0.083,0.392,0.106c0-0.095,0.023-0.189,0.071-0.284
		c-0.071,0.048-0.148,0.077-0.231,0.089S38.919,94.68,38.848,94.728z"/>
	<path fill="#EBC78F" d="M42.83,71.398c0.402-0.047,0.806-0.124,1.209-0.231c0.403-0.106,0.818-0.101,1.245,0.019
		c0.236,0.07,0.42,0.195,0.551,0.373c0.13,0.178,0.243,0.373,0.338,0.587c-0.095,0.284-0.089,0.563,0.018,0.836
		s0.219,0.539,0.338,0.8c0.071,0.19,0.101,0.373,0.089,0.551c-0.012,0.179-0.048,0.356-0.106,0.534
		c-0.06,0.178-0.106,0.355-0.143,0.533c-0.035,0.178-0.029,0.361,0.019,0.551c0.047,0.143,0.118,0.279,0.213,0.409
		c0.095,0.131,0.189,0.255,0.284,0.373c-0.095,0.167-0.184,0.345-0.267,0.534s-0.077,0.379,0.018,0.568
		c0.023,0.19,0.071,0.362,0.143,0.516c0.071,0.155,0.154,0.309,0.249,0.463s0.172,0.314,0.231,0.479
		c0.059,0.167,0.076,0.345,0.053,0.534c-0.048,0.308-0.065,0.622-0.053,0.942c0.012,0.319,0.053,0.634,0.124,0.942
		c-0.119,0-0.237,0-0.355,0c-0.119,0-0.237-0.023-0.355-0.071c-0.119-0.048-0.22-0.106-0.303-0.178s-0.172-0.143-0.267-0.214
		c0,0.262,0.036,0.504,0.106,0.729c0.071,0.226,0.143,0.468,0.214,0.729c0.095,0.237,0.16,0.469,0.195,0.693
		c0.036,0.226,0.112,0.457,0.231,0.693c0.189,0.19,0.414,0.333,0.676,0.427c0.261,0.096,0.45,0.273,0.568,0.534
		c0.119,0.118,0.231,0.249,0.338,0.391c0.107,0.143,0.255,0.214,0.445,0.214c-0.048,0.048-0.084,0.112-0.107,0.195
		s-0.06,0.148-0.106,0.195c0.118-0.07,0.231-0.142,0.338-0.213s0.195-0.166,0.267-0.284c0.095-0.309,0.16-0.623,0.195-0.942
		c0.036-0.32,0.071-0.646,0.107-0.979c0.035-0.332,0.094-0.651,0.178-0.96c0.083-0.308,0.23-0.604,0.444-0.89
		c0.023-0.07,0.083-0.178,0.178-0.319c0.143,0.071,0.308,0.106,0.498,0.106c-0.048-0.095-0.077-0.189-0.089-0.284
		c-0.013-0.095,0.006-0.189,0.053-0.285c0.071-0.189,0.112-0.396,0.125-0.622c0.012-0.225,0.006-0.444-0.018-0.658
		c-0.071,0.071-0.143,0.143-0.214,0.214s-0.131,0.154-0.178,0.249c-0.023-0.118-0.042-0.226-0.054-0.32s-0.041-0.201-0.089-0.32
		c0.048-0.023,0.095-0.053,0.143-0.089c0.047-0.035,0.095-0.076,0.143-0.124c-0.119,0-0.202,0.012-0.249,0.035
		c0.095-0.331,0.165-0.663,0.213-0.995s0.095-0.664,0.143-0.996c0.118-0.521,0.207-1.037,0.267-1.547
		c0.059-0.51,0.147-1.025,0.267-1.547c0.048-0.332,0.143-0.652,0.285-0.96c0.142-0.309,0.236-0.628,0.284-0.961
		c-0.024-0.213,0.023-0.391,0.143-0.533c0.118-0.143,0.26-0.284,0.427-0.427c-0.024,0.071-0.036,0.178-0.036,0.32
		c0.118-0.118,0.243-0.214,0.374-0.284c0.13-0.071,0.278-0.071,0.444,0c0.165,0.095,0.331,0.118,0.498,0.07
		c0.165-0.047,0.331-0.101,0.497-0.159c0.166-0.06,0.332-0.107,0.498-0.143c0.166-0.036,0.332-0.006,0.498,0.089
		c0.332,0.023,0.628,0.124,0.889,0.302c0.261,0.179,0.427,0.422,0.498,0.729c0.118,0.261,0.112,0.498-0.018,0.711
		c-0.131,0.214-0.208,0.439-0.231,0.676l-0.213,1.813c-0.071,0.356-0.16,0.706-0.267,1.05c-0.107,0.344-0.185,0.682-0.231,1.013
		c-0.048,0.38-0.131,0.747-0.249,1.103c-0.119,0.355-0.19,0.724-0.213,1.103c-0.096,0.569-0.208,1.133-0.338,1.689
		c-0.131,0.558-0.22,1.133-0.268,1.725c-0.047,0.475-0.136,0.931-0.267,1.369c-0.13,0.439-0.255,0.884-0.373,1.334
		c0.023,0,0.047-0.006,0.071-0.019c0.023-0.011,0.047-0.018,0.071-0.018c-0.214,0.309-0.326,0.652-0.338,1.031
		c-0.013,0.38-0.065,0.735-0.16,1.067c-0.095,0.475-0.184,0.931-0.267,1.369c-0.084,0.438-0.185,0.895-0.303,1.369
		c-0.048,0.189-0.124,0.379-0.23,0.568c-0.107,0.19-0.137,0.392-0.09,0.604c0.048,0.451-0.012,0.872-0.178,1.263
		c-0.166,0.392-0.296,0.789-0.391,1.191c-0.143,0.475-0.338,0.901-0.587,1.28c-0.249,0.38-0.504,0.771-0.765,1.174
		c0.071-0.048,0.143-0.095,0.214-0.143c0.07-0.047,0.142-0.095,0.213-0.142c-0.119,0.261-0.309,0.45-0.569,0.568
		s-0.51,0.237-0.746,0.355c-0.498,0.143-1.002,0.16-1.512,0.054s-1.014-0.184-1.512-0.231c0-0.427-0.189-0.711-0.568-0.854
		c0.023-0.331-0.042-0.64-0.196-0.925c-0.154-0.284-0.255-0.58-0.302-0.889c-0.071-0.236-0.113-0.48-0.125-0.729
		c-0.012-0.249-0.065-0.492-0.159-0.729c-0.333-0.877-0.558-1.778-0.676-2.703c-0.119-0.924-0.285-1.837-0.498-2.738
		c-0.19-0.616-0.32-1.227-0.392-1.831s-0.189-1.215-0.355-1.831c-0.023-0.214-0.054-0.427-0.089-0.641
		c-0.035-0.213-0.018-0.414,0.054-0.604c0.071-0.071,0.16-0.112,0.267-0.124s0.195-0.041,0.267-0.089
		c-0.048-0.023-0.083-0.048-0.106-0.071c-0.024-0.023-0.06-0.048-0.107-0.071c-0.142,0.095-0.332,0.178-0.568,0.249
		c0.071-0.143,0.16-0.255,0.267-0.338s0.219-0.172,0.338-0.267c0,0.048,0.006,0.101,0.018,0.16s0.018,0.112,0.018,0.16
		c0.095-0.403,0.012-0.783-0.249-1.139c-0.07-0.023-0.148-0.041-0.23-0.053c-0.084-0.012-0.166-0.03-0.249-0.054
		c-0.084-0.023-0.148-0.065-0.196-0.124c-0.047-0.06-0.059-0.148-0.035-0.268c-0.048-0.402-0.131-0.794-0.249-1.173
		c-0.119-0.379-0.178-0.771-0.178-1.174c-0.048-0.308-0.131-0.604-0.249-0.889c-0.119-0.285-0.154-0.581-0.106-0.89
		c0.023-0.236-0.018-0.468-0.125-0.693c-0.106-0.225-0.065-0.433,0.125-0.622c-0.048,0.023-0.089,0.035-0.125,0.035
		c-0.035,0-0.077,0.013-0.124,0.036c-0.023-0.189-0.023-0.386,0-0.587s-0.013-0.396-0.106-0.587
		c-0.096-0.143-0.166-0.284-0.214-0.427s-0.095-0.284-0.142-0.427c0.094-0.023,0.183-0.047,0.267-0.071
		c0.082-0.023,0.147-0.047,0.195-0.071c-0.095-0.047-0.178-0.07-0.249-0.07c-0.048-0.237-0.119-0.469-0.213-0.694
		c-0.096-0.225-0.084-0.456,0.035-0.693c0.118-0.261,0.308-0.391,0.569-0.391C42.379,71.363,42.616,71.375,42.83,71.398z
		 M41.87,73.567c-0.048,0.048-0.071,0.084-0.071,0.107c0.047,0.119,0.101,0.124,0.16,0.018
		C42.018,73.586,41.988,73.545,41.87,73.567z M41.977,72.43c0.236-0.118,0.427-0.32,0.569-0.604
		C42.237,71.944,42.048,72.146,41.977,72.43z M42.332,76.235c0.071,0,0.166-0.006,0.284-0.019c0.119-0.011,0.214-0.018,0.285-0.018
		c0-0.047-0.013-0.094-0.036-0.142s-0.035-0.095-0.035-0.143c-0.095,0.048-0.184,0.101-0.267,0.16
		C42.479,76.135,42.403,76.188,42.332,76.235z M42.724,76.555c-0.048,0.048-0.054,0.089-0.019,0.125
		c0.036,0.035,0.077,0.03,0.125-0.018c0.047-0.048,0.047-0.095,0-0.143C42.782,76.473,42.747,76.484,42.724,76.555z M43.612,76.732
		c0.118,0.498,0.35,0.938,0.693,1.316s0.705,0.735,1.085,1.066c-0.048-0.142-0.071-0.271-0.071-0.391
		c0.047-0.023,0.089-0.041,0.124-0.054c0.036-0.012,0.077-0.041,0.125-0.089c0.023,0.095,0.059,0.262,0.106,0.498
		c0.048-0.023,0.089-0.047,0.125-0.071c0.035-0.023,0.076-0.047,0.124-0.071c-0.023-0.071-0.035-0.153-0.035-0.249
		c-0.19-0.118-0.403-0.23-0.641-0.338c-0.237-0.106-0.415-0.267-0.533-0.479c-0.19-0.189-0.344-0.409-0.462-0.658
		C44.134,76.964,43.92,76.804,43.612,76.732z M45.391,79.329c-0.048,0.071-0.03,0.124,0.053,0.16
		c0.083,0.035,0.137,0.029,0.16-0.019c0.048-0.07,0.036-0.13-0.035-0.178C45.497,79.246,45.438,79.258,45.391,79.329z
		 M45.781,79.934c-0.095,0.023-0.137,0.083-0.124,0.178c0.012,0.095,0.065,0.119,0.16,0.071c0.071-0.023,0.101-0.071,0.089-0.143
		C45.894,79.969,45.853,79.934,45.781,79.934z M46.173,77.195c-0.048,0.048-0.054,0.101-0.018,0.16
		c0.035,0.06,0.076,0.065,0.124,0.018c0.048-0.047,0.054-0.101,0.018-0.16C46.262,77.154,46.22,77.148,46.173,77.195z
		 M46.422,78.902c-0.048,0-0.077,0.035-0.089,0.106c-0.013,0.071,0.018,0.106,0.089,0.106c0.047,0,0.071-0.035,0.071-0.106
		S46.469,78.902,46.422,78.902z M46.422,81.036v0.142c0.118,0.048,0.219,0.102,0.302,0.16c0.083,0.06,0.172,0.113,0.268,0.16
		c0.047-0.095,0.076-0.184,0.089-0.267c0.012-0.083,0.041-0.172,0.089-0.267c-0.143,0-0.273,0.006-0.392,0.018
		C46.658,80.995,46.54,81.013,46.422,81.036z M50.512,81.996l-0.036,0.071c0.023,0.142,0.071,0.16,0.143,0.053
		C50.689,82.014,50.653,81.973,50.512,81.996z M51.294,78.404c-0.048,0.048-0.054,0.089-0.018,0.124
		c0.035,0.036,0.076,0.03,0.124-0.018c0.047-0.047,0.047-0.089,0-0.124C51.353,78.351,51.317,78.357,51.294,78.404z M52.219,73.177
		c-0.119,0.166-0.185,0.35-0.196,0.551c-0.012,0.202-0.041,0.397-0.089,0.587c0.119,0.048,0.243,0.084,0.374,0.106
		c0.13,0.024,0.254,0.06,0.373,0.107c0.118-0.166,0.243-0.338,0.373-0.516c0.131-0.178,0.255-0.361,0.374-0.552
		c0,0.071-0.006,0.16-0.018,0.267c-0.013,0.107-0.019,0.196-0.019,0.267c0.071-0.07,0.201-0.178,0.392-0.319
		c0.047,0.095,0.118,0.201,0.213,0.319c0.095,0.119,0.214,0.155,0.356,0.107c0.118-0.023,0.195-0.077,0.23-0.16
		c0.036-0.083,0.077-0.16,0.125-0.231c0.094-0.213,0.195-0.421,0.302-0.622c0.107-0.201,0.112-0.421,0.018-0.658
		c-0.189,0.024-0.361,0.054-0.516,0.089c-0.154,0.036-0.326,0.03-0.516-0.018c-0.332-0.071-0.652-0.035-0.96,0.106
		C52.728,72.75,52.455,72.94,52.219,73.177z M52.219,85.623c-0.048,0.143,0,0.178,0.142,0.107
		C52.432,85.611,52.384,85.576,52.219,85.623z M53.285,74.563c0.047-0.095,0.112-0.184,0.195-0.267s0.16-0.16,0.231-0.231
		c-0.071,0.071-0.148,0.148-0.231,0.231S53.332,74.469,53.285,74.563z M53.499,76.555c0.118-0.07,0.242-0.13,0.373-0.178
		c0.13-0.047,0.219-0.13,0.267-0.249c-0.143-0.094-0.302-0.094-0.48,0C53.48,76.224,53.428,76.365,53.499,76.555z M54.388,76.235
		c-0.119,0.166-0.172,0.338-0.16,0.516s-0.006,0.35-0.053,0.516c0.165,0.023,0.331,0.083,0.497,0.178
		c0.189-0.261,0.278-0.539,0.267-0.836c-0.012-0.296-0.089-0.563-0.23-0.8c-0.048,0.048-0.102,0.112-0.16,0.195
		C54.488,76.087,54.435,76.164,54.388,76.235z"/>
	<path fill="#EBC78F" d="M64.879,71.043c0.474-0.023,0.948-0.041,1.423-0.054c0.474-0.012,0.936,0.042,1.387,0.16
		c0.213,0.048,0.444,0.102,0.693,0.16c0.249,0.06,0.421,0.208,0.516,0.444c0.047,0.119,0.13,0.249,0.249,0.392
		c0.095-0.023,0.261-0.059,0.498-0.106c0,0.118,0.005,0.219,0.018,0.302c0.012,0.084,0.041,0.173,0.089,0.267
		c0.355,0.498,0.747,0.96,1.174,1.387c0.07,0.262,0.165,0.522,0.284,0.783c0.118,0.261,0.236,0.521,0.355,0.782
		c0.047,0.189,0.047,0.373,0,0.551c-0.048,0.178-0.071,0.362-0.071,0.552c0.048,0.118,0.106,0.201,0.178,0.249
		c0.071,0.047,0.143,0.106,0.214,0.178c-0.048,0.07-0.095,0.154-0.143,0.249c0.048,0.189,0.089,0.361,0.125,0.516
		c0.035,0.154,0.076,0.314,0.124,0.479c0.047,0.119,0.041,0.237-0.018,0.355c-0.06,0.119-0.102,0.237-0.125,0.355
		c-0.095,0.546-0.077,1.085,0.054,1.618c0.13,0.534,0.219,1.073,0.267,1.618c0.023,0.333-0.03,0.658-0.16,0.979
		c-0.13,0.319-0.137,0.646-0.018,0.978c0.118,0.355,0.154,0.711,0.106,1.067c-0.048,0.355-0.071,0.711-0.071,1.066
		c-0.047,0.024-0.101,0.042-0.159,0.054c-0.06,0.012-0.113,0.029-0.16,0.053c0.023-0.118,0.041-0.236,0.053-0.355
		c0.012-0.118-0.018-0.236-0.089-0.355c-0.048,0.355-0.06,0.711-0.035,1.066c0.023,0.356,0.095,0.7,0.213,1.032
		c0.095,0.545,0.131,1.097,0.107,1.653c-0.024,0.558-0.036,1.108-0.036,1.653c-0.048,0.925-0.201,1.813-0.462,2.667
		c-0.214,0.403-0.457,0.782-0.729,1.139c-0.272,0.355-0.563,0.711-0.871,1.066c-0.119,0.143-0.261,0.255-0.427,0.338
		s-0.32,0.172-0.462,0.267c-0.19,0.119-0.386,0.231-0.587,0.338c-0.202,0.106-0.421,0.16-0.658,0.16
		c-0.189-0.023-0.361-0.029-0.516-0.018s-0.314,0.006-0.479-0.018c-0.071,0.094-0.155,0.213-0.249,0.355
		c-0.285-0.071-0.582-0.154-0.89-0.249c-0.048,0.047-0.101,0.076-0.16,0.089c-0.059,0.012-0.112,0.041-0.159,0.089
		c-0.071-0.024-0.143-0.071-0.214-0.143c-0.023,0.048-0.035,0.077-0.035,0.089s-0.013,0.041-0.036,0.089
		c-0.403,0.048-0.776,0-1.12-0.142c-0.344-0.143-0.717-0.272-1.12-0.392c-0.19-0.071-0.355-0.16-0.498-0.267
		c-0.142-0.106-0.309-0.207-0.498-0.303c-0.379-0.189-0.688-0.449-0.924-0.782c-0.167-0.261-0.374-0.468-0.623-0.622
		s-0.421-0.396-0.516-0.729c0.023-0.19,0.101-0.356,0.231-0.498c0.13-0.143,0.255-0.272,0.373-0.392
		c-0.048-0.047-0.095-0.076-0.142-0.089c-0.048-0.012-0.096-0.041-0.143-0.089c-0.071,0.095-0.143,0.19-0.213,0.284
		c-0.071,0.096-0.143,0.19-0.214,0.285c-0.166-0.403-0.261-0.794-0.284-1.174c0.118-0.214,0.249-0.403,0.391-0.569
		c0,0.096,0.012,0.178,0.036,0.249c0.047-0.023,0.094-0.041,0.142-0.053s0.095-0.03,0.143-0.054
		c-0.048-0.047-0.089-0.106-0.124-0.178c-0.036-0.071-0.078-0.143-0.125-0.214c0.118-0.047,0.255-0.094,0.409-0.142
		s0.172-0.178,0.054-0.392c-0.071-0.142-0.16-0.254-0.268-0.338c-0.106-0.083-0.226-0.165-0.355-0.249
		c-0.13-0.082-0.249-0.165-0.355-0.249c-0.106-0.082-0.184-0.195-0.231-0.338c-0.07-0.189-0.089-0.391-0.053-0.604
		c0.035-0.213,0.041-0.414,0.018-0.604c-0.023-0.521-0.042-1.043-0.054-1.564s0.065-1.031,0.231-1.529
		c0.071-0.189,0.077-0.379,0.018-0.568s-0.112-0.38-0.16-0.569c-0.048-0.261-0.035-0.498,0.036-0.711
		c0.071-0.214,0.118-0.438,0.142-0.676c-0.047-0.45-0.083-0.895-0.106-1.334c-0.023-0.438-0.048-0.859-0.071-1.263
		c0.071-0.355,0.107-0.705,0.107-1.049s0-0.681,0-1.014c0.023-0.236,0.012-0.468-0.036-0.693c-0.048-0.225-0.048-0.456,0-0.693
		c0-0.261,0.095-0.462,0.285-0.604c0.189-0.143,0.367-0.296,0.533-0.462c0.047,0.379,0.053,0.765,0.018,1.155
		c-0.035,0.392,0.077,0.729,0.338,1.014c0.118-0.118,0.213-0.249,0.284-0.392c0.071-0.142,0.143-0.271,0.214-0.391
		c-0.119-0.189-0.214-0.379-0.285-0.569c-0.07-0.189-0.178-0.355-0.319-0.498c0.071-0.189,0.16-0.361,0.267-0.516
		c0.106-0.153,0.219-0.29,0.338-0.408c0.118-0.119,0.147-0.255,0.089-0.409c-0.06-0.154-0.148-0.267-0.267-0.338
		c0.284-0.023,0.456-0.16,0.516-0.409c0.059-0.249,0.076-0.48,0.053-0.693c0-0.214,0.071-0.385,0.214-0.516
		c0.142-0.13,0.296-0.255,0.462-0.373c0.095-0.119,0.201-0.148,0.32-0.09c0.118,0.06,0.225,0.113,0.32,0.16
		c0.023-0.142,0.041-0.284,0.053-0.427c0.012-0.142,0.065-0.271,0.16-0.391c0.095-0.118,0.207-0.214,0.338-0.285
		c0.13-0.07,0.278-0.142,0.444-0.213c-0.048,0.143-0.07,0.272-0.07,0.392c0.189,0.047,0.379,0.106,0.568,0.178
		c0.189,0.07,0.379,0.118,0.569,0.142c0.047-0.189,0.071-0.396,0.071-0.622C64.595,71.334,64.688,71.162,64.879,71.043z
		 M59.153,87.473c0,0.048-0.023,0.071-0.071,0.071c0.048,0.142,0.106,0.16,0.178,0.053C59.331,87.49,59.296,87.449,59.153,87.473z
		 M60.256,78.227c-0.071,0.023-0.095,0.071-0.071,0.143c0.023,0.07,0.059,0.095,0.106,0.07c0.071-0.022,0.095-0.076,0.071-0.159
		S60.303,78.18,60.256,78.227z M60.576,74.848c0.118,0,0.147,0.054,0.089,0.16c-0.06,0.107-0.113,0.089-0.16-0.053
		c0.023,0,0.035-0.012,0.035-0.036C60.54,74.896,60.552,74.872,60.576,74.848z M60.647,94.514c0.022,0.119,0.035,0.22,0.035,0.303
		s0,0.184,0,0.302c0.047,0.024,0.106,0.042,0.178,0.054s0.13,0.03,0.178,0.054c0.023-0.095,0.083-0.214,0.178-0.356
		c-0.095-0.047-0.189-0.101-0.284-0.159C60.837,94.65,60.741,94.585,60.647,94.514z M61.607,75.311
		c0.047,0.119,0.094,0.22,0.142,0.302c0.048,0.084,0.095,0.185,0.143,0.303c0-0.261,0.035-0.521,0.106-0.782
		c-0.048,0.048-0.106,0.077-0.178,0.089S61.679,75.263,61.607,75.311z M61.892,90.922c0.071,0.285,0.225,0.475,0.462,0.569
		c-0.023-0.236-0.095-0.485-0.213-0.747C62.069,90.769,61.986,90.828,61.892,90.922z M62.105,71.896
		c0.094-0.047,0.147-0.035,0.159,0.035c0.012,0.071-0.018,0.119-0.089,0.143c-0.07,0.048-0.118,0.035-0.142-0.035
		C62.01,71.968,62.034,71.92,62.105,71.896z M62.852,71.896c-0.048,0.048-0.053,0.095-0.018,0.143s0.077,0.048,0.125,0
		c0.047-0.048,0.053-0.095,0.018-0.143C62.94,71.85,62.899,71.85,62.852,71.896z M63.172,83.774
		c-0.023,0.048-0.035,0.095-0.035,0.142c0,0.048-0.013,0.096-0.036,0.143c0.048-0.023,0.112-0.047,0.195-0.071
		c0.083-0.023,0.16-0.047,0.231-0.071c-0.048-0.047-0.101-0.07-0.16-0.07S63.243,83.822,63.172,83.774z M64.061,75.204
		c-0.048-0.048-0.089-0.089-0.124-0.125c-0.035-0.035-0.077-0.076-0.125-0.124c0,0.118-0.006,0.237-0.018,0.355
		c-0.012,0.119-0.006,0.237,0.018,0.355c0.048,0.19,0.023,0.368-0.07,0.533c-0.096,0.166-0.166,0.333-0.214,0.498
		c0.071-0.047,0.148-0.101,0.231-0.16c0.083-0.059,0.172-0.112,0.267-0.16c-0.023,0.237-0.054,0.469-0.089,0.693
		c-0.035,0.226-0.065,0.445-0.089,0.658c0,0.854,0.012,1.701,0.035,2.543s0.012,1.689-0.035,2.543c0,0.332,0.035,0.675,0.106,1.031
		c0.071,0.355,0.083,0.711,0.036,1.066c-0.024,0.024-0.054,0.042-0.089,0.054c-0.036,0.012-0.066,0.029-0.09,0.053
		c-0.095-0.118-0.189-0.23-0.284-0.338c-0.095-0.106-0.213-0.207-0.355-0.302c0,0.475,0.059,0.937,0.178,1.387
		c0.118,0.45,0.154,0.901,0.106,1.352c0.023,0,0.048,0.006,0.071,0.018c0.023,0.013,0.059,0.018,0.106,0.018
		c-0.023-0.047-0.035-0.124-0.035-0.23c0-0.107,0-0.184,0-0.231h0.427c-0.048,0.119-0.119,0.237-0.214,0.355
		c-0.095,0.119-0.178,0.237-0.248,0.355c-0.071,0.119-0.113,0.243-0.125,0.374c-0.012,0.13,0.041,0.255,0.16,0.373l0.213-0.641
		c0.071,0.356,0.048,0.747-0.07,1.174c-0.048,0.071-0.042,0.143,0.018,0.214c0.059,0.07,0.112,0.154,0.16,0.249
		c0.213,0.403,0.272,0.83,0.178,1.279c-0.095,0.451-0.119,0.901-0.071,1.352c0.118,0.333,0.278,0.617,0.48,0.854
		c0.201,0.237,0.385,0.498,0.551,0.782v0.285c0.214-0.189,0.462-0.332,0.747-0.427c0.284-0.095,0.521-0.249,0.711-0.463
		c0.143-0.118,0.278-0.219,0.409-0.302c0.13-0.083,0.254-0.184,0.373-0.303h-0.142c0.047-0.284,0.029-0.557-0.054-0.817
		s-0.077-0.521,0.018-0.782c0.047-0.143,0.118-0.297,0.214-0.463c0.094-0.165,0.082-0.332-0.036-0.498
		c0.023-0.047,0.06-0.142,0.106-0.284c-0.07,0.071-0.178,0.154-0.319,0.249c-0.024-0.308,0.012-0.599,0.106-0.871
		s0.213-0.539,0.355-0.801l-0.213-0.106c0-0.355-0.024-0.717-0.071-1.085c-0.048-0.367-0.084-0.729-0.106-1.084
		c0.07,0.023,0.171,0.041,0.302,0.053c0.13,0.013,0.231,0.019,0.303,0.019c-0.048,0.142-0.102,0.284-0.16,0.427
		c-0.06,0.142-0.113,0.308-0.16,0.497c0.189-0.236,0.332-0.462,0.427-0.675c0.095,0.047,0.184,0.089,0.267,0.124
		s0.16,0.089,0.231,0.16c0.118,0.261,0.178,0.539,0.178,0.836c0,0.296,0.023,0.586,0.071,0.871c0.047,0.189,0.07,0.386,0.07,0.587
		s0.095,0.361,0.285,0.479c0.047-0.118,0.083-0.213,0.106-0.284s0.059-0.166,0.106-0.284c0.048,0,0.106,0.006,0.178,0.018
		s0.143,0.018,0.214,0.018c0.071-0.213,0.095-0.414,0.071-0.604c-0.096-0.545-0.279-1.043-0.552-1.493s-0.516-0.913-0.729-1.388
		c-0.096-0.165-0.155-0.331-0.178-0.498c-0.024-0.165-0.096-0.308-0.214-0.427c-0.166-0.047-0.302-0.011-0.409,0.107
		c-0.106,0.119-0.219,0.213-0.338,0.284c-0.189-0.663-0.226-1.321-0.106-1.974c0.118-0.651,0.143-1.298,0.071-1.938
		c-0.024-0.45-0.048-0.9-0.071-1.351s0.071-0.877,0.284-1.28h-0.178c0.048-0.048,0.077-0.101,0.089-0.16s0.042-0.112,0.089-0.16
		c-0.07,0-0.118,0.012-0.142,0.035c0.071-0.236,0.089-0.462,0.053-0.676c-0.035-0.213-0.065-0.427-0.089-0.64
		c-0.023-0.095-0.035-0.195-0.035-0.303c0-0.106-0.048-0.183-0.143-0.23c-0.284-0.189-0.587-0.344-0.906-0.463
		c-0.32-0.118-0.587-0.308-0.801-0.568c-0.213-0.237-0.462-0.297-0.746-0.178C64.31,74.718,64.132,74.919,64.061,75.204z
		 M63.421,77.622c-0.048-0.023-0.102-0.012-0.16,0.035c-0.06,0.048-0.077,0.096-0.054,0.143c0.048,0.048,0.112,0.042,0.196-0.018
		C63.485,77.723,63.492,77.67,63.421,77.622z M63.35,85.481c0.095-0.023,0.189-0.048,0.284-0.071s0.189-0.047,0.285-0.071
		c0,0.048-0.024,0.143-0.071,0.284C63.705,85.576,63.539,85.529,63.35,85.481z M63.563,96.719c-0.048,0.023-0.066,0.071-0.054,0.143
		c0.012,0.071,0.041,0.095,0.089,0.071c0.071,0,0.106-0.042,0.106-0.125S63.657,96.695,63.563,96.719z M63.527,85.659h0.355
		c-0.071,0.166-0.083,0.326-0.035,0.479c0.047,0.155,0.118,0.291,0.213,0.409c-0.048,0-0.106,0.006-0.178,0.018
		c-0.071,0.013-0.13,0.019-0.178,0.019C63.61,86.252,63.551,85.943,63.527,85.659z M63.563,71.398
		c0.118-0.047,0.225-0.095,0.319-0.143c0.095-0.047,0.201-0.094,0.32-0.142c0.023,0.048,0.041,0.095,0.054,0.142
		c0.012,0.048,0.041,0.096,0.089,0.143c-0.143,0.048-0.279,0.083-0.409,0.106c-0.131,0.024-0.255,0.048-0.373,0.071V71.398z
		 M63.99,97.003c0.118-0.047,0.225-0.089,0.319-0.124c0.095-0.036,0.201-0.077,0.32-0.125C64.369,96.731,64.155,96.813,63.99,97.003
		z M65.732,74.6c0.213,0.213,0.438,0.272,0.676,0.178c-0.119-0.048-0.231-0.083-0.338-0.107
		C65.964,74.646,65.851,74.623,65.732,74.6z M67.262,90.851c-0.048,0.048-0.054,0.102-0.018,0.16
		c0.035,0.06,0.076,0.065,0.124,0.019c0.047-0.048,0.054-0.101,0.018-0.16C67.351,90.81,67.309,90.804,67.262,90.851z
		 M67.333,85.055c0.07-0.023,0.118,0,0.142,0.071c0.023,0.07,0,0.118-0.071,0.142c-0.095,0.024-0.142-0.005-0.142-0.089
		C67.262,85.096,67.285,85.055,67.333,85.055z M68.861,78.618c0.119,0.261,0.214,0.521,0.285,0.782s0.201,0.486,0.391,0.676
		c0.095-0.237,0.071-0.457-0.07-0.658c-0.143-0.201-0.249-0.396-0.32-0.587c0.047-0.047,0.101-0.089,0.16-0.124
		c0.059-0.036,0.112-0.077,0.16-0.125c-0.119,0-0.22,0-0.303,0S68.98,78.595,68.861,78.618z M68.861,89.713
		c0.048-0.047,0.131-0.112,0.249-0.195c0.119-0.083,0.201-0.147,0.249-0.195c-0.071,0.07-0.154,0.137-0.249,0.195
		C69.016,89.577,68.933,89.642,68.861,89.713z M69.929,79.685c-0.024,0.095-0.035,0.202-0.035,0.32s-0.024,0.237-0.071,0.355
		c0.071-0.023,0.153-0.036,0.249-0.036c-0.048,0.143-0.084,0.237-0.107,0.285c-0.118-0.048-0.219-0.089-0.302-0.125
		c-0.084-0.035-0.173-0.076-0.267-0.124c-0.024,0.189-0.054,0.391-0.089,0.604c-0.036,0.213-0.042,0.415-0.019,0.604
		c0.023,0.332,0.119,0.646,0.285,0.942c0.165,0.297,0.308,0.599,0.427,0.907c0.047,0.118,0.106,0.226,0.178,0.319
		c0.071,0.096,0.153,0.19,0.249,0.285c0.047-0.119,0.089-0.255,0.124-0.409c0.036-0.154,0.029-0.303-0.018-0.444
		c-0.071-0.237-0.213-0.486-0.427-0.747c0.095-0.047,0.184-0.089,0.267-0.124c0.083-0.036,0.16-0.077,0.231-0.125
		c-0.024-0.095-0.036-0.189-0.036-0.284s-0.023-0.189-0.07-0.285c-0.048-0.07-0.119-0.106-0.214-0.106s-0.166-0.012-0.213-0.035
		c0-0.237,0.153-0.379,0.462-0.427c0-0.261-0.03-0.521-0.089-0.782C70.385,79.993,70.213,79.804,69.929,79.685z M69.645,88.788
		c-0.048,0.048-0.054,0.102-0.019,0.16c0.036,0.06,0.077,0.065,0.125,0.018c0.047-0.047,0.054-0.094,0.018-0.142
		C69.733,88.776,69.691,88.765,69.645,88.788z M70.355,87.152c-0.071-0.023-0.137-0.035-0.195-0.035c-0.06,0-0.113-0.012-0.16-0.036
		c-0.096,0.285-0.125,0.604-0.089,0.961c0.035,0.355,0.219,0.616,0.551,0.782c0.023-0.189,0.06-0.367,0.106-0.533
		c0.048-0.166,0.048-0.344,0-0.534c-0.07-0.261-0.083-0.557-0.035-0.889C70.485,86.987,70.427,87.081,70.355,87.152z M70.106,86.619
		c-0.023,0-0.06,0.023-0.106,0.071c-0.048,0.048-0.048,0.095,0,0.142c0.047,0.048,0.106,0.019,0.178-0.089
		C70.249,86.637,70.225,86.596,70.106,86.619z M70.106,76.875c0.047,0.284,0.095,0.521,0.143,0.711
		c0.165-0.07,0.331-0.153,0.498-0.248C70.533,77.124,70.32,76.97,70.106,76.875z M70.142,78.12c0.189,0.023,0.374,0.018,0.552-0.019
		c0.178-0.035,0.325-0.111,0.444-0.23c-0.166,0.048-0.326,0.089-0.48,0.124C70.503,78.031,70.331,78.072,70.142,78.12z
		 M70.889,76.626c-0.048-0.023-0.106-0.012-0.178,0.036s-0.083,0.106-0.035,0.178c0.047,0.048,0.106,0.035,0.178-0.036
		S70.937,76.674,70.889,76.626z M70.925,82.174c-0.048,0.024-0.066,0.071-0.054,0.143c0.012,0.071,0.041,0.083,0.089,0.035
		c0.071,0,0.106-0.035,0.106-0.106S71.019,82.15,70.925,82.174z M71.493,84.912c0.023,0.119,0.036,0.243,0.036,0.373
		c0,0.131,0,0.256,0,0.374h0.178c0.094-0.095,0.165-0.154,0.213-0.178c-0.048-0.023-0.101-0.036-0.16-0.036
		s-0.124-0.012-0.195-0.035c0.118-0.166,0.272-0.367,0.462-0.604c-0.095,0.023-0.178,0.041-0.248,0.053
		C71.707,84.871,71.611,84.889,71.493,84.912z"/>
	<path fill="#EBC78F" d="M74.516,71.435c0.047-0.189,0.165-0.29,0.355-0.303c0.189-0.012,0.355-0.006,0.498,0.018
		c0.213,0.048,0.42,0.106,0.622,0.178c0.201,0.071,0.396,0.143,0.587,0.214c-0.024,0.119-0.036,0.284-0.036,0.498
		c0-0.071,0.012-0.131,0.036-0.178c0.023-0.048,0.059-0.095,0.106-0.143c0.071,0.143,0.154,0.279,0.249,0.409
		s0.213,0.23,0.355,0.302c0.071-0.165,0.178-0.302,0.32-0.409c0.142-0.106,0.272-0.195,0.391-0.267
		c-0.118,0.024-0.219,0.048-0.302,0.071c-0.084,0.024-0.173,0.048-0.267,0.071c-0.096-0.095-0.19-0.201-0.285-0.32
		c-0.095-0.118-0.166-0.236-0.213-0.355c0.189-0.047,0.355-0.041,0.498,0.018c0.142,0.06,0.278,0.143,0.408,0.249
		c0.131,0.106,0.249,0.231,0.356,0.374c0.106,0.142,0.219,0.261,0.338,0.355c0-0.048-0.007-0.101-0.019-0.16
		c-0.012-0.059-0.018-0.112-0.018-0.16c0.048,0.023,0.077,0.042,0.089,0.054s0.041,0.029,0.089,0.053
		c-0.048,0.332,0.018,0.641,0.196,0.925c0.178,0.284,0.29,0.593,0.337,0.925c0.048,0.379,0.054,0.753,0.019,1.12
		c-0.036,0.368-0.054,0.741-0.054,1.12c-0.048,0.403-0.065,0.807-0.054,1.209c0.012,0.403,0.019,0.807,0.019,1.209
		c0,0.333-0.024,0.641-0.071,0.925c-0.048,0.284-0.084,0.581-0.106,0.889c0,0.309,0.022,0.611,0.07,0.907
		c0.048,0.297,0.071,0.587,0.071,0.871c0.023,0.403,0,0.789-0.071,1.156c-0.07,0.367-0.083,0.741-0.035,1.12
		c0,0.213,0.029,0.433,0.089,0.658c0.059,0.226,0.065,0.456,0.018,0.693c-0.048,0.616-0.035,1.238,0.036,1.866
		c0.07,0.629,0.023,1.239-0.143,1.832c0.047,0.355,0.106,0.711,0.178,1.066s0.083,0.712,0.035,1.067
		c-0.118,0.568-0.136,1.132-0.053,1.688c0.083,0.558,0.064,1.109-0.054,1.654c-0.048,0.309-0.077,0.61-0.089,0.906
		c-0.012,0.297-0.041,0.6-0.089,0.907c-0.284,0.498-0.699,0.711-1.244,0.64c-0.38-0.047-0.741-0.059-1.085-0.035
		s-0.693,0-1.049-0.071c-0.237-0.165-0.469-0.338-0.693-0.516c-0.226-0.178-0.422-0.396-0.587-0.657
		c-0.096-0.403-0.131-0.801-0.107-1.191c0.023-0.392,0.06-0.788,0.107-1.191c0.023-0.332,0.005-0.658-0.054-0.979
		c-0.06-0.319-0.077-0.646-0.054-0.978c0-0.261-0.012-0.51-0.035-0.747c-0.023-0.236-0.023-0.474,0-0.711
		c0.047-0.475,0.054-0.96,0.018-1.458c-0.035-0.498-0.029-0.983,0.018-1.458c0.023-0.332,0.023-0.658,0-0.979
		c-0.023-0.319-0.041-0.646-0.053-0.978c-0.013-0.332-0.018-0.658-0.018-0.979c0-0.319,0.047-0.646,0.142-0.978
		c0.095-0.236,0.118-0.474,0.071-0.711c-0.048-0.237-0.048-0.475,0-0.712c0.071-0.379,0.077-0.734,0.018-1.066
		s-0.137-0.663-0.23-0.996c0-0.261,0-0.527,0-0.8s0.118-0.504,0.355-0.693c-0.048-0.023-0.131-0.036-0.249-0.036
		c0.095-0.094,0.172-0.183,0.231-0.267c0.059-0.082,0.124-0.16,0.195-0.23c-0.071,0-0.131,0.006-0.178,0.018
		c-0.048,0.012-0.106,0.018-0.178,0.018c-0.024-0.284,0-0.563,0.071-0.836c0.07-0.272,0.082-0.539,0.035-0.8
		c-0.024-0.521-0.065-1.031-0.124-1.529c-0.06-0.498-0.042-0.983,0.053-1.458c0.047-0.332,0.071-0.658,0.071-0.978
		C74.373,72.057,74.42,71.742,74.516,71.435z M74.479,91.029c-0.071,0.023-0.089,0.065-0.053,0.124
		c0.035,0.06,0.076,0.077,0.124,0.054c0.071-0.023,0.089-0.071,0.054-0.143C74.568,90.993,74.527,90.981,74.479,91.029z
		 M74.551,82.529c-0.071,0-0.112,0.042-0.124,0.125c-0.013,0.083,0.029,0.124,0.124,0.124c0.071,0,0.112-0.041,0.124-0.124
		S74.646,82.529,74.551,82.529z M74.729,90.211c-0.071,0-0.112,0.03-0.124,0.089c-0.013,0.06,0.018,0.089,0.089,0.089
		S74.8,90.359,74.8,90.3C74.8,90.241,74.775,90.211,74.729,90.211z M74.729,94.62v0.427c0.047-0.094,0.089-0.171,0.125-0.23
		c0.035-0.06,0.076-0.137,0.124-0.231C74.93,94.609,74.847,94.62,74.729,94.62z M75.084,91.989
		c-0.048,0.166-0.083,0.338-0.106,0.516s-0.023,0.35,0,0.516c0.023,0.119,0.071,0.22,0.143,0.302
		c0.071,0.084,0.142,0.16,0.213,0.231c-0.023-0.261-0.041-0.521-0.053-0.782C75.268,92.511,75.202,92.25,75.084,91.989z
		 M75.618,96.754c-0.071,0-0.107,0.03-0.107,0.089c0,0.06,0.036,0.09,0.107,0.09c0.047,0,0.07-0.03,0.07-0.09
		C75.688,96.784,75.665,96.754,75.618,96.754z M76.471,95.226c-0.07,0.095-0.118,0.189-0.142,0.284c0.095,0,0.189-0.023,0.284-0.071
		v-0.178C76.542,95.261,76.494,95.249,76.471,95.226z M76.436,96.647c-0.023,0.119,0.012,0.166,0.106,0.143
		C76.613,96.647,76.578,96.601,76.436,96.647z M76.685,92.345c0.047,0.237,0.059,0.469,0.035,0.693
		c-0.023,0.226-0.048,0.457-0.07,0.693c0.094-0.071,0.183-0.143,0.267-0.213c0.082-0.071,0.147-0.166,0.195-0.285
		c0.023-0.165,0.059-0.338,0.106-0.516s0.012-0.338-0.106-0.479c-0.095,0-0.172,0.012-0.231,0.035
		C76.82,92.298,76.756,92.321,76.685,92.345z M77.254,96.221c-0.071,0.024-0.102,0.071-0.089,0.143
		c0.012,0.071,0.053,0.095,0.124,0.071c0.047-0.023,0.065-0.071,0.054-0.143C77.33,96.221,77.301,96.197,77.254,96.221z
		 M78.249,91.242c-0.142,0.617-0.083,1.233,0.178,1.85c0.095-0.309,0.166-0.646,0.214-1.014
		C78.688,91.711,78.557,91.433,78.249,91.242z M78.178,94.728c0.189,0.048,0.32,0.083,0.392,0.106c0-0.095,0.023-0.189,0.071-0.284
		c-0.071,0.048-0.148,0.077-0.231,0.089S78.249,94.68,78.178,94.728z"/>
	<path fill="#EBC78F" d="M90.838,71.114c0.166-0.023,0.309,0.012,0.427,0.106c0.119,0.095,0.237,0.19,0.355,0.284
		c0.143-0.26,0.344-0.391,0.605-0.391c0.26,0,0.509,0.012,0.746,0.035c-0.048,0.096-0.071,0.196-0.071,0.303
		s-0.012,0.22-0.035,0.338c-0.64,0.095-1.292,0.166-1.956,0.213c0.048-0.142,0.071-0.261,0.071-0.355l-0.64,0.747
		c0.284,0.119,0.58,0.13,0.889,0.035c0.308-0.095,0.592-0.165,0.854-0.213c0.095,0.048,0.172,0.089,0.231,0.124
		c0.059,0.036,0.136,0.077,0.23,0.125c0.143-0.071,0.297-0.143,0.463-0.214c0.165-0.071,0.343-0.13,0.533-0.178
		c-0.048-0.189,0.006-0.344,0.16-0.462c0.153-0.119,0.313-0.154,0.479-0.107c0.261,0,0.409,0.119,0.445,0.356
		c0.035,0.237,0.005,0.438-0.089,0.604c-0.071,0.332-0.214,0.622-0.427,0.871c-0.214,0.249-0.368,0.539-0.463,0.871
		c-0.142,0.403-0.32,0.8-0.533,1.191c-0.214,0.391-0.403,0.788-0.569,1.191c-0.189,0.332-0.391,0.658-0.604,0.978
		c-0.213,0.32-0.427,0.646-0.64,0.979c-0.143,0.189-0.237,0.415-0.285,0.676s-0.166,0.485-0.355,0.675
		c0.048,0.262,0.018,0.498-0.089,0.712c-0.106,0.213-0.195,0.438-0.267,0.676c-0.119,0.261-0.29,0.492-0.516,0.693
		s-0.361,0.468-0.409,0.8c-0.048,0.262-0.089,0.51-0.124,0.747C89.22,83.763,89.25,84,89.345,84.236
		c0.071,0.19,0.118,0.38,0.143,0.569c0.022,0.189,0.059,0.379,0.106,0.568c0.047,0.19,0.136,0.356,0.267,0.498
		c0.13,0.143,0.255,0.297,0.373,0.463c0.45,0.734,0.794,1.506,1.031,2.312c0.261,0.379,0.468,0.788,0.623,1.227
		c0.153,0.439,0.36,0.859,0.622,1.263c0.047,0.095,0.101,0.195,0.16,0.302c0.059,0.107,0.089,0.22,0.089,0.338
		c-0.024,0.143-0.106,0.231-0.249,0.267c-0.143,0.036-0.273,0.077-0.392,0.125c0.095,0.332,0.196,0.658,0.303,0.978
		c0.106,0.32,0.184,0.646,0.231,0.979c0,0.213-0.071,0.421-0.214,0.622s-0.131,0.409,0.035,0.622c0.095,0.143,0.22,0.196,0.374,0.16
		c0.153-0.035,0.29-0.076,0.409-0.124c0.047-0.119,0.082-0.255,0.106-0.409c0.023-0.154,0.143-0.184,0.355-0.089
		c-0.023,0.071,0.012,0.16,0.106,0.267s0.106,0.208,0.036,0.302c-0.071,0.119-0.166,0.19-0.285,0.214
		c-0.118,0.023-0.237,0.06-0.355,0.106c-0.119,0.19-0.297,0.255-0.533,0.195c-0.237-0.059-0.451-0.064-0.641-0.018
		c-0.189-0.023-0.267,0.065-0.23,0.267c0.035,0.202,0.112,0.326,0.23,0.374c0.166,0.048,0.338,0.101,0.516,0.16
		c0.179,0.06,0.361,0.065,0.552,0.018c0.095-0.048,0.184-0.048,0.267,0s0.16,0.095,0.231,0.143
		c-0.048,0.095-0.089,0.201-0.125,0.319c-0.035,0.118-0.124,0.166-0.267,0.143c-0.45,0-0.901,0.006-1.352,0.018
		s-0.912-0.03-1.387-0.124c0.095-0.096,0.154-0.166,0.178-0.214c-0.237,0.095-0.433,0.06-0.587-0.106s-0.29-0.344-0.408-0.533
		c-0.119-0.309-0.231-0.616-0.338-0.925c-0.107-0.308-0.267-0.593-0.48-0.854c-0.261-0.332-0.45-0.699-0.569-1.103
		c-0.118-0.402-0.248-0.806-0.391-1.209c-0.262-0.641-0.563-1.263-0.907-1.867s-0.705-1.203-1.084-1.796
		c-0.024,0-0.042-0.012-0.054-0.035c-0.013-0.023-0.042-0.048-0.089-0.071c-0.048,0.237-0.048,0.469,0,0.693
		c0.047,0.226,0.089,0.457,0.124,0.693c0.036,0.237,0.06,0.469,0.071,0.693c0.012,0.226-0.03,0.457-0.124,0.693
		c-0.096,0.333-0.131,0.664-0.106,0.996c0.022,0.332,0.047,0.664,0.07,0.996c-0.023,0.118-0.077,0.236-0.16,0.355
		c-0.083,0.118-0.184,0.213-0.302,0.284c-0.071,0.023-0.131,0.006-0.178-0.054c-0.048-0.059-0.095-0.112-0.143-0.159
		c-0.048,0.047-0.089,0.095-0.124,0.142c-0.036,0.048-0.077,0.095-0.125,0.143c-0.048-0.143-0.101-0.272-0.16-0.392
		c-0.059-0.118-0.137-0.236-0.23-0.355c-0.048,0.19-0.089,0.373-0.125,0.552c-0.035,0.178-0.077,0.361-0.124,0.551
		c-0.095,0.166-0.195,0.314-0.303,0.444c-0.106,0.131-0.219,0.279-0.338,0.444c-0.118-0.142-0.255-0.284-0.408-0.427
		c-0.155-0.142-0.338-0.236-0.552-0.284c-0.119,0.119-0.226,0.255-0.32,0.409s-0.226,0.255-0.391,0.302
		c0.071,0.237,0.076,0.463,0.018,0.676c-0.06,0.214-0.124,0.415-0.195,0.604c-0.143-0.07-0.273-0.147-0.392-0.23
		c-0.119-0.083-0.201-0.196-0.249-0.338c-0.071-0.83-0.106-1.666-0.106-2.508c0-0.841-0.013-1.677-0.035-2.507
		c-0.048-0.64-0.042-1.286,0.018-1.938c0.059-0.651,0.029-1.298-0.089-1.938c0.261-0.048,0.462-0.16,0.604-0.338
		c0.142-0.178,0.236-0.373,0.284-0.587c0.023-0.118-0.012-0.195-0.106-0.231c-0.095-0.035-0.178-0.064-0.249-0.089v0.463
		c-0.071-0.048-0.148-0.101-0.231-0.16s-0.137-0.137-0.16-0.231c0-0.236,0.019-0.462,0.054-0.676
		c0.035-0.213,0.029-0.438-0.018-0.676c0-0.118-0.006-0.236-0.018-0.355c-0.013-0.118-0.019-0.249-0.019-0.391
		c0.048-0.071,0.101-0.148,0.16-0.231s0.112-0.172,0.16-0.267c-0.166-0.166-0.255-0.355-0.267-0.569
		c-0.012-0.213,0.041-0.414,0.16-0.604c-0.048-0.023-0.106-0.035-0.178-0.035c0-0.261,0-0.51,0-0.747
		c0-0.236-0.024-0.474-0.071-0.711c-0.095-0.403-0.089-0.788,0.018-1.156c0.106-0.367,0.101-0.74-0.018-1.12
		c-0.095-0.403-0.113-0.794-0.054-1.174c0.06-0.379,0.089-0.77,0.089-1.173c0-0.214,0.036-0.45,0.107-0.712
		c-0.071,0-0.107-0.012-0.107-0.035c0.023-0.095,0.054-0.195,0.089-0.303c0.036-0.106,0.03-0.219-0.018-0.338
		c-0.048-0.355-0.065-0.723-0.053-1.103c0.012-0.379,0.041-0.746,0.089-1.102c-0.119-0.332-0.024-0.51,0.284-0.534
		c0.047,0.167,0.095,0.326,0.143,0.48c0.047,0.154,0.094,0.303,0.142,0.444c0.023-0.071,0.041-0.13,0.054-0.178
		c0.012-0.047,0.029-0.095,0.054-0.143c0.047,0,0.094,0.024,0.142,0.071c0.118-0.118,0.219-0.219,0.303-0.302
		c0.083-0.083,0.184-0.184,0.302-0.303c-0.048-0.118-0.101-0.249-0.16-0.391c-0.059-0.143-0.018-0.272,0.125-0.392
		c0.261-0.047,0.516-0.054,0.765-0.018c0.249,0.035,0.503,0.065,0.765,0.089c0.213,0.023,0.427,0.023,0.64,0
		c0.214-0.023,0.427-0.012,0.641,0.035c0.142,0.048,0.219,0.131,0.23,0.249c0.012,0.119,0.03,0.237,0.054,0.355
		c-0.095,0.048-0.19,0.102-0.284,0.16c-0.096,0.06-0.19,0.113-0.285,0.16c-0.118-0.047-0.237-0.101-0.355-0.16
		c-0.119-0.059-0.249-0.112-0.391-0.16c-0.166,0.024-0.326,0.054-0.48,0.089c-0.154,0.036-0.314,0.078-0.48,0.125
		c0.071,0.048,0.143,0.077,0.214,0.089s0.13,0.054,0.178,0.124c0.166,0.333,0.45,0.582,0.854,0.747c0.118,0,0.225-0.006,0.32-0.018
		c0.094-0.012,0.201-0.029,0.319-0.054c0.071,0.355,0.172,0.712,0.303,1.067c0.13,0.355,0.172,0.735,0.124,1.138
		c-0.07,0.19-0.13,0.392-0.178,0.604c-0.048,0.214-0.118,0.415-0.213,0.604c-0.071,0.237-0.226,0.374-0.463,0.409
		s-0.45,0.077-0.64,0.124c0.308,0.427,0.663,0.818,1.066,1.174c0.095-0.023,0.214-0.059,0.356-0.106
		c0.022,0.143,0.047,0.278,0.07,0.409c0.023,0.13,0.048,0.267,0.071,0.408c0.095,0.024,0.226,0.096,0.392,0.214
		c0.095-0.118,0.184-0.236,0.267-0.355c0.083-0.118,0.184-0.237,0.302-0.355c0.119-0.166,0.208-0.338,0.268-0.516
		c0.059-0.179,0.136-0.35,0.23-0.516c0.189-0.285,0.386-0.575,0.587-0.872c0.201-0.296,0.421-0.574,0.658-0.835
		c0.189-0.189,0.385-0.374,0.587-0.552c0.201-0.178,0.361-0.396,0.479-0.658c-0.118-0.022-0.219-0.041-0.302-0.053
		c-0.084-0.012-0.185-0.029-0.303-0.054c0.048-0.071,0.101-0.147,0.16-0.23c0.059-0.083,0.112-0.148,0.16-0.196
		c-0.048,0.024-0.143,0.036-0.284,0.036c0.165-0.237,0.367-0.475,0.604-0.712c-0.048,0-0.084-0.005-0.107-0.018
		c-0.023-0.012-0.059-0.018-0.106-0.018c0.071-0.118,0.13-0.255,0.178-0.409c0.048-0.153,0.095-0.302,0.143-0.444
		c0.047-0.071,0.124-0.089,0.231-0.054c0.106,0.036,0.195,0.042,0.267,0.019c0.023-0.048,0.059-0.143,0.106-0.285
		c-0.095,0.024-0.178,0.036-0.249,0.036s-0.143,0.012-0.213,0.035c0.165-0.189,0.338-0.392,0.516-0.604
		C90.358,71.256,90.577,71.138,90.838,71.114z M81.201,89.855c-0.096,0.023-0.125,0.071-0.089,0.142
		c0.035,0.071,0.101,0.084,0.195,0.036c0.071-0.047,0.089-0.101,0.054-0.16C81.325,89.814,81.272,89.808,81.201,89.855z
		 M81.414,85.41c0.023,0.048,0.041,0.112,0.054,0.195c0.012,0.084,0.029,0.16,0.053,0.231c0.071-0.048,0.131-0.101,0.179-0.16
		c0.047-0.059,0.106-0.124,0.178-0.195C81.687,85.434,81.532,85.41,81.414,85.41z M81.628,85.055c-0.048,0-0.096,0.029-0.143,0.089
		c-0.048,0.06-0.048,0.112,0,0.16c0.071,0.048,0.143,0.012,0.214-0.107C81.77,85.078,81.746,85.031,81.628,85.055z M83.477,95.51
		c0.214,0.095,0.45,0.178,0.712,0.249v0.213c-0.096,0.024-0.196,0.054-0.303,0.089c-0.106,0.036-0.208,0.019-0.302-0.053
		c-0.096-0.048-0.131-0.125-0.107-0.231S83.5,95.581,83.477,95.51z M85.077,95.047c0.095-0.094,0.189-0.136,0.284-0.124
		c0.095,0.013,0.201,0.018,0.32,0.018c-0.048,0.048-0.095,0.096-0.143,0.143c-0.048,0.048-0.095,0.095-0.142,0.143
		c0.094,0,0.213-0.023,0.355-0.071c-0.071,0.261-0.113,0.539-0.125,0.835c-0.012,0.297-0.089,0.575-0.23,0.836
		c-0.071,0.096-0.16,0.173-0.267,0.231c-0.107,0.06-0.22,0.124-0.338,0.195c0.023-0.048,0.047-0.095,0.071-0.142
		c0.022-0.048,0.047-0.095,0.07-0.143c-0.166,0.048-0.332,0.089-0.497,0.124c-0.167,0.036-0.32,0.007-0.463-0.089
		c-0.095-0.118-0.154-0.242-0.178-0.373c-0.023-0.13-0.06-0.255-0.106-0.373c0.095-0.023,0.189-0.048,0.284-0.071
		s0.189-0.048,0.284-0.071c0.143-0.189,0.279-0.373,0.409-0.551C84.798,95.385,84.935,95.214,85.077,95.047z M83.726,75.168
		c0,0.285,0.029,0.575,0.089,0.871c0.06,0.297,0.137,0.575,0.231,0.836c0.071-0.047,0.136-0.106,0.195-0.178s0.125-0.13,0.196-0.178
		c-0.071-0.047-0.143-0.089-0.214-0.124c-0.071-0.036-0.131-0.112-0.178-0.231c0.071-0.189,0.166-0.379,0.284-0.569
		c-0.095-0.071-0.189-0.147-0.284-0.231C83.951,75.281,83.844,75.216,83.726,75.168z M84.046,79.934c0,0.023-0.023,0.06-0.071,0.106
		c0.023,0.119,0.077,0.125,0.16,0.018C84.218,79.951,84.188,79.91,84.046,79.934z M84.366,75.062c-0.048,0-0.089,0.03-0.125,0.089
		c-0.035,0.06-0.029,0.112,0.018,0.16c0.071,0.048,0.137,0.03,0.196-0.054C84.514,75.174,84.484,75.109,84.366,75.062z
		 M85.006,72.323c0.071,0,0.178-0.023,0.32-0.071c0.047,0.262-0.035,0.498-0.249,0.711C85.029,72.773,85.006,72.561,85.006,72.323z
		 M88.704,82.423c-0.048,0-0.065,0.035-0.053,0.106c0.012,0.071,0.041,0.096,0.089,0.071c0.071-0.023,0.101-0.071,0.089-0.143
		C88.816,82.388,88.775,82.376,88.704,82.423z M88.989,81.712c0.047,0.023,0.101,0.053,0.16,0.089
		c0.059,0.035,0.124,0.077,0.195,0.124c-0.048-0.047-0.077-0.095-0.089-0.143c-0.013-0.047-0.03-0.082-0.054-0.106
		c0.166-0.142,0.285-0.308,0.355-0.498c0.071-0.189,0.131-0.379,0.178-0.568c-0.189,0.119-0.355,0.267-0.497,0.444
		C89.096,81.231,89.013,81.451,88.989,81.712z M88.989,91.847c0,0.19,0.005,0.386,0.018,0.587c0.012,0.201,0.065,0.397,0.16,0.587
		c0.213,0.355,0.414,0.717,0.604,1.084c0.189,0.368,0.402,0.729,0.64,1.085c0.119-0.023,0.226-0.029,0.32-0.018
		s0.201,0.006,0.32-0.018c0.261,0,0.444-0.118,0.551-0.355c0.107-0.237,0.219-0.45,0.338-0.641c0-0.284-0.13-0.503-0.391-0.658
		c-0.262-0.153-0.498-0.29-0.712-0.408c0.048,0.048,0.089,0.106,0.125,0.178c0.035,0.071,0.076,0.142,0.124,0.213
		c-0.095-0.047-0.184-0.101-0.267-0.16c-0.083-0.059-0.16-0.112-0.231-0.16c0.095-0.094,0.143-0.201,0.143-0.319
		c-0.023,0.023-0.095,0.071-0.213,0.142c-0.071-0.118-0.137-0.26-0.196-0.427c-0.06-0.165-0.16-0.271-0.302-0.319
		c-0.19-0.048-0.362-0.112-0.516-0.196C89.351,91.96,89.179,91.895,88.989,91.847z M89.202,82.139v0.355
		c0.048-0.071,0.089-0.148,0.125-0.231c0.035-0.083,0.076-0.16,0.124-0.231c-0.048,0.024-0.089,0.048-0.124,0.071
		C89.291,82.127,89.25,82.139,89.202,82.139z M89.7,91.207c-0.095,0.048-0.124,0.106-0.089,0.178s0.089,0.083,0.16,0.035
		c0.071-0.047,0.101-0.106,0.089-0.178C89.848,91.171,89.795,91.159,89.7,91.207z M89.878,72.679
		c-0.071,0.024-0.095,0.065-0.071,0.125c0.023,0.059,0.06,0.065,0.107,0.018c0.047-0.023,0.064-0.065,0.053-0.125
		C89.955,72.638,89.925,72.632,89.878,72.679z M90.056,92.024c0.143-0.047,0.226-0.071,0.249-0.071v-0.355
		c-0.048,0.071-0.089,0.143-0.124,0.214C90.145,91.882,90.104,91.953,90.056,92.024z M92.332,73.212c0,0.119,0.005,0.226,0.018,0.32
		c0.012,0.095,0.018,0.202,0.018,0.32c0.118-0.048,0.249-0.101,0.392-0.16c0.142-0.059,0.284-0.112,0.427-0.16v0.284
		c0.047-0.118,0.106-0.219,0.178-0.302s0.143-0.184,0.213-0.303c-0.189-0.142-0.391-0.189-0.604-0.142
		C92.759,73.118,92.545,73.165,92.332,73.212z M93.932,96.719c0.048-0.118,0.083-0.213,0.107-0.284
		c0.023-0.071,0.059-0.154,0.106-0.249c0,0.048,0.006,0.101,0.018,0.16s0.018,0.112,0.018,0.16
		C94.11,96.553,94.026,96.624,93.932,96.719z M94.288,96.114c0.047-0.047,0.101-0.047,0.16,0c0.059,0.048,0.064,0.095,0.018,0.143
		c-0.048,0.07-0.102,0.083-0.16,0.035C94.246,96.245,94.24,96.186,94.288,96.114z"/>
</g>
</svg>
