<?xml version="1.0" encoding="utf-8"?>
<!-- Generator: Adobe Illustrator 15.0.0, SVG Export Plug-In . SVG Version: 6.00 Build 0)  -->
<!DOCTYPE svg PUBLIC "-//W3C//DTD SVG 1.1//EN" "http://www.w3.org/Graphics/SVG/1.1/DTD/svg11.dtd">
<svg version="1.1" id="Calque_1" xmlns="http://www.w3.org/2000/svg" xmlns:xlink="http://www.w3.org/1999/xlink" x="0px" y="0px"
	 width="70.87px" height="70.87px" viewBox="0 0 70.87 70.87" enable-background="new 0 0 70.87 70.87" xml:space="preserve">
<g>
	<path fill="#FFFFFF" d="M34.479,22.646c-0.119,0-0.241,0.009-0.375,0.03c-1.171,0.203-1.966,1.32-1.771,2.493
		c0.176,1.045,1.073,1.804,2.133,1.804c0.113,0,0.225-0.009,0.362-0.028c1.173-0.2,1.969-1.318,1.773-2.49
		C36.428,23.406,35.535,22.646,34.479,22.646z"/>
	<path fill="#FFFFFF" d="M65.469,31.776c-3.113,1.436-5.661,2.94-7.793,4.604l-0.677,0.537l0.748,1.789
		c-0.285-0.007-0.577-0.011-0.854-0.011c-1.463,0-1.938,0.103-2.308,0.497l-0.586,0.624l1.446,2.426l-4.517,0.456l1.988,3.711
		l-3.866,0.385L46.5,32.048c-0.159-0.93-0.781-1.686-1.636-2.028l-1.266-4.262c-0.149-0.896-0.664-1.579-1.182-2.07l0.084-0.04
		c0.332-0.188,0.71-0.576,0.779-1.099c0.218-1.148,0.579-3.211,0.549-4.122c-0.12-3.695-2.845-14.002-2.88-14.133
		c-0.217-0.706-0.774-1.185-1.489-1.28L37.754,2.78l-0.14-0.009c-0.565,0-1.051,0.419-1.132,0.979l-0.735,5.346
		c-0.075,0.536,0.241,1.054,0.744,1.227c0.771,0.275,1.254,1.374,1.098,2.503c-0.157,1.146-0.902,2.054-1.738,2.11
		c-0.534,0.04-0.974,0.455-1.045,0.993l-0.245,1.94c-0.138,0.001-0.285,0.002-0.423,0.01c-0.098,0.005-0.268,0.026-0.453,0.053
		l-0.358-2.13c-0.092-0.523-0.543-0.919-1.073-0.941c-0.819-0.034-1.607-0.938-1.794-2.058c-0.189-1.141,0.252-2.23,1.04-2.538
		c0.495-0.204,0.779-0.715,0.69-1.242l-0.891-5.328c-0.048-0.287-0.213-0.553-0.474-0.744c-0.191-0.131-0.422-0.203-0.649-0.203
		l-1.856,0.299c-0.715,0.111-1.248,0.596-1.479,1.39c-0.406,1.768-2.436,10.756-2.447,14.147c-0.004,1.131,0.661,4.062,0.664,4.062
		c0.069,0.475,0.378,0.888,0.895,1.155l1.196,0.522c-0.383,0.567-0.771,1.151-0.894,1.694c-0.199,0.86-0.646,2.973-0.87,4.027
		L25.38,30.07c-0.79,0.366-1.366,1.101-1.517,1.976l-3.064,17.715c-3.878-5.326-7.842-10.411-11.023-14.137l-0.134-0.153
		c-0.598-0.684-2.185-2.499-2.891-3.252l-1.97-2.104l0.006,2.883c0.004,8.127,2.437,12.452,6.735,19.398
		c1.277,2.064,4.518,6.548,7.086,10.046l-0.151,0.875c-0.121,0.707,0.04,1.418,0.453,1.998c0.415,0.588,1.03,0.978,1.731,1.099
		l4.505,0.779c1.46,0.25,2.846-0.749,3.097-2.186l5.406-31.269c0.104-0.603,0.001-1.211-0.297-1.753l0.38-0.611
		c0.622,0.255,1.215,0.296,1.696,0.296c0.603,0,1.125-0.156,1.598-0.37l0.219,0.332c-0.027,0.034-0.054,0.068-0.08,0.105
		c-0.413,0.59-0.573,1.3-0.452,2.001l5.407,31.269c0.223,1.288,1.334,2.223,2.643,2.223c0.149,0,0.3-0.011,0.457-0.037l4.502-0.779
		c0.704-0.121,1.32-0.512,1.731-1.099c0.415-0.586,0.576-1.297,0.454-1.999l-0.178-1.028c8.081-8.906,12.235-20.342,14.246-25.877
		c0.402-1.161,0.759-2.265,1.058-3.277l0.715-2.406L65.469,31.776z M8.055,37.109c3.536,4.144,7.975,9.88,12.205,15.775
		l-1.113,6.443c-1.978-2.713-4.608-6.379-5.692-8.13c-3.621-5.851-5.705-9.463-6.251-15.064C7.602,36.588,7.926,36.961,8.055,37.109
		z M35.429,29.396c-0.624,0-0.948-0.106-1.289-0.424c-0.213-0.194-0.486-0.302-0.772-0.302l-0.161,0.012
		c-0.335,0.051-0.628,0.243-0.802,0.525l-0.896,1.438c-0.015-0.003-0.029-0.006-0.044-0.009l-3.745-0.646
		c0.236-1.115,0.583-2.74,0.747-3.459c0.052-0.178,0.421-0.724,0.615-1.011c0.442-0.653,0.717-1.076,0.801-1.525
		c0.096-0.527-0.181-1.04-0.66-1.242l-2.014-0.891c-0.335-1.558-0.545-2.822-0.543-3.274c0.007-2.535,1.439-9.479,2.321-13.35
		l0.258-0.044l0.576,3.43c-1.256,0.952-1.906,2.739-1.604,4.552c0.309,1.846,1.483,3.3,3,3.784l0.41,2.455
		c0.047,0.296,0.215,0.566,0.459,0.741c0.192,0.139,0.427,0.215,0.659,0.215l0.198-0.019c0.431-0.076,1.158-0.194,1.304-0.207
		l0.211-0.004c2.175,0,4.042,1.479,4.542,3.597c0.076,0.323,0.289,0.596,0.583,0.747l0.459,0.232
		c0.455,0.307,1.217,0.82,1.346,1.548l1.105,3.752l-3.225,0.556l-0.918-1.392c-0.314-0.48-1.063-0.627-1.579-0.321
		C36.263,29.16,35.86,29.396,35.429,29.396z M31.411,33.349L26.003,64.62c-0.032,0.188-0.229,0.337-0.473,0.331l-4.509-0.78
		c-0.104-0.017-0.191-0.074-0.256-0.165c-0.064-0.092-0.088-0.197-0.069-0.307l0.078-0.453l5.328-30.816
		c0.031-0.185,0.212-0.335,0.374-0.339l4.864,0.955C31.405,33.137,31.43,33.242,31.411,33.349z M39.839,13.138
		c0.254-1.829-0.446-3.6-1.732-4.511l0.472-3.439l0.266,0.037c0.443,1.714,2.615,10.264,2.714,13.279
		c0.021,0.625-0.302,2.505-0.449,3.295l-0.336,0.159c-0.772-1.74-2.194-3.061-3.974-3.682l0.162-1.272
		C38.441,16.468,39.591,14.955,39.839,13.138z M39.023,33.046c0.048-0.066,0.126-0.115,0.161-0.129l4.726-0.818
		c0.173,0.026,0.321,0.164,0.351,0.332l5.407,31.271c0.019,0.106-0.005,0.21-0.073,0.306c-0.063,0.09-0.15,0.146-0.26,0.164
		l-4.572,0.786c-0.19,0-0.371-0.151-0.403-0.337L38.952,33.35C38.934,33.242,38.958,33.139,39.023,33.046z M54.398,52.972
		l-2.364-4.189l4.493-0.448l-1.993-3.716l4.692-0.475l-1.894-3.173c0.944,0.014,1.955,0.067,2.085,0.076l1.815,0.109l-1.466-3.505
		c1.261-0.922,2.677-1.796,4.287-2.646c-0.073,0.214-0.146,0.43-0.222,0.646c-1.843,5.076-5.587,15.389-12.603,23.756l-1.143-6.614
		L54.398,52.972z M50.414,50.533l-0.722-0.029l-0.311-1.798L50.414,50.533z"/>
</g>
</svg>
