<?xml version="1.0" encoding="utf-8"?>
<!-- Generator: Adobe Illustrator 15.0.0, SVG Export Plug-In . SVG Version: 6.00 Build 0)  -->
<!DOCTYPE svg PUBLIC "-//W3C//DTD SVG 1.1//EN" "http://www.w3.org/Graphics/SVG/1.1/DTD/svg11.dtd">
<svg version="1.1" id="Calque_1" xmlns="http://www.w3.org/2000/svg" xmlns:xlink="http://www.w3.org/1999/xlink" x="0px" y="0px"
	 width="70.87px" height="70.87px" viewBox="0 0 70.87 70.87" enable-background="new 0 0 70.87 70.87" xml:space="preserve">
<path fill="#FFFFFF" d="M63.166,21.251h-6.834c0.039-0.028,0.077-0.057,0.114-0.085c1.8-1.363,3.044-3.239,3.697-5.573
	c0.887-3.164,0.042-5.187-0.822-6.326c-1.305-1.721-3.497-2.629-6.341-2.629c-2.279,0-4.903,0.59-7.39,1.662l-0.378,0.163
	c-2.858,1.231-4.923,2.12-6.758,3.721c-1.127,0.983-2.09,2.168-3.035,3.774c-0.564-1.523-1.218-2.738-2.03-3.82
	c-1.505-2.002-3.384-3.324-5.985-5.153l-0.344-0.241c-3.031-2.134-6.483-3.408-9.235-3.408c-2.08,0-3.822,0.689-5.037,1.994
	c-1.321,1.42-1.902,3.398-1.725,5.882c0.178,2.499,1.034,4.65,2.544,6.396c1.374,1.589,3.284,2.813,5.679,3.645H7.703v12.308h2.482
	v31.355h24.302V33.559v-1.325v-8.215l1.896,0.176v8.039v1.325v31.355h24.302V33.559h2.481V21.251z M32.315,62.74H12.358V34.407
	h19.957V62.74z M58.512,62.74H38.555V34.407h19.957V62.74z M39.883,13.822c1.579-1.378,3.513-2.211,6.189-3.363l0.378-0.163
	c2.222-0.958,4.54-1.485,6.53-1.485c1.49,0,3.5,0.307,4.61,1.77c0.567,0.748,1.106,2.123,0.461,4.429
	c-0.522,1.866-1.504,3.356-2.917,4.427c-1.165,0.883-2.642,1.491-4.4,1.816h-9.951c0.046-0.375,0.131-0.583,0.234-0.707
	c1.2,0.056,2.535,0.097,3.874,0.097c1.723,0,3.239-0.067,4.506-0.198c4.231-0.441,6.75-2.305,7.699-5.701
	c0.432-1.538,0.331-2.736-0.296-3.563c-0.684-0.902-2.004-1.378-3.82-1.378c-1.831,0-4.068,0.512-6.138,1.404l-0.379,0.163
	c-4.016,1.729-6.04,2.602-7.96,5.59c-0.315-0.117-0.635-0.229-0.949-0.332C38.291,15.449,39.038,14.558,39.883,13.822z
	 M21.458,16.25c-3.248-1.016-4.782-2.688-4.977-5.424c-0.073-1.021,0.098-1.597,0.282-1.795c0.156-0.168,0.544-0.264,1.063-0.264
	c1.625,0,4.023,0.949,6.109,2.418l0.346,0.242c3.451,2.428,4.918,3.459,5.979,6.199c-0.226,0.117-0.411,0.231-0.557,0.35
	C27.171,17.603,23.947,17.027,21.458,16.25z M41.276,18.381c-0.211-0.179-0.472-0.353-0.768-0.521
	c1.502-2.209,3.123-2.907,6.814-4.497l0.38-0.163c1.808-0.78,3.731-1.227,5.277-1.227c1.339,0,1.943,0.325,2.09,0.518
	c0.108,0.144,0.218,0.655-0.064,1.664c-0.702,2.507-2.501,3.779-5.833,4.126c-1.192,0.124-2.633,0.187-4.281,0.187
	C43.647,18.468,42.405,18.432,41.276,18.381z M20.485,19.359c-2.263-0.708-4.024-1.775-5.234-3.174
	c-1.197-1.382-1.876-3.107-2.02-5.128c-0.132-1.858,0.254-3.287,1.148-4.247c0.794-0.852,1.985-1.302,3.447-1.302
	c2.321,0,5.307,1.126,7.985,3.012l0.344,0.242c2.438,1.714,4.2,2.953,5.498,4.683c0.603,0.801,1.107,1.708,1.556,2.818
	c-0.35,0.17-0.675,0.32-0.975,0.457c-1.303-3.271-3.142-4.564-6.704-7.07l-0.345-0.242c-2.503-1.762-5.254-2.813-7.36-2.813
	c-1.169,0-2.062,0.322-2.652,0.957c-0.681,0.729-0.969,1.884-0.859,3.429c0.26,3.656,2.385,6.057,6.495,7.342
	c2.707,0.848,6.196,1.459,8.848,1.844c0.164,0.402,0.308,0.764,0.45,1.086h-0.556C26.803,20.856,23.286,20.236,20.485,19.359z
	 M9.876,23.423h19.529c1.144,0.164,2.148,0.287,2.91,0.375v7.59H9.876V23.423z M60.993,31.388H38.555v-7.69
	c0.303-0.005,0.581-0.025,0.831-0.071c1.581,0.095,3.525,0.178,5.506,0.178c1.833,0,3.458-0.072,4.833-0.215
	c0.411-0.043,0.813-0.099,1.202-0.166h10.066V31.388z"/>
</svg>
