<?xml version="1.0" encoding="utf-8"?>
<!-- Generator: Adobe Illustrator 15.0.0, SVG Export Plug-In . SVG Version: 6.00 Build 0)  -->
<!DOCTYPE svg PUBLIC "-//W3C//DTD SVG 1.1//EN" "http://www.w3.org/Graphics/SVG/1.1/DTD/svg11.dtd">
<svg version="1.1" id="Calque_1" xmlns="http://www.w3.org/2000/svg" xmlns:xlink="http://www.w3.org/1999/xlink" x="0px" y="0px"
	 width="70.87px" height="70.87px" viewBox="0 0 70.87 70.87" enable-background="new 0 0 70.87 70.87" xml:space="preserve">
<g>
	<path fill="#FFFFFF" d="M67.296,49.75c-0.637-0.549-1.58-1.307-2.69-2.184c0.202,0.063,0.266-0.093,0.389-0.168
		c0.217-0.131,0.439-0.619,0.408-0.819c-0.019-0.117-0.703,0.383-0.627,0.237c0.25-0.477,0.872-2.336,0.121-2.812
		c-0.59-0.371-1.241,0.148-1.902,0.557c-0.102-0.03-0.684,0.389-0.612,0.253c0.25-0.476,0.872-2.336,0.122-2.811
		c-0.603-0.379-1.268,0.168-1.943,0.581c0.002-0.026,0.003-0.054,0-0.073c-0.018-0.119-0.702,0.384-0.627,0.238
		c0.252-0.477,0.872-2.338,0.122-2.811c-0.624-0.395-1.315,0.208-2.018,0.624c0-0.02,0.002-0.04,0-0.056
		c-0.019-0.116-0.702,0.384-0.626,0.238c0.25-0.476,0.871-2.337,0.121-2.811s-1.599,0.494-2.443,0.844
		c-0.13,0.055-0.31,0.064-0.48,0.064l0.111-2.394c-0.321-0.266-0.686-0.564-1.084-0.888l2.132-2.74l7.343-8.842l0.51-3.313
		l-2.842,1.18l-9.733,11.132l-0.273,0.287c-3.922-3.105-8.983-6.972-11.811-8.822l0,0c-0.023-0.011-0.046-0.019-0.071-0.028
		L21.011,10.479c-2.467-1.923-5.882-3.071-9.136-3.071c-0.212,0-0.425,0.005-0.628,0.016l-1.153,0.06l0.602,0.986
		c0.941,1.541,3.599,4.72,5.488,6.358c3.464,3.002,6.83,5.367,10.392,7.873c0.874,0.614,1.764,1.239,2.672,1.886l0.191,0.138
		l0.633-0.026l0.206,0.779l1.325,0.781L3.386,43.605h2.32l0.353,0.117l-1.716,2.45l5.991-2.779l0.17-0.385l0.783-0.075l0.51-0.648
		l0.817-0.057l0.375-0.564l0.904-0.021l0.337-0.606l0.93-0.009l0.271-0.657l1.043,0.113l0.305-0.784l0.865,0.124l0.254-0.677
		l0.666,0.124l0.421-0.755l0.902,0.043l0.48-0.76l0.856,0.172l0.405-0.81l0.937,0.224l0.391-0.924l0.916,0.197l0.251-0.749
		l0.833,0.254l0.369-0.944l1.02,0.245l0.272-0.845l1.045,0.307l0.189-0.973l0.789,0.181l-1.261,2.52l-2.246,0.801l-1.141,1.143
		l-0.619,1.652l0.268,1.874l-0.015,0.233l-5.643,4.862c-0.827,0.711-1.566,1.685-2.263,2.975c-1.379,2.556-1.091,3.038-0.968,3.244
		c0.138,0.231,0.381,0.369,0.652,0.369c0.184,0,0.367-0.063,0.556-0.193l4.813-3.349L18,55.243c-0.225,0.404-0.148,0.701-0.044,0.88
		c0.135,0.23,0.381,0.366,0.657,0.366l0,0c0.833,0,2.808-1.747,2.825-1.765c1.115-1.079,2.174-2.44,3.062-3.935l3.161-5.316
		l11.554-8.037c0.371-0.258,0.415-0.625,0.335-0.882c-0.14-0.448-0.539-0.708-2.159-0.708c-0.556,0-1.261,0.057-1.788,0.497
		l-1.525,1.271l-3.023,2.604l-2.309,1.911l-0.615,0.123l-0.522,0.011l-0.153-0.396l-0.062-1.036l6.959-7.613l1.177-1.246
		c5.458,4.745,16.937,14.412,22.981,18.953l-3.145,3.125l1.596,0.049c0.259,0.008,0.483,0.012,0.687,0.015
		c0.899,0.016,1.125,0.026,1.479,0.272c0.312,0.611,0.468,1.774,0.192,2.226c-0.375,0.616-1.152,1.117-1.975,1.647
		c-0.769,0.497-1.562,1.009-2.151,1.692l-0.081,0.095l-1.562,4.217l0.848,0.118c0.055,0.007,0.113,0.011,0.175,0.011
		c1.212,0,4.118-1.749,5.322-3.007c1.202-1.257,1.94-2.945,2.656-4.579c0.284-0.65,0.579-1.323,0.891-1.938l0.022-0.043
		c0.408-0.8,0.6-1.3,0.624-1.674C65.971,52.823,67.699,51.591,67.296,49.75z M36.482,37.399c0.137-0.113,0.401-0.154,0.621-0.168
		l-2.458,1.709L36.482,37.399z M62.517,45.464c0.67-0.293,1.71-1.1,1.928-0.896c0.596,0.558-0.388,2.205-0.277,2.653
		c-0.673-0.53-1.397-1.098-2.146-1.686c0.059,0.021,0.12,0.032,0.183,0.026C62.36,45.616,62.437,45.537,62.517,45.464z
		 M52.053,33.918l9.553-10.923l0.284-0.119l-0.08,0.519l-7.113,8.566l-2.129,2.737c-0.231-0.186-0.468-0.376-0.713-0.572
		L52.053,33.918z M31.462,24.58l-0.343-1.3l-1.265,0.05c-0.845-0.601-1.672-1.182-2.488-1.755c-3.534-2.484-6.871-4.83-10.282-7.787
		c-1.396-1.209-3.319-3.406-4.49-4.982c2.235,0.138,5.205,0.913,7.571,2.758l15.962,12.44c-0.528,0.089-0.997,0.285-1.4,0.56
		l-0.087-0.174l-1.713,1.053L31.462,24.58z M27.88,32.55l-1.106-0.255L26.6,33.183l-0.882-0.259l-0.292,0.907l-0.946-0.228
		l-0.341,0.874l-0.895-0.274l-0.287,0.854l-0.827-0.178l-0.38,0.899l-0.864-0.208l-0.426,0.847l-0.756-0.151l-0.555,0.882
		l-0.952-0.044l-0.354,0.635l-0.831-0.154l-0.27,0.721l-0.848-0.123l-0.321,0.822l-1.021-0.109l-0.316,0.767l-0.82,0.006
		l-0.345,0.62l-0.832,0.019l-0.398,0.598l-0.75,0.051l-0.524,0.668l-0.995,0.096l-0.288,0.646l-1.236,0.574l-0.615-0.206
		l24.698-15.183l-1.297,2.842l-0.052,0.01l-1.401,1.596l-1.265-0.563L27.88,32.55z M16.93,50.849c0.616-1.14,1.254-1.986,1.95-2.587
		l3.487-3.003l-1.026,1.656l0.159,1.17l-4.894,3.404C16.711,51.267,16.822,51.048,16.93,50.849z M25.986,40.33l0.108,1.83
		l0.051,0.132l0,0l0.238,0.621l0.472,1.226l-0.519,0.873l-3.019,5.076c-0.827,1.391-1.807,2.652-2.835,3.648
		c-0.042,0.041-0.089,0.084-0.14,0.127l2.678-4.807l-0.044-0.323l0,0l-0.205-1.513l2.151-3.477l0.034-0.583l0.322-0.853
		l-0.271,0.005l0.014-0.246l-0.001-0.001l0.16-2.711l0.706-0.707l2.43-0.868L25.986,40.33z M33.344,32.28l-4.947,5.413l1.676-3.352
		l1.659-2.715l0.002-0.001l0.161-0.266l1.213-2.642c0.099,0.59,0.314,1.175,0.662,1.709c0.217,0.192,0.459,0.407,0.723,0.638
		l-0.072,0.078h0.001L33.344,32.28z M54.583,39.439c0.087,0.044,0.18,0.066,0.274,0.052c0.6-0.099,1.971-1.232,2.224-0.994
		c0.497,0.468-0.11,1.698-0.255,2.349c-0.107,0.005-0.178,0.02-0.17,0.07c0.021,0.136,0.25,0.467,0.527,0.556
		c0.118,0.056,0.195,0.044,0.258,0.008c0.626-0.156,1.916-1.208,2.161-0.979c0.516,0.482-0.15,1.778-0.269,2.411
		c-0.141,0.001-0.239,0.011-0.23,0.071c0.026,0.166,0.367,0.637,0.725,0.578c0.6-0.098,1.97-1.231,2.222-0.995
		c0.5,0.468-0.106,1.694-0.253,2.347c-0.178-0.002-0.311,0.003-0.3,0.072c0.008,0.056,0.056,0.146,0.123,0.239
		c-2.441-1.918-5.09-4.014-7.04-5.714L54.583,39.439z M62.238,54.198l-0.021,0.044c-0.331,0.651-0.633,1.343-0.926,2.012
		c-0.667,1.522-1.355,3.098-2.389,4.179c-0.822,0.859-2.272,1.747-3.292,2.226l0.703-1.897c0.46-0.497,1.129-0.928,1.776-1.347
		c0.918-0.591,1.866-1.203,2.405-2.088c0.635-1.046,0.278-2.899-0.256-3.769l-0.067-0.107l-0.102-0.078
		c-0.522-0.399-0.947-0.54-1.473-0.595l0.837-0.832l1.228,0.531c0.026,0.02,0.056,0.038,0.082,0.057
		c0.401,0.324,0.926,0.528,1.499,0.629l0.394,0.171C62.572,53.507,62.453,53.778,62.238,54.198z"/>
	<ellipse fill="#FFFFFF" cx="25.38" cy="44.707" rx="0.806" ry="0.759"/>
</g>
</svg>
