<?xml version="1.0" encoding="utf-8"?>
<!-- Generator: Adobe Illustrator 15.0.0, SVG Export Plug-In . SVG Version: 6.00 Build 0)  -->
<!DOCTYPE svg PUBLIC "-//W3C//DTD SVG 1.1//EN" "http://www.w3.org/Graphics/SVG/1.1/DTD/svg11.dtd">
<svg version="1.1" id="Calque_1" xmlns="http://www.w3.org/2000/svg" xmlns:xlink="http://www.w3.org/1999/xlink" x="0px" y="0px"
	 width="70.87px" height="70.87px" viewBox="0 0 70.87 70.87" enable-background="new 0 0 70.87 70.87" xml:space="preserve">
<g>
	<path fill="#FFFFFF" d="M46.35,22.469c0.128,0,0.255-0.021,0.371-0.063c6.813-2.34,6.234-7.359,5.722-11.808
		c-0.226-1.949-0.458-3.966,0.002-5.593c0.14-0.505-0.08-1.037-0.537-1.296c-0.066-0.037-0.137-0.067-0.209-0.091l0.019-0.188
		l-0.118,0.161c-0.393-0.089-0.816,0.047-1.075,0.331c-3.012,3.205-3.281,6.427-3.542,9.547c-0.194,2.313-0.395,4.706-1.657,7.377
		c-0.197,0.418-0.124,0.907,0.172,1.23C45.711,22.327,46.021,22.469,46.35,22.469z M49.994,9.055
		c0.054,0.625,0.125,1.239,0.192,1.823c0.398,3.434,0.726,6.255-1.769,8.145c0.541-1.946,0.69-3.738,0.827-5.368
		C49.383,12.009,49.509,10.505,49.994,9.055z"/>
	<path fill="#FFFFFF" d="M49.18,45.861c-0.193,0.412-0.122,0.898,0.182,1.24c0.215,0.24,0.523,0.379,0.847,0.379
		c0.121,0,0.241-0.02,0.369-0.063c8.439-2.896,8.884-8.666,8.449-13.963c3.854-2.162,3.445-5.784,3.083-8.998
		c-0.176-1.555-0.358-3.163,0.003-4.44c0.138-0.503-0.082-1.034-0.534-1.291c-0.083-0.047-0.17-0.083-0.261-0.107l0.014-0.209
		l-0.127,0.184c-0.366-0.058-0.764,0.072-1.016,0.344c-0.666,0.71-1.17,1.419-1.555,2.127c-0.099-0.178-0.245-0.33-0.432-0.438
		c-0.042-0.023-0.085-0.044-0.129-0.063l0.03-0.204l-0.135,0.168c-0.413-0.125-0.884,0.009-1.153,0.311
		c-4.349,4.629-4.724,9.114-5.122,13.882C51.4,38.203,51.098,41.805,49.18,45.861z M56.05,25.705
		c0.022,1.665,0.218,3.363,0.41,5.032l0.084,0.728c0.03,0.27,0.155,0.511,0.342,0.689c-0.144,0.213-0.214,0.474-0.189,0.743
		c0.445,4.621,0.394,8.691-4.391,11.304c1.154-3.354,1.407-6.373,1.652-9.309C54.235,31.577,54.482,28.622,56.05,25.705z
		 M59.043,30.595c0.289-1.279,0.389-2.466,0.486-3.638c0.074-0.871,0.144-1.691,0.295-2.479c0.009,0.079,0.018,0.157,0.026,0.235
		C60.148,27.341,60.273,29.242,59.043,30.595z"/>
	<path fill="#FFFFFF" d="M16.134,49.395c0.123,0.045,0.252,0.068,0.383,0.068c0.326,0,0.636-0.143,0.842-0.377
		c0.309-0.342,0.381-0.83,0.184-1.246c-1.921-4.066-2.222-7.67-2.513-11.154c-0.397-4.75-0.773-9.237-5.119-13.867
		c-0.288-0.305-0.734-0.435-1.154-0.31l-0.134-0.167l0.029,0.203c-0.043,0.018-0.087,0.038-0.13,0.062
		c-0.457,0.259-0.678,0.792-0.535,1.297c0.715,2.525,0.361,5.588,0.019,8.557C7.269,38.838,6.434,46.064,16.134,49.395z
		 M10.263,32.719c0.192-1.664,0.389-3.364,0.411-5.032c1.568,2.918,1.815,5.872,2.092,9.186c0.245,2.934,0.498,5.953,1.65,9.303
		C9.052,43.221,9.616,38.32,10.263,32.719z"/>
	<path fill="#FFFFFF" d="M31.397,30.565c-0.013-0.007-0.024-0.014-0.037-0.021l0.094-0.463l-0.302,0.382
		c-0.4-0.116-0.854,0.011-1.14,0.313c-1.665,1.774-2.74,3.551-3.454,5.268c0.109-4.101,0.742-6.912,1.32-9.479
		c1.07-4.734,1.915-8.475-0.967-17.154c-0.145-0.434-0.533-0.733-0.982-0.772L25.744,8l-0.069,0.646l-0.011,0.002
		c-0.545,0.083-0.951,0.544-0.966,1.1c-0.099,4.729-1.754,9.216-3.358,13.564c-3.221,8.732-6.551,17.76,2.334,29.038
		c-0.351,1.217-0.775,2.35-1.295,3.453c-0.198,0.42-0.124,0.91,0.172,1.23c0.214,0.248,0.524,0.389,0.854,0.389
		c0.127,0,0.251-0.02,0.371-0.061c1.047-0.359,4.544-1.688,5.593-3.662c1.428-2.686,1.479-6.684,1.534-10.943
		c0.046-3.727,0.094-7.579,1.033-10.898C32.076,31.352,31.854,30.821,31.397,30.565z M27.363,52.633
		c-0.24,0.451-0.916,0.988-1.871,1.51c0.193-0.57,0.369-1.156,0.531-1.77c0.088-0.352,0.008-0.715-0.221-0.998
		c-8.521-10.482-5.516-18.638-2.331-27.28c1.016-2.744,2.055-5.555,2.735-8.498c0.812,4.456,0.197,7.183-0.544,10.473
		c-0.935,4.145-2.098,9.303-0.831,19.557c0.052,0.432,0.342,0.781,0.738,0.928l0.178,2.434l0.305-2.365
		c0.553-0.045,0.993-0.48,1.037-1.035l0.063-0.75c0.254-3.027,0.483-5.752,1.711-8.42c-0.181,2.088-0.207,4.221-0.233,6.309
		C28.581,46.688,28.534,50.428,27.363,52.633z"/>
	<path fill="#FFFFFF" d="M46.129,38.105c1.605-3.374,2.992-6.288,1.25-11.618c-0.132-0.403-0.507-0.708-0.932-0.77l-0.071-0.286
		l-0.087,0.275c-0.503,0.004-0.937,0.33-1.078,0.811c-1.742,5.869-2.991,7.709-3.529,8.271c-0.104-0.412-0.17-1.139,0.013-2.029
		c0.135-0.652,0.271-1.279,0.406-1.896c1.181-5.4,2.112-9.666-1.246-18.274c-0.165-0.429-0.563-0.71-1.021-0.725l-0.189-0.551
		l-0.05,0.568l-0.002,0.001c-0.529,0.097-0.921,0.558-0.933,1.102c-0.073,5.172-1.93,10.508-3.729,15.676
		c-3.972,11.407-8.078,23.2,6.554,33.809c0.191,0.133,0.423,0.207,0.654,0.207c0.204,0,0.397-0.053,0.585-0.16
		c0.395-0.238,0.606-0.682,0.542-1.121C41.498,47.811,44.173,42.205,46.129,38.105z M40.707,58.98
		c-10.749-9.115-7.439-18.627-3.63-29.572c1.245-3.574,2.522-7.24,3.25-10.948c1.1,4.843,0.4,8.046-0.445,11.922l-0.028,0.127
		c-0.127,0.581-0.258,1.175-0.385,1.793c-0.353,1.721-0.121,3.394,0.587,4.26c0.377,0.465,0.894,0.721,1.453,0.721
		c0.98,0,2.442-0.658,4.391-5.685c-0.122,1.962-0.886,3.565-1.825,5.537C42.144,41.186,39.533,46.666,40.707,58.98z"/>
	<path fill="#FFFFFF" d="M20.305,50.074c-0.307-0.461-0.956-0.629-1.436-0.396l-0.191,0.004l-0.129,0.172L7.01,56.287
		c-0.928,0.518-1.599,1.369-1.89,2.395c-0.293,1.027-0.168,2.104,0.35,3.027l0.577,1.039c0.703,1.26,2.04,2.041,3.49,2.041
		c0.678,0,1.347-0.174,1.934-0.502l7.541-4.203c0.208-0.117,0.371-0.293,0.471-0.506l1.32-2.801
		c0.524-1.115,0.948-2.238,1.297-3.426c0.105-0.354,0.033-0.736-0.193-1.025C21.365,51.633,20.842,50.898,20.305,50.074z
		 M8.032,61.641l-0.577-1.035c-0.224-0.4-0.277-0.863-0.152-1.305s0.414-0.807,0.813-1.029l10.882-6.068
		c0.252,0.363,0.502,0.711,0.756,1.049c-0.287,0.891-0.618,1.73-1.006,2.559l-1.166,2.467l-7.218,4.025
		C9.566,62.75,8.474,62.432,8.032,61.641z"/>
	<path fill="#FFFFFF" d="M66.355,58.682c-0.294-1.029-0.966-1.879-1.892-2.395l-14.22-7.928c-0.533-0.297-1.257-0.084-1.54,0.436
		c-1.05,1.865-2.559,3.4-4.616,4.693c-0.335,0.213-0.538,0.59-0.529,0.992c0.012,0.396,0.233,0.764,0.584,0.961l15.859,8.844
		c0.588,0.33,1.257,0.504,1.935,0.504c1.45,0,2.787-0.781,3.49-2.041l0.576-1.035C66.522,60.787,66.647,59.711,66.355,58.682z
		 M63.442,61.641c-0.439,0.791-1.533,1.109-2.332,0.662l-14.282-7.965c1.301-1.02,2.394-2.18,3.261-3.465l13.27,7.398
		c0.397,0.223,0.685,0.588,0.81,1.031c0.126,0.443,0.074,0.906-0.148,1.303L63.442,61.641z"/>
</g>
</svg>
