<?xml version="1.0" encoding="utf-8"?>
<!-- Generator: Adobe Illustrator 15.0.0, SVG Export Plug-In . SVG Version: 6.00 Build 0)  -->
<!DOCTYPE svg PUBLIC "-//W3C//DTD SVG 1.1//EN" "http://www.w3.org/Graphics/SVG/1.1/DTD/svg11.dtd">
<svg version="1.1" id="Calque_1" xmlns="http://www.w3.org/2000/svg" xmlns:xlink="http://www.w3.org/1999/xlink" x="0px" y="0px"
	 width="70.87px" height="70.87px" viewBox="0 0 70.87 70.87" enable-background="new 0 0 70.87 70.87" xml:space="preserve">
<g>
	<path fill="#FFFFFF" d="M60.628,52.037c-1.612,0-2.924,1.311-2.924,2.924c0,0.781,0.304,1.516,0.854,2.066
		c0.551,0.555,1.285,0.859,2.066,0.859h0.003c1.612,0,2.925-1.313,2.925-2.926c0-0.779-0.304-1.514-0.856-2.07
		C62.145,52.34,61.411,52.037,60.628,52.037z M60.628,54.309h0.004c0.175,0,0.333,0.064,0.459,0.191
		c0.124,0.123,0.189,0.283,0.189,0.461c0,0.359-0.293,0.652-0.655,0.652c-0.175,0-0.335-0.066-0.459-0.189
		c-0.125-0.125-0.19-0.285-0.19-0.463C59.976,54.602,60.269,54.309,60.628,54.309z"/>
	<path fill="#FFFFFF" d="M68.278,53.777c-1.624-2.861-8.293-11.293-13.88-15.928c-1.738-1.441-3.072-2.504-4.17-3.378
		c-2.39-1.9-3.589-2.854-5.425-4.926c-1.484-1.676-2.805-4.075-3.98-6.213c-0.981-1.777-1.757-3.182-2.489-3.913l-1.951-1.951
		c0.099-0.357,0.179-0.726,0.239-1.098c0.383-2.32-3.964-7.021-5.271-8.37c-0.018-0.021-0.098-0.1-0.194-0.181
		c-0.366-0.294-0.979-0.786-1.789-0.786c-0.522,0-1.007,0.208-1.398,0.601l-0.644,0.644c-0.399-0.367-0.961-0.561-1.631-0.561
		c-1.68,0-3.905,1.185-5.808,3.091c-2.022,2.02-3.278,4.319-3.278,6.001c0,0.653,0.195,1.21,0.569,1.617l-1.665,1.661
		c-2.396,2.396-5.704,6.308-8.058,9.167c-0.772,0.936-1.99,2.53-3.064,3.938l-0.293,0.384C3.506,34.354,3.016,35,2.779,35.295
		L2.54,35.594c-0.354,0.439-0.337,1.058,0.043,1.476c5.63,6.193,13.659,9.973,19.136,10.973l0.188,0.016
		c0.25,0,0.489-0.08,0.691-0.234c0.258-0.197,0.419-0.494,0.442-0.82l0.083-0.75c0.163-1.469,0.658-5.939,0.894-7.324
		c0.031-0.172,0.021-0.352-0.023-0.492c-0.504-1.873,0.611-8.189,2.063-11.125c2.591,2.604,5.527,5.615,6.809,6.938
		c2.3,2.374,4.167,3.838,6.774,5.881c1.552,1.213,3.311,2.588,5.649,4.535c6.026,5.01,8.985,11.975,9.203,14.033
		c0.297,2.826,2.395,2.826,3.084,2.826c0.219,0,0.438-0.01,0.659-0.02c0.223-0.01,0.451-0.02,0.686-0.02
		c1.952,0,7.655-2.066,8.46-2.604c0.056-0.035,0.112-0.072,0.196-0.119C68.797,58.023,69.979,56.789,68.278,53.777z M66.328,56.861
		l-0.201,0.127c-0.605,0.389-5.823,2.225-7.206,2.225c-0.239,0-0.475,0.01-0.791,0.023c-0.226,0.01-0.432,0.02-0.618,0.02
		c-0.6,0-0.677,0-0.761-0.795c-0.282-2.672-3.605-10.217-10.008-15.545c-2.432-2.02-4.322-3.496-5.731-4.598
		c-2.605-2.039-4.327-3.386-6.515-5.649c-1.192-1.231-4.034-4.148-6.611-6.744l0.129-0.237l-0.225-0.154
		c0.207-0.121,0.412-0.24,0.613-0.356l0.357-0.208c2.882-1.671,5.229-3.031,6.629-5.282l1.339,1.34
		c0.498,0.497,1.265,1.883,2.115,3.423c1.162,2.112,2.607,4.742,4.258,6.603c1.957,2.209,3.277,3.259,5.712,5.196l0.082,0.066
		c1.071,0.852,2.372,1.887,4.055,3.283c5.4,4.48,11.803,12.566,13.35,15.301C67.133,56.375,66.888,56.523,66.328,56.861z
		 M20.913,45.543c-4.456-1.102-10.951-4.094-15.993-9.299c0.266-0.345,0.616-0.803,1.008-1.318c0.689-0.906,1.476-1.938,2.171-2.83
		c0.752,0.666,1.865,1.155,3.157,1.365c1.18,0.19,2.134,1.069,3.241,2.088c0.816,0.753,1.66,1.533,2.665,2.042
		c0.55,0.279,1.075,0.557,1.566,0.814l0.183,0.096c1.24,0.658,2.061,1.078,2.683,1.311C21.39,41.352,21.126,43.641,20.913,45.543z
		 M25.182,24.601l-0.323,0.333l-0.01,0.063c-1.952,2.575-3.26,8.893-3.229,12.349c-0.499-0.244-1.091-0.557-1.648-0.85
		c-0.549-0.291-1.146-0.609-1.775-0.928c-0.743-0.38-1.462-1.044-2.162-1.691c-1.201-1.105-2.563-2.358-4.414-2.659
		c-1.117-0.182-1.801-0.596-2.109-0.886c2.299-2.78,5.381-6.405,7.609-8.638l12.324-12.32c0.089,0.06,0.193,0.141,0.273,0.204
		c2.752,2.863,4.73,5.75,4.665,6.423c-0.56,3.407-2.892,4.76-6.758,7.003c-0.576,0.333-1.177,0.68-1.808,1.056
		C25.595,24.193,25.377,24.381,25.182,24.601z M25.611,9.991l-6.729,6.729c0.053-0.767,0.768-2.467,2.61-4.307
		C23.104,10.799,24.732,10.037,25.611,9.991z"/>
</g>
</svg>
