<?xml version="1.0" encoding="utf-8"?>
<!-- Generator: Adobe Illustrator 15.0.0, SVG Export Plug-In . SVG Version: 6.00 Build 0)  -->
<!DOCTYPE svg PUBLIC "-//W3C//DTD SVG 1.1//EN" "http://www.w3.org/Graphics/SVG/1.1/DTD/svg11.dtd">
<svg version="1.1" id="Calque_1" xmlns="http://www.w3.org/2000/svg" xmlns:xlink="http://www.w3.org/1999/xlink" x="0px" y="0px"
	 width="70.87px" height="70.87px" viewBox="0 0 70.87 70.87" enable-background="new 0 0 70.87 70.87" xml:space="preserve">
<path fill="#FFFFFF" d="M45.78,40.093c-1.192-4.775-2.819-11.289-2.896-23.945c1.657-0.563,2.804-2.119,2.804-3.909
	c0-2.282-1.857-4.14-4.14-4.14c-2.283,0-4.141,1.857-4.141,4.14c0,1.802,1.153,3.359,2.818,3.914
	c0.077,12.974,1.751,19.676,2.978,24.588c0.707,2.83,1.266,5.064,1.266,7.578c0,6.505-5.292,11.797-11.796,11.797
	c-6.505,0-11.797-5.292-11.797-11.796c0.002-1.771,0.383-3.469,1.133-5.048l2.342-4.94l-9.019,6.872
	c-0.583,0.441-0.696,1.276-0.253,1.861c0.249,0.329,0.646,0.525,1.059,0.525c0.292,0,0.568-0.093,0.805-0.271l1.426-1.088
	c-0.1,0.688-0.149,1.385-0.149,2.087c0,7.97,6.484,14.454,14.454,14.454s14.454-6.484,14.454-14.454
	C47.127,45.472,46.532,43.098,45.78,40.093z M41.548,10.757c0.816,0,1.481,0.665,1.481,1.481c0,0.817-0.665,1.482-1.481,1.482
	c-0.817,0-1.482-0.665-1.482-1.482C40.065,11.422,40.73,10.757,41.548,10.757z"/>
</svg>
