<?xml version="1.0" encoding="utf-8"?>
<!-- Generator: Adobe Illustrator 15.0.0, SVG Export Plug-In . SVG Version: 6.00 Build 0)  -->
<!DOCTYPE svg PUBLIC "-//W3C//DTD SVG 1.1//EN" "http://www.w3.org/Graphics/SVG/1.1/DTD/svg11.dtd">
<svg version="1.1" id="Calque_1" xmlns="http://www.w3.org/2000/svg" xmlns:xlink="http://www.w3.org/1999/xlink" x="0px" y="0px"
	 width="198.75px" height="43.5px" viewBox="0 0 198.75 43.5" enable-background="new 0 0 198.75 43.5" xml:space="preserve">
<g>
	<g>
		<path fill="#3BAA35" d="M61.485,30.527h-9.671l-1.438,3.086h-6.134v-0.914L55.284,8.764h2.696l11.074,23.936v0.914h-6.134
			L61.485,30.527z M56.613,18.718l-2.767,6.448h5.606L56.613,18.718z"/>
		<path fill="#3BAA35" d="M72.328,33.613V9.081c2.104,0,4.203,0,6.378,0v9.288h0.457c6.271,0,5.957-4.697,5.957-9.288
			c2.135,0,4.274,0,6.446,0c0,5.014,0.141,9.637-4.73,12.758l6.657,10.792v0.982h-6.975l-5.394-9.497
			c-0.844,0.14-1.614,0.14-2.419,0.14v9.357C76.531,33.613,74.432,33.613,72.328,33.613z"/>
		<path fill="#3BAA35" d="M112.397,30.527h-9.671l-1.438,3.086h-6.133v-0.914l11.04-23.936h2.697l11.073,23.936v0.914h-6.134
			L112.397,30.527z M107.526,18.718l-2.768,6.448h5.606L107.526,18.718z"/>
		<path fill="#3BAA35" d="M132.911,33.613h-6.203V23.312l-8.235-13.286V9.081h6.766l4.448,8.163h0.246l4.451-8.163h6.8v0.944
			l-8.272,13.286V33.613z"/>
		<path fill="#FFFFFF" d="M154.86,8.764c4.942,0.037,10.096,2.597,11.286,8.692h-6.167c-1.016-2.101-2.631-2.945-5.119-2.945
			c-3.961,0-6.095,3.088-6.095,6.837c0,4.063,2.379,6.729,6.095,6.729c2.522,0,4.138-0.669,5.256-3.014h-5.222v-5.433h11.603
			c0.14,2.453,0.14,4.799-0.702,7.185c-1.752,5.114-6.414,7.076-10.935,7.076c-6.237,0-12.544-4.168-12.578-12.544
			C142.316,12.971,148.623,8.764,154.86,8.764z"/>
		<path fill="#3BAA35" d="M31.614,28.724v-5.412l-8.235-13.286V9.081h6.766l4.448,8.163h0.246l4.451-8.163h6.8v0.944l-8.272,13.286
			v10.302h-3.173L31.614,28.724z"/>
		<path fill="#FFFFFF" d="M169.98,21.404c0-16.989,25.201-16.989,25.201,0C195.182,38.424,169.98,38.424,169.98,21.404z
			 M188.756,21.404c0-8.85-12.319-8.85-12.319,0C176.437,30.316,188.756,30.316,188.756,21.404z"/>
	</g>
	<g>
		<line fill="#FFFFFF" x1="35.551" y1="40.953" x2="11.206" y2="1.953"/>
		<path fill="#FFFFFF" d="M35.551,41.053c-0.033,0-0.066-0.016-0.085-0.047l-24.345-39c-0.029-0.047-0.015-0.108,0.032-0.138
			c0.045-0.03,0.108-0.016,0.138,0.032l24.345,39c0.029,0.047,0.015,0.108-0.032,0.138C35.587,41.049,35.569,41.053,35.551,41.053z"
			/>
	</g>
	<g>
		<path fill="#FFFFFF" d="M16.839,10.891l0.008,0.013l-0.009-0.006c-1.317,0.025-2.482,0.394-3.733,1.033
			c-0.585,0.302-1.059,0.23-1.59-0.084c-0.259-0.154-0.502-0.334-0.733-0.534c-0.066-0.058-0.13-0.122-0.194-0.182
			c-0.642-0.593-1.206-1.315-1.769-2.038l-0.006,0.01C8.138,8.231,7.441,7.396,6.688,6.653C5.394,5.374,3.994,4.405,2.365,4.126
			C2.092,4.078,1.756,3.74,1.627,4.396C3.366,5.534,4.64,7.35,5.776,9.375c0.378,0.68,0.757,1.361,1.14,2.033l-0.004,0.008
			c0.105,0.182,0.216,0.36,0.325,0.541c0.165,0.276,0.337,0.545,0.511,0.813c0.183,0.279,0.37,0.557,0.565,0.828
			c0.104,0.141,0.212,0.277,0.321,0.416c0.375,0.479,0.768,0.948,1.22,1.389c-0.968,0.448-1.252,0.478-2.033,0.894
			c-0.875,0.466-0.888,0.631-0.233,1.455c0.971,1.227,2.168,1.958,3.389,2.634l0.302,0.419c0.062,1.424,0.284,2.987,0.681,4.602
			c0.479,1.952,1.151,3.72,1.92,5.175c0.282,0.497,0.463,1.134,0.603,1.66c0.217,0.817,0.978,1.271,1.53,1.567
			c1.107,0.595,2.255,0.849,3.446,0.824c1.25,0.03,2.462-0.2,3.593-0.946c0.319-0.209,0.682-0.443,0.611-1.003
			c-0.008-0.074-0.011-0.146-0.015-0.216c-0.047,0.052-0.096,0.106-0.146,0.158c-0.764,0.799-4.614,0.938-5.059,0.951
			c0.248-0.01,1.586-0.111,3.777-1.117c0,0,2.404-0.911,2.88-1.879c0.476-0.967,1.071-1.933,1.551-3.884L16.839,10.891z
			 M18.175,30.58c-0.592,0-1.08-0.484-1.08-1.077c0-0.598,0.488-0.256,1.08-0.256c0.6,0,1.08-0.342,1.08,0.256
			C19.255,30.096,18.774,30.58,18.175,30.58z M21.171,30.58c-0.599,0-1.083-0.484-1.083-1.077c0-0.598,0.484-0.256,1.083-0.256
			c0.596,0,1.081-0.342,1.081,0.256C22.252,30.096,21.767,30.58,21.171,30.58z"/>
		<g>
			<path fill-rule="evenodd" clip-rule="evenodd" fill="#1E1E1C" d="M6.741,11.406"/>
			<path fill-rule="evenodd" clip-rule="evenodd" fill="#1E1E1C" d="M8.63,9.105"/>
			<path fill="#1E1E1C" d="M16.719,11.818c3.225-1.174,7.102-1.118,7.102-1.118s-4.407,2.102-5.622,2.991
				c-3.399,2.489-0.247,5.438-0.247,5.438c-1.651-1.148-3.291-3.671-3.031-4.431c-1.688,2.054,2.026,6.22,2.026,6.22
				c-3.344-2.013-4.496-4.682-3.794-6.442C13.152,14.476,13.494,12.993,16.719,11.818z"/>
		</g>
	</g>
</g>
</svg>
