<svg id="Calque_1" xmlns="http://www.w3.org/2000/svg" viewBox="0 0 128.4 47.5"><style>.st0{fill:#c6c6c6}</style><path class="st0" d="M47.6 849.4c.4-.2.7-.3 1.1-.2.4 0 .8.1 1.1.2.4.1.8.2 1.2.2.4 0 .8.1 1.2.2l.3-.3c.1-.1.2-.1.3-.2h.8c.3 0 .5.1.8.1h.5c.2 0 .3 0 .5.1s.4.1.6.2c.2.1.4.1.6.2.3 0 .5 0 .7.1.2.1.5.3.7.4 0 .1 0 .2.1.3 0 .1 0 .2.1.3.2.1.4.2.5.4.1.2.2.4.2.6l.3 1.5c.1.5.1 1 .1 1.6 0 .3 0 .5-.1.7-.1.2-.1.4 0 .6.1.5.1 1 0 1.5s-.2 1-.4 1.5c0 .1-.1.2-.2.2s-.2 0-.3.1c0-.2.1-.3.2-.5-.2.1-.3.3-.4.6-.1.3 0 .5.2.7.1 0 .2.1.2.2l-.3.9c-.1.3 0 .6.3.9.1.1.2.2.2.3 0 .1.1.3.1.4 0 .1.1.1.2.1s.1.1.2.1c-.1.4-.1.8 0 1.1.1.4.2.7.2 1.1 0 .3.1.6.1.9 0 .3 0 .6-.1.9h.2c-.2.6-.3 1.3-.3 2s-.1 1.4-.1 2c-.1.4-.3.8-.4 1.2-.1.4-.4.7-.7 1-.2.2-.4.3-.6.5-.2.1-.4.3-.6.4 0 0 0-.1.1-.2 0-.1 0-.1.1-.2-.3.4-.7.6-1.1.7-.5.1-.9.1-1.4.2-.5.2-1 .3-1.6.3-.6 0-1.1-.1-1.7-.1h-1.7c-.6 0-1.1-.1-1.7-.4-.1 0-.2-.1-.3-.2-.1-.1-.1-.2-.2-.3H47c-.1-.3-.1-.6-.1-.9 0-.3.1-.6.2-.9 0-.3-.1-.5-.1-.7 0-.2 0-.5-.1-.7-.1-.4-.1-.7 0-1 .1-.3.1-.7.1-1 0-.3 0-.5.1-.7.1-.2.2-.5.1-.7 0-.2-.1-.3-.1-.5-.1-.1-.1-.3-.2-.4h.2c-.1 0-.2-.1-.3-.2.1 0 .2-.1.2-.2s-.1-.2-.1-.2h-.1s-.1 0-.1.1c0-.3 0-.7-.1-1v-1.1c0-.2.1-.4.2-.6.1-.2.2-.4.1-.6-.1-.2-.2-.5-.2-.9v-2.9c0-1 0-1.9.1-2.9.1-.5.1-1.1.1-1.6s-.1-1.1-.1-1.6c-.1-.8-.1-1.6.1-2.3 0-.1.1-.2.2-.3.1-.1.2-.2.2-.3 0-.1-.1-.2-.1-.4.2-.2.2-.3.4-.4zm2 21.8c.1.1.3.2.4.3.1.1.3.2.5.2.1 0 .2 0 .4-.1.1 0 .3-.1.4-.1v-.2c-.2-.1-.4-.2-.6-.4-.2-.1-.4-.2-.6-.4-.1.1-.1.2-.2.3-.1.2-.2.3-.3.4zm.7-3.1c0 .2 0 .4.1.5.1.2.2.3.3.4.1-.1.3-.1.4-.1.2.1.3.1.4.2-.1-.3-.3-.5-.4-.6l-.3-.3c-.1-.1-.1-.3-.2-.4-.1 0-.1 0-.2.1 0 .1-.1.1-.1.2zm2.1-14.7c-.1.3-.2.5-.2.8 0 .3 0 .6-.1.8 0 1.2 0 2.5-.1 3.7-.1 0-.2 0-.3.1-.1 0-.2.1-.2.2-.1.2-.2.4-.1.6 0 .2.1.4.1.6h.8c.1 0 .2-.1.3-.1.1-.1.2-.1.2-.2.1 0 .2 0 .4.1h.4c.2-.1.4-.3.6-.4.2-.1.3-.3.4-.6.1-.2.1-.3.1-.5v-2c0-.5 0-1-.1-1.4 0-.2-.1-.3-.1-.5s-.1-.3-.2-.4c-.3-.3-.6-.4-.9-.5-.3-.2-.7-.2-1-.3zm.5 10.8c-.3 0-.5.2-.6.4-.1.2-.2.4-.2.7.1.4.1.8 0 1.3-.1.4-.1.8-.1 1.3v2c0 .2 0 .4-.1.6 0 .2 0 .4.1.6 0 .1.1.2.2.4l.3.3c.3 0 .6.1.9.1h.9c.2-.3.3-.5.4-.8.1-.3.2-.6.3-.8.2.1.3.2.5.1.2 0 .3-.1.4-.2 0-.1-.1-.2-.1-.3v-.3c.1-.2.1-.5.1-.7 0-.3-.1-.5-.3-.6-.1.2-.2.4-.2.6-.1.2-.1.4 0 .6h-.3c0-.3-.1-.6-.1-.9v-.9s.1-.1.2-.1.1-.1.2-.1c0-.2-.1-.4-.2-.5-.1-.2-.2-.3-.2-.5 0-.3-.1-.5-.2-.7-.1-.2-.2-.5-.3-.7-.2-.2-.4-.3-.7-.4-.4-.6-.7-.6-.9-.5zm-.6-3.4v.2s.1-.1.2-.1.1-.1.2-.1h-.4zm1.9 2.7c0 .1 0 .1.1.2 0 .1 0 .1.1.2.1 0 .2-.1.3-.1.1 0 .2-.1.3-.1-.3-.2-.6-.3-.8-.2zm.8-10.4v.4l.2-.1c.2.4.4.8.4 1.3s.2.9.5 1.3v-.2c.1 0 .1.1.2.2l.2.2c0-.1-.1-.2-.1-.4 0-.1-.1-.2-.1-.4.1 0 .2.1.2.1.1 0 .1.1.2.1l-.1.1s0 .1-.1.1c.4-.1.7-.2.9-.4 0-.1-.1-.3-.1-.4v-.5c-.2.1-.4.2-.7.1-.2 0-.4-.2-.5-.4 0 0 .2 0 .4.1 0-.2.1-.3.1-.3-.1 0-.2.1-.3.1-.4-.3-.8-.7-1.3-1zm.2 13.9c0 .4 0 .7.1 1 .1-.1.2-.3.2-.5s-.1-.4-.3-.5zm1.4-10.7c.1.1.2.2.2.4 0-.2.1-.5.2-.6-.1 0-.2.1-.2.1s-.1.1-.2.1zm.4-2.9c0 .2 0 .3-.1.5-.1.1-.1.3-.2.4.1 0 .1.1.2.1s.2.1.2.1v-.6c0-.2 0-.4-.1-.6.1 0 .1 0 0 .1zm-.1-1.9v.6c0 .2.1.4.2.6.2-.2.4-.2.6-.1.2.1.4.3.5.4h.2c0-.2 0-.4-.1-.6 0-.2-.1-.3-.2-.4-.1-.2-.3-.3-.6-.3-.2-.1-.4-.2-.6-.2zm.3 4.8c-.1 0-.1 0-.1.1s0 .1.1.1c0 0 .1 0 .1-.1 0 0 0-.1-.1-.1zm0 1.3c0 .2.1.4.1.5.1 0 .1-.1.2-.1s.1 0 .2-.1l-.2-.2c-.1 0-.2-.1-.3-.1zm.5-2.1c-.1 0-.1.1-.1.2s.1.1.1.1c.1 0 .1-.1.1-.1 0-.2-.1-.2-.1-.2zm.1-4.5c-.1 0-.1 0 0 0-.1.1 0 .2 0 .2s.1-.1 0-.2c.1 0 0 0 0 0zm0 6.8c0 .1.1.3.1.4 0 .1 0 .3.1.5h.2v-1c-.1 0-.2 0-.2.1h-.2zm.2 11c0 .1 0 .1-.1.2 0 .1 0 .1-.1.2h.2c0-.1 0-.2.1-.4H58zm.3.7c-.1 0-.1.1-.1.2s.1.1.1.1c.1 0 .1-.1.1-.2s0-.1-.1-.1zm.2-1.1c0 .1 0 .1 0 0v.1c0 .1 0 .1.1.1 0 0 .1 0 .1-.1v-.1h-.2zm0-2.1c0 .2.1.4.1.6 0 .2.2.4.4.4v-.6c0-.1-.1-.2-.2-.3-.1 0-.2-.1-.3-.1zm3.4-16.8c0-.2.2-.3.4-.3h.5c.2 0 .4.1.6.2.2.1.4.1.6.2v.3l.1-.1c.1.1.2.3.2.4.1.1.2.2.4.3.1-.2.2-.3.3-.4.1-.1.3-.2.4-.3-.1 0-.2 0-.3.1-.1 0-.2 0-.3.1l-.3-.3c-.1-.1-.2-.2-.2-.4h.5c.1.1.3.1.4.2l.4.4c.1.1.2.3.3.4v-.4s.1 0 .1.1l.1.1c0 .3 0 .6.2.9.2.3.3.6.3.9 0 .4.1.8 0 1.1 0 .4-.1.7-.1 1.1 0 .4-.1.8-.1 1.2v1.2c0 .3 0 .6-.1.9 0 .3-.1.6-.1.9 0 .3 0 .6.1.9 0 .3.1.6.1.9 0 .4 0 .8-.1 1.2-.1.4-.1.7 0 1.1 0 .2 0 .4.1.7.1.2.1.5 0 .7v1.9c.1.6 0 1.2-.1 1.8 0 .4.1.7.2 1.1.1.4.1.7 0 1.1-.1.6-.1 1.1-.1 1.7.1.6.1 1.1-.1 1.7 0 .3-.1.6-.1.9 0 .3 0 .6-.1.9-.3.5-.7.7-1.2.6-.4 0-.7-.1-1.1 0-.3 0-.7 0-1-.1-.2-.2-.5-.3-.7-.5-.2-.2-.4-.4-.6-.7-.1-.4-.1-.8-.1-1.2 0-.4.1-.8.1-1.2 0-.3 0-.7-.1-1-.1-.3-.1-.6-.1-1v-1.4c0-.5.1-1 0-1.5v-2.5c0-.3 0-.6-.1-1v-1c0-.3 0-.6.1-1 .1-.2.1-.5.1-.7v-.7c.1-.4.1-.7 0-1.1-.1-.3-.1-.7-.2-1v-.8c0-.3.1-.5.4-.7h-.2c.1-.1.2-.2.2-.3.1-.1.1-.2.2-.2h-.4c0-.3 0-.6.1-.8.1-.3.1-.5 0-.8 0-.5-.1-1-.1-1.5-.1-.5 0-1 .1-1.5 0-.3.1-.7.1-1 .2-.2.2-.5.3-.8zm0 19.6c-.1 0-.1.1-.1.1 0 .1.1.1.1.1.1 0 .1-.1.1-.1 0-.1-.1-.1-.1-.1zm0-8.5c-.1 0-.1 0-.1.1s0 .1.1.1.1 0 .1-.1c.1 0 0-.1-.1-.1zm.2 7.7c-.1 0-.1 0-.1.1s0 .1.1.1c0 0 .1-.1 0-.2.1 0 .1 0 0 0zm0 4.4v.4c0-.1.1-.2.1-.2 0-.1.1-.1.1-.2h-.2zm.4-2.6c0 .2-.1.3-.1.5v.5c0 .1.1.2.1.3.1.1.1.2.2.2 0-.3 0-.5-.1-.8.1-.2 0-.5-.1-.7zm.5 4.7c-.1 0-.1 0-.1.1s0 .1.1.1c0 0 .1 0 0-.2.1.1 0 0 0 0zm.9-1.5c-.1.1-.1.2-.1.3.1 0 .2 0 .3-.1v-.2h-.2zm-.1 1.4c0 .1 0 .2.1.1s.1-.1-.1-.1zm.3-4.3c0 .2.1.5 0 .7 0 .2 0 .5-.1.7.1-.1.2-.1.3-.2.1-.1.1-.2.2-.3 0-.2.1-.3.1-.5s0-.3-.1-.5h-.2c-.1.1-.2.1-.2.1zm.5 3.9c-.1 0-.1.1-.1.1 0 .1.1.1.1.1.1 0 .1-.1 0-.2.1 0 .1 0 0 0zm1-5c-.1.6-.1 1.2.2 1.8.1-.3.2-.6.2-1 .1-.3-.1-.6-.4-.8zm0 3.5c.2 0 .3.1.4.1 0-.1 0-.2.1-.3-.1 0-.1.1-.2.1s-.3.1-.3.1zm3.9-23.3c.4 0 .8-.1 1.2-.2.4-.1.8-.1 1.2 0 .2.1.4.2.6.4l.3.6c-.1.3-.1.6 0 .8.1.3.2.5.3.8.1.2.1.4.1.6 0 .2 0 .4-.1.5-.1.2-.1.4-.1.5v.6c0 .1.1.3.2.4.1.1.2.3.3.4-.1.2-.2.3-.3.5-.1.2-.1.4 0 .6 0 .2.1.4.1.5.1.2.2.3.2.5.1.2.2.3.2.5.1.2.1.3.1.5 0 .3-.1.6-.1.9 0 .3.1.6.1.9h-.4c-.1 0-.2 0-.4-.1-.1 0-.2-.1-.3-.2-.1-.1-.2-.1-.3-.2 0 .3 0 .5.1.7.1.2.1.5.2.7.1.2.2.5.2.7 0 .2.1.5.2.7.2.2.4.3.7.4.3.1.5.3.6.5.1.1.2.2.3.4.1.1.3.2.4.2 0 0-.1.1-.1.2s-.1.1-.1.2c.1-.1.2-.1.3-.2l.3-.3c.1-.3.2-.6.2-.9 0-.3.1-.6.1-1 0-.3.1-.7.2-1 .1-.3.2-.6.4-.9 0-.1.1-.2.2-.3.1.1.3.1.5.1 0-.1-.1-.2-.1-.3 0-.1 0-.2.1-.3.1-.2.1-.4.1-.6v-.7l-.2.2c-.1.1-.1.2-.2.2 0-.1 0-.2-.1-.3 0-.1 0-.2-.1-.3l.1-.1.1-.1h-.2c.1-.3.2-.7.2-1 0-.3.1-.7.1-1l.3-1.5c.1-.5.1-1 .3-1.5 0-.3.1-.7.3-1 .1-.3.2-.6.3-1 0-.2 0-.4.1-.5l.4-.4v.3c.1-.1.2-.2.4-.3.1-.1.3-.1.4 0 .2.1.3.1.5.1s.3-.1.5-.2.3-.1.5-.1.3 0 .5.1c.3 0 .6.1.9.3.3.2.4.4.5.7.1.3.1.5 0 .7-.1.2-.2.4-.2.7l-.2 1.8c-.1.4-.2.7-.3 1-.1.3-.2.7-.2 1 0 .4-.1.7-.2 1.1-.1.4-.2.7-.2 1.1-.1.6-.2 1.1-.3 1.7-.1.6-.2 1.1-.3 1.7 0 .5-.1.9-.3 1.4-.1.4-.3.9-.4 1.3h.2c-.2.3-.3.7-.3 1 0 .4-.1.7-.2 1.1-.1.5-.2.9-.3 1.4-.1.4-.2.9-.3 1.4 0 .2-.1.4-.2.6-.1.2-.1.4-.1.6 0 .5 0 .9-.2 1.3s-.3.8-.4 1.2c-.1.5-.3.9-.6 1.3-.2.4-.5.8-.8 1.2.1 0 .1-.1.2-.1s.1-.1.2-.1c-.1.3-.3.5-.6.6-.3.1-.5.2-.7.4-.5.1-1 .2-1.5.1s-1-.2-1.5-.2c0-.4-.2-.7-.6-.9 0-.3 0-.6-.2-.9-.2-.3-.3-.6-.3-.9-.1-.2-.1-.5-.1-.7 0-.2-.1-.5-.2-.7-.3-.9-.6-1.8-.7-2.7-.1-.9-.3-1.8-.5-2.7-.2-.6-.3-1.2-.4-1.8-.1-.6-.2-1.2-.4-1.8 0-.2-.1-.4-.1-.6 0-.2 0-.4.1-.6.1-.1.2-.1.3-.1.1 0 .2 0 .3-.1 0 0-.1 0-.1-.1 0 0-.1 0-.1-.1-.1.1-.3.2-.6.2.1-.1.2-.3.3-.3l.3-.3v.4c.1-.4 0-.8-.2-1.1-.1 0-.1 0-.2-.1-.1 0-.2 0-.2-.1-.1 0-.1-.1-.2-.1 0-.1-.1-.1 0-.3 0-.4-.1-.8-.2-1.2-.1-.4-.2-.8-.2-1.2 0-.3-.1-.6-.2-.9-.1-.3-.2-.6-.1-.9 0-.2 0-.5-.1-.7-.1-.2-.1-.4.1-.6h-.2v-.6c0-.2 0-.4-.1-.6-.1-.1-.2-.3-.2-.4 0-.1-.1-.3-.1-.4.1 0 .2 0 .3-.1.1 0 .1 0 .2-.1-.1 0-.2-.1-.2-.1 0-.2-.1-.5-.2-.7-.1-.2-.1-.5 0-.7.1-.3.3-.4.6-.4.4-.1.6 0 .8 0zm-.9 2.2l-.1.1c0 .1.1.1.2 0 0-.1 0-.2-.1-.1zm.1-1.2c.2-.1.4-.3.6-.6-.3.1-.5.3-.6.6zm.3 3.8h.6v-.2c-.1 0-.2.1-.3.2-.1-.1-.2 0-.3 0zm.4.3s-.1.1 0 .1h.1v-.1h-.1zm.9.2c.1.5.3.9.7 1.3.3.4.7.7 1.1 1.1 0-.1-.1-.3-.1-.4 0 0 .1 0 .1-.1 0 0 .1 0 .1-.1 0 .1.1.3.1.5 0 0 .1 0 .1-.1 0 0 .1 0 .1-.1v-.2l-.6-.3c-.2-.1-.4-.3-.5-.5-.2-.2-.3-.4-.5-.7-.1-.2-.3-.3-.6-.4zm1.8 2.6c0 .1 0 .1.1.2h.2v-.2c-.2-.1-.2-.1-.3 0zm.4.6c-.1 0-.1.1-.1.2s.1.1.2.1.1-.1.1-.1c-.1-.1-.1-.2-.2-.2zm.4-2.7s-.1.1 0 .2c0 .1.1.1.1 0 0 0 .1-.1 0-.2 0-.1-.1-.1-.1 0zm.2 1.7s-.1 0-.1.1 0 .1.1.1c0 0 .1 0 .1-.1s0-.1-.1-.1zm0 2.1v.1c.1 0 .2.1.3.2.1.1.2.1.3.2 0-.1.1-.2.1-.3 0-.1 0-.2.1-.3h-.4c-.1.1-.2.1-.4.1zm4.1 1c0 .2 0 .2.1.1s.1-.1-.1-.1zm.8-3.6s-.1.1 0 .1h.1v-.1c0-.1-.1-.1-.1 0zm.9-5.2c-.1.2-.2.3-.2.6 0 .2 0 .4-.1.6.1 0 .2.1.4.1.1 0 .3.1.4.1.1-.2.2-.3.4-.5.1-.2.3-.4.4-.6v.6c.1-.1.2-.2.4-.3 0 .1.1.2.2.3.1.1.2.2.4.1.1 0 .2-.1.2-.2s.1-.2.1-.2l.3-.6c.1-.2.1-.4 0-.7-.2 0-.4.1-.5.1h-.5c-.3-.1-.7 0-1 .1-.4 0-.6.2-.9.5zm0 12.4c0 .1 0 .2.1.1s.1-.1-.1-.1zm1.1-11.1c0-.1.1-.2.2-.3l.2-.2-.2.2c-.1.2-.2.3-.2.3zm.2 2c.1-.1.2-.1.4-.2.1 0 .2-.1.3-.2-.1-.1-.3-.1-.5 0s-.3.2-.2.4zm.9-.3c-.1.2-.2.3-.2.5s0 .3-.1.5c.2 0 .3.1.5.2.2-.3.3-.5.3-.8 0-.3-.1-.6-.2-.8l-.2.2c0 .1-.1.1-.1.2zm10.5-5.2c.5 0 .9 0 1.4-.1.5 0 .9 0 1.4.2.2 0 .4.1.7.2.2.1.4.2.5.4 0 .1.1.2.2.4.1 0 .3-.1.5-.1v.3c0 .1 0 .2.1.3.4.5.7 1 1.2 1.4.1.3.2.5.3.8.1.3.2.5.4.8v.6c0 .2-.1.4-.1.6 0 .1.1.2.2.2s.1.1.2.2c0 .1-.1.2-.1.2 0 .2.1.4.1.5 0 .2.1.3.1.5v.4c-.1.1-.1.2-.1.4-.1.5-.1 1.1.1 1.6.1.5.2 1.1.3 1.6 0 .3 0 .7-.2 1-.1.3-.1.6 0 1s.2.7.1 1.1c0 .4-.1.7-.1 1.1 0 0-.1 0-.2.1-.1 0-.1 0-.2.1 0-.1 0-.2.1-.4 0-.1 0-.2-.1-.4 0 .4-.1.7 0 1.1 0 .4.1.7.2 1 .1.5.1 1.1.1 1.7v1.7c0 .9-.2 1.8-.5 2.7-.2.4-.5.8-.7 1.1-.3.4-.6.7-.9 1.1-.1.1-.3.3-.4.3-.2.1-.3.2-.5.3l-.6.3c-.2.1-.4.2-.7.2h-1c-.1.1-.2.2-.2.4-.3-.1-.6-.2-.9-.2 0 0-.1.1-.2.1s-.1 0-.2.1c-.1 0-.1-.1-.2-.1v.2c-.4 0-.8 0-1.1-.1-.3-.1-.7-.3-1.1-.4-.2-.1-.4-.2-.5-.3-.1-.1-.3-.2-.5-.3-.4-.2-.7-.4-.9-.8-.2-.3-.4-.5-.6-.6-.2-.2-.4-.4-.5-.7 0-.2.1-.4.2-.5l.4-.4-.1-.1s-.1 0-.1-.1c-.1.1-.1.2-.2.3-.1.1-.1.2-.2.3-.2-.4-.3-.8-.3-1.2.1-.2.2-.4.4-.6v.2s.1 0 .1-.1c0 0 .1 0 .1-.1 0 0-.1-.1-.1-.2s-.1-.1-.1-.2c.1 0 .3-.1.4-.1.2 0 .2-.2.1-.4-.1-.1-.2-.3-.3-.3-.1-.1-.2-.2-.4-.2-.1-.1-.2-.2-.4-.2-.1-.1-.2-.2-.2-.3-.1-.2-.1-.4-.1-.6v-.6c0-.5 0-1-.1-1.6 0-.5.1-1 .2-1.5.1-.2.1-.4 0-.6-.1-.2-.1-.4-.2-.6v-.7c.1-.2.1-.4.1-.7 0-.5-.1-.9-.1-1.3s0-.9-.1-1.3c.1-.4.1-.7.1-1v-2.4c0-.3.1-.5.3-.6.2-.1.4-.3.5-.5 0 .4.1.8 0 1.2 0 .4.1.7.3 1 .1-.1.2-.2.3-.4.1-.1.1-.3.2-.4l-.3-.6c-.1-.2-.2-.4-.3-.5.1-.2.2-.4.3-.5.1-.2.2-.3.3-.4.1-.1.1-.3.1-.4-.1-.2-.1-.3-.3-.3.3 0 .5-.2.5-.4.1-.2.1-.5.1-.7 0-.2.1-.4.2-.5.1-.1.3-.3.5-.4.1-.1.2-.1.3-.1.1.1.2.1.3.2 0-.1 0-.3.1-.4 0-.1.1-.3.2-.4l.3-.3c.1-.1.3-.1.4-.2 0 .1-.1.3-.1.4.2 0 .4.1.6.2.2.1.4.1.6.1 0-.2.1-.4.1-.6.2-.9.3-1.1.5-1.2zm-5.7 16.5s-.1 0 0 0c0 .2 0 .2.1.1 0-.1 0-.2-.1-.1zm1.1-9.3c-.1 0-.1.1-.1.1 0 .1.1.1.1.1.1 0 .1-.1.1-.2s-.1 0-.1 0zm.3-3.4c.1 0 .1.1.1.2-.1.1-.1.1-.2-.1 0 0 .1 0 .1-.1 0 .1 0 .1 0 0zm.1 19.7v.6s.1 0 .2.1.1 0 .2.1c0-.1.1-.2.2-.4-.1 0-.2-.1-.3-.2-.1-.1-.2-.1-.3-.2zm.9-19.2c0 .1.1.2.1.3 0 .1.1.2.1.3 0-.3 0-.5.1-.8 0 0-.1.1-.2.1.1 0 0 0-.1.1zm.3 15.6c.1.3.2.5.5.6 0-.2-.1-.5-.2-.7-.1 0-.2 0-.3.1zm.2-19h.2c0 .1 0 .1-.1.1h-.1c-.1 0-.1-.1 0-.1zm.8 0s-.1.1 0 .1h.1s.1-.1 0-.1c0-.1-.1-.1-.1 0zm.3 11.9v.2s.1 0 .2-.1c.1 0 .2 0 .2-.1 0 0-.1-.1-.2-.1-.1.1-.1.1-.2.1zm.9-8.6l-.1-.1-.1-.1v.8c0 .2 0 .4-.1.5-.1.2-.2.3-.2.5.1 0 .1-.1.2-.2s.2-.1.3-.2c0 .2-.1.5-.1.7 0 .2-.1.4-.1.7v5c0 .3 0 .7.1 1 .1.4.1.7 0 1.1 0 0-.1 0-.1.1 0 0-.1 0-.1.1l-.3-.3c-.1-.1-.2-.2-.4-.3 0 .5.1.9.2 1.4.1.5.2.9.1 1.4h.2v-.4h.4c0 .1-.1.2-.2.4-.1.1-.2.2-.2.4-.1.1-.1.2-.1.4 0 .1 0 .3.2.4l.2-.6c.1.4 0 .7-.1 1.2v.2c.1.1.1.2.2.2.2.4.3.8.2 1.3-.1.5-.1.9-.1 1.4.1.3.3.6.5.9.2.2.4.5.6.8v.3c.2-.2.5-.3.7-.4.3-.1.5-.2.7-.5.1-.1.3-.2.4-.3.1-.1.3-.2.4-.3H94c0-.3 0-.6-.1-.8-.1-.3-.1-.5 0-.8 0-.1.1-.3.2-.5s.1-.3 0-.5c0 0 .1-.1.1-.3-.1.1-.2.2-.3.2 0-.3 0-.6.1-.9.1-.3.2-.5.4-.8l-.2-.1c0-.4 0-.7-.1-1.1 0-.4-.1-.7-.1-1.1.1 0 .2 0 .3.1h.3c0 .1-.1.3-.2.4-.1.1-.1.3-.2.5.2-.2.3-.5.4-.7.1 0 .2.1.3.1.1 0 .2.1.2.2.1.3.2.5.2.8 0 .3 0 .6.1.9 0 .2.1.4.1.6 0 .2.1.4.3.5 0-.1.1-.2.1-.3 0-.1.1-.2.1-.3h.4c.1-.2.1-.4.1-.6-.1-.5-.3-1-.6-1.5s-.5-.9-.7-1.4c-.1-.2-.2-.3-.2-.5s-.1-.3-.2-.4c-.2 0-.3 0-.4.1l-.3.3c-.2-.7-.2-1.3-.1-2s.1-1.3.1-1.9c0-.5 0-.9-.1-1.4 0-.5.1-.9.3-1.3h-.2s.1-.1.1-.2 0-.1.1-.2h-.1c.1-.2.1-.5.1-.7 0-.2-.1-.4-.1-.6v-.3c0-.1 0-.2-.1-.2-.3-.2-.6-.3-.9-.5-.3-.1-.6-.3-.8-.6-.2-.2-.5-.3-.7-.2-.7 0-.9.2-.9.5zm-.7 2.4h-.2c-.1 0-.1.1-.1.1h.2c.2 0 .2 0 .1-.1zm0 7.9c.1 0 .2 0 .3-.1.1 0 .2 0 .3-.1 0 0 0 .1-.1.3-.2 0-.3-.1-.5-.1zm.2 11.2l-.1.1c0 .1 0 .1.1.1s.1 0 .1-.1 0-.1-.1-.1zm-.1-11.1h.4c-.1.2-.1.3 0 .5 0 .2.1.3.2.4h-.4c-.1-.3-.1-.6-.2-.9zm.1-14.2c.1 0 .2-.1.3-.1.1 0 .2-.1.3-.1 0 0 0 .1.1.1 0 0 0 .1.1.1-.1 0-.3.1-.4.1-.1 0-.3 0-.4.1v-.2zm.4 25.6c.1 0 .2-.1.3-.1.1 0 .2-.1.3-.1-.2-.1-.4 0-.6.2zm1.7-22.4c.2.2.4.3.7.2-.1 0-.2-.1-.3-.1-.1-.1-.2-.1-.4-.1zm1.6 16.2s-.1.1 0 .2c0 .1.1.1.1 0 0 0 .1-.1 0-.2H94zm0-5.8c.1 0 .1 0 .1.1s0 .1-.1.1-.1 0-.1-.1c.1 0 .1-.1.1-.1zm1.6-6.4c.1.3.2.5.3.8.1.3.2.5.4.7.1-.2.1-.5-.1-.7l-.3-.6s.1-.1.2-.1.1-.1.2-.1h-.7zm0 11.1l.2-.2c.1-.1.2-.1.2-.2-.1.1-.2.1-.2.2-.1.1-.2.1-.2.2zm1-10v.3c0 .1 0 .2-.1.4h.2c0 .1-.1.2-.1.3-.1 0-.2-.1-.3-.1-.1 0-.2-.1-.3-.1 0 .2-.1.4-.1.6v.6c0 .3.1.6.3.9.2.3.3.6.4.9 0 .1.1.2.2.3.1.1.2.2.2.3 0-.1.1-.3.1-.4v-.4c-.1-.2-.2-.5-.4-.7.1 0 .2-.1.3-.1.1 0 .2-.1.2-.1v-.3c0-.1 0-.2-.1-.3 0-.1-.1-.1-.2-.1h-.2c0-.2.2-.4.5-.4 0-.3 0-.5-.1-.8 0-.5-.2-.7-.5-.8zm-.2 9.1s-.1.1 0 .2c0 .1.1.1.1 0 0 0 .1-.1 0-.1-.1-.1-.1-.2-.1-.1zm.7-1.7h-.4c-.1.3-.1.6-.1 1s.2.6.6.8c0-.2.1-.4.1-.5v-.5c-.1-.3-.1-.6 0-.9-.1 0-.2.1-.2.1zm-.3-.5s-.1 0-.1.1v.1s.1 0 .2-.1 0-.1-.1-.1zm0-9.7c0 .3.1.5.1.7.2-.1.3-.2.5-.2-.2-.3-.4-.4-.6-.5zm.1 1.2h.6c.2 0 .3-.1.4-.2-.2 0-.3.1-.5.1s-.4.1-.5.1zm.7-1.5h-.2c-.1 0-.1.1 0 .2h.2c0-.1.1-.1 0-.2zm0 5.6l-.1.1c0 .1 0 .1.1 0 .1 0 .1 0 .1-.1s0-.1-.1 0zm.6 2.7v.8h.2l.2-.2h-.4c.1-.2.3-.4.5-.6-.1 0-.2 0-.2.1-.1-.1-.2-.1-.3-.1zm3-13.5c0-.2.2-.3.4-.3h.5c.2 0 .4.1.6.2.2.1.4.1.6.2v.3l.1-.1c.1.1.2.3.2.4.1.1.2.2.4.3.1-.2.2-.3.3-.4.1-.1.3-.2.4-.3-.1 0-.2 0-.3.1-.1 0-.2 0-.3.1l-.3-.3c-.1-.1-.2-.2-.2-.4h.5c.1.1.3.1.4.2l.4.4c.1.1.2.3.3.4v-.4s.1 0 .1.1l.1.1c0 .3 0 .6.2.9.2.3.3.6.3.9 0 .4.1.8 0 1.1 0 .4-.1.7-.1 1.1 0 .4-.1.8-.1 1.2v1.2c0 .3 0 .6-.1.9 0 .3-.1.6-.1.9 0 .3 0 .6.1.9 0 .3.1.6.1.9 0 .4 0 .8-.1 1.2-.1.4-.1.7 0 1.1 0 .2 0 .4.1.7.1.2.1.5 0 .7v1.9c.1.6 0 1.2-.1 1.8 0 .4.1.7.2 1.1.1.4.1.7 0 1.1-.1.6-.1 1.1-.1 1.7.1.6.1 1.1-.1 1.7 0 .3-.1.6-.1.9 0 .3 0 .6-.1.9-.3.5-.7.7-1.2.6-.4 0-.7-.1-1.1 0-.3 0-.7 0-1-.1-.2-.2-.5-.3-.7-.5-.2-.2-.4-.4-.6-.7-.1-.4-.1-.8-.1-1.2 0-.4.1-.8.1-1.2 0-.3 0-.7-.1-1-.1-.3-.1-.6-.1-1v-1.4c0-.5.1-1 0-1.5v-2.5c0-.3 0-.6-.1-1v-1c0-.3 0-.6.1-1 .1-.2.1-.5.1-.7v-.7c.1-.4.1-.7 0-1.1-.1-.3-.1-.7-.2-1v-.8c0-.3.1-.5.4-.7h-.2c.1-.1.2-.2.2-.3.1-.1.1-.2.2-.2h-.4c0-.3 0-.6.1-.8.1-.3.1-.5 0-.8 0-.5-.1-1-.1-1.5-.1-.5 0-1 .1-1.5 0-.3.1-.7.1-1 .2-.2.2-.5.3-.8zm0 19.6c-.1 0-.1.1-.1.1 0 .1.1.1.1.1.1 0 .1-.1.1-.1 0-.1-.1-.1-.1-.1zm.1-8.5c-.1 0-.1 0-.1.1s0 .1.1.1.1 0 .1-.1c0 0 0-.1-.1-.1zm.1 7.7c-.1 0-.1 0-.1.1s0 .1.1.1.1-.1 0-.2c.1 0 .1 0 0 0zm0 4.4v.4c0-.1.1-.2.1-.2 0-.1.1-.1.1-.2h-.2zm.4-2.6c0 .2-.1.3-.1.5v.5c0 .1.1.2.1.3.1.1.1.2.2.2 0-.3 0-.5-.1-.8.1-.2 0-.5-.1-.7zm.5 4.7c-.1 0-.1 0-.1.1s0 .1.1.1.1 0 0-.2c.1.1.1 0 0 0zm.9-1.5c-.1.1-.1.2-.1.3.1 0 .2 0 .3-.1v-.2h-.2zm-.1 1.4c0 .1 0 .2.1.1s.1-.1-.1-.1zm.3-4.3c0 .2.1.5 0 .7 0 .2 0 .5-.1.7.1-.1.2-.1.3-.2.1-.1.1-.2.2-.3 0-.2.1-.3.1-.5s0-.3-.1-.5h-.2c-.1.1-.1.1-.2.1zm.6 3.9c-.1 0-.1.1-.1.1 0 .1.1.1.1.1.1 0 .1-.1 0-.2zm1-5c-.1.6-.1 1.2.2 1.8.1-.3.2-.6.2-1 0-.3-.1-.6-.4-.8zm-.1 3.5c.2 0 .3.1.4.1 0-.1 0-.2.1-.3-.1 0-.1.1-.2.1s-.2.1-.3.1zm12.7-23.6c.2 0 .3 0 .4.1.1.1.2.2.4.3.1-.3.3-.4.6-.4h.7c0 .1-.1.2-.1.3v.3c-.6.1-1.3.2-2 .2 0-.1.1-.3.1-.4l-.6.7c.3.1.6.1.9 0 .3-.1.6-.2.9-.2.1 0 .2.1.2.1.1 0 .1.1.2.1.1-.1.3-.1.5-.2s.3-.1.5-.2c0-.2 0-.3.2-.5.2-.1.3-.2.5-.1.3 0 .4.1.4.4 0 .2 0 .4-.1.6-.1.3-.2.6-.4.9-.2.2-.4.5-.5.9-.1.4-.3.8-.5 1.2l-.6 1.2c-.2.3-.4.7-.6 1-.2.3-.4.6-.6 1-.1.2-.2.4-.3.7 0 .3-.2.5-.4.7 0 .3 0 .5-.1.7-.1.2-.2.4-.3.7-.1.3-.3.5-.5.7-.2.2-.4.5-.4.8 0 .3-.1.5-.1.7 0 .2 0 .5.1.7.1.2.1.4.1.6 0 .2.1.4.1.6 0 .2.1.4.3.5.1.1.3.3.4.5.5.7.8 1.5 1 2.3.3.4.5.8.6 1.2.2.4.4.9.6 1.3 0 .1.1.2.2.3.1.1.1.2.1.3 0 .1-.1.2-.2.3-.1 0-.3.1-.4.1.1.3.2.7.3 1 .1.3.2.6.2 1 0 .2-.1.4-.2.6-.1.2-.1.4 0 .6.1.1.2.2.4.2s.3-.1.4-.1c0-.1.1-.3.1-.4 0-.2.1-.2.4-.1 0 .1 0 .2.1.3.1.1.1.2 0 .3-.1.1-.2.2-.3.2-.1 0-.2.1-.4.1-.1.2-.3.3-.5.2-.2-.1-.5-.1-.6 0-.2 0-.3.1-.2.3 0 .2.1.3.2.4.2 0 .3.1.5.2s.4.1.6 0h.3c.1 0 .2.1.2.1 0 .1-.1.2-.1.3 0 .1-.1.2-.3.1h-1.4c-.5 0-.9 0-1.4-.1l.2-.2c-.2.1-.4.1-.6-.1-.2-.2-.3-.3-.4-.5l-.3-.9c-.1-.3-.3-.6-.5-.9-.3-.3-.5-.7-.6-1.1-.1-.4-.2-.8-.4-1.2-.3-.6-.6-1.3-.9-1.9-.3-.6-.7-1.2-1.1-1.8h-.1l-.1-.1v.7c0 .2.1.5.1.7 0 .2.1.5.1.7 0 .2 0 .5-.1.7-.1.3-.1.7-.1 1 0 .3 0 .7.1 1 0 .1-.1.2-.2.4l-.3.3c-.1 0-.1 0-.2-.1 0-.1-.1-.1-.1-.2l-.1.1-.1.1c0-.1-.1-.3-.2-.4-.1-.1-.1-.2-.2-.4 0 .2-.1.4-.1.6 0 .2-.1.4-.1.6-.1.2-.2.3-.3.4-.1.1-.2.3-.3.4l-.4-.4c-.2-.1-.3-.2-.6-.3-.1.1-.2.3-.3.4-.1.2-.2.3-.4.3.1.2.1.5 0 .7-.1.2-.1.4-.2.6-.1-.1-.3-.1-.4-.2-.1-.1-.2-.2-.2-.3-.1-.8-.1-1.7-.1-2.5v-4.4c.1-.7 0-1.3-.1-1.9.3 0 .5-.2.6-.3l.3-.6c0-.1 0-.2-.1-.2s-.2-.1-.2-.1v.5c-.1 0-.1-.1-.2-.2l-.2-.2c0-.2 0-.5.1-.7V862c0-.1.1-.1.2-.2s.1-.2.2-.3c-.2-.2-.3-.4-.3-.6 0-.2 0-.4.2-.6h-.2v-.7c0-.2 0-.5-.1-.7-.1-.4-.1-.8 0-1.2.1-.4.1-.7 0-1.1-.1-.4-.1-.8-.1-1.2.1-.4.1-.8.1-1.2 0-.2 0-.5.1-.7h-.1c0-.1.1-.2.1-.3v-.3c0-.4-.1-.7-.1-1.1 0-.4 0-.7.1-1.1-.1-.3 0-.5.3-.5 0 .2.1.3.1.5s.1.3.1.4c0-.1 0-.1.1-.2 0 0 0-.1.1-.1 0 0 .1 0 .1.1l.3-.3.3-.3c0-.1-.1-.2-.2-.4-.1-.1 0-.3.1-.4.3 0 .5-.1.8 0 .2 0 .5.1.8.1h1.2c.1 0 .2.1.2.2s0 .2.1.4c-.1 0-.2.1-.3.2-.1.1-.2.1-.3.2-.1 0-.2-.1-.4-.2-.1-.1-.2-.1-.4-.2-.2 0-.3.1-.5.1s-.3.1-.5.1c.1 0 .1.1.2.1s.1.1.2.1c.2.3.5.6.9.7h.3c.1 0 .2 0 .3-.1.1.4.2.7.3 1.1.1.4.2.7.1 1.1-.1.2-.1.4-.2.6 0 .2-.1.4-.2.6-.1.2-.2.4-.5.4-.2 0-.5.1-.6.1.3.4.7.8 1.1 1.2.1 0 .2-.1.4-.1 0 .1 0 .3.1.4 0 .1 0 .3.1.4.1 0 .2.1.4.2.1-.1.2-.2.3-.4.1-.1.2-.2.3-.4.1-.2.2-.3.3-.5.1-.2.1-.3.2-.5l.6-.9c.2-.3.4-.6.7-.8l.6-.6c.2-.2.4-.4.5-.7-.1 0-.2 0-.3-.1-.1 0-.2 0-.3-.1 0-.1.1-.1.2-.2l.2-.2h-.3c.2-.2.4-.5.6-.7h-.2c.1-.1.1-.3.2-.4 0-.2.1-.3.1-.4 0-.1.1-.1.2-.1h.3s.1-.1.1-.3h-.4c.2-.2.3-.4.5-.6-.2 0 0-.1.3-.1zm-9.7 18.7c-.1 0-.1.1-.1.1 0 .1.1.1.2 0 .1 0 .1-.1.1-.2-.1.1-.1.1-.2.1zm.2-4.4s0 .1.1.2c0 .1 0 .2.1.2s.1-.1.2-.2c0-.1.1-.1.2-.2h-.6zm.2-.4s-.1 0-.1.1v.2c.1 0 .1 0 .2-.1s.1-.2-.1-.2zm1.9 10.5c.2.1.5.2.7.2v.2c-.1 0-.2.1-.3.1-.1 0-.2 0-.3-.1-.1 0-.1-.1-.1-.2v-.2zm1.6-.5c.1-.1.2-.1.3-.1h.3l-.1.1-.1.1c.1 0 .2 0 .4-.1-.1.3-.1.5-.1.8 0 .3-.1.6-.2.8-.1.1-.2.2-.3.2-.1.1-.2.1-.3.2 0 0 0-.1.1-.1 0 0 0-.1.1-.1-.2 0-.3.1-.5.1s-.3 0-.5-.1c-.1-.1-.2-.2-.2-.4 0-.1-.1-.3-.1-.4.1 0 .2 0 .3-.1.1 0 .2 0 .3-.1.1-.2.3-.4.4-.6-.1.2 0 0 .2-.2zm-1.4-19.8c0 .3 0 .6.1.9.1.3.1.6.2.8.1 0 .1-.1.2-.2l.2-.2c-.1 0-.1-.1-.2-.1s-.1-.1-.2-.2l.3-.6c-.1-.1-.2-.1-.3-.2 0-.1-.1-.2-.3-.2zm.4 4.7s0 .1-.1.1c0 .1.1.1.2 0 0-.1 0-.1-.1-.1zm.3-4.9s-.1 0-.1.1v.2c.1 0 .1 0 .2-.1 0 0 0-.1-.1-.2zm.6-2.7c.1 0 .2 0 .3-.1 0 .3 0 .5-.2.7-.1-.1-.1-.4-.1-.6zm3.7 10.1s-.1 0-.1.1 0 .1.1.1.1-.1.1-.1c0-.1 0-.1-.1-.1zm.3-.7s.1.1.2.1.1.1.2.1l-.1-.1s0-.1-.1-.1c.2-.1.3-.3.4-.5.1-.2.1-.4.2-.6-.2.1-.4.3-.5.4-.2.2-.3.4-.3.7zm0 10.1v.6c0 .2.1.4.2.6.2.4.4.7.6 1.1.2.4.4.7.6 1.1h.6c.3 0 .4-.1.6-.4.1-.2.2-.5.3-.6 0-.3-.1-.5-.4-.7-.3-.2-.5-.3-.7-.4 0 0 .1.1.1.2s.1.1.1.2c-.1 0-.2-.1-.3-.2-.1-.1-.2-.1-.2-.2.1-.1.1-.2.1-.3 0 0-.1.1-.2.1-.1-.1-.1-.3-.2-.4-.1-.2-.2-.3-.3-.3-.2 0-.4-.1-.5-.2 0-.1-.2-.1-.4-.2zm.2-9.7v.4c0-.1.1-.1.1-.2s.1-.2.1-.2-.1 0-.1.1c0-.1 0-.1-.1-.1zm.5 9.1c-.1 0-.1.1-.1.2s.1.1.2 0c.1 0 .1-.1.1-.2 0 0-.1-.1-.2 0zm.2-18.5c-.1 0-.1.1-.1.1 0 .1.1.1.1 0 .1 0 .1-.1 0-.1.1-.1 0-.1 0 0zm.2 19.3c.1 0 .2-.1.2-.1v-.4c0 .1-.1.1-.1.2 0 .2-.1.2-.1.3zm2.2-18.8v.6c.1 0 .2-.1.4-.2.1-.1.3-.1.4-.2v.3c0-.1.1-.2.2-.3.1-.1.1-.2.2-.3-.2-.1-.4-.2-.6-.1-.1.1-.3.1-.6.2zm1.6 23.5c0-.1.1-.2.1-.3 0-.1.1-.2.1-.2v.4c0-.1-.1 0-.2.1zm.4-.6h.2c.1 0 .1.1 0 .1 0 .1-.1.1-.2 0v-.1zM20.9 858.8c-.1.1-.1.2-.1.2.1-.1.1-.2.2-.3l-.1.1zm8.7 0l-.2-.2c.1.1.2.2.3.4 0 0 0-.1-.1-.2zm-13.5.7c0 .1-.1.1-.1.2.1 0 .2.1.3.1 0-.1-.1-.2-.2-.3zm-3.9 10.4c-.2 0-.3-.1-.2-.3.5-.6 1-1.3 1.8-1.7l.9-.3c.1-.2.3-.4.4-.6-.1 0-.2-.1-.4-.1h-1.1c-.1 0-.2 0-.3-.1.1-.1.2-.1.3-.2.2-.1.4-.3.7-.4.8-.5 1.1-1.1 1.1-2v-.4c-.2-.5-.6-1-1-1.4h-.1c.1.2.2.3.3.5.1.2.2.3.4.5 0 .1.1.2.1.2-.1 0-.2.1-.3.1-.5 0-.8-.2-1.1-.5l-.1-.1c-.3.4-.5.7-.8 1.1-1.8 2.5-3.6 5.1-5.4 7.6-.1.2-.4.6-.4 1 0 .8.5 1.5 1.2 1.8.7.2 1.5-.1 1.9-.7 1-1.4 1.9-2.7 2.9-4.1-.2.1-.5.1-.8.1zm30.9 2c-1.3-1.9-2.7-3.8-4-5.7-.8-1.1-1.5-2.1-2.3-3.2-.2.2-.4.4-.7.6-.2.1-.4.1-.6.1-.2 0-.2-.1-.1-.3.2-.3.4-.6.7-.9 0 0 .1-.1 0-.2l-.3.3c-.3.4-.6.8-.7 1.2-.1.8 0 1.5.7 2 .3.2.6.4 1 .6.1.1.2.1.3.2v.1h-1.3c-.1 0-.2.1-.2.2s0 .2.1.3c.2.2.4.3.6.4.7.3 1.3.8 1.8 1.3.1.1.2.3.4.4.1.1.1.2.1.2-.1 0-.2.1-.3.1h-.8c.5.7.9 1.3 1.4 2l1.5 2.1c.6.8 1.7 1 2.5.4.6-.3.8-1.4.2-2.2zm-25-13.5c1 .1 1.9-.1 2.8-.5l.9-.3c.9-1.2 1.8-2.5 2.7-3.8.2-.3.5-.7.8-1.1.1.1.1.2.2.2 1.1 1.5 2.2 3 3.2 4.5.3.1.6.2.8.3.4.1.7.3 1.1.4.1 0 .3.1.4.1.8.1 1.7 0 2.5-.1-.8-1.1-1.6-2.3-2.4-3.4-1.4-2-2.9-4.1-4.3-6.1-.7-1-2.2-1-2.9-.1-.3.4-.5.7-.8 1.1-1.9 2.6-3.7 5.3-5.6 7.9-.1.2-.3.4-.4.6.3.2.6.3 1 .3zm16.1.9c-.1.1-.2.3-.3.5.1-.1.3-.2.4-.2 0-.1 0-.2-.1-.3z"/><path class="st0" d="M23.8 858.7c.1.1.2.3.3.4.2.2.2.4-.1.7-.2.2-.4.2-.5 0-.4-.4-1-.4-1.5-.5-.3-.1-.7-.1-1-.2-.2-.1-.3-.2-.1-.3.2-.2.5-.3.7-.4.5-.1 1-.2 1.6-.3h2.5c.8 0 1.6 0 2.3.1.5.1.9.3 1.4.4.1 0 .2.1.2.2.1.1.1.2-.1.3-.5.1-1.1.2-1.6.3-.3.1-.6.2-.9.4-.2.1-.4.2-.5 0-.2-.2-.3-.4-.1-.7.1-.2.2-.3.3-.5-.1 0-.1 0-.2.1-.3.2-.5.4-.8.6-.2.2-.2.3 0 .4.2.2.4.3.6.5.5.4.8 1 1 1.6.2.9.5 1.8.8 2.7.2.8.4 1.6.3 2.4 0 .2-.1.5-.2.7-.1.2-.2.2-.3.1 0 0-.1 0-.1-.1l-1.7-1.7c-.2-.2-.3-.4-.2-.6.1-.3.1-.6.1-1 0-.2.1-.4.4-.5.2-.1.4-.1.6-.2.1-.1.2-.1.2-.3-.2-.6-.3-1.2-.5-1.7s-.5-.7-1-.7h-1c-.3 0-.5.1-.6.3-.5.6-.6 1.4-.7 2.1 0 .1.1.2.2.3.2.1.4.2.6.2.2.1.3.2.3.4 0 .4.1.8.1 1.2 0 .1-.1.3-.2.4l-1.8 1.8c-.2.2-.3.2-.4-.1-.3-.6-.2-1.3-.1-1.9.2-1.5.8-2.9 1.2-4.3.1-.4.5-.7.8-1 .2-.2.5-.4.7-.5.2-.1.2-.2 0-.4-.3-.2-.6-.5-1-.7z"/><path class="st0" d="M25.4 869.6c-.8-.1-1.4-.2-2-.5-.3-.1-.3-.4-.2-.7.3-.6.7-1 1.3-1.4 1-.6.6-.7 1.6 0 .5.3.9.8 1.2 1.3.2.4.2.6-.3.8-.6.2-1.2.4-1.6.5zm-4.5-8.9s.1-.2.2-.2c.4-.1.8-.1 1.2.2.2.2.2.2 0 .3l-.6.3c-.4.1-.8-.1-.8-.6zm8-.2h.1c.1.1.4.1.4.2 0 .2-.1.4-.2.5-.1.2-.3.2-.5.1s-.5-.2-.7-.3c-.1 0-.1-.1-.2-.2.1-.1.1-.2.2-.2.4 0 .7-.1.9-.1 0-.1 0-.1 0 0zm-14.4-1.7c.7.2 1.5.2 1.8 1.1-.6-.4-1.2-.7-1.8-1.1zm19.4 1c.2-.7.6-.8 1.8-1-.6.4-1.1.7-1.8 1zM47.6 12.9c.4-.2.7-.3 1.1-.2.4 0 .8.1 1.1.2.4.1.8.2 1.2.2.4 0 .8.1 1.2.2l.3-.3c.1-.1.2-.1.3-.2h.8c.3 0 .5.1.8.1h.5c.2 0 .3 0 .5.1s.4.1.6.2c.2.1.4.1.6.2.3 0 .5 0 .7.1.2.1.5.3.7.4 0 .1 0 .2.1.3 0 .1 0 .2.1.3.2.1.4.2.5.4.1.2.2.4.2.6l.3 1.5c.1.5.1 1 .1 1.6 0 .3 0 .5-.1.7-.1.2-.1.4 0 .6.1.5.1 1 0 1.5s-.2 1-.4 1.5c0 .1-.1.2-.2.2s-.2 0-.3.1c0-.2.1-.3.2-.5-.2.1-.3.3-.4.6-.1.3 0 .5.2.7.1 0 .2.1.2.2l-.3.9c-.1.3 0 .6.3.9.1.1.2.2.2.3 0 .1.1.3.1.4 0 .1.1.1.2.1s.1.1.2.1c-.1.4-.1.8 0 1.1.1.4.2.7.2 1.1 0 .3.1.6.1.9 0 .3 0 .6-.1.9h.2c-.2.6-.3 1.3-.3 2s-.1 1.4-.1 2c-.1.4-.3.8-.4 1.2-.1.4-.4.7-.7 1-.2.2-.4.3-.6.5-.2.1-.4.3-.6.4 0 0 0-.1.1-.2 0-.1 0-.1.1-.2-.3.4-.7.6-1.1.7-.5.1-.9.1-1.4.2-.5.2-1 .3-1.6.3-.6 0-1.1-.1-1.7-.1h-1.7c-.6 0-1.1-.1-1.7-.4-.1 0-.2-.1-.3-.2-.1-.1-.1-.2-.2-.3H47c-.1-.3-.1-.6-.1-.9 0-.3.1-.6.2-.9 0-.3-.1-.5-.1-.7 0-.2 0-.5-.1-.7-.1-.4-.1-.7 0-1 .1-.3.1-.7.1-1 0-.3 0-.5.1-.7.1-.2.2-.5.1-.7 0-.2-.1-.3-.1-.5-.1-.1-.1-.3-.2-.4h.2c-.1 0-.2-.1-.3-.2.1 0 .2-.1.2-.2s-.1-.2-.1-.2h-.1s-.1 0-.1.1c0-.3 0-.7-.1-1v-1.1c0-.2.1-.4.2-.6.1-.2.2-.4.1-.6-.1-.2-.2-.5-.2-.9v-2.9c0-1 0-1.9.1-2.9.1-.5.1-1.1.1-1.6s-.1-1.1-.1-1.6c-.1-.8-.1-1.6.1-2.3 0-.1.1-.2.2-.3.1-.1.2-.2.2-.3 0-.1-.1-.2-.1-.4.2-.2.2-.3.4-.4zm2 21.8c.1.1.3.2.4.3.1.1.3.2.5.2.1 0 .2 0 .4-.1.1 0 .3-.1.4-.1v-.2c-.2-.1-.4-.2-.6-.4-.2-.1-.4-.2-.6-.4-.1.1-.1.2-.2.3-.1.2-.2.3-.3.4zm.7-3.1c0 .2 0 .4.1.5.1.2.2.3.3.4.1-.1.3-.1.4-.1.2.1.3.1.4.2-.1-.3-.3-.5-.4-.6-.1 0-.1-.1-.2-.3-.1-.1-.1-.3-.2-.4-.1 0-.1 0-.2.1s-.2.1-.2.2zm2.1-14.7c-.1.3-.2.5-.2.8 0 .3 0 .6-.1.8 0 1.2 0 2.5-.1 3.7-.1 0-.2 0-.3.1-.1 0-.2.1-.2.2-.1.2-.2.4-.1.6 0 .2.1.4.1.6h.8c.1 0 .2-.1.3-.1.1-.1.2-.1.2-.2.1 0 .2 0 .4.1h.4c.2-.1.4-.3.6-.4.2-.1.3-.3.4-.6.1-.2.1-.3.1-.5v-2c0-.5 0-1-.1-1.4 0-.2-.1-.3-.1-.5s-.1-.3-.2-.4c-.3-.3-.6-.4-.9-.5-.3-.2-.7-.2-1-.3zm.5 10.8c-.3 0-.5.2-.6.4-.1.2-.2.4-.2.7.1.4.1.8 0 1.3-.1.4-.1.8-.1 1.2v2c0 .2 0 .4-.1.6 0 .2 0 .4.1.6 0 .1.1.2.2.4l.3.3c.3 0 .6.1.9.1h.9c.2-.3.3-.5.4-.8.1-.3.2-.6.3-.8.2.1.3.2.5.1.2 0 .3-.1.4-.2 0-.1-.1-.2-.1-.3V33c.1-.2.1-.5.1-.7 0-.3-.1-.5-.3-.6-.1.2-.2.4-.2.6-.1.2-.1.4 0 .6h-.3c0-.3-.1-.6-.1-.9v-.9s.1-.1.2-.1.1-.1.2-.1c0-.2-.1-.4-.2-.5-.1-.2-.2-.3-.2-.5 0-.3-.1-.5-.2-.7-.1-.2-.2-.5-.3-.7-.2-.2-.4-.3-.7-.4-.4-.5-.7-.5-.9-.4zm-.6-3.4v.2s.1-.1.2-.1.1-.1.2-.1h-.4zm1.9 2.7c0 .1 0 .1.1.2 0 .1 0 .1.1.2.1 0 .2-.1.3-.1.1 0 .2-.1.3-.1-.3-.2-.6-.3-.8-.2zm.8-10.4v.4l.2-.1c.2.4.4.8.4 1.3s.2.9.5 1.3v-.2c.1 0 .1.1.2.2l.2.2c0-.1-.1-.2-.1-.4 0-.1-.1-.2-.1-.4.1 0 .2.1.2.1.1 0 .1.1.2.1l-.1.1s0 .1-.1.1c.4-.1.7-.2.9-.4 0-.1-.1-.3-.1-.4V18c-.2.1-.4.2-.7.1-.2 0-.4-.2-.5-.4 0 0 .2 0 .4.1 0-.2.1-.3.1-.3-.1 0-.2.1-.3.1-.4-.3-.8-.7-1.3-1zm.2 13.9c0 .4 0 .7.1 1 .1-.1.2-.3.2-.5s-.1-.4-.3-.5zm1.4-10.7c.1.1.2.2.2.4 0-.2.1-.5.2-.6-.1 0-.2.1-.2.1s-.1.1-.2.1zm.4-2.9c0 .2 0 .3-.1.5-.1.1-.1.3-.2.4.1 0 .1.1.2.1s.2.1.2.1v-.6c0-.2 0-.4-.1-.6.1 0 .1 0 0 .1zm-.1-1.9v.6c0 .2.1.4.2.6.2-.2.4-.2.6-.1.2.1.4.3.5.4h.2c0-.2 0-.4-.1-.6 0-.2-.1-.3-.2-.4-.1-.2-.3-.3-.6-.3-.2-.1-.4-.2-.6-.2zm.3 4.8c-.1 0-.1 0-.1.1s0 .1.1.1c0 0 .1 0 .1-.1 0 0 0-.1-.1-.1zm0 1.3c0 .2.1.4.1.5.1 0 .1-.1.2-.1s.1 0 .2-.1l-.2-.2c-.1 0-.2-.1-.3-.1zm.5-2.1c-.1 0-.1.1-.1.2s.1.1.1.1c.1 0 .1-.1.1-.1 0-.2-.1-.2-.1-.2zm.1-4.5c-.1 0-.1 0 0 0-.1.1 0 .2 0 .2s.1-.1 0-.2c.1 0 0 0 0 0zm0 6.8c0 .1.1.3.1.4 0 .1 0 .3.1.5h.2v-1c-.1 0-.2 0-.2.1s-.1 0-.2 0zm.2 11c0 .1 0 .1-.1.2 0 .1 0 .1-.1.2h.2c0-.1 0-.2.1-.4H58zm.3.7c-.1 0-.1.1-.1.2s.1.1.1.1c.1 0 .1-.1.1-.2s0-.1-.1-.1zm.2-1.1c0 .1 0 .1 0 0v.1c0 .1 0 .1.1.1 0 0 .1 0 .1-.1v-.1c-.1.1-.1 0-.2 0zm0-2.1c0 .2.1.4.1.6 0 .2.2.4.4.4v-.6c0-.1-.1-.2-.2-.3-.1 0-.2-.1-.3-.1zM61.9 13c0-.2.2-.3.4-.3h.5c.2 0 .4.1.6.2.2.1.4.1.6.2v.3l.1-.1c.1.1.2.3.2.4.1.1.2.2.4.3.1-.2.2-.3.3-.4.1-.1.3-.2.4-.3-.1 0-.2 0-.3.1-.1 0-.2 0-.3.1l-.3-.3c-.1-.1-.2-.2-.2-.4h.5c.1.1.3.1.4.2l.4.4c.1.1.2.3.3.4v-.4s.1 0 .1.1l.1.1c0 .3 0 .6.2.9.2.3.3.6.3.9 0 .4.1.8 0 1.1 0 .4-.1.7-.1 1.1 0 .4-.1.8-.1 1.2V20c0 .3 0 .6-.1.9 0 .3-.1.6-.1.9 0 .3 0 .6.1.9 0 .3.1.6.1.9 0 .4 0 .8-.1 1.2-.1.4-.1.7 0 1.1 0 .2 0 .4.1.7.1.2.1.5 0 .7v1.9c.1.6 0 1.2-.1 1.8 0 .4.1.7.2 1.1.1.4.1.7 0 1.1-.1.6-.1 1.1-.1 1.7.1.6.1 1.1-.1 1.7 0 .3-.1.6-.1.9 0 .3 0 .6-.1.9-.3.5-.7.7-1.2.6-.4 0-.7-.1-1.1 0-.3 0-.7 0-1-.1-.2-.2-.5-.3-.7-.5-.2-.2-.4-.4-.6-.7-.1-.4-.1-.8-.1-1.2 0-.4.1-.8.1-1.2 0-.3 0-.7-.1-1-.1-.3-.1-.6-.1-1v-1.4c0-.5.1-1 0-1.5v-2.5c0-.3 0-.6-.1-1v-1c0-.3 0-.6.1-1 .1-.2.1-.5.1-.7v-.7c.1-.4.1-.7 0-1.1-.1-.3-.1-.7-.2-1v-.8c0-.3.1-.5.4-.7h-.2c.1-.1.2-.2.2-.3.1-.1.1-.2.2-.2h-.4c0-.3 0-.6.1-.8.1-.3.1-.5 0-.8 0-.5-.1-1-.1-1.5-.1-.5 0-1 .1-1.5 0-.3.1-.7.1-1 .2-.2.2-.5.3-.8zm0 19.6c-.1 0-.1.1-.1.1 0 .1.1.1.1.1.1 0 .1-.1.1-.1 0-.1-.1-.1-.1-.1zm0-8.5c-.1 0-.1 0-.1.1s0 .1.1.1.1 0 .1-.1c.1 0 0-.1-.1-.1zm.2 7.7c-.1 0-.1 0-.1.1s0 .1.1.1c0 0 .1-.1 0-.2.1 0 .1 0 0 0zm0 4.4v.4c0-.1.1-.2.1-.2 0-.1.1-.1.1-.2h-.2zm.4-2.6c0 .2-.1.3-.1.5v.5c0 .1.1.2.1.3.1.1.1.2.2.2 0-.3 0-.5-.1-.8.1-.2 0-.5-.1-.7zm.5 4.7c-.1 0-.1 0-.1.1s0 .1.1.1c0 0 .1 0 0-.2.1.1 0 0 0 0zm.9-1.5c-.1.1-.1.2-.1.3.1 0 .2 0 .3-.1v-.2h-.2zm-.1 1.4c0 .1 0 .2.1.1s.1-.1-.1-.1zm.3-4.3c0 .2.1.5 0 .7 0 .2 0 .5-.1.7.1-.1.2-.1.3-.2.1-.1.1-.2.2-.3 0-.2.1-.3.1-.5s0-.3-.1-.5h-.2c-.1.1-.2.1-.2.1zm.5 3.9c-.1 0-.1.1-.1.1 0 .1.1.1.1.1.1 0 .1-.1 0-.2.1 0 .1 0 0 0zm1-5c-.1.6-.1 1.2.2 1.8.1-.3.2-.6.2-1 .1-.3-.1-.6-.4-.8zm0 3.5c.2 0 .3.1.4.1 0-.1 0-.2.1-.3-.1 0-.1.1-.2.1s-.3.1-.3.1zM69.5 13c.4 0 .8-.1 1.2-.2.4-.1.8-.1 1.2 0 .2.1.4.2.6.4l.3.6c-.1.3-.1.6 0 .8.1.3.2.5.3.8.1.2.1.4.1.6 0 .2 0 .4-.1.5-.1.2-.1.4-.1.5v.6c0 .1.1.3.2.4.1.1.2.3.3.4-.1.2-.2.3-.3.5s-.1.4 0 .6c0 .2.1.4.1.5.1.2.2.3.2.5.1.2.2.3.2.5.3 0 .3.2.3.4 0 .3-.1.6-.1.9 0 .3.1.6.1.9h-.4c-.1 0-.2 0-.4-.1-.1 0-.2-.1-.3-.2-.1-.1-.2-.1-.3-.2 0 .3 0 .5.1.7.1.2.1.5.2.7.1.2.2.5.2.7 0 .2.1.5.2.7.2.2.4.3.7.4.3.1.5.3.6.5.1.1.2.2.3.4.1.1.3.2.4.2 0 0-.1.1-.1.2s-.1.1-.1.2c.1-.1.2-.1.3-.2l.3-.3c.1-.3.2-.6.2-.9 0-.3.1-.6.1-1 0-.3.1-.7.2-1 .1-.3.2-.6.4-.9 0-.1.1-.2.2-.3.1.1.3.1.5.1 0-.1-.1-.2-.1-.3 0-.1 0-.2.1-.3.1-.2.1-.4.1-.6V21l-.2.2c-.1.1-.1.2-.2.2 0-.1 0-.2-.1-.3 0-.1 0-.2-.1-.3l.1-.1.1-.1h-.2c.1-.3.2-.7.2-1 0-.3.1-.7.1-1l.3-1.5c.1-.5.1-1 .3-1.5 0-.3.1-.7.3-1 .1-.3.2-.6.3-1 0-.2 0-.4.1-.5l.4-.4v.3c.1-.1.2-.2.4-.3.1-.1.3-.1.4 0 .2.1.3.1.5.1s.3-.1.5-.2.3-.1.5-.1.3 0 .5.1c.3 0 .6.1.9.3.3.2.4.4.5.7.1.3.1.5 0 .7-.1.2-.2.4-.2.7l-.2 1.8c-.1.4-.2.7-.3 1-.1.3-.2.7-.2 1 0 .4-.1.7-.2 1.1-.1.4-.2.7-.2 1.1-.1.6-.2 1.1-.3 1.7-.1.6-.2 1.1-.3 1.7 0 .5-.1.9-.3 1.4-.1.4-.3.9-.4 1.3h.2c-.2.3-.3.7-.3 1 0 .4-.1.7-.2 1.1-.1.5-.2.9-.3 1.4-.1.4-.2.9-.3 1.4 0 .2-.1.4-.2.6-.1.2-.1.4-.1.6 0 .5 0 .9-.2 1.3s-.3.8-.4 1.2c-.1.5-.3.9-.6 1.3-.2.4-.5.8-.8 1.2.1 0 .1-.1.2-.1s.1-.1.2-.1c-.1.3-.3.5-.6.6-.3.1-.5.2-.7.4-.5.1-1 .2-1.5.1s-1-.2-1.5-.2c0-.4-.2-.7-.6-.9 0-.3 0-.6-.2-.9-.2-.3-.3-.6-.3-.9-.1-.2-.1-.5-.1-.7 0-.2-.1-.5-.2-.7-.3-.9-.6-1.8-.7-2.7-.1-.9-.3-1.8-.5-2.7-.2-.6-.3-1.2-.4-1.8-.1-.6-.2-1.2-.4-1.8 0-.2-.1-.4-.1-.6 0-.2 0-.4.1-.6.1-.1.2-.1.3-.1.1 0 .2 0 .3-.1 0 0-.1 0-.1-.1 0 0-.1 0-.1-.1-.1.1-.3.2-.6.2.1-.1.2-.3.3-.3l.3-.3v.4c.1-.4 0-.8-.2-1.1-.1 0-.1 0-.2-.1-.1 0-.2 0-.2-.1-.1 0-.1-.1-.2-.1 0-.1-.1-.1 0-.3 0-.4-.1-.8-.2-1.2-.1-.4-.2-.8-.2-1.2 0-.3-.1-.6-.2-.9-.1-.3-.2-.6-.1-.9 0-.2 0-.5-.1-.7-.1-.2-.1-.4.1-.6h-.2v-.6c0-.2 0-.4-.1-.6-.1-.1-.2-.3-.2-.4 0-.1-.1-.3-.1-.4.1 0 .2 0 .3-.1.1 0 .1 0 .2-.1-.1 0-.2-.1-.2-.1 0-.2-.1-.5-.2-.7-.1-.2-.1-.5 0-.7.1-.3.3-.4.6-.4.2 0 .4.1.6.1zm-.9 2.2l-.1.1c0 .1.1.1.2 0 0-.1 0-.2-.1-.1zm.1-1.2c.2-.1.4-.3.6-.6-.3.1-.5.3-.6.6zm.3 3.8h.6v-.2c-.1 0-.2.1-.3.2-.1-.1-.2 0-.3 0zm.4.3s-.1.1 0 .1h.1v-.1h-.1zm.9.2c.1.5.3.9.7 1.3.3.4.7.7 1.1 1.1 0-.1-.1-.3-.1-.4 0 0 .1 0 .1-.1 0 0 .1 0 .1-.1 0 .1.1.3.1.5 0 0 .1 0 .1-.1 0 0 .1 0 .1-.1v-.2l-.6-.3c-.2-.1-.4-.3-.5-.5-.2-.2-.3-.4-.5-.7-.1-.2-.3-.3-.6-.4zm1.8 2.6c0 .1 0 .1.1.2h.2v-.2c-.2-.1-.2-.1-.3 0zm.4.6c-.1 0-.1.1-.1.2s.1.1.2.1.1-.1.1-.1c-.1-.1-.1-.2-.2-.2zm.4-2.7s-.1.1 0 .2c0 .1.1.1.1 0 0 0 .1-.1 0-.2 0-.1-.1-.1-.1 0zm.2 1.7s-.1 0-.1.1 0 .1.1.1c0 0 .1 0 .1-.1s0-.1-.1-.1zm0 2.1v.1c.1 0 .2.1.3.2.1.1.2.1.3.2 0-.1.1-.2.1-.3 0-.1 0-.2.1-.3h-.4c-.1.1-.2.1-.4.1zm4.1 1c0 .2 0 .2.1.1s.1-.1-.1-.1zM78 20s-.1.1 0 .1h.1V20c0-.1-.1-.1-.1 0zm.9-5.2c-.1.2-.2.3-.2.6 0 .2 0 .4-.1.6.1 0 .2.1.4.1.1 0 .3.1.4.1.1-.2.2-.3.4-.5.1-.2.3-.4.4-.6v.6c.1-.1.2-.2.4-.3 0 .1.1.2.2.3.1.1.2.2.4.1.1 0 .2-.1.2-.2s.1-.2.1-.2l.3-.6c.1-.2.1-.4 0-.7-.2 0-.4.1-.5.1h-.5c-.3-.1-.7 0-1 .1-.4 0-.6.2-.9.5zm0 12.4c0 .1 0 .2.1.1s.1-.1-.1-.1zM80 16.1c0-.1.1-.2.2-.3l.2-.2-.2.2c-.1.2-.2.3-.2.3zm.2 2c.1-.1.2-.1.4-.2.1 0 .2-.1.3-.2-.1-.1-.3-.1-.5 0s-.3.3-.2.4zm.9-.3c-.1.2-.2.3-.2.5s0 .3-.1.5c.2 0 .3.1.5.2.2-.3.3-.5.3-.8 0-.3-.1-.6-.2-.8l-.2.2c0 .1-.1.2-.1.2zm10.5-5.2c.5 0 .9 0 1.4-.1.5 0 .9 0 1.4.2.2 0 .4.1.7.2.2.1.4.2.5.4 0 .1.1.2.2.4.1 0 .3-.1.5-.1v.3c0 .1 0 .2.1.3.4.5.7 1 1.2 1.4.1.3.2.5.3.8.1.3.2.5.4.8v.6c0 .2-.1.4-.1.6 0 .1.1.2.2.2s.1.1.2.2c0 .1-.1.2-.1.2 0 .2.1.4.1.5 0 .2.1.3.1.5v.4c-.1.1-.1.2-.1.4-.1.5-.1 1.1.1 1.6.1.5.2 1.1.3 1.6 0 .3 0 .7-.2 1-.1.3-.1.6 0 1s.2.7.1 1.1c0 .4-.1.7-.1 1.1 0 0-.1 0-.2.1-.1 0-.1 0-.2.1 0-.1 0-.2.1-.4 0-.1 0-.2-.1-.4 0 .4-.1.7 0 1.1 0 .4.1.7.2 1 .1.5.1 1.1.1 1.7v1.7c0 .9-.2 1.8-.5 2.7-.2.4-.5.8-.7 1.1-.3.4-.6.7-.9 1.1-.1.1-.3.3-.4.3-.2.1-.3.2-.5.3l-.6.3c-.2.1-.4.2-.7.2h-1c-.1.1-.2.2-.2.4-.3-.1-.6-.2-.9-.2 0 0-.1.1-.2.1s-.1 0-.2.1c-.1 0-.1-.1-.2-.1v.2c-.4 0-.8 0-1.1-.1-.3-.1-.7-.3-1.1-.4-.2-.1-.4-.2-.5-.3-.1-.1-.3-.2-.5-.3-.4-.2-.7-.4-.9-.8-.2-.3-.4-.5-.6-.6-.2-.2-.4-.4-.5-.7 0-.2.1-.4.2-.5l.4-.4-.1-.1s-.1 0-.1-.1c-.1.1-.1.2-.2.3-.1.1-.1.2-.2.3-.2-.4-.3-.8-.3-1.2.1-.2.2-.4.4-.6v.2s.1 0 .1-.1c0 0 .1 0 .1-.1 0 0-.1-.1-.1-.2s-.1-.1-.1-.2c.1 0 .3-.1.4-.1.2 0 .2-.2.1-.4-.1-.1-.2-.3-.3-.3-.1-.1-.2-.2-.4-.2-.1-.1-.2-.2-.4-.2-.1-.1-.2-.2-.2-.3-.1-.2-.1-.4-.1-.6V31c0-.5 0-1-.1-1.6 0-.5.1-1 .2-1.5.1-.2.1-.4 0-.6-.1-.2-.1-.4-.2-.6V26c.1-.2.1-.4.1-.7 0-.5-.1-.9-.1-1.3s0-.9-.1-1.3c.1-.4.1-.7.1-1v-2.4c0-.3.1-.5.3-.6.2-.1.4-.3.5-.5 0 .4.1.8 0 1.2 0 .4.1.7.3 1 .1-.1.2-.2.3-.4.1-.1.1-.3.2-.4l-.3-.6c-.1-.2-.2-.4-.3-.5.1-.2.2-.4.3-.5.1-.2.2-.3.3-.4.1-.1.1-.3.1-.4-.1-.2-.1-.3-.3-.3.3 0 .5-.2.5-.4.1-.2.1-.5.1-.7 0-.2.1-.4.2-.5.1-.1.3-.3.5-.4.1-.1.2-.1.3-.1.1.1.2.1.3.2 0-.1 0-.3.1-.4 0-.1.1-.3.2-.4l.3-.3c.1-.1.3-.1.4-.2 0 .1-.1.3-.1.4.2 0 .4.1.6.2.2.1.4.1.6.1 0-.2.1-.4.1-.6.2-.9.3-1.1.5-1.2zm-5.7 16.5s-.1 0 0 0c0 .2 0 .2.1.1 0-.1 0-.2-.1-.1zm1.1-9.3c-.1 0-.1.1-.1.1 0 .1.1.1.1.1.1 0 .1-.1.1-.2s-.1 0-.1 0zm.3-3.4c.1 0 .1.1.1.2-.1.1-.1.1-.2-.1 0 0 .1 0 .1-.1 0 .1 0 .1 0 0zm.1 19.7v.6s.1 0 .2.1.1 0 .2.1c0-.1.1-.2.2-.4-.1 0-.2-.1-.3-.2-.1-.1-.2-.1-.3-.2zm.9-19.2c0 .1.1.2.1.3 0 .1.1.2.1.3 0-.3 0-.5.1-.8 0 0-.1.1-.2.1.1 0 0 0-.1.1zm.3 15.6c.1.3.2.5.5.6 0-.2-.1-.5-.2-.7-.1 0-.2 0-.3.1zm.2-19h.2c0 .1 0 .1-.1.1h-.1c-.1 0-.1-.1 0-.1zm.8 0s-.1.1 0 .1h.1s.1-.1 0-.1c0-.1-.1-.1-.1 0zm.3 11.9v.2s.1 0 .2-.1c.1 0 .2 0 .2-.1 0 0-.1-.1-.2-.1-.1.1-.1.1-.2.1zm.9-8.6l-.1-.1-.1-.1v.8c0 .2 0 .4-.1.5-.1.2-.2.3-.2.5.1 0 .1-.1.2-.2s.2-.1.3-.2c0 .2-.1.5-.1.7 0 .2-.1.4-.1.7v5c0 .3 0 .7.1 1 .1.4.1.7 0 1.1 0 0-.1 0-.1.1 0 0-.1 0-.1.1l-.3-.3c-.1-.1-.2-.2-.4-.3 0 .5.1.9.2 1.4.1.5.2.9.1 1.4h.2v-.4h.4c0 .1-.1.2-.2.4-.1.1-.2.2-.2.4-.1.1-.1.2-.1.4 0 .1 0 .3.2.4l.2-.6c.1.4 0 .7-.1 1.2v.2c.1.1.1.2.2.2.2.4.3.8.2 1.3-.1.5-.1.9-.1 1.4.1.3.3.6.5.9.2.2.4.5.6.8v.3c.2-.2.5-.3.7-.4.3-.1.5-.2.7-.5.1-.1.3-.2.4-.3.1-.1.3-.2.4-.3H94c0-.3 0-.6-.1-.8-.1-.3-.1-.5 0-.8 0-.1.1-.3.2-.5s.1-.3 0-.5c0 0 .1-.1.1-.3-.1.1-.2.2-.3.2 0-.3 0-.6.1-.9.1-.3.2-.5.4-.8l-.4-.5c0-.4 0-.7-.1-1.1 0-.4-.1-.7-.1-1.1.1 0 .2 0 .3.1h.3c0 .1-.1.3-.2.4-.1.1-.1.3-.2.5.2-.2.3-.5.4-.7.1 0 .2.1.3.1.1 0 .2.1.2.2.1.3.2.5.2.8 0 .3 0 .6.1.9 0 .2.1.4.1.6s.1.4.3.5c0-.1.1-.2.1-.3 0-.1.1-.2.1-.3h.4c.1-.2.1-.4.1-.6-.1-.5-.3-1-.6-1.5s-.5-.9-.7-1.4c-.1-.2-.2-.3-.2-.5s-.1-.3-.2-.4c-.2 0-.3 0-.4.1l-.3.3c-.2-.7-.2-1.3-.1-2s.1-1.3.1-1.9c0-.5 0-.9-.1-1.4 0-.5.1-.9.3-1.3h-.2s.1-.1.1-.2 0-.1.1-.2H94c.1-.2.1-.5.1-.7 0-.2-.1-.4-.1-.6v-.3c0-.1 0-.2-.1-.2-.3-.2-.6-.3-.9-.5-.3-.1-.6-.3-.8-.6-.2-.2-.5-.3-.7-.2-.5.4-.7.6-.7.9zm-.7 2.4h-.2c-.1 0-.1.1-.1.1h.2c.2 0 .2 0 .1-.1zm0 7.9c.1 0 .2 0 .3-.1.1 0 .2 0 .3-.1 0 0 0 .1-.1.3-.2 0-.3-.1-.5-.1zm.2 11.2l-.1.1c0 .1 0 .1.1.1s.1 0 .1-.1 0-.1-.1-.1zm-.1-11.1h.4c-.1.2-.1.3 0 .5 0 .2.1.3.2.4h-.4c-.1-.3-.1-.6-.2-.9zm.1-14.2c.1 0 .2-.1.3-.1.1 0 .2-.1.3-.1 0 0 0 .1.1.1 0 0 0 .1.1.1-.1 0-.3.1-.4.1-.1 0-.3 0-.4.1V13zm.4 25.6c.1 0 .2-.1.3-.1.1 0 .2-.1.3-.1-.2-.1-.4 0-.6.2zm1.7-22.4c.2.2.4.3.7.2-.1 0-.2-.1-.3-.1-.1-.1-.2-.1-.4-.1zM94 32.4s-.1.1 0 .2c0 .1.1.1.1 0 0 0 .1-.1 0-.2H94zm0-5.8c.1 0 .1 0 .1.1s0 .1-.1.1-.1 0-.1-.1c.1 0 .1-.1.1-.1zm1.6-6.4c.1.3.2.5.3.8.1.3.2.5.4.7.1-.2.1-.5-.1-.7l-.3-.6s.1-.1.2-.1.1-.1.2-.1h-.7zm0 11.1l.2-.2c.1-.1.2-.1.2-.2 0 .1-.1.1-.2.2s-.2.1-.2.2zm1-10v.3c0 .1 0 .2-.1.4h.2c0 .1-.1.2-.1.3-.1 0-.2-.1-.3-.1-.1 0-.2-.1-.3-.1 0 .2-.1.4-.1.6v.6c0 .3.1.6.3.9.2.3.3.6.4.9 0 .1.1.2.2.3.1.1.2.2.2.3 0-.1.1-.3.1-.4v-.4c-.1-.2-.2-.5-.4-.7.1 0 .2-.1.3-.1.1 0 .2-.1.2-.1v-.3c0-.1 0-.2-.1-.3 0-.1-.1-.1-.2-.1h-.2c0-.2.2-.4.5-.4 0-.3 0-.5-.1-.8 0-.5-.2-.7-.5-.8zm-.2 9.1s-.1.1 0 .2c0 .1.1.1.1 0 0 0 .1-.1 0-.1l-.1-.1zm.7-1.7h-.4c-.1.3-.1.6-.1 1s.2.6.6.8c0-.2.1-.4.1-.5v-.5c-.1-.3-.1-.6 0-.9-.1 0-.2.1-.2.1zm-.3-.5s-.1 0-.1.1v.1s.1 0 .2-.1 0-.1-.1-.1zm0-9.7c0 .3.1.5.1.7.2-.1.3-.2.5-.2-.2-.3-.4-.4-.6-.5zm.1 1.2h.6c.2 0 .3-.1.4-.2-.2 0-.3.1-.5.1s-.4.1-.5.1zm.7-1.5h-.2c-.1 0-.1.1 0 .2h.2c0-.1.1-.1 0-.2zm0 5.6l-.1.1c0 .1 0 .1.1 0 .1 0 .1 0 .1-.1.1 0 0-.1-.1 0zm.6 2.7v.8h.2l.2-.2h-.4c.1-.2.3-.4.5-.6-.1 0-.2 0-.2.1-.1-.1-.2-.1-.3-.1zm3-13.5c0-.2.2-.3.4-.3h.5c.2 0 .4.1.6.2.2.1.4.1.6.2v.3l.1-.1c.1.1.2.3.2.4.1.1.2.2.4.3.1-.2.2-.3.3-.4.1-.1.3-.2.4-.3-.1 0-.2 0-.3.1-.1 0-.2 0-.3.1l-.3-.3c-.1-.1-.2-.2-.2-.4h.5c.1.1.3.1.4.2l.4.4c.1.1.2.3.3.4v-.4s.1 0 .1.1l.1.1c0 .3 0 .6.2.9.2.3.3.6.3.9 0 .4.1.8 0 1.1 0 .4-.1.7-.1 1.1 0 .4-.1.8-.1 1.2V20c0 .3 0 .6-.1.9 0 .3-.1.6-.1.9 0 .3 0 .6.1.9 0 .3.1.6.1.9 0 .4 0 .8-.1 1.2-.1.4-.1.7 0 1.1 0 .2 0 .4.1.7.1.2.1.5 0 .7v1.9c.1.6 0 1.2-.1 1.8 0 .4.1.7.2 1.1.1.4.1.7 0 1.1-.1.6-.1 1.1-.1 1.7.1.6.1 1.1-.1 1.7 0 .3-.1.6-.1.9 0 .3 0 .6-.1.9-.3.5-.7.7-1.2.6-.4 0-.7-.1-1.1 0-.3 0-.7 0-1-.1-.2-.2-.5-.3-.7-.5-.2-.2-.4-.4-.6-.7-.1-.4-.1-.8-.1-1.2 0-.4.1-.8.1-1.2 0-.3 0-.7-.1-1-.1-.3-.1-.6-.1-1v-1.4c0-.5.1-1 0-1.5v-2.5c0-.3 0-.6-.1-1v-1c0-.3 0-.6.1-1 .1-.2.1-.5.1-.7v-.7c.1-.4.1-.7 0-1.1-.1-.3-.1-.7-.2-1v-.8c0-.3.1-.5.4-.7h-.2c.1-.1.2-.2.2-.3.1-.1.1-.2.2-.2h-.4c0-.3 0-.6.1-.8.1-.3.1-.5 0-.8 0-.5-.1-1-.1-1.5-.1-.5 0-1 .1-1.5 0-.3.1-.7.1-1 .2-.2.2-.5.3-.8zm0 19.6c-.1 0-.1.1-.1.1 0 .1.1.1.1.1.1 0 .1-.1.1-.1 0-.1-.1-.1-.1-.1zm.1-8.5c-.1 0-.1 0-.1.1s0 .1.1.1.1 0 .1-.1c0 0 0-.1-.1-.1zm.1 7.7c-.1 0-.1 0-.1.1s0 .1.1.1.1-.1 0-.2c.1 0 .1 0 0 0zm0 4.4v.4c0-.1.1-.2.1-.2 0-.1.1-.1.1-.2h-.2zm.4-2.6c0 .2-.1.3-.1.5v.5c0 .1.1.2.1.3.1.1.1.2.2.2 0-.3 0-.5-.1-.8.1-.2 0-.5-.1-.7zm.5 4.7c-.1 0-.1 0-.1.1s0 .1.1.1.1 0 0-.2c.1.1.1 0 0 0zm.9-1.5c-.1.1-.1.2-.1.3.1 0 .2 0 .3-.1v-.2h-.2zm-.1 1.4c0 .1 0 .2.1.1s.1-.1-.1-.1zm.3-4.3c0 .2.1.5 0 .7 0 .2 0 .5-.1.7.1-.1.2-.1.3-.2.1-.1.1-.2.2-.3 0-.2.1-.3.1-.5s0-.3-.1-.5h-.2c-.1.1-.1.1-.2.1zm.6 3.9c-.1 0-.1.1-.1.1 0 .1.1.1.1.1.1 0 .1-.1 0-.2zm1-5c-.1.6-.1 1.2.2 1.8.1-.3.2-.6.2-1 0-.3-.1-.6-.4-.8zm-.1 3.5c.2 0 .3.1.4.1 0-.1 0-.2.1-.3-.1 0-.1.1-.2.1s-.2.1-.3.1zm12.7-23.6c.2 0 .3 0 .4.1.1.1.2.2.4.3.1-.3.3-.4.6-.4h.7c0 .1-.1.2-.1.3v.3c-.6.1-1.3.2-2 .2 0-.1.1-.3.1-.4l-.6.7c.3.1.6.1.9 0 .3-.1.6-.2.9-.2.1 0 .2.1.2.1.1 0 .1.1.2.1.1-.1.3-.1.5-.2s.3-.1.5-.2c0-.2 0-.3.2-.5.2-.1.3-.2.5-.1.3 0 .4.1.4.4 0 .2 0 .4-.1.6-.1.3-.2.6-.4.9-.2.2-.4.5-.5.9-.1.4-.3.8-.5 1.2l-.6 1.2c-.2.3-.4.7-.6 1-.2.3-.4.6-.6 1-.1.2-.2.4-.3.7 0 .3-.2.5-.4.7 0 .3 0 .5-.1.7-.1.2-.2.4-.3.7-.1.3-.3.5-.5.7-.2.2-.4.5-.4.8 0 .3-.1.5-.1.7 0 .2 0 .5.1.7.1.2.1.4.1.6 0 .2.1.4.1.6 0 .2.1.4.3.5.1.1.3.3.4.5.5.7.8 1.5 1 2.3.3.4.5.8.6 1.2.2.4.4.9.6 1.3 0 .1.1.2.2.3.1.1.1.2.1.3 0 .1-.1.2-.2.3-.1 0-.3.1-.4.1.1.3.2.7.3 1 .1.3.2.6.2 1 0 .2-.1.4-.2.6-.1.2-.1.4 0 .6.1.1.2.2.4.2s.3-.1.4-.1c0-.1.1-.3.1-.4 0-.2.1-.2.4-.1 0 .1 0 .2.1.3.1.1.1.2 0 .3-.1.1-.2.2-.3.2-.1 0-.2.1-.4.1-.1.2-.3.3-.5.2-.2-.1-.5-.1-.6 0-.2 0-.3.1-.2.3 0 .2.1.3.2.4.2 0 .3.1.5.2s.4.1.6 0h.3c.1 0 .2.1.2.1 0 .1-.1.2-.1.3 0 .1-.1.2-.3.1h-1.4c-.5 0-.9 0-1.4-.1l.2-.2c-.2.1-.4.1-.6-.1-.2-.2-.3-.3-.4-.5l-.3-.9c-.1-.3-.3-.6-.5-.9-.3-.3-.5-.7-.6-1.1-.1-.4-.2-.8-.4-1.2-.3-.6-.6-1.3-.9-1.9-.3-.6-.7-1.2-1.1-1.8h-.1l-.1-.1v.7c0 .2.1.5.1.7 0 .2.1.5.1.7 0 .2 0 .5-.1.7-.1.3-.1.7-.1 1 0 .3 0 .7.1 1 0 .1-.1.2-.2.4l-.3.3c-.1 0-.1 0-.2-.1 0-.1-.1-.1-.1-.2l-.1.1-.1.1c0-.1-.1-.3-.2-.4-.1-.1-.1-.2-.2-.4 0 .2-.1.4-.1.6 0 .2-.1.4-.1.6-.1.2-.2.3-.3.4-.1.1-.2.3-.3.4l-.4-.4c-.2-.1-.3-.2-.6-.3-.1.1-.2.3-.3.4-.1.2-.2.3-.4.3.1.2.1.5 0 .7-.1.2-.1.4-.2.6-.1-.1-.3-.1-.4-.2-.1-.1-.2-.2-.2-.3-.1-.8-.1-1.7-.1-2.5v-4.4c.1-.7 0-1.3-.1-1.9.3 0 .5-.2.6-.3l.3-.6c0-.1 0-.2-.1-.2s-.2-.1-.2-.1v.5c-.1 0-.1-.1-.2-.2l-.2-.2c0-.2 0-.5.1-.7v-1.5c0-.1.1-.1.2-.2s.1-.2.2-.3c-.2-.2-.3-.4-.3-.6 0-.2 0-.4.2-.6h-.2v-.7c0-.2 0-.5-.1-.7-.1-.4-.1-.8 0-1.2.1-.4.1-.7 0-1.1-.1-.4-.1-.8-.1-1.2.1-.4.1-.8.1-1.2 0-.2 0-.5.1-.7h-.1c0-.1.1-.2.1-.3v-.3c0-.4-.1-.7-.1-1.1 0-.4 0-.7.1-1.1-.1-.3 0-.5.3-.5 0 .2.1.3.1.5s.1.3.1.4c0-.1 0-.1.1-.2 0 0 0-.1.1-.1 0 0 .1 0 .1.1l.3-.3.3-.3c0-.1-.1-.2-.2-.4-.1-.1 0-.3.1-.4.3 0 .5-.1.8 0 .2 0 .5.1.8.1h1.2c.1 0 .2.1.2.2s0 .2.1.4c-.1 0-.2.1-.3.2-.1.1-.2.1-.3.2-.1 0-.2-.1-.4-.2-.1-.1-.2-.1-.4-.2-.2 0-.3.1-.5.1s-.3.1-.5.1c.1 0 .1.1.2.1s.1.1.2.1c.2.3.5.6.9.7h.3c.1 0 .2 0 .3-.1.1.4.2.7.3 1.1.1.4.2.7.1 1.1-.1.2-.1.4-.2.6 0 .2-.1.4-.2.6-.1.2-.2.4-.5.4-.2 0-.5.1-.6.1.3.4.7.8 1.1 1.2.1 0 .2-.1.4-.1 0 .1 0 .3.1.4 0 .1 0 .3.1.4.1 0 .2.1.4.2.1-.1.2-.2.3-.4.1-.1.2-.2.3-.4.1-.2.2-.3.3-.5.1-.2.1-.3.2-.5l.6-.9c.2-.3.4-.6.7-.8l.6-.6c.2-.2.4-.4.5-.7-.1 0-.2 0-.3-.1-.1 0-.2 0-.3-.1 0-.1.1-.1.2-.2l.2-.2h-.3c.2-.2.4-.5.6-.7h-.2c.1-.1.1-.3.2-.4 0-.2.1-.3.1-.4 0-.1.1-.1.2-.1h.3s.1-.1.1-.3h-.4c.2-.2.3-.4.5-.6-.2 0 0-.1.3-.1zm-9.7 18.7c-.1 0-.1.1-.1.1 0 .1.1.1.2 0 .1 0 .1-.1.1-.2-.1.1-.1.1-.2.1zm.2-4.4s0 .1.1.2c0 .1 0 .2.1.2s.1-.1.2-.2c0-.1.1-.1.2-.2h-.6zm.2-.4s-.1 0-.1.1v.2c.1 0 .1 0 .2-.1s.1-.2-.1-.2zm1.9 10.5c.2.1.5.2.7.2v.2c-.1 0-.2.1-.3.1-.1 0-.2 0-.3-.1-.1 0-.1-.1-.1-.2v-.2zm1.6-.5c.1-.1.2-.1.3-.1h.3l-.1.1-.1.1c.1 0 .2 0 .4-.1-.1.3-.1.5-.1.8 0 .3-.1.6-.2.8-.1.1-.2.2-.3.2-.1.1-.2.1-.3.2 0 0 0-.1.1-.1 0 0 0-.1.1-.1-.2 0-.3.1-.5.1s-.3 0-.5-.1c-.1-.1-.2-.2-.2-.4 0-.1-.1-.3-.1-.4.1 0 .2 0 .3-.1.1 0 .2 0 .3-.1.1-.2.3-.4.4-.6-.1.2 0 0 .2-.2zm-1.4-19.8c0 .3 0 .6.1.9.1.3.1.6.2.8.1 0 .1-.1.2-.2l.2-.2c-.1 0-.1-.1-.2-.1s-.1-.1-.2-.2l.3-.6c-.1-.1-.2-.1-.3-.2 0-.1-.1-.2-.3-.2zm.4 4.7s0 .1-.1.1c0 .1.1.1.2 0 0-.1 0-.1-.1-.1zm.3-4.9s-.1 0-.1.1v.2c.1 0 .1 0 .2-.1 0 0 0-.1-.1-.2zm.6-2.7c.1 0 .2 0 .3-.1 0 .3 0 .5-.2.7-.1-.1-.1-.4-.1-.6zm3.7 10.1s-.1 0-.1.1 0 .1.1.1.1-.1.1-.1c0-.1 0-.1-.1-.1zm.3-.7s.1.1.2.1.1.1.2.1l-.1-.1s0-.1-.1-.1c.2-.1.3-.3.4-.5.1-.2.1-.4.2-.6-.2.1-.4.3-.5.4-.2.2-.3.4-.3.7zm0 10.1v.6c0 .2.1.4.2.6.2.4.4.7.6 1.1.2.4.4.7.6 1.1h.6c.3 0 .4-.1.6-.4.1-.2.2-.5.3-.6 0-.3-.1-.5-.4-.7-.3-.2-.5-.3-.7-.4 0 0 .1.1.1.2s.1.1.1.2c-.1 0-.2-.1-.3-.2-.1-.1-.2-.1-.2-.2.1-.1.1-.2.1-.3 0 0-.1.1-.2.1-.1-.1-.1-.3-.2-.4-.1-.2-.2-.3-.3-.3-.2 0-.4-.1-.5-.2 0-.1-.2-.1-.4-.2zm.2-9.7v.4c0-.1.1-.1.1-.2s.1-.2.1-.2-.1 0-.1.1c0-.1 0-.1-.1-.1zm.5 9.1c-.1 0-.1.1-.1.2s.1.1.2 0c.1 0 .1-.1.1-.2 0 0-.1-.1-.2 0zm.2-18.5c-.1 0-.1.1-.1.1 0 .1.1.1.1 0 .1 0 .1-.1 0-.1.1-.1 0-.1 0 0zm.2 19.3c.1 0 .2-.1.2-.1v-.4c0 .1-.1.1-.1.2 0 .2-.1.2-.1.3zm2.2-18.8v.6c.1 0 .2-.1.4-.2.1-.1.3-.1.4-.2v.3c0-.1.1-.2.2-.3.1-.1.1-.2.2-.3-.2-.1-.4-.2-.6-.1-.1.1-.3.2-.6.2zm1.6 23.5c0-.1.1-.2.1-.3 0-.1.1-.2.1-.2v.4c0-.1-.1 0-.2.1zm.4-.6h.2c.1 0 .1.1 0 .1 0 .1-.1.1-.2 0v-.1zM20.9 22.3c-.1.1-.1.2-.1.2.1-.1.1-.2.2-.3l-.1.1zm8.7 0l-.2-.2c.1.1.2.2.3.4 0 0 0-.1-.1-.2zm-13.5.8c0 .1-.1.1-.1.2.1 0 .2.1.3.1 0-.2-.1-.3-.2-.3zm-3.9 10.3c-.2 0-.3-.1-.2-.3.5-.6 1-1.3 1.8-1.7l.9-.3c.1-.2.3-.4.4-.6-.1 0-.2-.1-.4-.1h-1.1c-.1 0-.2 0-.3-.1.1-.1.2-.1.3-.2.2-.1.4-.3.7-.4.8-.5 1.1-1.1 1.1-2v-.4c-.2-.5-.6-1-1-1.4h-.1c.1.2.2.3.3.5.1.2.2.3.4.5 0 .1.1.2.1.2-.1 0-.2.1-.3.1-.5 0-.8-.2-1.1-.5l-.1-.1c-.3.4-.5.7-.8 1.1-1.8 2.5-3.6 5.1-5.4 7.6-.1.2-.4.6-.4 1 0 .8.5 1.5 1.2 1.8.7.2 1.5-.1 1.9-.7 1-1.4 1.9-2.7 2.9-4.1-.2.1-.5.1-.8.1zm30.9 2c-1.3-1.9-2.7-3.8-4-5.7-.8-1.1-1.5-2.1-2.3-3.2-.2.2-.4.4-.7.6-.2.1-.4.1-.6.1-.2 0-.2-.1-.1-.3.2-.3.4-.6.7-.9 0 0 .1-.1 0-.2l-.3.3c-.3.4-.6.8-.7 1.2-.1.8 0 1.5.7 2 .3.2.6.4 1 .6.1.1.2.1.3.2v.1h-1.3c-.1 0-.2.1-.2.2s0 .2.1.3c.2.2.4.3.6.4.7.3 1.3.8 1.8 1.3.1.1.2.3.4.4.1.1.1.2.1.2-.1 0-.2.1-.3.1h-.8c.5.7.9 1.3 1.4 2l1.5 2.1c.6.8 1.7 1 2.5.4.6-.3.8-1.4.2-2.2zm-25-13.5c1 .1 1.9-.1 2.8-.5l.9-.3c.9-1.2 1.8-2.5 2.7-3.8.2-.3.5-.7.8-1.1.1.1.1.2.2.2 1.1 1.5 2.2 3 3.2 4.5.3.1.6.2.8.3.4.1.7.3 1.1.4.1 0 .3.1.4.1.8.1 1.7 0 2.5-.1-.8-1.1-1.6-2.3-2.4-3.4-1.4-2-2.9-4.1-4.3-6.1-.7-1-2.2-1-2.9-.1-.3.4-.5.7-.8 1.1-1.9 2.6-3.7 5.3-5.6 7.9-.1.2-.3.4-.4.6.3.2.6.3 1 .3zm16.1.9c-.1.1-.2.3-.3.5.1-.1.3-.2.4-.2 0-.1 0-.2-.1-.3z"/><path class="st0" d="M23.8 22.2c.1.1.2.3.3.4.2.2.2.4-.1.7-.2.2-.4.2-.5 0-.5-.3-1-.3-1.5-.5-.3-.1-.7-.1-1-.2-.2-.1-.3-.2-.1-.3.2-.2.5-.3.7-.4.5-.1 1-.2 1.6-.3h2.5c.8 0 1.6 0 2.3.1.5.1.9.3 1.4.4.1 0 .2.1.2.2.1.1.1.2-.1.3-.5.1-1 .2-1.5.4-.3.1-.6.2-.9.4-.2.1-.4.2-.5 0-.2-.2-.3-.4-.1-.7.1-.2.2-.3.3-.5-.1 0-.1 0-.2.1-.3.2-.5.4-.8.6-.2.2-.2.3 0 .4.2.2.4.3.6.5.5.4.8 1 1 1.6.2.9.5 1.8.8 2.7.2.8.4 1.6.3 2.4 0 .2-.1.5-.2.7-.1.2-.2.2-.3.1 0 0-.1 0-.1-.1l-1.7-1.7c-.2-.2-.3-.4-.2-.6.1-.3.1-.6.1-1 0-.2.1-.4.4-.5.2-.1.4-.1.6-.2.1-.1.2-.1.2-.3-.2-.6-.3-1.2-.5-1.7s-.5-.7-1-.7h-1c-.3 0-.5.1-.6.3-.5.6-.6 1.4-.7 2.1 0 .1.1.2.2.3.2.1.4.2.6.2.2.1.3.2.3.4 0 .4.1.8.1 1.2 0 .1-.1.3-.2.4l-1.8 1.8c-.2.2-.3.2-.4-.1-.3-.6-.2-1.3-.1-1.9.2-1.5.8-2.9 1.2-4.3.1-.4.5-.7.8-1 .2-.2.5-.4.7-.5.2-.1.2-.2 0-.4-.4-.3-.7-.6-1.1-.8z"/><path class="st0" d="M25.4 33.1c-.8-.1-1.4-.2-2-.5-.3-.1-.3-.4-.2-.7.3-.6.7-1 1.3-1.4 1-.6.6-.7 1.6 0 .5.3.9.8 1.2 1.3.2.4.2.6-.3.8-.6.2-1.2.4-1.6.5zm-4.5-8.9s.1-.2.2-.2c.4-.1.8-.1 1.2.2.2.2.2.2 0 .3l-.6.3c-.4.1-.8-.1-.8-.6zm8-.2h.1c.1.1.4.1.4.2 0 .2-.1.4-.2.5-.1.2-.3.2-.5.1s-.5-.2-.7-.3c-.1 0-.1-.1-.2-.2.1-.1.1-.2.2-.2.4 0 .7-.1.9-.1 0-.1 0-.1 0 0zm-14.4-1.7c.7.2 1.5.2 1.8 1.1-.6-.4-1.2-.7-1.8-1.1zm19.4 1c.2-.7.6-.8 1.8-1-.6.4-1.1.7-1.8 1z"/></svg>