<?xml version="1.0" encoding="utf-8"?>
<!-- Generator: Adobe Illustrator 15.0.0, SVG Export Plug-In . SVG Version: 6.00 Build 0)  -->
<!DOCTYPE svg PUBLIC "-//W3C//DTD SVG 1.1//EN" "http://www.w3.org/Graphics/SVG/1.1/DTD/svg11.dtd">
<svg version="1.1" id="Calque_1" xmlns="http://www.w3.org/2000/svg" xmlns:xlink="http://www.w3.org/1999/xlink" x="0px" y="0px"
	 width="113.39px" height="47.5px" viewBox="0 0 113.39 47.5" enable-background="new 0 0 113.39 47.5" xml:space="preserve">
<g>
	<g>
		<path fill="#C7C6C7" d="M46.428,24.473c-0.036-0.297-0.065-0.587-0.089-0.872c-0.048-0.379-0.131-0.746-0.249-1.103
			c-0.119-0.355-0.131-0.734-0.036-1.138c-0.07-0.047-0.142-0.083-0.213-0.106s-0.131-0.071-0.178-0.143
			c-0.048-0.142-0.084-0.278-0.106-0.408c-0.024-0.131-0.084-0.243-0.179-0.338c-0.237-0.261-0.326-0.563-0.267-0.907
			s0.16-0.658,0.303-0.942c-0.071-0.071-0.154-0.13-0.249-0.178c-0.214-0.189-0.279-0.421-0.195-0.693
			c0.082-0.272,0.219-0.468,0.408-0.587c-0.095,0.166-0.154,0.332-0.178,0.498c0.119-0.048,0.231-0.071,0.338-0.071
			c0.107,0,0.184-0.059,0.231-0.178c0.189-0.475,0.332-0.966,0.427-1.476s0.083-1.025-0.035-1.547
			c-0.071-0.214-0.06-0.427,0.035-0.641c0.095-0.213,0.118-0.45,0.071-0.711c0-0.545-0.048-1.072-0.143-1.583
			c-0.095-0.51-0.201-1.025-0.32-1.547c-0.047-0.189-0.124-0.379-0.23-0.569c-0.107-0.189-0.279-0.319-0.516-0.391
			c-0.048-0.118-0.077-0.231-0.089-0.338c-0.013-0.106-0.03-0.219-0.054-0.338c-0.237-0.118-0.469-0.249-0.693-0.392
			c-0.226-0.142-0.469-0.189-0.729-0.142c-0.213-0.023-0.408-0.077-0.586-0.16c-0.179-0.083-0.362-0.16-0.552-0.231
			c-0.143-0.095-0.297-0.142-0.462-0.142c-0.166,0-0.333-0.012-0.498-0.036c-0.262-0.047-0.521-0.089-0.782-0.124
			c-0.262-0.036-0.522-0.041-0.782-0.019C39.712,6.947,39.6,7,39.493,7.083c-0.107,0.084-0.208,0.173-0.303,0.267
			c-0.403-0.118-0.817-0.189-1.244-0.213s-0.842-0.095-1.245-0.214c-0.355-0.07-0.729-0.13-1.12-0.178
			c-0.392-0.047-0.765,0.024-1.12,0.214c-0.119,0.119-0.154,0.249-0.106,0.391c0.047,0.143,0.094,0.273,0.142,0.392
			c-0.023,0.119-0.083,0.214-0.178,0.284c-0.095,0.071-0.166,0.166-0.213,0.285c-0.237,0.734-0.285,1.506-0.143,2.312
			c0.047,0.545,0.083,1.084,0.106,1.618c0.023,0.533-0.012,1.072-0.106,1.618c-0.048,0.972-0.065,1.938-0.054,2.897
			c0.006,0.493,0.006,0.991,0.01,1.486c-0.476-0.673-0.951-1.345-1.428-2.018c0.464-0.249,0.914-0.491,1.36-0.73
			c-0.804,0.112-1.265,0.221-1.533,0.486c-0.091-0.129-0.182-0.258-0.272-0.387c-0.963-1.358-1.938-2.708-2.9-4.065
			c-1.442-2.034-2.884-4.068-4.315-6.109c-0.709-1.012-2.165-1.031-2.852-0.096c-0.27,0.366-0.524,0.743-0.788,1.114
			c-1.869,2.635-3.735,5.271-5.606,7.904c-0.438,0.615-0.876,1.229-1.314,1.844c-0.386-0.585-1.083-0.575-1.66-0.771
			c-0.013,0.028-0.024,0.058-0.036,0.087c0.516,0.278,1.037,0.559,1.578,0.851c-1.038,1.457-2.077,2.913-3.113,4.371
			c-1.803,2.538-3.599,5.079-5.401,7.616c-0.245,0.346-0.466,0.701-0.491,1.135c-0.05,0.809,0.451,1.521,1.246,1.795
			c0.67,0.23,1.493-0.055,1.934-0.676c1.678-2.369,3.352-4.741,5.03-7.108c1.264-1.782,2.532-3.559,3.798-5.338
			c0.59-0.829,1.18-1.659,1.769-2.489c0.03,0.035,0.077,0.065,0.158,0.086c0.331,0.086,0.674,0.131,1.006,0.216
			c0.512,0.13,1.067,0.132,1.497,0.506c0.18,0.155,0.357,0.167,0.535-0.01c0.239-0.238,0.261-0.408,0.082-0.652
			c-0.108-0.146-0.213-0.297-0.318-0.445c0.031-0.025,0.062-0.051,0.093-0.075c0.306,0.256,0.606,0.519,0.92,0.766
			c0.195,0.154,0.139,0.268-0.023,0.389c-0.237,0.178-0.483,0.345-0.706,0.539c-0.321,0.281-0.66,0.565-0.771,0.998
			c-0.377,1.455-0.964,2.854-1.188,4.349c-0.097,0.646-0.116,1.302,0.14,1.929c0.098,0.238,0.168,0.257,0.353,0.071
			c0.594-0.597,1.184-1.197,1.764-1.807c0.091-0.096,0.178-0.246,0.175-0.37c-0.01-0.413-0.062-0.826-0.097-1.24
			c-0.018-0.193-0.097-0.334-0.3-0.395c-0.216-0.064-0.434-0.132-0.634-0.231c-0.1-0.05-0.239-0.183-0.229-0.264
			c0.087-0.759,0.269-1.494,0.721-2.13c0.15-0.213,0.359-0.33,0.639-0.318c0.344,0.015,0.692,0.031,1.032-0.004
			c0.541-0.057,0.88,0.208,1.048,0.666c0.208,0.563,0.347,1.151,0.521,1.728c0.053,0.174-0.059,0.243-0.182,0.295
			c-0.207,0.088-0.416,0.176-0.633,0.234c-0.265,0.073-0.354,0.248-0.365,0.498c-0.016,0.32-0.011,0.646-0.066,0.959
			c-0.048,0.268,0.025,0.453,0.207,0.637c0.561,0.563,1.111,1.135,1.665,1.704c0.025,0.025,0.052,0.049,0.077,0.073
			c0.125,0.123,0.236,0.122,0.295-0.054c0.076-0.224,0.171-0.45,0.194-0.682c0.083-0.824-0.049-1.632-0.273-2.423
			c-0.251-0.889-0.553-1.764-0.774-2.659c-0.164-0.662-0.464-1.209-0.999-1.627c-0.215-0.168-0.431-0.334-0.644-0.504
			c-0.231-0.184-0.236-0.246-0.01-0.435c0.256-0.212,0.521-0.411,0.788-0.61c0.045-0.034,0.112-0.039,0.169-0.058
			c-0.067,0.203-0.178,0.353-0.287,0.503c-0.173,0.239-0.146,0.417,0.093,0.653c0.181,0.178,0.339,0.117,0.541,0.009
			c0.297-0.159,0.615-0.296,0.94-0.383c0.525-0.141,1.063-0.233,1.596-0.347c0.077-0.017,0.12-0.044,0.144-0.079
			c0.92,1.292,1.84,2.583,2.757,3.877c1.157,1.634,2.309,3.272,3.467,4.905c-0.014,0.005-0.025,0.004-0.038,0.01
			c0.048,0.143,0.107,0.279,0.179,0.409c0.07,0.131,0.118,0.291,0.142,0.48c0.048,0.261,0.012,0.51-0.106,0.746
			c-0.119,0.237-0.154,0.486-0.106,0.748c0.071,0.332,0.053,0.67-0.054,1.014s-0.112,0.693-0.018,1.049
			c0.047,0.262,0.064,0.51,0.054,0.746c-0.013,0.238,0.005,0.486,0.053,0.748c-0.095,0.309-0.154,0.609-0.178,0.906
			s0.012,0.6,0.106,0.906c0.166,0,0.285-0.012,0.355-0.035c0.048,0.119,0.101,0.227,0.16,0.32c0.06,0.096,0.148,0.166,0.267,0.213
			c0.521,0.262,1.073,0.379,1.654,0.355c0.58-0.023,1.144-0.023,1.689,0c0.545,0,1.096,0.023,1.653,0.072
			c0.557,0.047,1.085-0.049,1.582-0.285c0.427-0.07,0.877-0.137,1.352-0.195c0.474-0.059,0.854-0.291,1.138-0.693
			c-0.048,0.07-0.077,0.143-0.089,0.213s-0.029,0.131-0.053,0.178c0.189-0.119,0.379-0.248,0.568-0.391s0.379-0.297,0.569-0.463
			c0.355-0.26,0.604-0.586,0.747-0.979c0.142-0.391,0.284-0.775,0.427-1.154c0.047-0.688,0.083-1.369,0.106-2.045
			s0.118-1.334,0.284-1.974h-0.178C46.421,25.059,46.463,24.769,46.428,24.473z M27.509,15.275
			c-0.446-0.153-0.891-0.365-1.351-0.416c-0.776-0.086-1.563-0.069-2.346-0.089c-0.212-0.006-0.426,0.024-0.639,0.022
			c-0.628-0.004-1.26-0.054-1.886-0.011c-0.527,0.036-1.054,0.152-1.568,0.281c-0.202,0.051-0.394,0.16-0.573,0.279
			c0.247-0.349,0.495-0.696,0.742-1.046c0.899-1.27,1.794-2.544,2.692-3.814c0.245-0.347,0.5-0.686,0.772-1.057
			c0.081,0.099,0.142,0.163,0.193,0.235c1.187,1.668,2.371,3.338,3.558,5.007c0.151,0.213,0.303,0.426,0.454,0.639
			C27.542,15.296,27.526,15.282,27.509,15.275z M45.2,15.743c0,0.166,0,0.319,0,0.462c-0.048,0.023-0.095,0.035-0.142,0.035
			c-0.048,0-0.096,0.013-0.143,0.036c-0.048-0.166-0.077-0.32-0.089-0.463c-0.013-0.142-0.042-0.284-0.089-0.427
			c0.095-0.023,0.178-0.041,0.249-0.053s0.153-0.029,0.249-0.054C45.212,15.422,45.2,15.577,45.2,15.743z M44.667,8.559
			c0.071,0,0.101,0.029,0.089,0.089s-0.041,0.089-0.089,0.089s-0.071-0.029-0.071-0.089S44.619,8.559,44.667,8.559z M43.813,9.056
			c0.189,0.048,0.403,0.084,0.641,0.107c0.236,0.023,0.427,0.13,0.568,0.319c0.143,0.119,0.226,0.268,0.249,0.445
			s0.048,0.361,0.071,0.551c-0.048,0.024-0.089,0.035-0.124,0.035c-0.036,0-0.078,0.013-0.125,0.036
			c-0.143-0.118-0.32-0.243-0.533-0.373c-0.214-0.131-0.403-0.101-0.569,0.089c-0.119-0.189-0.184-0.392-0.195-0.605
			C43.783,9.448,43.79,9.247,43.813,9.056z M43.867,11.404c0.059-0.143,0.076-0.296,0.053-0.463
			c0.048-0.022,0.107-0.035,0.178-0.035c0.048,0.19,0.071,0.38,0.071,0.569s0,0.379,0,0.568c-0.071-0.047-0.148-0.082-0.23-0.106
			c-0.084-0.023-0.16-0.059-0.231-0.106C43.754,11.688,43.808,11.546,43.867,11.404z M38.337,16.631
			c0.048-0.118,0.125-0.195,0.231-0.231c0.106-0.035,0.207-0.053,0.302-0.053c0.095-1.232,0.131-2.466,0.107-3.699
			c0.023-0.284,0.041-0.563,0.053-0.835s0.089-0.539,0.231-0.801c0.332,0.048,0.682,0.089,1.049,0.125
			c0.367,0.035,0.682,0.195,0.942,0.479c0.118,0.119,0.184,0.267,0.196,0.445c0.011,0.178,0.041,0.35,0.089,0.516
			c0.094,0.474,0.118,0.954,0.07,1.439c-0.048,0.486-0.048,0.979,0,1.477c0,0.189-0.006,0.367-0.018,0.533s-0.053,0.332-0.124,0.498
			c-0.096,0.261-0.237,0.462-0.427,0.604c-0.19,0.142-0.392,0.284-0.604,0.427c-0.119,0.048-0.237,0.053-0.355,0.018
			c-0.119-0.035-0.237-0.054-0.356-0.054c-0.07,0.048-0.148,0.107-0.23,0.178c-0.084,0.071-0.185,0.119-0.303,0.143
			c-0.143-0.023-0.284-0.035-0.427-0.035c-0.142,0-0.272,0-0.391,0c-0.048-0.189-0.096-0.386-0.143-0.587
			C38.183,17.017,38.218,16.822,38.337,16.631z M41.822,21.254c-0.095,0.048-0.202,0.083-0.32,0.106
			c-0.119,0.024-0.226,0.06-0.32,0.106c-0.023-0.07-0.041-0.136-0.053-0.195c-0.013-0.059-0.03-0.124-0.054-0.195
			C41.313,20.982,41.561,21.041,41.822,21.254z M39.546,18.41c-0.048,0.048-0.106,0.095-0.178,0.142
			c-0.071,0.048-0.13,0.096-0.178,0.143c0-0.047,0.006-0.095,0.018-0.143c0.012-0.047,0.019-0.094,0.019-0.142H39.546z
			 M36.933,29.078c-0.131-0.094-0.267-0.189-0.409-0.285c0.071-0.094,0.143-0.189,0.213-0.283c0.032-0.043,0.065-0.098,0.098-0.146
			c0.023,0.033,0.047,0.066,0.07,0.098c0.193,0.273,0.385,0.547,0.575,0.822c-0.021,0-0.047,0.008-0.067,0.008
			C37.223,29.244,37.063,29.174,36.933,29.078z M42.267,27.744c-0.154,0.035-0.314-0.006-0.48-0.125
			c-0.095,0.285-0.189,0.564-0.284,0.836c-0.036,0.104-0.102,0.201-0.147,0.303c-0.034-0.064-0.065-0.129-0.108-0.189
			c-0.781-1.096-1.56-2.192-2.339-3.289c-0.015-0.393,0.012-0.78,0.088-1.163c0.083-0.414,0.089-0.835,0.018-1.262
			c0-0.237,0.065-0.463,0.195-0.676c0.131-0.214,0.326-0.344,0.587-0.392c0.237-0.071,0.492-0.095,0.765-0.071
			c0.272,0.024,0.504,0.143,0.693,0.356c0.095,0.213,0.196,0.438,0.303,0.675c0.106,0.237,0.16,0.486,0.16,0.747
			c0,0.19,0.053,0.362,0.16,0.516c0.106,0.154,0.183,0.326,0.23,0.516c-0.048,0.071-0.112,0.119-0.195,0.143
			s-0.148,0.06-0.195,0.106c0,0.309,0,0.622,0,0.942s0.023,0.635,0.07,0.943h0.32c-0.071-0.19-0.077-0.374-0.018-0.551
			c0.059-0.178,0.136-0.361,0.231-0.552c0.213,0.143,0.325,0.344,0.338,0.604c0.012,0.262-0.019,0.499-0.089,0.711
			c-0.024,0.119-0.024,0.227,0,0.32c0.023,0.096,0.059,0.201,0.106,0.32C42.557,27.633,42.421,27.709,42.267,27.744z M42.143,24.562
			c0.189,0.118,0.284,0.284,0.284,0.497c0,0.214-0.06,0.392-0.178,0.534C42.178,25.285,42.143,24.941,42.143,24.562z M43.369,13.182
			c-0.06-0.023-0.137-0.06-0.231-0.107c0.048,0.119,0.095,0.237,0.143,0.356c0.047,0.118,0.095,0.236,0.143,0.355
			c-0.071-0.071-0.143-0.137-0.214-0.196c-0.071-0.059-0.143-0.112-0.213-0.159c-0.024,0.023-0.036,0.095-0.036,0.213
			c-0.261-0.402-0.415-0.829-0.462-1.28c-0.048-0.45-0.19-0.877-0.427-1.28l-0.214,0.106c0-0.07,0.006-0.153,0.019-0.249
			c0.011-0.094,0.018-0.165,0.018-0.213c0.521,0.237,0.936,0.604,1.244,1.103c0.071,0,0.178-0.023,0.32-0.071
			c-0.048,0.048-0.095,0.154-0.143,0.32c-0.189-0.048-0.308-0.071-0.355-0.071c0.095,0.261,0.267,0.409,0.516,0.444
			c0.249,0.036,0.48-0.006,0.693-0.124c0,0.166,0.012,0.319,0.036,0.462c0.023,0.143,0.059,0.284,0.106,0.427
			c-0.237,0.119-0.533,0.237-0.889,0.355c0.047-0.047,0.076-0.095,0.089-0.142c0.012-0.048,0.041-0.095,0.089-0.143
			C43.505,13.242,43.428,13.206,43.369,13.182z M43.778,14.32c-0.096-0.189-0.178-0.332-0.249-0.427
			c0.095-0.047,0.172-0.083,0.231-0.106c0.059-0.023,0.136-0.06,0.23-0.107C43.896,13.87,43.825,14.083,43.778,14.32z
			 M44.009,14.036c0.012-0.071,0.054-0.107,0.125-0.107c0.047,0,0.064,0.036,0.054,0.107c-0.013,0.07-0.042,0.106-0.09,0.106
			C44.027,14.142,43.997,14.106,44.009,14.036z M44.489,15.583c-0.071,0.012-0.143,0.041-0.213,0.089
			c-0.048-0.118-0.096-0.297-0.143-0.534c0.095,0.048,0.189,0.102,0.284,0.16c0.095,0.06,0.178,0.137,0.249,0.231
			C44.619,15.553,44.561,15.571,44.489,15.583z M44.596,13.324c-0.071,0.024-0.118-0.005-0.142-0.089
			c-0.024-0.083,0.012-0.136,0.106-0.16c0.047,0,0.083,0.036,0.106,0.107C44.69,13.252,44.667,13.3,44.596,13.324z M44.881,26.748
			c-0.048,0.014-0.096,0.018-0.143,0.018c0.023-0.07,0.041-0.135,0.054-0.195c0.012-0.059,0.029-0.124,0.053-0.195
			c0.048-0.023,0.13-0.036,0.249-0.036c-0.071,0.143-0.106,0.274-0.106,0.391C44.963,26.73,44.928,26.736,44.881,26.748z
			 M45.2,27.301c-0.07,0.047-0.112,0.029-0.124-0.055c-0.013-0.082,0.018-0.135,0.089-0.16c0.095-0.047,0.143-0.029,0.143,0.055
			C45.308,27.223,45.271,27.277,45.2,27.301z M45.521,26.144c-0.023,0.036-0.054,0.06-0.089,0.071s-0.054-0.018-0.054-0.089
			c0-0.023,0.006-0.041,0.019-0.054c0.012-0.012,0.018-0.029,0.018-0.053c0.071,0,0.112,0.012,0.124,0.035
			C45.55,26.08,45.544,26.109,45.521,26.144z M45.521,24.437c-0.048-0.201-0.083-0.396-0.106-0.587
			c0.071,0.071,0.16,0.137,0.267,0.196c0.106,0.059,0.16,0.147,0.16,0.267c0.023,0.118,0.035,0.308,0.035,0.568
			C45.687,24.788,45.567,24.639,45.521,24.437z"/>
		<path fill="#C7C6C7" d="M53.505,10.639c0.035-0.367,0.029-0.741-0.019-1.12c-0.047-0.332-0.159-0.641-0.337-0.925
			c-0.179-0.284-0.244-0.593-0.196-0.925c-0.048-0.023-0.077-0.041-0.089-0.053s-0.041-0.03-0.089-0.054
			c0,0.048,0.006,0.102,0.018,0.16c0.012,0.06,0.019,0.112,0.019,0.16c-0.119-0.095-0.231-0.214-0.338-0.355
			c-0.107-0.143-0.226-0.268-0.356-0.374c-0.13-0.106-0.267-0.189-0.408-0.249C51.566,6.846,51.4,6.84,51.211,6.887
			c0.047,0.119,0.118,0.237,0.213,0.355c0.095,0.119,0.189,0.226,0.285,0.32c0.094-0.023,0.183-0.047,0.267-0.071
			c0.083-0.023,0.184-0.047,0.302-0.071c-0.118,0.071-0.249,0.16-0.391,0.267c-0.143,0.107-0.249,0.244-0.32,0.409
			c-0.143-0.071-0.261-0.172-0.355-0.302s-0.178-0.267-0.249-0.409c-0.048,0.048-0.083,0.095-0.106,0.143
			c-0.024,0.047-0.036,0.106-0.036,0.178c0-0.214,0.012-0.379,0.036-0.498c-0.19-0.071-0.386-0.143-0.587-0.214
			c-0.202-0.071-0.409-0.13-0.622-0.178c-0.143-0.023-0.309-0.029-0.498-0.018c-0.19,0.013-0.309,0.113-0.355,0.303
			c-0.096,0.308-0.143,0.622-0.143,0.942c0,0.319-0.024,0.646-0.071,0.978c-0.095,0.475-0.112,0.96-0.053,1.458
			c0.059,0.498,0.1,1.008,0.124,1.529c0.047,0.261,0.035,0.527-0.035,0.8c-0.071,0.273-0.096,0.552-0.071,0.836
			c0.071,0,0.13-0.006,0.178-0.018c0.047-0.012,0.106-0.018,0.178-0.018c-0.071,0.07-0.137,0.148-0.195,0.23
			c-0.06,0.084-0.137,0.173-0.231,0.267c0.118,0,0.201,0.013,0.249,0.036c-0.237,0.189-0.355,0.421-0.355,0.693s0,0.539,0,0.8
			c0.094,0.333,0.171,0.664,0.23,0.996s0.054,0.688-0.018,1.066c-0.048,0.237-0.048,0.475,0,0.712
			c0.047,0.237,0.023,0.475-0.071,0.711c-0.095,0.332-0.142,0.658-0.142,0.978c0,0.32,0.005,0.646,0.018,0.979
			c0.012,0.332,0.029,0.658,0.053,0.978c0.023,0.32,0.023,0.646,0,0.979c-0.047,0.475-0.053,0.96-0.018,1.458
			c0.036,0.498,0.029,0.983-0.018,1.458c-0.023,0.237-0.023,0.475,0,0.711c0.023,0.236,0.035,0.486,0.035,0.746
			c-0.023,0.332-0.006,0.658,0.054,0.979c0.059,0.32,0.077,0.646,0.054,0.979c-0.048,0.402-0.084,0.799-0.107,1.191
			c-0.023,0.391,0.012,0.787,0.107,1.191c0.165,0.26,0.361,0.479,0.587,0.656c0.225,0.178,0.456,0.352,0.693,0.516
			c0.355,0.072,0.705,0.096,1.049,0.072s0.705-0.012,1.085,0.035c0.545,0.07,0.96-0.143,1.244-0.641
			c0.048-0.307,0.077-0.609,0.089-0.906s0.041-0.598,0.089-0.906c0.118-0.545,0.137-1.098,0.054-1.654s-0.065-1.121,0.053-1.689
			c0.048-0.355,0.036-0.711-0.035-1.067c-0.071-0.355-0.131-0.711-0.178-1.066c0.166-0.593,0.213-1.203,0.143-1.832
			c-0.071-0.628-0.084-1.25-0.036-1.866c0.048-0.237,0.041-0.468-0.018-0.693c-0.06-0.226-0.089-0.445-0.089-0.658
			c-0.048-0.379-0.035-0.753,0.035-1.12c0.071-0.367,0.095-0.753,0.071-1.156c0-0.284-0.023-0.574-0.071-0.871
			c-0.048-0.296-0.07-0.599-0.07-0.907c0.022-0.308,0.059-0.604,0.106-0.889c0.047-0.284,0.071-0.592,0.071-0.925
			c0-0.402-0.007-0.806-0.019-1.209c-0.012-0.402,0.006-0.806,0.054-1.209C53.451,11.38,53.469,11.007,53.505,10.639z
			 M48.828,18.196c0.095,0,0.136,0.042,0.124,0.125s-0.053,0.124-0.124,0.124c-0.095,0-0.137-0.041-0.124-0.124
			C48.716,18.238,48.757,18.196,48.828,18.196z M48.828,26.873c-0.048,0.023-0.089,0.006-0.124-0.053
			c-0.036-0.059-0.019-0.102,0.053-0.125c0.048-0.047,0.089-0.035,0.125,0.035C48.917,26.803,48.899,26.85,48.828,26.873z
			 M48.882,25.966c0.012-0.059,0.053-0.089,0.124-0.089c0.047,0,0.071,0.03,0.071,0.089c0,0.06-0.035,0.089-0.106,0.089
			S48.869,26.026,48.882,25.966z M49.131,30.482c-0.036,0.061-0.078,0.137-0.125,0.23v-0.426c0.118,0,0.201-0.012,0.249-0.035
			C49.207,30.346,49.166,30.424,49.131,30.482z M49.397,28.988c-0.071-0.082-0.119-0.182-0.143-0.301
			c-0.023-0.166-0.023-0.338,0-0.516s0.059-0.35,0.106-0.516c0.118,0.26,0.184,0.521,0.196,0.781
			c0.012,0.262,0.029,0.521,0.053,0.783C49.539,29.148,49.469,29.072,49.397,28.988z M49.896,32.6c-0.071,0-0.107-0.031-0.107-0.09
			s0.036-0.09,0.107-0.09c0.047,0,0.07,0.031,0.07,0.09S49.942,32.6,49.896,32.6z M50.819,32.457
			c-0.095,0.023-0.13-0.023-0.106-0.143C50.855,32.268,50.891,32.314,50.819,32.457z M50.891,31.105
			c-0.095,0.047-0.189,0.07-0.284,0.07c0.023-0.094,0.071-0.189,0.142-0.283c0.023,0.023,0.071,0.035,0.143,0.035V31.105z
			 M51.193,29.186c-0.084,0.07-0.173,0.141-0.267,0.213c0.022-0.236,0.047-0.469,0.07-0.693s0.012-0.457-0.035-0.693
			c0.071-0.023,0.136-0.047,0.195-0.072c0.06-0.023,0.137-0.035,0.231-0.035c0.118,0.143,0.154,0.303,0.106,0.48
			s-0.083,0.35-0.106,0.516C51.341,29.02,51.275,29.113,51.193,29.186z M51.566,32.102c-0.071,0.023-0.112,0-0.124-0.072
			c-0.013-0.07,0.018-0.117,0.089-0.143c0.047-0.023,0.076,0,0.089,0.072C51.632,32.029,51.613,32.078,51.566,32.102z M52.847,30.5
			c-0.071-0.023-0.202-0.059-0.392-0.105c0.071-0.049,0.148-0.078,0.231-0.09s0.16-0.041,0.231-0.088
			C52.87,30.311,52.847,30.406,52.847,30.5z M52.918,27.744c-0.048,0.367-0.119,0.705-0.214,1.014
			c-0.261-0.615-0.319-1.232-0.178-1.85C52.834,27.1,52.965,27.377,52.918,27.744z"/>
		<path fill="#C7C6C7" d="M69.737,7.26c-0.261-0.178-0.557-0.278-0.889-0.302c-0.166-0.095-0.332-0.125-0.498-0.089
			c-0.166,0.035-0.332,0.083-0.498,0.143c-0.166,0.059-0.332,0.112-0.497,0.159c-0.167,0.048-0.333,0.024-0.498-0.07
			c-0.166-0.071-0.314-0.071-0.444,0c-0.131,0.07-0.256,0.166-0.374,0.284c0-0.143,0.012-0.249,0.036-0.32
			c-0.167,0.143-0.309,0.284-0.427,0.427c-0.119,0.143-0.167,0.32-0.143,0.533c-0.048,0.333-0.143,0.652-0.284,0.961
			c-0.143,0.308-0.237,0.628-0.285,0.96c-0.119,0.521-0.208,1.037-0.267,1.547c-0.06,0.51-0.148,1.025-0.267,1.547
			c-0.048,0.332-0.095,0.664-0.143,0.996s-0.118,0.664-0.213,0.995c0.047-0.023,0.13-0.035,0.249-0.035
			c-0.048,0.048-0.096,0.089-0.143,0.124c-0.048,0.036-0.095,0.065-0.143,0.089c0.048,0.119,0.077,0.226,0.089,0.32
			s0.03,0.202,0.054,0.32c0.047-0.095,0.106-0.178,0.178-0.249s0.143-0.143,0.214-0.214c0.023,0.214,0.029,0.434,0.018,0.658
			c-0.013,0.226-0.054,0.433-0.125,0.622c-0.047,0.096-0.065,0.19-0.053,0.285c0.012,0.095,0.041,0.189,0.089,0.284
			c-0.19,0-0.355-0.035-0.498-0.106c-0.095,0.142-0.154,0.249-0.178,0.319c-0.214,0.285-0.361,0.582-0.444,0.89
			c-0.084,0.309-0.143,0.628-0.178,0.96c-0.036,0.332-0.071,0.658-0.107,0.979c-0.035,0.319-0.101,0.634-0.195,0.942
			c-0.071,0.118-0.16,0.213-0.267,0.284s-0.22,0.143-0.338,0.213c0.047-0.047,0.083-0.112,0.106-0.195s0.06-0.147,0.107-0.195
			c-0.19,0-0.338-0.071-0.445-0.214c-0.106-0.142-0.219-0.272-0.338-0.391c-0.118-0.261-0.308-0.438-0.568-0.534
			c-0.262-0.094-0.486-0.236-0.676-0.427c-0.119-0.236-0.195-0.468-0.231-0.693c-0.035-0.225-0.101-0.456-0.195-0.693
			c-0.071-0.261-0.143-0.503-0.214-0.729c-0.07-0.226-0.106-0.468-0.106-0.729c0.095,0.071,0.184,0.143,0.267,0.214
			s0.184,0.13,0.303,0.178c0.118,0.048,0.236,0.071,0.355,0.071c0.118,0,0.236,0,0.355,0c-0.071-0.309-0.112-0.623-0.124-0.942
			c-0.013-0.32,0.005-0.635,0.053-0.942c0.023-0.189,0.006-0.367-0.053-0.534c-0.06-0.165-0.137-0.325-0.231-0.479
			s-0.178-0.308-0.249-0.463c-0.071-0.153-0.119-0.325-0.143-0.516c-0.095-0.189-0.101-0.379-0.018-0.568s0.172-0.367,0.267-0.534
			c-0.095-0.118-0.189-0.242-0.284-0.373c-0.095-0.13-0.166-0.267-0.213-0.409c-0.048-0.189-0.054-0.373-0.019-0.551
			c0.036-0.178,0.083-0.355,0.143-0.533c0.059-0.178,0.095-0.355,0.106-0.534c0.012-0.178-0.018-0.36-0.089-0.551
			c-0.119-0.261-0.231-0.527-0.338-0.8s-0.112-0.552-0.018-0.836c-0.095-0.214-0.208-0.409-0.338-0.587
			c-0.131-0.178-0.314-0.303-0.551-0.373c-0.427-0.119-0.842-0.125-1.245-0.019c-0.403,0.107-0.807,0.185-1.209,0.231
			c-0.214-0.023-0.451-0.035-0.711-0.035c-0.262,0-0.451,0.13-0.569,0.391c-0.119,0.237-0.131,0.469-0.035,0.693
			c0.094,0.226,0.165,0.457,0.213,0.694c0.071,0,0.154,0.023,0.249,0.07c-0.048,0.024-0.113,0.048-0.195,0.071
			c-0.084,0.024-0.173,0.048-0.267,0.071c0.047,0.143,0.094,0.284,0.142,0.427s0.118,0.284,0.214,0.427
			c0.094,0.19,0.13,0.386,0.106,0.587s-0.023,0.397,0,0.587c0.047-0.023,0.089-0.036,0.124-0.036c0.036,0,0.077-0.012,0.125-0.035
			c-0.19,0.189-0.231,0.397-0.125,0.622c0.107,0.226,0.148,0.457,0.125,0.693c-0.048,0.309-0.013,0.604,0.106,0.89
			c0.118,0.284,0.201,0.581,0.249,0.889c0,0.403,0.059,0.795,0.178,1.174c0.118,0.379,0.201,0.771,0.249,1.173
			c-0.023,0.119-0.012,0.208,0.035,0.268c0.048,0.059,0.112,0.101,0.196,0.124c0.083,0.023,0.165,0.042,0.249,0.054
			c0.082,0.012,0.16,0.029,0.23,0.053c0.261,0.355,0.344,0.735,0.249,1.139c0-0.048-0.006-0.101-0.018-0.16s-0.018-0.112-0.018-0.16
			c-0.119,0.095-0.231,0.184-0.338,0.267s-0.195,0.195-0.267,0.338c0.236-0.071,0.427-0.154,0.568-0.249
			c0.048,0.023,0.083,0.048,0.107,0.071c0.023,0.023,0.059,0.048,0.106,0.071c-0.071,0.048-0.16,0.077-0.267,0.089
			s-0.195,0.053-0.267,0.124c-0.071,0.19-0.089,0.392-0.054,0.604c0.035,0.214,0.065,0.427,0.089,0.641
			c0.166,0.616,0.284,1.227,0.355,1.831s0.201,1.215,0.392,1.831c0.213,0.901,0.379,1.814,0.498,2.738
			c0.118,0.925,0.343,1.826,0.676,2.703c0.094,0.238,0.147,0.48,0.159,0.73c0.012,0.248,0.054,0.492,0.125,0.729
			c0.047,0.309,0.147,0.604,0.302,0.889s0.22,0.594,0.196,0.924c0.379,0.143,0.568,0.428,0.568,0.854
			c0.498,0.049,1.002,0.125,1.512,0.232c0.51,0.105,1.014,0.088,1.512-0.055c0.236-0.117,0.485-0.236,0.746-0.355
			c0.261-0.117,0.45-0.307,0.569-0.568c-0.071,0.047-0.143,0.096-0.213,0.143c-0.071,0.047-0.143,0.094-0.214,0.143
			c0.261-0.404,0.516-0.795,0.765-1.174s0.444-0.807,0.587-1.281c0.095-0.402,0.225-0.799,0.391-1.191
			c0.166-0.391,0.226-0.811,0.178-1.262c-0.047-0.213-0.018-0.414,0.09-0.605c0.106-0.189,0.183-0.379,0.23-0.568
			c0.118-0.475,0.219-0.931,0.303-1.369c0.083-0.438,0.172-0.895,0.267-1.369c0.095-0.332,0.147-0.688,0.16-1.067
			c0.012-0.379,0.124-0.723,0.338-1.031c-0.024,0-0.048,0.007-0.071,0.018c-0.024,0.013-0.048,0.019-0.071,0.019
			c0.118-0.45,0.243-0.895,0.373-1.334c0.131-0.438,0.22-0.895,0.267-1.369c0.048-0.592,0.137-1.167,0.268-1.725
			c0.13-0.557,0.242-1.12,0.338-1.689c0.022-0.379,0.094-0.747,0.213-1.103c0.118-0.355,0.201-0.723,0.249-1.103
			c0.047-0.331,0.124-0.669,0.231-1.013c0.106-0.344,0.195-0.693,0.267-1.05l0.213-1.813c0.023-0.236,0.101-0.462,0.231-0.676
			c0.13-0.213,0.136-0.45,0.018-0.711C70.164,7.682,69.998,7.439,69.737,7.26z M60.385,16.649c0.118-0.012,0.249-0.018,0.392-0.018
			c-0.048,0.095-0.077,0.184-0.089,0.267c-0.013,0.083-0.042,0.172-0.089,0.267c-0.096-0.047-0.185-0.101-0.268-0.16
			c-0.083-0.059-0.184-0.112-0.302-0.16v-0.142C60.147,16.679,60.266,16.662,60.385,16.649z M60.029,14.569
			c0.047,0,0.071,0.035,0.071,0.106s-0.024,0.106-0.071,0.106c-0.071,0-0.102-0.035-0.089-0.106
			C59.952,14.604,59.981,14.569,60.029,14.569z M59.78,12.862c0.047-0.047,0.089-0.041,0.124,0.018
			c0.036,0.06,0.03,0.113-0.018,0.16c-0.048,0.048-0.089,0.042-0.124-0.018C59.727,12.962,59.732,12.91,59.78,12.862z M55.566,9.359
			c-0.06,0.106-0.113,0.102-0.16-0.018c0-0.023,0.023-0.06,0.071-0.107C55.596,9.211,55.625,9.252,55.566,9.359z M55.584,8.096
			c0.071-0.284,0.261-0.485,0.569-0.604C56.011,7.776,55.82,7.978,55.584,8.096z M56.438,12.329
			c-0.048,0.048-0.089,0.053-0.125,0.018c-0.035-0.036-0.029-0.077,0.019-0.125c0.023-0.07,0.059-0.082,0.106-0.035
			C56.484,12.234,56.484,12.281,56.438,12.329z M56.224,11.883c-0.118,0.013-0.213,0.019-0.284,0.019
			c0.071-0.048,0.147-0.101,0.231-0.16c0.083-0.06,0.172-0.112,0.267-0.16c0,0.048,0.012,0.095,0.035,0.143s0.036,0.095,0.036,0.142
			C56.438,11.866,56.343,11.873,56.224,11.883z M59.211,15.137c-0.023,0.048-0.077,0.054-0.16,0.019
			c-0.083-0.036-0.101-0.089-0.053-0.16c0.047-0.071,0.106-0.083,0.178-0.036C59.247,15.007,59.259,15.067,59.211,15.137z
			 M59.425,15.849c-0.095,0.048-0.148,0.023-0.16-0.071c-0.013-0.095,0.029-0.154,0.124-0.178c0.071,0,0.112,0.035,0.125,0.106
			C59.525,15.778,59.496,15.826,59.425,15.849z M59.407,14.675c-0.036,0.024-0.077,0.048-0.125,0.071
			c-0.048-0.236-0.083-0.403-0.106-0.498c-0.048,0.048-0.089,0.077-0.125,0.089c-0.035,0.013-0.077,0.03-0.124,0.054
			c0,0.119,0.023,0.249,0.071,0.391c-0.38-0.331-0.741-0.688-1.085-1.066s-0.575-0.818-0.693-1.316
			c0.308,0.071,0.521,0.231,0.641,0.48c0.118,0.249,0.271,0.469,0.462,0.658c0.118,0.213,0.296,0.373,0.533,0.479
			c0.237,0.107,0.45,0.22,0.641,0.338c0,0.096,0.012,0.178,0.035,0.249C59.483,14.628,59.442,14.652,59.407,14.675z M64.226,17.787
			c-0.071,0.107-0.119,0.089-0.143-0.053l0.036-0.071C64.261,17.639,64.297,17.68,64.226,17.787z M65.008,14.177
			c-0.048,0.048-0.089,0.054-0.124,0.018c-0.036-0.035-0.03-0.076,0.018-0.124c0.023-0.047,0.059-0.054,0.106-0.018
			C65.055,14.088,65.055,14.13,65.008,14.177z M65.968,21.397c-0.142,0.07-0.189,0.035-0.142-0.107
			C65.991,21.243,66.039,21.278,65.968,21.397z M67.479,12.043c-0.131,0.048-0.255,0.107-0.373,0.178
			c-0.071-0.189-0.019-0.331,0.159-0.427c0.179-0.094,0.338-0.094,0.48,0C67.698,11.914,67.609,11.997,67.479,12.043z
			 M68.279,13.111c-0.166-0.095-0.332-0.154-0.497-0.178c0.047-0.166,0.064-0.338,0.053-0.516s0.041-0.35,0.16-0.516
			c0.047-0.071,0.101-0.148,0.16-0.231c0.059-0.083,0.112-0.147,0.16-0.195c0.142,0.237,0.219,0.504,0.23,0.8
			C68.558,12.572,68.469,12.85,68.279,13.111z M68.617,8.754c-0.106,0.201-0.208,0.409-0.302,0.622
			c-0.048,0.071-0.089,0.148-0.125,0.231c-0.035,0.083-0.112,0.137-0.23,0.16c-0.143,0.048-0.262,0.012-0.356-0.107
			c-0.095-0.118-0.166-0.225-0.213-0.319c-0.19,0.142-0.32,0.249-0.392,0.319c0-0.07,0.006-0.159,0.019-0.267
			c0.012-0.106,0.018-0.195,0.018-0.267c-0.119,0.19-0.243,0.374-0.374,0.552c-0.13,0.178-0.255,0.35-0.373,0.516
			c-0.119-0.048-0.243-0.083-0.373-0.107c-0.131-0.022-0.255-0.059-0.374-0.106c0.048-0.189,0.077-0.385,0.089-0.587
			c0.012-0.201,0.077-0.385,0.196-0.551c0.236-0.236,0.509-0.427,0.817-0.569c0.308-0.142,0.628-0.178,0.96-0.106
			c0.189,0.048,0.361,0.054,0.516,0.018c0.154-0.035,0.326-0.064,0.516-0.089C68.729,8.333,68.725,8.553,68.617,8.754z"/>
		<path fill="#C7C6C7" d="M77.953,7.065c-0.048-0.047-0.077-0.095-0.089-0.143c-0.013-0.047-0.03-0.094-0.054-0.142
			c-0.119,0.048-0.226,0.095-0.32,0.142c-0.095,0.048-0.201,0.096-0.319,0.143v0.178c0.118-0.023,0.242-0.047,0.373-0.071
			C77.674,7.148,77.811,7.113,77.953,7.065z"/>
		<path fill="#C7C6C7" d="M74.272,10.674c0.059-0.106,0.029-0.16-0.089-0.16c-0.024,0.024-0.036,0.048-0.036,0.071
			c0,0.024-0.012,0.036-0.035,0.036C74.159,10.763,74.213,10.782,74.272,10.674z"/>
		<path fill="#C7C6C7" d="M75.783,7.741c0.071-0.023,0.101-0.071,0.089-0.143c-0.012-0.07-0.065-0.082-0.159-0.035
			c-0.071,0.023-0.096,0.071-0.071,0.143C75.665,7.776,75.713,7.789,75.783,7.741z"/>
		<path fill="#C7C6C7" d="M77.49,21.326h-0.355c0.023,0.284,0.083,0.593,0.178,0.925c0.048,0,0.106-0.006,0.178-0.019
			c0.071-0.012,0.13-0.018,0.178-0.018c-0.095-0.118-0.166-0.254-0.213-0.409C77.407,21.652,77.419,21.492,77.49,21.326z"/>
		<path fill="#C7C6C7" d="M85.776,17.947c-0.048-0.545-0.137-1.084-0.267-1.618c-0.131-0.533-0.148-1.072-0.054-1.618
			c0.023-0.118,0.065-0.236,0.125-0.355c0.059-0.118,0.064-0.236,0.018-0.355c-0.048-0.165-0.089-0.325-0.124-0.479
			c-0.036-0.154-0.077-0.326-0.125-0.516c0.048-0.095,0.095-0.179,0.143-0.249c-0.071-0.071-0.143-0.131-0.214-0.178
			c-0.071-0.048-0.13-0.131-0.178-0.249c0-0.189,0.023-0.374,0.071-0.552c0.047-0.178,0.047-0.361,0-0.551
			c-0.119-0.261-0.237-0.521-0.355-0.782c-0.119-0.261-0.214-0.521-0.284-0.783c-0.427-0.427-0.818-0.889-1.174-1.387
			c-0.048-0.094-0.077-0.183-0.089-0.267c-0.013-0.083-0.018-0.184-0.018-0.302c-0.237,0.048-0.403,0.083-0.498,0.106
			c-0.119-0.143-0.202-0.272-0.249-0.392c-0.095-0.236-0.267-0.385-0.516-0.444c-0.249-0.059-0.48-0.112-0.693-0.16
			c-0.451-0.118-0.913-0.172-1.387-0.16c-0.475,0.013-0.949,0.03-1.423,0.054C78.296,6.829,78.202,7,78.202,7.225
			c0,0.226-0.024,0.433-0.071,0.622c-0.19-0.023-0.38-0.071-0.569-0.142c-0.189-0.071-0.379-0.131-0.568-0.178
			c0-0.119,0.022-0.249,0.07-0.392c-0.166,0.071-0.314,0.143-0.444,0.213c-0.131,0.071-0.243,0.167-0.338,0.285
			c-0.095,0.119-0.148,0.249-0.16,0.391c-0.012,0.143-0.029,0.285-0.053,0.427c-0.096-0.047-0.202-0.101-0.32-0.16
			c-0.119-0.059-0.226-0.029-0.32,0.09c-0.166,0.118-0.32,0.243-0.462,0.373c-0.143,0.131-0.214,0.302-0.214,0.516
			c0.023,0.213,0.006,0.444-0.053,0.693c-0.06,0.249-0.231,0.386-0.516,0.409c0.118,0.071,0.207,0.184,0.267,0.338
			c0.059,0.154,0.029,0.29-0.089,0.409c-0.119,0.118-0.231,0.255-0.338,0.408c-0.106,0.154-0.195,0.326-0.267,0.516
			c0.142,0.143,0.249,0.309,0.319,0.498c0.071,0.19,0.166,0.38,0.285,0.569c-0.071,0.119-0.143,0.249-0.214,0.391
			c-0.071,0.143-0.166,0.273-0.284,0.392c0.047-0.047,0.083-0.029,0.106,0.054s0,0.137-0.071,0.159c-0.048,0.024-0.083,0-0.106-0.07
			c-0.023-0.071,0-0.119,0.071-0.143c-0.261-0.284-0.373-0.622-0.338-1.014c0.035-0.391,0.029-0.776-0.018-1.155
			c-0.166,0.166-0.344,0.319-0.533,0.462c-0.19,0.143-0.285,0.344-0.285,0.604c-0.048,0.237-0.048,0.469,0,0.693
			c0.048,0.226,0.06,0.457,0.036,0.693c0,0.333,0,0.67,0,1.014s-0.036,0.693-0.107,1.049c0.023,0.403,0.048,0.824,0.071,1.263
			c0.023,0.439,0.06,0.884,0.106,1.334c-0.023,0.237-0.07,0.462-0.142,0.676c-0.071,0.213-0.084,0.45-0.036,0.711
			c0.048,0.189,0.101,0.38,0.16,0.569s0.054,0.379-0.018,0.568c-0.166,0.498-0.243,1.008-0.231,1.529s0.03,1.044,0.054,1.564
			c0.023,0.19,0.018,0.392-0.018,0.604c-0.036,0.214-0.018,0.415,0.053,0.604c0.048,0.143,0.125,0.256,0.231,0.338
			c0.106,0.084,0.226,0.167,0.355,0.249c0.13,0.084,0.249,0.166,0.355,0.249c0.107,0.084,0.196,0.196,0.268,0.338
			c0.118,0.213,0.101,0.344-0.054,0.391c-0.154,0.049-0.291,0.096-0.409,0.143c0.047,0.07,0.089,0.143,0.125,0.213
			c0.035,0.072,0.076,0.131,0.124,0.178c-0.048,0.023-0.095,0.043-0.143,0.055s-0.095,0.029-0.142,0.053
			c-0.024-0.072-0.036-0.154-0.036-0.25c-0.142,0.166-0.272,0.355-0.391,0.57c0.023,0.379,0.118,0.77,0.284,1.174
			c0.071-0.096,0.143-0.189,0.214-0.285c0.07-0.094,0.142-0.189,0.213-0.285c0.047,0.049,0.095,0.078,0.143,0.09
			c0.047,0.012,0.094,0.041,0.142,0.088c-0.118,0.119-0.243,0.25-0.373,0.393c-0.131,0.141-0.208,0.307-0.231,0.498
			c0.095,0.332,0.267,0.574,0.516,0.729s0.456,0.361,0.623,0.621c0.236,0.334,0.545,0.594,0.924,0.783
			c0.189,0.096,0.356,0.195,0.498,0.303c0.143,0.105,0.308,0.195,0.498,0.266c0.403,0.119,0.776,0.25,1.12,0.393
			c0.344,0.141,0.717,0.189,1.12,0.141c0.023-0.047,0.036-0.076,0.036-0.088s0.012-0.041,0.035-0.09
			c0.071,0.072,0.143,0.119,0.214,0.143c0.047-0.047,0.101-0.076,0.159-0.088c0.06-0.014,0.112-0.043,0.16-0.09
			c0.308,0.096,0.604,0.178,0.89,0.25c0.094-0.143,0.178-0.262,0.249-0.355c0.165,0.023,0.325,0.029,0.479,0.018
			s0.326-0.006,0.516,0.018c0.237,0,0.456-0.055,0.658-0.16c0.201-0.107,0.396-0.219,0.587-0.338
			c0.142-0.096,0.296-0.184,0.462-0.268c0.166-0.082,0.308-0.195,0.427-0.338c0.308-0.355,0.599-0.711,0.871-1.066
			s0.516-0.734,0.729-1.139c0.261-0.854,0.414-1.742,0.462-2.666c0-0.545,0.012-1.096,0.036-1.654
			c0.023-0.557-0.013-1.108-0.107-1.653c-0.118-0.332-0.189-0.676-0.213-1.032c-0.024-0.355-0.013-0.711,0.035-1.066
			c0.071,0.119,0.101,0.237,0.089,0.355c-0.012,0.119-0.029,0.237-0.053,0.355c0.047-0.023,0.101-0.041,0.16-0.053
			c0.059-0.012,0.112-0.029,0.159-0.054c0-0.355,0.023-0.711,0.071-1.066c0.048-0.356,0.012-0.712-0.106-1.067
			c-0.119-0.332-0.112-0.658,0.018-0.978C85.746,18.605,85.8,18.28,85.776,17.947z M72.867,23.263
			c-0.071,0.107-0.13,0.089-0.178-0.053c0.048,0,0.071-0.023,0.071-0.071C72.903,23.116,72.938,23.157,72.867,23.263z
			 M74.646,30.893c-0.048-0.023-0.106-0.043-0.178-0.055s-0.131-0.029-0.178-0.053c0-0.119,0-0.219,0-0.303
			c0-0.082-0.013-0.184-0.035-0.303c0.094,0.072,0.189,0.137,0.284,0.197c0.095,0.059,0.189,0.111,0.284,0.158
			C74.729,30.678,74.669,30.797,74.646,30.893z M75.215,10.977c0.071-0.048,0.142-0.077,0.213-0.089s0.13-0.041,0.178-0.089
			c-0.071,0.261-0.106,0.521-0.106,0.782c-0.048-0.118-0.095-0.219-0.143-0.303C75.309,11.197,75.262,11.096,75.215,10.977z
			 M75.499,26.588c0.095-0.093,0.178-0.153,0.249-0.177c0.118,0.261,0.189,0.511,0.213,0.748
			C75.724,27.063,75.57,26.873,75.499,26.588z M76.566,7.706c-0.048,0.048-0.09,0.048-0.125,0s-0.03-0.095,0.018-0.143
			c0.048-0.047,0.089-0.047,0.125,0C76.619,7.611,76.613,7.658,76.566,7.706z M84.318,12.329c0.071-0.048,0.13-0.06,0.178-0.036
			c0.048,0.048,0.036,0.106-0.035,0.178s-0.131,0.084-0.178,0.036C84.235,12.435,84.247,12.376,84.318,12.329z M84.354,13.004
			c-0.167,0.095-0.333,0.178-0.498,0.248c-0.048-0.189-0.096-0.427-0.143-0.711C83.928,12.636,84.141,12.791,84.354,13.004z
			 M82.771,14.249c0.083,0,0.184,0,0.303,0c-0.048,0.048-0.102,0.089-0.16,0.125c-0.06,0.035-0.113,0.077-0.16,0.124
			c0.071,0.19,0.178,0.386,0.32,0.587c0.142,0.201,0.165,0.421,0.07,0.658c-0.189-0.189-0.319-0.415-0.391-0.676
			s-0.166-0.521-0.285-0.782C82.588,14.261,82.688,14.249,82.771,14.249z M79.678,10.336c0.106,0.024,0.219,0.06,0.338,0.107
			c-0.237,0.095-0.463,0.035-0.676-0.178C79.458,10.29,79.571,10.313,79.678,10.336z M76.868,13.324
			c0.059-0.047,0.112-0.059,0.16-0.035c0.071,0.048,0.064,0.101-0.018,0.16c-0.084,0.06-0.148,0.065-0.196,0.018
			C76.791,13.419,76.809,13.372,76.868,13.324z M76.744,19.583c0-0.047,0.012-0.094,0.035-0.142
			c0.071,0.048,0.136,0.071,0.195,0.071s0.112,0.023,0.16,0.07c-0.071,0.024-0.148,0.048-0.231,0.071
			c-0.083,0.024-0.147,0.048-0.195,0.071C76.731,19.678,76.744,19.63,76.744,19.583z M77.206,32.6c-0.048,0.023-0.077,0-0.089-0.072
			c-0.013-0.07,0.006-0.119,0.054-0.143c0.094-0.023,0.142,0.006,0.142,0.09C77.313,32.557,77.277,32.6,77.206,32.6z M77.917,32.545
			c-0.095,0.035-0.201,0.078-0.319,0.125c0.165-0.189,0.379-0.271,0.64-0.25C78.118,32.469,78.012,32.51,77.917,32.545z
			 M80.976,26.695c-0.048,0.047-0.089,0.041-0.124-0.018c-0.036-0.059-0.03-0.113,0.018-0.16c0.047-0.047,0.089-0.042,0.124,0.018
			C81.029,26.596,81.022,26.648,80.976,26.695z M82.967,24.153c-0.071-0.012-0.13-0.018-0.178-0.018
			c-0.048,0.118-0.083,0.213-0.106,0.284s-0.06,0.166-0.106,0.284c-0.19-0.118-0.285-0.278-0.285-0.479s-0.023-0.397-0.07-0.587
			c-0.048-0.285-0.071-0.575-0.071-0.871c0-0.297-0.06-0.575-0.178-0.836c-0.071-0.071-0.148-0.125-0.231-0.16
			s-0.172-0.077-0.267-0.124c-0.095,0.213-0.237,0.438-0.427,0.675c0.047-0.189,0.101-0.355,0.16-0.497
			c0.059-0.143,0.112-0.285,0.16-0.427c-0.071,0-0.173-0.006-0.303-0.019c-0.131-0.012-0.231-0.029-0.302-0.053
			c0.022,0.355,0.059,0.717,0.106,1.084c0.047,0.368,0.071,0.729,0.071,1.085l0.213,0.106c-0.143,0.262-0.261,0.528-0.355,0.801
			s-0.131,0.563-0.106,0.871c0.142-0.095,0.249-0.178,0.319-0.249c-0.047,0.143-0.083,0.237-0.106,0.284
			c0.118,0.166,0.13,0.333,0.036,0.498c-0.096,0.166-0.167,0.32-0.214,0.463c-0.095,0.26-0.101,0.522-0.018,0.782
			c0.083,0.262,0.101,0.533,0.054,0.818h0.142c-0.119,0.119-0.243,0.219-0.373,0.303c-0.131,0.082-0.267,0.184-0.409,0.301
			c-0.19,0.215-0.427,0.369-0.711,0.463c-0.285,0.096-0.533,0.238-0.747,0.428v-0.285c-0.166-0.285-0.35-0.545-0.551-0.783
			c-0.202-0.236-0.362-0.52-0.48-0.854c-0.048-0.449-0.023-0.9,0.071-1.351c0.095-0.449,0.035-0.876-0.178-1.279
			c-0.048-0.095-0.102-0.179-0.16-0.249c-0.06-0.071-0.065-0.143-0.018-0.214c0.118-0.427,0.142-0.817,0.07-1.174l-0.213,0.641
			c-0.119-0.118-0.172-0.243-0.16-0.373c0.012-0.131,0.054-0.255,0.125-0.374c0.07-0.118,0.153-0.236,0.248-0.355
			c0.095-0.118,0.166-0.236,0.214-0.355h-0.427c0,0.048,0,0.124,0,0.231c0,0.106,0.012,0.184,0.035,0.23
			c-0.048,0-0.083-0.005-0.106-0.018c-0.023-0.012-0.048-0.018-0.071-0.018c0.048-0.45,0.012-0.901-0.106-1.352
			c-0.119-0.45-0.178-0.912-0.178-1.387c0.143,0.095,0.261,0.195,0.355,0.302c0.095,0.107,0.189,0.22,0.284,0.338
			c0.023-0.023,0.054-0.041,0.09-0.053c0.035-0.012,0.064-0.029,0.089-0.054c0.047-0.355,0.035-0.711-0.036-1.066
			c-0.071-0.356-0.106-0.699-0.106-1.031c0.047-0.854,0.059-1.701,0.035-2.543s-0.035-1.689-0.035-2.543
			c0.023-0.213,0.054-0.433,0.089-0.658c0.035-0.225,0.065-0.456,0.089-0.693c-0.095,0.048-0.184,0.102-0.267,0.16
			c-0.083,0.06-0.16,0.113-0.231,0.16c0.048-0.165,0.118-0.332,0.214-0.498c0.094-0.165,0.118-0.343,0.07-0.533
			c-0.023-0.118-0.029-0.236-0.018-0.355c0.012-0.118,0.018-0.237,0.018-0.355c0.048,0.048,0.09,0.089,0.125,0.124
			c0.035,0.036,0.076,0.077,0.124,0.125c0.071-0.285,0.249-0.486,0.534-0.604c0.284-0.119,0.533-0.06,0.746,0.178
			c0.214,0.261,0.48,0.45,0.801,0.568c0.319,0.119,0.622,0.273,0.906,0.463c0.095,0.048,0.143,0.124,0.143,0.23
			c0,0.107,0.012,0.208,0.035,0.303c0.023,0.213,0.054,0.427,0.089,0.64c0.036,0.214,0.019,0.439-0.053,0.676
			c0.023-0.023,0.071-0.035,0.142-0.035c-0.047,0.048-0.077,0.101-0.089,0.16s-0.041,0.112-0.089,0.16h0.178
			c-0.213,0.403-0.308,0.83-0.284,1.28s0.047,0.9,0.071,1.351c0.071,0.641,0.047,1.287-0.071,1.938
			c-0.119,0.652-0.083,1.311,0.106,1.974c0.119-0.071,0.231-0.165,0.338-0.284c0.107-0.118,0.243-0.154,0.409-0.107
			c0.118,0.119,0.189,0.262,0.214,0.427c0.022,0.167,0.082,0.333,0.178,0.498c0.213,0.475,0.456,0.938,0.729,1.388
			s0.456,0.948,0.552,1.493c0.023,0.19,0,0.392-0.071,0.604C83.109,24.17,83.038,24.165,82.967,24.153z M83.358,24.632
			c-0.048,0.048-0.089,0.042-0.125-0.018c-0.035-0.059-0.029-0.112,0.019-0.16c0.047-0.023,0.089-0.012,0.124,0.036
			C83.412,24.539,83.405,24.585,83.358,24.632z M84.176,23.958c-0.047,0.166-0.083,0.344-0.106,0.533
			c-0.332-0.166-0.516-0.427-0.551-0.782c-0.036-0.356-0.007-0.676,0.089-0.961c0.047,0.024,0.101,0.036,0.16,0.036
			c0.059,0,0.124,0.012,0.195,0.035c0.071-0.071,0.13-0.165,0.178-0.284c-0.048,0.332-0.035,0.628,0.035,0.889
			C84.224,23.614,84.224,23.792,84.176,23.958z M83.607,22.357c0.047-0.048,0.083-0.071,0.106-0.071
			c0.118-0.023,0.143,0.018,0.071,0.124c-0.071,0.107-0.131,0.137-0.178,0.089C83.56,22.452,83.56,22.405,83.607,22.357z
			 M83.98,17.965c-0.083,0.035-0.172,0.077-0.267,0.124c0.214,0.261,0.355,0.51,0.427,0.747c0.047,0.142,0.054,0.29,0.018,0.444
			c-0.035,0.154-0.077,0.29-0.124,0.409c-0.096-0.095-0.178-0.189-0.249-0.285c-0.071-0.094-0.131-0.201-0.178-0.319
			c-0.119-0.309-0.262-0.61-0.427-0.907c-0.166-0.296-0.262-0.61-0.285-0.942c-0.023-0.189-0.018-0.392,0.019-0.604
			c0.035-0.214,0.064-0.415,0.089-0.604c0.094,0.048,0.183,0.089,0.267,0.124c0.083,0.036,0.184,0.077,0.302,0.125
			c0.023-0.048,0.06-0.143,0.107-0.285c-0.096,0-0.178,0.013-0.249,0.036c0.047-0.118,0.071-0.237,0.071-0.355
			s0.011-0.226,0.035-0.32c0.284,0.119,0.456,0.309,0.516,0.569c0.059,0.261,0.089,0.521,0.089,0.782
			c-0.309,0.048-0.462,0.189-0.462,0.427c0.047,0.023,0.118,0.035,0.213,0.035s0.166,0.036,0.214,0.106
			c0.047,0.096,0.07,0.19,0.07,0.285s0.012,0.189,0.036,0.284C84.141,17.888,84.063,17.929,83.98,17.965z M84.567,18.018
			c-0.048,0.048-0.077,0.036-0.089-0.035c-0.013-0.071,0.006-0.118,0.054-0.143c0.094-0.023,0.142,0,0.142,0.071
			S84.639,18.018,84.567,18.018z M84.301,13.768c-0.178,0.036-0.362,0.042-0.552,0.019c0.189-0.048,0.361-0.089,0.516-0.125
			c0.154-0.035,0.314-0.076,0.48-0.124C84.626,13.657,84.479,13.733,84.301,13.768z M85.634,20.472
			c-0.189,0.237-0.344,0.438-0.462,0.604c0.071,0.023,0.136,0.035,0.195,0.035s0.112,0.013,0.16,0.036
			c-0.048,0.023-0.119,0.083-0.213,0.178h-0.178c0-0.118,0-0.243,0-0.374c0-0.13-0.013-0.254-0.036-0.373
			c0.118-0.023,0.214-0.041,0.285-0.054C85.456,20.513,85.539,20.496,85.634,20.472z"/>
		<path fill="#C7C6C7" d="M80.94,20.721c-0.048,0-0.071,0.041-0.071,0.124c0,0.084,0.047,0.113,0.142,0.089
			c0.071-0.023,0.095-0.071,0.071-0.142C81.059,20.721,81.011,20.698,80.94,20.721z"/>
		<path fill="#C7C6C7" d="M77.526,21.005c-0.096,0.024-0.19,0.048-0.285,0.071s-0.189,0.048-0.284,0.071
			c0.189,0.048,0.355,0.095,0.498,0.142C77.502,21.148,77.526,21.053,77.526,21.005z"/>
		<path fill="#C7C6C7" d="M92.835,10.639c0.035-0.367,0.029-0.741-0.019-1.12c-0.047-0.332-0.159-0.641-0.337-0.925
			c-0.179-0.284-0.244-0.593-0.196-0.925c-0.048-0.023-0.077-0.041-0.089-0.053s-0.041-0.03-0.089-0.054
			c0,0.048,0.006,0.102,0.018,0.16c0.012,0.06,0.019,0.112,0.019,0.16c-0.119-0.095-0.231-0.214-0.338-0.355
			c-0.107-0.143-0.226-0.268-0.356-0.374c-0.13-0.106-0.267-0.189-0.408-0.249c-0.143-0.059-0.309-0.064-0.498-0.018
			c0.047,0.119,0.118,0.237,0.213,0.355c0.095,0.119,0.189,0.226,0.285,0.32c0.094-0.023,0.183-0.047,0.267-0.071
			c0.083-0.023,0.184-0.047,0.302-0.071c-0.118,0.071-0.249,0.16-0.391,0.267c-0.143,0.107-0.249,0.244-0.32,0.409
			c-0.143-0.071-0.261-0.172-0.355-0.302s-0.178-0.267-0.249-0.409c-0.048,0.048-0.083,0.095-0.106,0.143
			c-0.024,0.047-0.036,0.106-0.036,0.178c0-0.214,0.012-0.379,0.036-0.498c-0.19-0.071-0.386-0.143-0.587-0.214
			c-0.202-0.071-0.409-0.13-0.622-0.178c-0.143-0.023-0.309-0.029-0.498-0.018c-0.19,0.013-0.309,0.113-0.355,0.303
			c-0.096,0.308-0.143,0.622-0.143,0.942c0,0.319-0.024,0.646-0.071,0.978c-0.095,0.475-0.112,0.96-0.053,1.458
			c0.059,0.498,0.1,1.008,0.124,1.529c0.047,0.261,0.035,0.527-0.035,0.8c-0.071,0.273-0.096,0.552-0.071,0.836
			c0.071,0,0.13-0.006,0.178-0.018c0.047-0.012,0.106-0.018,0.178-0.018c-0.071,0.07-0.137,0.148-0.195,0.23
			c-0.06,0.084-0.137,0.173-0.231,0.267c0.118,0,0.201,0.013,0.249,0.036c-0.237,0.189-0.355,0.421-0.355,0.693s0,0.539,0,0.8
			c0.094,0.333,0.171,0.664,0.23,0.996s0.054,0.688-0.018,1.066c-0.048,0.237-0.048,0.475,0,0.712
			c0.047,0.237,0.023,0.475-0.071,0.711c-0.095,0.332-0.142,0.658-0.142,0.978c0,0.32,0.005,0.646,0.018,0.979
			c0.012,0.332,0.029,0.658,0.053,0.978c0.023,0.32,0.023,0.646,0,0.979c-0.047,0.475-0.053,0.96-0.018,1.458
			c0.036,0.498,0.029,0.983-0.018,1.458c-0.023,0.237-0.023,0.475,0,0.711c0.023,0.236,0.035,0.486,0.035,0.746
			c-0.023,0.332-0.006,0.658,0.054,0.979c0.059,0.32,0.077,0.646,0.054,0.979c-0.048,0.402-0.084,0.799-0.107,1.191
			c-0.023,0.391,0.012,0.787,0.107,1.191c0.165,0.26,0.361,0.479,0.587,0.656c0.225,0.178,0.456,0.352,0.693,0.516
			c0.355,0.072,0.705,0.096,1.049,0.072s0.705-0.012,1.085,0.035c0.545,0.07,0.96-0.143,1.244-0.641
			c0.048-0.307,0.077-0.609,0.089-0.906s0.041-0.598,0.089-0.906c0.118-0.545,0.137-1.098,0.054-1.654s-0.065-1.121,0.053-1.689
			c0.048-0.355,0.036-0.711-0.035-1.067c-0.071-0.355-0.131-0.711-0.178-1.066c0.166-0.593,0.213-1.203,0.143-1.832
			c-0.071-0.628-0.084-1.25-0.036-1.866c0.048-0.237,0.041-0.468-0.018-0.693c-0.06-0.226-0.089-0.445-0.089-0.658
			c-0.048-0.379-0.035-0.753,0.035-1.12c0.071-0.367,0.095-0.753,0.071-1.156c0-0.284-0.023-0.574-0.071-0.871
			c-0.048-0.296-0.07-0.599-0.07-0.907c0.022-0.308,0.059-0.604,0.106-0.889c0.047-0.284,0.071-0.592,0.071-0.925
			c0-0.402-0.007-0.806-0.019-1.209c-0.012-0.402,0.006-0.806,0.054-1.209C92.781,11.38,92.799,11.007,92.835,10.639z
			 M88.158,18.196c0.095,0,0.136,0.042,0.124,0.125s-0.053,0.124-0.124,0.124c-0.095,0-0.137-0.041-0.124-0.124
			C88.046,18.238,88.087,18.196,88.158,18.196z M88.158,26.873c-0.048,0.023-0.089,0.006-0.124-0.053
			c-0.036-0.059-0.019-0.102,0.053-0.125c0.048-0.047,0.089-0.035,0.125,0.035C88.247,26.803,88.229,26.85,88.158,26.873z
			 M88.212,25.966c0.012-0.059,0.053-0.089,0.124-0.089c0.047,0,0.071,0.03,0.071,0.089c0,0.06-0.035,0.089-0.106,0.089
			S88.199,26.026,88.212,25.966z M88.461,30.482c-0.036,0.061-0.078,0.137-0.125,0.23v-0.426c0.118,0,0.201-0.012,0.249-0.035
			C88.537,30.346,88.496,30.424,88.461,30.482z M88.728,28.988c-0.071-0.082-0.119-0.182-0.143-0.301
			c-0.023-0.166-0.023-0.338,0-0.516s0.059-0.35,0.106-0.516c0.118,0.26,0.184,0.521,0.196,0.781
			c0.012,0.262,0.029,0.521,0.053,0.783C88.869,29.148,88.799,29.072,88.728,28.988z M89.226,32.6c-0.071,0-0.107-0.031-0.107-0.09
			s0.036-0.09,0.107-0.09c0.047,0,0.07,0.031,0.07,0.09S89.272,32.6,89.226,32.6z M90.149,32.457
			c-0.095,0.023-0.13-0.023-0.106-0.143C90.186,32.268,90.221,32.314,90.149,32.457z M90.221,31.105
			c-0.095,0.047-0.189,0.07-0.284,0.07c0.023-0.094,0.071-0.189,0.142-0.283c0.023,0.023,0.071,0.035,0.143,0.035V31.105z
			 M90.523,29.186c-0.084,0.07-0.173,0.141-0.267,0.213c0.022-0.236,0.047-0.469,0.07-0.693s0.012-0.457-0.035-0.693
			c0.071-0.023,0.136-0.047,0.195-0.072c0.06-0.023,0.137-0.035,0.231-0.035c0.118,0.143,0.154,0.303,0.106,0.48
			s-0.083,0.35-0.106,0.516C90.671,29.02,90.605,29.113,90.523,29.186z M90.896,32.102c-0.071,0.023-0.112,0-0.124-0.072
			c-0.013-0.07,0.018-0.117,0.089-0.143c0.047-0.023,0.076,0,0.089,0.072C90.962,32.029,90.943,32.078,90.896,32.102z M92.177,30.5
			c-0.071-0.023-0.202-0.059-0.392-0.105c0.071-0.049,0.148-0.078,0.231-0.09s0.16-0.041,0.231-0.088
			C92.2,30.311,92.177,30.406,92.177,30.5z M92.248,27.744c-0.048,0.367-0.119,0.705-0.214,1.014
			c-0.261-0.615-0.319-1.232-0.178-1.85C92.164,27.1,92.295,27.377,92.248,27.744z"/>
		<path fill="#C7C6C7" d="M99.146,30.75c0.048-0.047,0.095-0.096,0.143-0.143c-0.119,0-0.226-0.006-0.32-0.018
			s-0.189,0.029-0.284,0.123c-0.143,0.168-0.279,0.338-0.409,0.518c-0.13,0.178-0.267,0.361-0.409,0.551
			c-0.095,0.023-0.189,0.047-0.284,0.07s-0.189,0.049-0.284,0.072c0.047,0.117,0.083,0.242,0.106,0.373s0.083,0.254,0.178,0.373
			c0.143,0.096,0.296,0.125,0.463,0.088c0.165-0.035,0.331-0.076,0.497-0.123c-0.023,0.047-0.048,0.094-0.07,0.143
			c-0.024,0.047-0.048,0.094-0.071,0.141c0.118-0.07,0.23-0.135,0.338-0.195c0.106-0.059,0.195-0.135,0.267-0.23
			c0.142-0.262,0.219-0.539,0.23-0.836s0.054-0.574,0.125-0.836c-0.143,0.049-0.262,0.072-0.355,0.072
			C99.052,30.844,99.099,30.797,99.146,30.75z"/>
		<path fill="#C7C6C7" d="M107.753,31.852c-0.048,0.096-0.083,0.178-0.106,0.25c-0.024,0.07-0.06,0.166-0.107,0.283
			c0.095-0.094,0.179-0.166,0.249-0.213c0-0.047-0.006-0.1-0.018-0.16C107.759,31.953,107.753,31.9,107.753,31.852z"/>
		<path fill="#C7C6C7" d="M108.233,7.528c-0.036-0.237-0.185-0.356-0.445-0.356c-0.166-0.047-0.326-0.012-0.479,0.107
			c-0.154,0.118-0.208,0.272-0.16,0.462c-0.19,0.048-0.368,0.106-0.533,0.178c-0.166,0.071-0.32,0.143-0.463,0.214
			c-0.095-0.048-0.172-0.089-0.23-0.125c-0.06-0.035-0.137-0.076-0.231-0.124c-0.262,0.048-0.546,0.118-0.854,0.213
			c-0.309,0.095-0.604,0.084-0.889-0.035l0.64-0.747c0,0.095-0.023,0.214-0.071,0.355c0.664-0.047,1.316-0.118,1.956-0.213
			c0.023-0.118,0.035-0.231,0.035-0.338s0.023-0.207,0.071-0.303c-0.237-0.023-0.486-0.035-0.746-0.035
			c-0.262,0-0.463,0.131-0.605,0.391c-0.118-0.094-0.236-0.189-0.355-0.284c-0.118-0.095-0.261-0.13-0.427-0.106
			c-0.261,0.023-0.479,0.142-0.657,0.355c-0.178,0.213-0.351,0.415-0.516,0.604c0.07-0.023,0.142-0.035,0.213-0.035
			s0.154-0.012,0.249-0.036c-0.048,0.143-0.083,0.237-0.106,0.285c-0.071,0.023-0.16,0.018-0.267-0.019
			c-0.107-0.035-0.185-0.018-0.231,0.054c-0.048,0.143-0.095,0.291-0.143,0.444c-0.048,0.154-0.106,0.291-0.178,0.409
			c0.048,0,0.083,0.006,0.106,0.018c0.023,0.013,0.06,0.018,0.107,0.018c-0.237,0.237-0.439,0.475-0.604,0.712
			c0.142,0,0.236-0.012,0.284-0.036c-0.048,0.048-0.102,0.113-0.16,0.196c-0.06,0.083-0.112,0.159-0.16,0.23
			c0.118,0.024,0.219,0.042,0.303,0.054c0.083,0.012,0.184,0.03,0.302,0.053c-0.118,0.262-0.278,0.48-0.479,0.658
			c-0.202,0.178-0.397,0.362-0.587,0.552c-0.237,0.261-0.457,0.539-0.658,0.835c-0.201,0.297-0.397,0.587-0.587,0.872
			c-0.095,0.166-0.172,0.337-0.23,0.516c-0.06,0.178-0.148,0.35-0.268,0.516c-0.118,0.118-0.219,0.237-0.302,0.355
			c-0.083,0.119-0.172,0.237-0.267,0.355c-0.166-0.118-0.297-0.189-0.392-0.214c-0.023-0.142-0.048-0.278-0.071-0.408
			c-0.023-0.131-0.048-0.267-0.07-0.409c-0.143,0.048-0.262,0.083-0.356,0.106c-0.403-0.355-0.759-0.747-1.066-1.174
			c0.189-0.047,0.402-0.089,0.64-0.124s0.392-0.172,0.463-0.409c0.095-0.189,0.165-0.391,0.213-0.604
			c0.048-0.213,0.107-0.414,0.178-0.604c0.048-0.402,0.006-0.782-0.124-1.138c-0.131-0.355-0.231-0.712-0.303-1.067
			c-0.118,0.024-0.226,0.042-0.319,0.054c-0.096,0.012-0.202,0.018-0.32,0.018c-0.403-0.165-0.688-0.414-0.854-0.747
			c-0.048-0.07-0.106-0.112-0.178-0.124s-0.143-0.041-0.214-0.089c0.166-0.047,0.326-0.089,0.48-0.125
			c0.154-0.035,0.314-0.064,0.48-0.089c0.142,0.048,0.271,0.102,0.391,0.16c0.118,0.06,0.237,0.113,0.355,0.16
			c0.095-0.047,0.189-0.101,0.285-0.16c0.094-0.059,0.189-0.112,0.284-0.16c-0.023-0.118-0.042-0.236-0.054-0.355
			c-0.012-0.118-0.089-0.201-0.23-0.249c-0.214-0.047-0.427-0.059-0.641-0.035c-0.213,0.023-0.427,0.023-0.64,0
			c-0.262-0.023-0.516-0.054-0.765-0.089c-0.249-0.036-0.504-0.029-0.765,0.018c-0.143,0.119-0.184,0.249-0.125,0.392
			c0.06,0.142,0.112,0.272,0.16,0.391c-0.118,0.119-0.219,0.22-0.302,0.303c-0.084,0.083-0.185,0.184-0.303,0.302
			c-0.048-0.047-0.095-0.071-0.142-0.071c-0.024,0.048-0.042,0.096-0.054,0.143c-0.013,0.048-0.03,0.106-0.054,0.178
			c-0.048-0.142-0.095-0.29-0.142-0.444c-0.048-0.154-0.096-0.313-0.143-0.48c-0.309,0.024-0.403,0.202-0.284,0.534
			c-0.048,0.355-0.077,0.723-0.089,1.102c-0.013,0.38,0.005,0.747,0.053,1.103c0.048,0.119,0.054,0.231,0.018,0.338
			c-0.035,0.107-0.065,0.208-0.089,0.303c0,0.023,0.036,0.035,0.107,0.035c-0.071,0.262-0.107,0.498-0.107,0.712
			c0,0.403-0.029,0.794-0.089,1.173c-0.06,0.38-0.041,0.771,0.054,1.174c0.118,0.38,0.124,0.753,0.018,1.12
			c-0.106,0.368-0.112,0.753-0.018,1.156c0.047,0.237,0.071,0.475,0.071,0.711c0,0.237,0,0.486,0,0.747
			c0.071,0,0.13,0.012,0.178,0.035c-0.119,0.19-0.172,0.392-0.16,0.604c0.012,0.214,0.101,0.403,0.267,0.569
			c-0.048,0.095-0.101,0.184-0.16,0.267s-0.112,0.16-0.16,0.231c0,0.142,0.006,0.272,0.019,0.391
			c0.012,0.119,0.018,0.237,0.018,0.355c0.047,0.237,0.053,0.463,0.018,0.676c-0.035,0.214-0.054,0.439-0.054,0.676
			c0.023,0.095,0.077,0.172,0.16,0.231s0.16,0.112,0.231,0.16v-0.463c0.071,0.024,0.154,0.054,0.249,0.089
			c0.095,0.036,0.13,0.113,0.106,0.231c-0.048,0.214-0.143,0.409-0.284,0.587c-0.143,0.178-0.344,0.29-0.604,0.338
			c0.118,0.64,0.147,1.286,0.089,1.938c-0.06,0.652-0.065,1.299-0.018,1.939c0.022,0.83,0.035,1.666,0.035,2.506
			c0,0.842,0.035,1.678,0.106,2.508c0.048,0.143,0.13,0.256,0.249,0.338c0.118,0.084,0.249,0.16,0.392,0.23
			c0.071-0.189,0.136-0.391,0.195-0.604c0.059-0.213,0.054-0.439-0.018-0.676c0.165-0.047,0.296-0.148,0.391-0.303
			s0.201-0.289,0.32-0.408c0.214,0.047,0.396,0.143,0.552,0.283c0.153,0.143,0.29,0.285,0.408,0.428
			c0.119-0.166,0.231-0.314,0.338-0.445c0.107-0.129,0.208-0.277,0.303-0.443c0.047-0.189,0.089-0.373,0.124-0.551
			c0.036-0.18,0.077-0.361,0.125-0.553c0.094,0.119,0.172,0.238,0.23,0.355c0.06,0.119,0.112,0.25,0.16,0.393
			c0.048-0.049,0.089-0.096,0.125-0.143c0.035-0.047,0.076-0.096,0.124-0.143c0.048,0.047,0.095,0.102,0.143,0.16
			c0.047,0.059,0.106,0.076,0.178,0.053c0.118-0.07,0.219-0.166,0.302-0.283c0.083-0.119,0.137-0.238,0.16-0.355
			c-0.023-0.332-0.048-0.664-0.07-0.996c-0.024-0.332,0.011-0.664,0.106-0.996c0.094-0.236,0.136-0.469,0.124-0.694
			c-0.012-0.225-0.035-0.456-0.071-0.693c-0.035-0.236-0.077-0.468-0.124-0.693c-0.048-0.225-0.048-0.456,0-0.693
			c0.047,0.023,0.076,0.048,0.089,0.071c0.012,0.023,0.029,0.035,0.054,0.035c0.379,0.593,0.74,1.191,1.084,1.796
			c0.344,0.604,0.646,1.227,0.907,1.868c0.143,0.402,0.272,0.807,0.391,1.209c0.119,0.402,0.309,0.77,0.569,1.102
			c0.214,0.262,0.373,0.547,0.48,0.854c0.106,0.309,0.219,0.617,0.338,0.926c0.118,0.189,0.254,0.367,0.408,0.533
			s0.35,0.201,0.587,0.105c-0.023,0.049-0.083,0.119-0.178,0.215c0.475,0.094,0.937,0.135,1.387,0.123s0.901-0.018,1.352-0.018
			c0.143,0.023,0.231-0.023,0.267-0.143c0.036-0.117,0.077-0.225,0.125-0.318c-0.071-0.049-0.148-0.096-0.231-0.143
			c-0.083-0.049-0.172-0.049-0.267,0c-0.19,0.047-0.373,0.041-0.552-0.018c-0.178-0.061-0.35-0.113-0.516-0.16
			c-0.118-0.049-0.195-0.172-0.23-0.375c-0.036-0.201,0.041-0.289,0.23-0.266c0.189-0.047,0.403-0.041,0.641,0.018
			c0.236,0.059,0.414-0.006,0.533-0.195c0.118-0.047,0.237-0.084,0.355-0.107c0.119-0.023,0.214-0.094,0.285-0.213
			c0.07-0.094,0.059-0.195-0.036-0.303c-0.095-0.105-0.13-0.195-0.106-0.266c-0.213-0.096-0.332-0.066-0.355,0.088
			c-0.024,0.154-0.06,0.291-0.106,0.41c-0.119,0.047-0.256,0.088-0.409,0.123c-0.154,0.037-0.279-0.018-0.374-0.16
			c-0.166-0.213-0.178-0.42-0.035-0.621s0.214-0.41,0.214-0.623c-0.048-0.332-0.125-0.658-0.231-0.979
			c-0.106-0.318-0.208-0.645-0.303-0.977c0.118-0.049,0.249-0.09,0.392-0.125s0.225-0.125,0.249-0.268
			c0-0.117-0.03-0.23-0.089-0.338c-0.06-0.105-0.113-0.207-0.16-0.301c-0.262-0.404-0.469-0.824-0.622-1.263
			c-0.155-0.438-0.362-0.848-0.623-1.227c-0.237-0.806-0.581-1.577-1.031-2.312c-0.118-0.166-0.243-0.32-0.373-0.463
			c-0.131-0.142-0.22-0.308-0.267-0.498c-0.048-0.189-0.084-0.379-0.106-0.568c-0.024-0.189-0.071-0.379-0.143-0.569
			c-0.095-0.236-0.125-0.474-0.089-0.711c0.035-0.237,0.076-0.485,0.124-0.747c0.048-0.332,0.184-0.599,0.409-0.8
			s0.396-0.433,0.516-0.693c0.071-0.237,0.16-0.463,0.267-0.676c0.106-0.214,0.137-0.45,0.089-0.712
			c0.189-0.189,0.308-0.414,0.355-0.675s0.143-0.486,0.285-0.676c0.213-0.332,0.427-0.658,0.64-0.979
			c0.214-0.319,0.415-0.646,0.604-0.978c0.166-0.403,0.355-0.801,0.569-1.191c0.213-0.392,0.392-0.788,0.533-1.191
			c0.095-0.332,0.249-0.622,0.463-0.871c0.213-0.249,0.355-0.539,0.427-0.871C108.238,7.966,108.269,7.765,108.233,7.528z
			 M94.915,25.7c-0.095,0.048-0.16,0.035-0.195-0.036c-0.036-0.07-0.007-0.118,0.089-0.142c0.071-0.048,0.124-0.041,0.16,0.018
			C95.004,25.599,94.986,25.653,94.915,25.7z M95.093,20.81c0.047-0.06,0.095-0.089,0.143-0.089
			c0.118-0.023,0.142,0.023,0.071,0.142c-0.071,0.119-0.143,0.155-0.214,0.107C95.045,20.922,95.045,20.87,95.093,20.81z
			 M95.307,21.343c-0.048,0.06-0.107,0.112-0.179,0.16c-0.023-0.071-0.041-0.147-0.053-0.231c-0.013-0.083-0.03-0.147-0.054-0.195
			c0.118,0,0.272,0.023,0.463,0.071C95.413,21.219,95.354,21.285,95.307,21.343z M97.849,10.817
			c0.036-0.059,0.077-0.089,0.125-0.089c0.118,0.048,0.147,0.112,0.089,0.195c-0.06,0.084-0.125,0.102-0.196,0.054
			C97.819,10.929,97.813,10.876,97.849,10.817z M97.333,10.834c0.118,0.048,0.226,0.113,0.32,0.195
			c0.095,0.084,0.189,0.16,0.284,0.231c-0.118,0.19-0.213,0.38-0.284,0.569c0.047,0.119,0.106,0.195,0.178,0.231
			c0.071,0.035,0.143,0.077,0.214,0.124c-0.071,0.048-0.137,0.106-0.196,0.178s-0.124,0.131-0.195,0.178
			c-0.095-0.261-0.172-0.539-0.231-0.836C97.362,11.41,97.333,11.12,97.333,10.834z M97.742,15.724
			c-0.083,0.107-0.137,0.102-0.16-0.018c0.048-0.047,0.071-0.083,0.071-0.106C97.796,15.577,97.825,15.618,97.742,15.724z
			 M102.348,18.267c-0.048,0.024-0.077,0-0.089-0.071c-0.013-0.071,0.005-0.106,0.053-0.106c0.071-0.047,0.112-0.035,0.125,0.035
			C102.448,18.196,102.419,18.244,102.348,18.267z M103.788,27.479c0.035-0.072,0.076-0.143,0.124-0.215v0.355
			c-0.023,0-0.106,0.025-0.249,0.072C103.711,27.619,103.752,27.549,103.788,27.479z M103.308,26.873
			c0.095-0.047,0.147-0.035,0.16,0.035c0.012,0.072-0.018,0.131-0.089,0.178c-0.071,0.049-0.125,0.037-0.16-0.035
			C103.184,26.98,103.213,26.922,103.308,26.873z M103.112,27.709c0.153,0.084,0.325,0.148,0.516,0.195
			c0.142,0.049,0.242,0.154,0.302,0.32s0.125,0.309,0.196,0.426c0.118-0.07,0.189-0.117,0.213-0.141
			c0,0.117-0.048,0.225-0.143,0.318c0.071,0.049,0.148,0.102,0.231,0.16c0.083,0.061,0.172,0.113,0.267,0.16
			c-0.048-0.07-0.089-0.141-0.124-0.213c-0.036-0.07-0.077-0.129-0.125-0.178c0.214,0.119,0.45,0.256,0.712,0.408
			c0.261,0.156,0.391,0.375,0.391,0.658c-0.119,0.191-0.23,0.404-0.338,0.641c-0.106,0.238-0.29,0.355-0.551,0.355
			c-0.119,0.023-0.226,0.029-0.32,0.018s-0.201-0.006-0.32,0.018c-0.237-0.355-0.45-0.717-0.64-1.084
			c-0.19-0.367-0.392-0.729-0.604-1.084c-0.095-0.189-0.148-0.387-0.16-0.588c-0.013-0.201-0.018-0.396-0.018-0.586
			C102.786,27.561,102.958,27.627,103.112,27.709z M102.935,17.929c-0.036,0.083-0.077,0.16-0.125,0.231v-0.355
			c0.048,0,0.089-0.012,0.125-0.036c0.035-0.023,0.076-0.047,0.124-0.071C103.011,17.769,102.97,17.846,102.935,17.929z
			 M103.165,16.844c-0.07,0.19-0.189,0.356-0.355,0.498c0.023,0.024,0.041,0.06,0.054,0.106c0.012,0.048,0.041,0.096,0.089,0.143
			c-0.071-0.047-0.137-0.089-0.195-0.124c-0.06-0.036-0.113-0.065-0.16-0.089c0.023-0.261,0.106-0.48,0.249-0.658
			c0.142-0.178,0.308-0.325,0.497-0.444C103.296,16.465,103.236,16.655,103.165,16.844z M103.521,8.488
			c-0.048,0.048-0.084,0.041-0.107-0.018c-0.023-0.06,0-0.101,0.071-0.125c0.047-0.047,0.077-0.041,0.089,0.018
			C103.586,8.422,103.568,8.464,103.521,8.488z M106.971,9.181c-0.071,0.083-0.131,0.184-0.178,0.302V9.199
			c-0.143,0.048-0.285,0.102-0.427,0.16c-0.143,0.06-0.273,0.112-0.392,0.16c0-0.118-0.006-0.226-0.018-0.32
			c-0.013-0.095-0.018-0.201-0.018-0.32c0.213-0.047,0.427-0.094,0.64-0.142c0.214-0.048,0.415,0,0.604,0.142
			C107.113,8.998,107.042,9.098,106.971,9.181z"/>
		<path fill="#C7C6C7" d="M97.493,31.727c0.106-0.035,0.207-0.064,0.303-0.088v-0.213c-0.262-0.072-0.498-0.154-0.712-0.25
			c0.023,0.072,0.023,0.16,0,0.268c-0.023,0.105,0.012,0.184,0.107,0.23C97.285,31.746,97.387,31.764,97.493,31.727z"/>
		<path fill="#C7C6C7" d="M98.685,8.629c0.214-0.213,0.296-0.449,0.249-0.711c-0.143,0.048-0.249,0.071-0.32,0.071
			C98.613,8.227,98.637,8.44,98.685,8.629z"/>
		<path fill="#C7C6C7" d="M107.896,31.781c-0.048,0.07-0.042,0.131,0.018,0.178c0.059,0.047,0.112,0.035,0.16-0.035
			c0.047-0.049,0.041-0.096-0.018-0.143C107.996,31.734,107.942,31.734,107.896,31.781z"/>
		<path fill="#C7C6C7" d="M24.15,23.67c-0.993-0.663-0.613-0.646-1.591-0.004c-0.533,0.35-0.961,0.804-1.255,1.376
			c-0.156,0.305-0.104,0.546,0.186,0.688c0.592,0.287,1.229,0.411,1.993,0.525c0.479-0.139,1.064-0.28,1.628-0.482
			c0.417-0.149,0.466-0.396,0.257-0.787C25.078,24.438,24.659,24.01,24.15,23.67z"/>
		<path fill="#C7C6C7" d="M20.41,17.316c-0.374-0.279-0.796-0.26-1.218-0.166c-0.077,0.017-0.134,0.133-0.165,0.167
			c-0.011,0.498,0.347,0.748,0.748,0.589c0.208-0.082,0.417-0.162,0.618-0.26C20.635,17.529,20.635,17.484,20.41,17.316z"/>
		<path fill="#C7C6C7" d="M27.189,17.1c-0.042-0.015-0.094-0.002-0.141-0.002c-0.008-0.021-0.014-0.043-0.021-0.063
			c-0.252,0.087-0.506,0.166-0.752,0.267c-0.078,0.032-0.131,0.122-0.196,0.186c0.067,0.058,0.127,0.132,0.205,0.168
			c0.225,0.104,0.461,0.185,0.684,0.292c0.2,0.097,0.369,0.035,0.465-0.122c0.098-0.162,0.169-0.364,0.166-0.548
			C27.599,17.215,27.336,17.154,27.189,17.1z"/>
	</g>
	<path fill="#010202" d="M35.164,23.525c-0.243,0-0.485-0.002-0.729,0c-0.189,0.002-0.382-0.009-0.568,0.019
		c-0.092,0.013-0.224,0.083-0.247,0.155c-0.023,0.075,0.036,0.218,0.106,0.273c0.192,0.154,0.394,0.324,0.62,0.406
		c0.734,0.266,1.264,0.783,1.766,1.342c0.127,0.142,0.249,0.287,0.359,0.44c0.051,0.071,0.068,0.165,0.102,0.249
		c-0.086,0.028-0.172,0.077-0.258,0.079c-0.309,0.009-0.616-0.003-0.924,0c-0.251,0.002-0.432,0.125-0.529,0.353
		c-0.159,0.369-0.313,0.74-0.464,1.113c-0.15,0.377-0.156,0.377-0.543,0.313c-0.175-0.029-0.359-0.053-0.529-0.021
		c-0.124,0.023-0.274,0.113-0.337,0.219c-0.341,0.564-0.657,1.145-0.966,1.738c0.084-0.088,0.17-0.176,0.253-0.266
		c0.238-0.264,0.471-0.535,0.716-0.793c0.467-0.49,0.522-0.488,1.032-0.033c0.249,0.223,0.272,0.219,0.429-0.076
		c0.283-0.533,0.572-1.064,0.848-1.604c0.107-0.207,0.22-0.252,0.414-0.105c0.575,0.434,1.086,0.92,1.428,1.564
		c0.149,0.281,0.119,0.26-0.122,0.447c-0.317,0.248-0.646,0.523-0.854,0.859c-0.379,0.611-0.731,1.254-0.988,1.924
		c-0.447,1.164-1.229,2.029-2.263,2.66c-1.426,0.869-2.534,2.096-3.763,3.191c-0.805,0.719-1.657,1.383-2.451,2.113
		c-0.828,0.76-1.656,1.531-2.396,2.375c-0.352,0.402-0.495,0.984-0.731,1.486c-0.025,0.053-0.027,0.117-0.057,0.168
		c-0.044,0.074-0.102,0.143-0.153,0.213c-0.055-0.07-0.128-0.131-0.16-0.211c-0.128-0.316-0.241-0.641-0.366-0.961
		c-0.26-0.666-0.819-1.09-1.28-1.598c-1.026-1.127-2.275-2.004-3.398-3.021c-0.598-0.543-1.21-1.07-1.77-1.648
		c-0.814-0.844-1.74-1.533-2.712-2.178c-0.947-0.629-1.712-1.418-2.113-2.518c-0.166-0.455-0.397-0.887-0.604-1.326
		c-0.262-0.557-0.658-1.01-1.101-1.428c-0.025-0.023-0.056-0.043-0.084-0.064c-0.105-0.078-0.273-0.139-0.299-0.236
		c-0.024-0.094,0.097-0.229,0.155-0.344c0.315-0.621,0.827-1.059,1.365-1.475c0.172-0.133,0.29-0.111,0.394,0.088
		c0.278,0.537,0.568,1.068,0.85,1.602c0.161,0.307,0.188,0.314,0.455,0.09c0.009-0.008,0.016-0.02,0.024-0.025
		c0.487-0.414,0.618-0.398,0.98,0.121c0.646,0.924,1.297,1.842,1.931,2.773c0.127,0.184,0.221,0.219,0.394,0.082
		c0.198-0.156,0.345-0.104,0.509,0.092c0.93,1.107,1.873,2.205,2.816,3.303c0.232,0.271,0.246,0.264,0.508,0.041
		c0.036-0.031,0.068-0.066,0.105-0.096c0.367-0.287,0.458-0.285,0.775,0.049c0.213,0.225,0.409,0.463,0.615,0.691
		c0.061,0.066,0.132,0.123,0.248,0.145c-0.374-0.539-0.742-1.084-1.127-1.613c-0.221-0.305-0.406-0.305-0.672-0.043
		c-0.291,0.289-0.28,0.279-0.563-0.043c-0.907-1.035-1.82-2.064-2.737-3.09c-0.289-0.324-0.319-0.322-0.66-0.064
		c-0.195,0.146-0.258-0.033-0.328-0.133c-0.386-0.555-0.77-1.111-1.138-1.676c-0.206-0.318-0.39-0.65-0.57-0.984
		c-0.199-0.365-0.406-0.477-0.806-0.404c-0.574,0.107-0.564,0.104-0.761-0.465c-0.104-0.301-0.252-0.586-0.375-0.881
		c-0.115-0.275-0.326-0.396-0.616-0.393c-0.296,0.002-0.592,0.011-0.888,0.007c-0.242-0.003-0.313-0.104-0.179-0.272
		c0.515-0.638,1.036-1.278,1.778-1.666c0.292-0.152,0.621-0.23,0.932-0.347c0.224-0.082,0.317-0.019,0.35,0.228
		c0.081,0.623,0.181,1.243,0.294,1.86c0.047,0.255,0.14,0.501,0.23,0.746c0.058,0.156,0.154,0.188,0.289,0.047
		c0.174-0.178,0.358-0.346,0.553-0.502c0.225-0.181,0.311-0.178,0.444,0.078c0.285,0.547,0.54,1.107,0.807,1.662
		c0.086,0.182,0.169,0.361,0.256,0.547c0.319-0.316,0.319-0.316,0.554,0.092c0.099,0.17,0.199,0.342,0.354,0.49
		c-0.118-0.357-0.227-0.717-0.363-1.066c-0.025-0.064-0.188-0.145-0.244-0.119c-0.303,0.129-0.377-0.082-0.459-0.281
		c-0.172-0.416-0.336-0.834-0.502-1.252c-0.009-0.023-0.018-0.045-0.027-0.066c-0.261-0.55-0.386-0.597-0.933-0.35
		c-0.043,0.02-0.087,0.037-0.129,0.059c-0.456,0.227-0.483,0.227-0.524-0.3c-0.041-0.521-0.036-1.044-0.041-1.566
		c-0.006-0.708-0.211-0.939-0.92-0.979c-0.367-0.021-0.737-0.006-1.104-0.012c-0.079-0.002-0.156-0.028-0.266-0.113
		c0.099-0.065,0.196-0.134,0.298-0.195c0.222-0.135,0.447-0.266,0.67-0.399c0.754-0.454,1.07-1.145,1.072-2.001
		c0-0.129,0.001-0.271-0.049-0.385c-0.239-0.547-0.571-1.031-1.005-1.442c-0.021,0.013-0.041,0.025-0.062,0.038
		c0.107,0.166,0.211,0.336,0.326,0.498c0.116,0.164,0.25,0.316,0.364,0.482c0.048,0.07,0.065,0.162,0.096,0.244
		c-0.087,0.026-0.175,0.072-0.263,0.075c-0.45,0.013-0.825-0.189-1.075-0.533c-0.263-0.359-0.505-0.754-0.652-1.17
		c-0.325-0.915-0.446-1.867-0.298-2.838c0.082-0.546,0.32-1.003,0.859-1.217c0.187-0.074,0.42-0.1,0.617-0.063
		c1.259,0.229,2.514,0.462,3.796,0.539c0.983,0.06,1.902-0.107,2.804-0.496c0.751-0.325,1.545-0.5,2.362-0.624
		c1.092-0.165,2.182-0.124,3.269-0.082c1.019,0.04,2.018,0.275,2.973,0.655c0.363,0.145,0.723,0.3,1.088,0.438
		c0.12,0.045,0.252,0.064,0.381,0.075c1.105,0.095,2.204,0.018,3.296-0.172c0.653-0.112,1.305-0.23,1.956-0.354
		c0.457-0.086,0.942,0.171,1.214,0.632c0.254,0.43,0.289,0.908,0.285,1.378c-0.008,0.883-0.148,1.751-0.519,2.563
		c-0.237,0.518-0.559,0.976-1.118,1.186c-0.172,0.064-0.371,0.077-0.557,0.075c-0.185-0.002-0.222-0.109-0.107-0.261
		c0.221-0.293,0.44-0.588,0.658-0.884c0.033-0.046,0.054-0.101,0.034-0.191c-0.109,0.111-0.24,0.208-0.322,0.337
		c-0.252,0.397-0.614,0.782-0.698,1.217c-0.146,0.754,0.028,1.5,0.686,2.018c0.305,0.24,0.648,0.433,0.976,0.645
		c0.106,0.068,0.217,0.131,0.325,0.195C35.181,23.436,35.173,23.48,35.164,23.525z M21.882,15.357
		c0.031-0.025,0.062-0.05,0.093-0.075c0.306,0.256,0.606,0.519,0.92,0.766c0.195,0.154,0.139,0.268-0.023,0.389
		c-0.237,0.178-0.483,0.345-0.706,0.539c-0.321,0.281-0.66,0.565-0.771,0.998c-0.377,1.455-0.964,2.854-1.188,4.349
		c-0.097,0.646-0.116,1.302,0.14,1.929c0.098,0.238,0.168,0.257,0.353,0.071c0.594-0.597,1.184-1.197,1.764-1.807
		c0.091-0.096,0.178-0.246,0.175-0.37c-0.01-0.413-0.062-0.826-0.097-1.24c-0.018-0.193-0.097-0.334-0.3-0.395
		c-0.216-0.064-0.434-0.132-0.634-0.231c-0.1-0.05-0.239-0.183-0.229-0.264c0.087-0.759,0.269-1.494,0.721-2.13
		c0.15-0.213,0.359-0.33,0.639-0.318c0.344,0.015,0.691,0.031,1.032-0.004c0.541-0.057,0.88,0.208,1.048,0.666
		c0.208,0.563,0.347,1.151,0.521,1.728c0.053,0.174-0.059,0.243-0.182,0.295c-0.207,0.088-0.416,0.176-0.633,0.234
		c-0.265,0.073-0.354,0.248-0.365,0.498c-0.016,0.32-0.011,0.646-0.066,0.959c-0.048,0.268,0.025,0.453,0.207,0.637
		c0.561,0.563,1.111,1.135,1.665,1.704c0.025,0.025,0.052,0.049,0.077,0.073c0.125,0.123,0.236,0.121,0.295-0.054
		c0.076-0.224,0.171-0.45,0.194-0.682c0.083-0.824-0.049-1.632-0.273-2.423c-0.251-0.888-0.553-1.764-0.774-2.659
		c-0.164-0.662-0.464-1.209-0.999-1.627c-0.215-0.168-0.431-0.334-0.644-0.504c-0.231-0.184-0.236-0.246-0.01-0.435
		c0.256-0.212,0.521-0.411,0.788-0.61c0.045-0.034,0.112-0.039,0.169-0.058c-0.067,0.203-0.178,0.353-0.287,0.503
		c-0.173,0.239-0.146,0.417,0.093,0.653c0.181,0.178,0.339,0.117,0.541,0.009c0.297-0.159,0.615-0.296,0.94-0.383
		c0.524-0.141,1.063-0.233,1.596-0.347c0.188-0.039,0.214-0.137,0.089-0.271c-0.072-0.076-0.154-0.163-0.249-0.196
		c-0.446-0.153-0.891-0.365-1.351-0.416c-0.776-0.086-1.563-0.069-2.346-0.089c-0.212-0.005-0.426,0.024-0.639,0.022
		c-0.628-0.004-1.26-0.054-1.886-0.011c-0.527,0.036-1.054,0.152-1.568,0.281c-0.255,0.063-0.5,0.213-0.716,0.37
		c-0.183,0.133-0.149,0.252,0.076,0.31c0.331,0.086,0.674,0.131,1.006,0.216c0.512,0.13,1.067,0.132,1.497,0.506
		c0.179,0.155,0.357,0.167,0.535-0.01c0.239-0.238,0.261-0.408,0.082-0.652C22.092,15.656,21.987,15.505,21.882,15.357z
		 M23.483,26.255c0.479-0.139,1.064-0.28,1.628-0.482c0.417-0.149,0.466-0.396,0.257-0.787c-0.29-0.548-0.709-0.976-1.218-1.315
		c-0.993-0.663-0.613-0.646-1.591-0.004c-0.533,0.35-0.961,0.804-1.255,1.376c-0.156,0.305-0.104,0.546,0.186,0.688
		C22.082,26.017,22.72,26.141,23.483,26.255z M19.027,17.317c-0.011,0.498,0.347,0.748,0.748,0.589
		c0.208-0.082,0.417-0.162,0.618-0.26c0.241-0.117,0.241-0.162,0.017-0.33c-0.374-0.279-0.796-0.26-1.218-0.166
		C19.115,17.167,19.059,17.283,19.027,17.317z M27.049,17.098c-0.008-0.021-0.015-0.043-0.021-0.063
		c-0.252,0.087-0.506,0.166-0.752,0.267c-0.078,0.032-0.131,0.122-0.196,0.186c0.067,0.058,0.127,0.132,0.205,0.168
		c0.225,0.104,0.461,0.185,0.684,0.292c0.2,0.098,0.369,0.035,0.465-0.122c0.098-0.162,0.169-0.364,0.166-0.548
		c-0.001-0.062-0.264-0.123-0.41-0.177C27.147,17.085,27.096,17.098,27.049,17.098z M12.609,15.414
		c-0.013,0.028-0.024,0.058-0.036,0.087c0.604,0.325,1.207,0.65,1.852,0.998C14.103,15.589,13.275,15.64,12.609,15.414z
		 M32.055,16.459c0.625-0.337,1.211-0.651,1.797-0.966C32.679,15.658,32.226,15.805,32.055,16.459z"/>
</g>
</svg>
