<svg xmlns="http://www.w3.org/2000/svg" width="113.39" height="113.39"><path fill="#EBC78F" d="M57.48 24.556c-.398.543-.772 1.04-1.132 1.548-1.316 1.861-2.626 3.728-3.943 5.588-1.332 1.882-2.67 3.76-4.007 5.639-1.854 2.606-3.713 5.209-5.563 7.818-2.46 3.469-4.911 6.943-7.369 10.413-.645.91-1.852 1.327-2.833.989-1.163-.4-1.897-1.444-1.825-2.628.038-.636.36-1.156.72-1.662 2.641-3.717 5.272-7.439 7.913-11.156 2.216-3.119 4.442-6.229 6.658-9.349 2.741-3.857 5.476-7.719 8.213-11.578.386-.544.761-1.096 1.155-1.633 1.006-1.37 3.139-1.341 4.177.141 2.098 2.989 4.209 5.97 6.321 8.949 1.411 1.989 2.838 3.967 4.248 5.956 2.525 3.563 5.04 7.133 7.565 10.695 1.966 2.773 3.938 5.543 5.913 8.312.788 1.104.561 2.737-.502 3.517-1.213.889-2.802.666-3.656-.53-.744-1.04-1.461-2.101-2.202-3.143-1.266-1.78-2.548-3.549-3.812-5.33-1.828-2.576-3.643-5.162-5.469-7.74-1.688-2.382-3.384-4.758-5.075-7.137-1.738-2.444-3.474-4.891-5.212-7.335-.075-.105-.163-.2-.283-.344z"/><path fill="#2B1C10" d="M74.781 45.209c-.355 0-.711-.003-1.066 0-.278.003-.56-.013-.833.027-.135.02-.327.121-.361.228-.034.11.053.319.155.4.282.227.576.476.909.596 1.074.389 1.851 1.146 2.586 1.966.186.206.364.42.526.646.074.104.1.241.148.364-.126.04-.251.112-.378.115-.45.013-.902-.004-1.354 0a.797.797 0 0 0-.775.518 80.033 80.033 0 0 0-.679 1.631c-.221.552-.229.552-.796.456-.255-.042-.526-.075-.774-.029-.182.033-.402.165-.494.319a45 45 0 0 0-1.415 2.548c.123-.131.249-.259.37-.392.35-.386.689-.783 1.049-1.16.684-.718.766-.716 1.512-.049.365.326.4.319.629-.111.415-.782.838-1.561 1.242-2.349.156-.304.321-.37.606-.154.842.634 1.59 1.347 2.091 2.29.22.413.175.382-.179.657-.465.362-.946.767-1.251 1.259-.555.896-1.07 1.836-1.447 2.817-.655 1.706-1.799 2.972-3.314 3.896-2.089 1.273-3.713 3.072-5.512 4.677-1.179 1.052-2.428 2.025-3.59 3.094-1.214 1.115-2.428 2.243-3.51 3.48-.515.588-.726 1.442-1.071 2.177-.036.078-.041.173-.084.246-.063.11-.148.209-.224.313-.08-.102-.188-.192-.234-.308-.188-.466-.354-.94-.537-1.409-.381-.976-1.2-1.598-1.875-2.339-1.504-1.653-3.332-2.938-4.979-4.429-.875-.793-1.771-1.565-2.592-2.413-1.193-1.235-2.55-2.247-3.973-3.191-1.388-.921-2.509-2.075-3.096-3.688-.243-.666-.582-1.299-.886-1.942-.384-.814-.965-1.479-1.612-2.09-.037-.035-.081-.064-.123-.096-.154-.113-.4-.202-.438-.346-.036-.139.142-.334.228-.503.462-.91 1.212-1.553 2-2.16.251-.194.425-.164.576.129.407.786.832 1.563 1.244 2.347.236.447.274.459.667.129.013-.011.023-.025.036-.037.713-.605.904-.581 1.436.18.945 1.353 1.9 2.698 2.829 4.062.185.271.323.319.576.121.29-.229.505-.151.745.135a526.208 526.208 0 0 0 4.125 4.837c.342.396.36.387.744.061.053-.046.101-.097.155-.14.538-.421.67-.419 1.136.071.312.328.599.678.901 1.013a.601.601 0 0 0 .363.211c-.549-.789-1.087-1.587-1.651-2.364-.323-.445-.595-.445-.983-.061-.427.421-.411.408-.826-.065a613.925 613.925 0 0 0-4.01-4.525c-.424-.474-.467-.47-.967-.095-.286.217-.377-.048-.48-.194a97.957 97.957 0 0 1-1.667-2.455 20.818 20.818 0 0 1-.836-1.44c-.291-.536-.595-.699-1.18-.592-.841.155-.826.149-1.114-.683-.152-.44-.369-.858-.55-1.289-.169-.403-.478-.58-.902-.577-.434.003-.867.017-1.301.011-.354-.005-.458-.153-.261-.399.754-.935 1.517-1.872 2.604-2.44.427-.224.909-.338 1.365-.507.327-.121.464-.027.512.333.119.912.265 1.821.431 2.726.068.372.204.735.337 1.092.085.229.226.274.424.069.254-.262.525-.509.81-.737.329-.265.455-.261.651.116.417.799.791 1.622 1.181 2.436.126.264.248.529.375.801.469-.464.468-.464.812.132.145.251.292.501.518.719-.173-.521-.331-1.05-.531-1.561-.037-.097-.274-.212-.358-.176-.443.188-.553-.12-.672-.411-.252-.609-.492-1.224-.736-1.836-.013-.032-.025-.064-.04-.096-.382-.806-.564-.875-1.365-.513-.063.028-.128.055-.189.086-.668.334-.708.333-.769-.439-.06-.762-.053-1.529-.06-2.295-.009-1.036-.309-1.376-1.348-1.434-.538-.029-1.079-.008-1.618-.018-.115-.002-.229-.041-.389-.165.145-.096.287-.195.437-.286.325-.197.654-.39.981-.586 1.104-.664 1.567-1.676 1.57-2.93 0-.189.002-.397-.071-.564a6.425 6.425 0 0 0-1.472-2.112l-.091.056c.159.243.31.492.478.729.171.24.367.464.534.707.07.103.096.237.141.357-.128.038-.256.105-.385.109a1.831 1.831 0 0 1-1.576-.78c-.384-.526-.738-1.105-.955-1.714-.477-1.34-.653-2.736-.437-4.158.121-.798.469-1.469 1.259-1.781.273-.108.615-.146.904-.094 1.844.336 3.682.678 5.561.791a8.794 8.794 0 0 0 4.107-.729c1.101-.476 2.264-.731 3.46-.913 1.6-.241 3.196-.182 4.788-.12 1.492.059 2.955.403 4.354.96.532.212 1.059.438 1.595.642.175.066.368.095.557.11 1.62.139 3.229.025 4.828-.251.957-.166 1.912-.338 2.866-.518.669-.126 1.381.25 1.778.925.371.629.423 1.33.417 2.019-.012 1.293-.218 2.564-.76 3.754-.347.759-.816 1.429-1.638 1.736-.252.094-.543.112-.815.109-.271-.003-.324-.16-.157-.381.323-.43.645-.861.964-1.295.049-.066.08-.146.05-.281-.159.164-.351.306-.47.494-.371.582-.901 1.146-1.024 1.783-.214 1.104.042 2.196 1.004 2.955.446.353.95.634 1.43.944.155.101.317.191.477.286l-.038.192zM55.324 33.244l.137-.11c.448.375.889.761 1.348 1.122.285.226.203.392-.034.569-.348.26-.709.505-1.035.79-.47.411-.967.827-1.13 1.462-.551 2.132-1.412 4.181-1.739 6.369-.142.946-.171 1.907.204 2.825.144.35.246.378.517.105.869-.875 1.733-1.754 2.584-2.646.134-.14.261-.361.256-.542-.015-.606-.09-1.211-.143-1.816-.025-.283-.141-.489-.438-.578-.315-.095-.635-.193-.928-.34-.146-.073-.351-.268-.337-.386.127-1.112.394-2.188 1.056-3.121.221-.312.526-.482.936-.466.504.021 1.014.047 1.513-.006.793-.083 1.288.306 1.535.976.305.824.508 1.687.762 2.53.077.256-.086.356-.266.433-.304.128-.609.258-.927.344-.388.106-.519.363-.536.729-.021.47-.015.945-.097 1.404-.07.393.037.664.304.933.821.825 1.627 1.663 2.438 2.496.037.038.076.071.113.108.184.18.346.178.434-.08.11-.327.25-.658.283-.998.122-1.207-.072-2.39-.4-3.548-.368-1.302-.81-2.585-1.135-3.896-.24-.97-.68-1.771-1.464-2.383-.314-.246-.63-.49-.942-.738-.338-.269-.347-.361-.014-.637.375-.31.764-.603 1.153-.895.066-.05.165-.058.248-.084-.099.298-.261.517-.42.736-.254.351-.215.611.136.958.264.261.496.171.792.012a6.622 6.622 0 0 1 1.378-.561c.769-.206 1.557-.342 2.337-.507.274-.059.313-.201.13-.396-.105-.112-.226-.24-.364-.287-.653-.226-1.304-.536-1.979-.61-1.137-.126-2.29-.103-3.437-.13-.311-.008-.623.035-.935.033-.921-.006-1.846-.079-2.763-.016-.771.053-1.544.222-2.298.411-.373.094-.731.313-1.048.542-.269.195-.219.369.111.454.485.126.987.192 1.474.315.749.19 1.563.193 2.192.741.263.228.524.244.784-.015.351-.349.382-.598.12-.954-.158-.213-.311-.433-.466-.651zm2.347 15.965c.7-.203 1.559-.411 2.385-.707.61-.219.682-.58.378-1.153-.427-.802-1.039-1.429-1.786-1.927-1.455-.971-.897-.946-2.33-.005-.78.513-1.407 1.177-1.838 2.015-.229.447-.153.801.271 1.007.867.421 1.802.603 2.92.77zm-6.526-13.094c-.017.73.507 1.097 1.095.863.305-.121.612-.238.905-.382.354-.171.354-.236.024-.482-.548-.41-1.165-.381-1.783-.244-.115.026-.197.195-.241.245zm11.75-.32c-.012-.031-.021-.063-.031-.094-.368.128-.741.244-1.101.392-.114.047-.192.179-.288.272.1.083.187.191.301.244.328.153.675.271 1.001.429.293.143.541.052.682-.18.144-.236.247-.533.242-.801-.002-.092-.386-.181-.601-.26-.061-.022-.137-.002-.205-.002zm-21.153-2.468l-.054.127 2.713 1.463c-.471-1.332-1.684-1.258-2.659-1.59zm28.485 1.531l2.632-1.414c-1.718.242-2.382.457-2.632 1.414z"/><path fill="#EBC78F" d="M55.324 33.244c.155.218.308.438.467.653.262.356.23.605-.12.954-.26.259-.521.242-.784.015-.63-.548-1.443-.551-2.192-.741-.486-.123-.988-.189-1.474-.315-.33-.085-.38-.259-.111-.454.316-.229.675-.448 1.048-.542.754-.189 1.526-.358 2.298-.411.917-.063 1.842.01 2.763.016.312.002.624-.041.935-.033 1.146.027 2.3.004 3.437.13.675.074 1.325.385 1.979.61.139.047.259.175.364.287.184.195.145.338-.13.396-.78.165-1.568.301-2.337.507a6.568 6.568 0 0 0-1.378.561c-.296.159-.528.249-.792-.012-.351-.347-.39-.607-.136-.958.159-.22.321-.438.42-.736-.083.026-.182.034-.248.084-.39.292-.778.585-1.153.895-.333.275-.324.368.014.637.313.248.628.492.942.738.784.612 1.224 1.413 1.464 2.383.325 1.312.767 2.595 1.135 3.896.328 1.158.522 2.341.4 3.548-.033.34-.173.671-.283.998-.088.258-.25.26-.434.08-.037-.037-.076-.07-.113-.108-.812-.833-1.617-1.671-2.438-2.496-.267-.269-.374-.54-.304-.933.082-.459.075-.935.097-1.404.018-.366.148-.623.536-.729.317-.086.623-.216.927-.344.18-.076.343-.177.266-.433-.254-.844-.457-1.706-.762-2.53-.247-.67-.742-1.059-1.535-.976-.499.053-1.009.027-1.513.006a1.034 1.034 0 0 0-.936.466c-.662.933-.929 2.009-1.056 3.121-.014.118.19.313.337.386.293.146.612.245.928.34.298.089.413.295.438.578.053.605.128 1.21.143 1.816.005.181-.122.402-.256.542a179.13 179.13 0 0 1-2.584 2.646c-.271.272-.373.244-.517-.105-.375-.918-.346-1.879-.204-2.825.327-2.188 1.188-4.237 1.739-6.369.163-.635.66-1.051 1.13-1.462.326-.285.688-.53 1.035-.79.237-.178.319-.344.034-.569-.459-.361-.899-.747-1.348-1.122a4.672 4.672 0 0 0-.138.108z"/><path fill="#EBC78F" d="M57.671 49.209c-1.118-.167-2.053-.349-2.92-.771-.425-.206-.501-.56-.271-1.007.431-.838 1.058-1.502 1.838-2.015 1.433-.941.875-.966 2.33.005.747.498 1.359 1.125 1.786 1.927.304.573.232.935-.378 1.153-.827.297-1.685.505-2.385.708zm-6.526-13.094c.045-.05.127-.22.241-.245.618-.137 1.235-.166 1.783.244.329.246.329.312-.024.482-.293.144-.601.261-.905.382-.589.234-1.112-.132-1.095-.863zm11.75-.32c.068 0 .145-.02.205.003.215.079.599.168.601.26.005.268-.099.564-.242.801-.141.231-.389.322-.682.18-.326-.158-.673-.275-1.001-.429-.114-.053-.201-.161-.301-.244.096-.094.174-.226.288-.272.359-.147.732-.264 1.101-.392.009.03.019.062.031.093zm-21.153-2.468c.975.332 2.188.258 2.659 1.59l-2.713-1.463.054-.127zm28.485 1.531c.25-.957.914-1.173 2.632-1.414l-2.632 1.414zM20.854 71.292a1.861 1.861 0 0 1 1.12-.214c.392.048.765.107 1.12.178.403.119.818.19 1.245.214s.841.095 1.244.213a3.38 3.38 0 0 1 .303-.267.814.814 0 0 1 .338-.16 3.47 3.47 0 0 1 .782.019c.261.035.521.077.782.124.165.024.332.036.498.036.165 0 .319.047.462.142.189.071.373.148.552.231.178.083.373.137.586.16a.987.987 0 0 1 .729.142c.225.143.456.273.693.392.023.119.041.231.054.338.012.106.041.22.089.338a.843.843 0 0 1 .516.391c.106.19.184.38.23.569.119.521.226 1.037.32 1.547.095.511.143 1.038.143 1.583.047.261.023.498-.071.711a.86.86 0 0 0-.035.641c.118.521.13 1.037.035 1.547s-.237 1.001-.427 1.476c-.048.119-.124.178-.231.178a.904.904 0 0 0-.338.071c.023-.166.083-.332.178-.498-.189.119-.326.314-.408.587a.616.616 0 0 0 .195.693.939.939 0 0 1 .249.178c-.143.284-.243.599-.303.942s.029.646.267.907a.634.634 0 0 1 .179.338c.022.13.059.267.106.408.047.071.106.119.178.143s.143.06.213.106c-.095.403-.083.782.036 1.138.118.356.201.724.249 1.103.023.285.053.575.089.872.035.296-.007.586-.125.871h.178c-.166.64-.261 1.298-.284 1.974s-.06 1.357-.106 2.045c-.143.379-.285.765-.427 1.155a2.084 2.084 0 0 1-.747.979c-.19.166-.38.319-.569.462s-.379.272-.568.392a.671.671 0 0 0 .053-.178.544.544 0 0 1 .089-.214 1.578 1.578 0 0 1-1.138.693c-.475.06-.925.125-1.352.195a3.023 3.023 0 0 1-1.582.285 19.26 19.26 0 0 0-1.653-.071 19.815 19.815 0 0 0-1.689 0 3.352 3.352 0 0 1-1.654-.355.543.543 0 0 1-.267-.214 1.978 1.978 0 0 1-.16-.319c-.07.023-.189.035-.355.035a2.398 2.398 0 0 1-.106-.907 4.17 4.17 0 0 1 .178-.906 3.223 3.223 0 0 1-.053-.747 3.348 3.348 0 0 0-.054-.747c-.095-.355-.089-.705.018-1.049s.125-.682.054-1.014a1.156 1.156 0 0 1 .106-.747c.118-.236.154-.485.106-.746a1.337 1.337 0 0 0-.142-.48 2.572 2.572 0 0 1-.179-.409c.048-.023.095-.035.143-.035s.095-.012.143-.035a2.203 2.203 0 0 1-.285-.249.701.701 0 0 0 .249-.214.859.859 0 0 0-.142-.213.392.392 0 0 0-.125.018c-.035.012-.077.03-.124.053-.024-.331-.048-.675-.071-1.031a5.357 5.357 0 0 1 .035-1.066c.023-.214.095-.409.214-.587a.73.73 0 0 0 .106-.587c-.143-.236-.213-.521-.213-.854 0-.972-.007-1.938-.019-2.898a46.82 46.82 0 0 1 .054-2.897c.095-.546.13-1.085.106-1.618a39.423 39.423 0 0 0-.106-1.618 4.72 4.72 0 0 1 .143-2.312.64.64 0 0 1 .213-.285.45.45 0 0 0 .178-.284 6.12 6.12 0 0 1-.142-.392c-.051-.147-.016-.277.104-.396zm2.062 21.835c.143.095.278.19.409.284.13.096.29.166.479.214.119 0 .249-.018.392-.054a5.28 5.28 0 0 0 .427-.124.1.1 0 0 1-.035-.071.288.288 0 0 0-.036-.106 28.74 28.74 0 0 1-.622-.355 6.243 6.243 0 0 1-.587-.392 3.551 3.551 0 0 1-.214.32l-.213.284zm.711-3.13c-.048.19-.023.368.071.534s.201.308.32.427c.143-.119.29-.148.444-.089s.29.124.409.195c-.119-.261-.262-.45-.427-.569a.896.896 0 0 1-.267-.338 1.855 1.855 0 0 0-.231-.373.464.464 0 0 0-.213.054c-.07.035-.106.089-.106.159zm2.027-14.651c-.143.262-.22.528-.231.801s-.029.551-.053.835a39.043 39.043 0 0 1-.107 3.699.971.971 0 0 0-.302.053.375.375 0 0 0-.231.231.744.744 0 0 0-.106.587c.047.201.095.397.143.587h.391c.143 0 .284.012.427.035a.647.647 0 0 0 .303-.143c.082-.07.16-.13.23-.178.119 0 .237.019.356.054.118.035.236.03.355-.018.213-.143.414-.285.604-.427.189-.143.331-.344.427-.604.071-.166.112-.332.124-.498s.018-.344.018-.533a7.593 7.593 0 0 1 0-1.477 4.919 4.919 0 0 0-.07-1.439 2.38 2.38 0 0 1-.089-.516.678.678 0 0 0-.196-.445 1.43 1.43 0 0 0-.942-.479 22.917 22.917 0 0 1-1.051-.125zm.534 10.775a.83.83 0 0 0-.587.392c-.13.213-.195.438-.195.676.071.427.065.848-.018 1.262a4.987 4.987 0 0 0-.089 1.263c.047.332.047.67 0 1.014a3.588 3.588 0 0 0 0 1.014l-.071.551c-.023.178 0 .362.071.552.047.118.101.243.16.373.059.131.16.22.302.267.308.048.599.084.871.106.272.024.563.024.872 0 .165-.26.296-.527.391-.8s.189-.551.284-.836c.166.119.326.16.48.125a.838.838 0 0 0 .409-.231 2.289 2.289 0 0 1-.106-.32.713.713 0 0 1 0-.319c.07-.214.101-.45.089-.712a.73.73 0 0 0-.338-.604c-.096.19-.173.374-.231.552a.794.794 0 0 0 .018.551h-.32a6.236 6.236 0 0 1-.07-.942v-.942c.047-.047.112-.083.195-.106s.147-.071.195-.143a1.605 1.605 0 0 0-.23-.516.879.879 0 0 1-.16-.516c0-.261-.054-.51-.16-.747l-.303-.675a1.016 1.016 0 0 0-.693-.356 1.953 1.953 0 0 0-.766.067zm-.569-3.378a.571.571 0 0 1-.019.142.59.59 0 0 0-.018.143c.048-.047.106-.095.178-.143.071-.047.13-.094.178-.142h-.319zm1.849 2.667c.023.071.041.137.054.195.012.06.029.125.053.195.095-.047.201-.082.32-.106.118-.023.226-.059.32-.106-.262-.214-.51-.273-.747-.178zm.818-10.348c0 .048-.007.119-.018.213a1.882 1.882 0 0 0-.019.249l.214-.106c.236.403.379.83.427 1.28.047.451.201.878.462 1.28 0-.118.012-.189.036-.213a2.866 2.866 0 0 1 .427.355l-.143-.355-.143-.356c.095.048.172.084.231.107a3.6 3.6 0 0 1 .231.106.313.313 0 0 0-.089.143.328.328 0 0 1-.089.142c.355-.118.651-.236.889-.355a2.663 2.663 0 0 1-.142-.889c-.213.118-.444.16-.693.124-.249-.035-.421-.184-.516-.444.048 0 .166.023.355.071.048-.166.095-.272.143-.32a1.113 1.113 0 0 1-.32.071 2.787 2.787 0 0 0-1.243-1.103zm.249 13.834c0 .379.035.723.106 1.031a.81.81 0 0 0 .178-.534.555.555 0 0 0-.284-.497zm1.387-10.669c.071.095.153.237.249.427.047-.236.118-.45.213-.641a2.988 2.988 0 0 1-.23.107c-.06.024-.137.06-.232.107zm.391-2.953a.875.875 0 0 1-.053.463c-.06.143-.113.284-.16.427a.77.77 0 0 0 .231.106c.082.024.159.06.23.106v-.568c0-.189-.023-.379-.071-.569a.42.42 0 0 0-.177.035zm-.107-1.884a3.42 3.42 0 0 0-.018.604c.012.214.076.416.195.605.166-.189.355-.22.569-.089.213.13.391.255.533.373a.297.297 0 0 1 .125-.036.283.283 0 0 0 .124-.035c-.023-.189-.048-.373-.071-.551s-.106-.326-.249-.445a.777.777 0 0 0-.568-.319 4.326 4.326 0 0 1-.64-.107zm.32 4.872c-.071 0-.113.036-.125.107-.012.07.019.106.089.106.048 0 .077-.036.09-.106.011-.071-.007-.107-.054-.107zm0 1.209c.047.237.095.416.143.534.07-.048.142-.077.213-.089s.13-.029.178-.054a.908.908 0 0 0-.249-.231 3.714 3.714 0 0 0-.285-.16zm.427-2.063c-.095.024-.131.077-.106.16.023.084.07.113.142.089.071-.023.095-.071.071-.142-.024-.071-.06-.107-.107-.107zm.107-4.515c-.048 0-.071.029-.071.089s.023.089.071.089.077-.029.089-.089-.018-.089-.089-.089zm.071 6.827c.047.143.076.285.089.427.012.143.041.297.089.463a.326.326 0 0 1 .143-.036.327.327 0 0 0 .142-.035v-.462c0-.166.012-.32.036-.463-.096.024-.178.042-.249.054s-.155.028-.25.052zm.106 10.989a1.884 1.884 0 0 0-.053.195c-.013.06-.03.125-.054.195a.544.544 0 0 0 .143-.018.47.47 0 0 1 .106-.018c0-.118.035-.249.106-.392a.65.65 0 0 0-.248.038zm.321.711c-.071.024-.102.077-.089.16.012.083.054.102.124.054.071-.023.107-.077.107-.16s-.048-.101-.142-.054zm.249-1.066c0 .023-.006.041-.018.053-.013.013-.019.03-.019.054 0 .071.019.101.054.089s.065-.035.089-.071c.023-.035.029-.064.018-.089-.012-.025-.053-.036-.124-.036zm0-2.17c.023.19.059.386.106.587a.635.635 0 0 0 .355.444c0-.261-.012-.45-.035-.568a.288.288 0 0 0-.16-.267 1.231 1.231 0 0 1-.266-.196zm3.379-16.749c.047-.189.165-.29.355-.303.189-.012.355-.006.498.018.213.048.42.106.622.178.201.071.396.143.587.214a2.652 2.652 0 0 0-.036.498c0-.071.012-.131.036-.178a.55.55 0 0 1 .106-.143c.071.143.154.279.249.409s.213.23.355.302a.998.998 0 0 1 .32-.409 4.93 4.93 0 0 1 .391-.267 4.53 4.53 0 0 0-.302.071 7.19 7.19 0 0 1-.267.071 3.663 3.663 0 0 1-.285-.32 1.376 1.376 0 0 1-.213-.355.787.787 0 0 1 .498.018c.142.06.278.143.408.249.131.106.249.231.356.374.106.142.219.261.338.355a.814.814 0 0 0-.019-.16.807.807 0 0 1-.018-.16c.048.023.077.042.089.054s.041.029.089.053c-.048.332.018.641.196.925.178.284.29.593.337.925.048.379.054.753.019 1.12-.036.368-.054.741-.054 1.12a8.3 8.3 0 0 0-.054 1.209c.012.403.019.807.019 1.209 0 .333-.024.641-.071.925a9.326 9.326 0 0 0-.106.889c0 .309.022.611.07.907.048.297.071.587.071.871.023.403 0 .789-.071 1.156a3.56 3.56 0 0 0-.035 1.12c0 .213.029.433.089.658.059.226.065.456.018.693a9.8 9.8 0 0 0 .036 1.866c.07.629.023 1.239-.143 1.832.047.355.106.711.178 1.066s.083.712.035 1.067a4.778 4.778 0 0 0-.053 1.688 4.572 4.572 0 0 1-.054 1.654 8 8 0 0 0-.089.906 7.95 7.95 0 0 1-.089.907c-.284.498-.699.711-1.244.64-.38-.047-.741-.059-1.085-.035s-.693 0-1.049-.071a13.682 13.682 0 0 1-.693-.516 2.585 2.585 0 0 1-.587-.657 4.049 4.049 0 0 1-.107-1.191 20.8 20.8 0 0 1 .107-1.191 3.9 3.9 0 0 0-.054-.979 3.841 3.841 0 0 1-.054-.978c0-.261-.012-.51-.035-.747a3.672 3.672 0 0 1 0-.711c.047-.475.054-.96.018-1.458a8.628 8.628 0 0 1 .018-1.458 6.953 6.953 0 0 0 0-.979 27.36 27.36 0 0 1-.071-1.957c0-.319.047-.646.142-.978a1.23 1.23 0 0 0 .071-.711 1.778 1.778 0 0 1 0-.712c.071-.379.077-.734.018-1.066s-.137-.663-.23-.996v-.8c0-.273.118-.504.355-.693a.625.625 0 0 0-.249-.036c.095-.094.172-.183.231-.267.059-.082.124-.16.195-.23a.74.74 0 0 0-.178.018.74.74 0 0 1-.178.018c-.024-.284 0-.563.071-.836.07-.272.082-.539.035-.8a21.352 21.352 0 0 0-.124-1.529 4.585 4.585 0 0 1 .053-1.458c.047-.332.071-.658.071-.978.004-.318.051-.633.147-.94zm-.037 19.594c-.071.023-.089.065-.053.124.035.06.076.077.124.054.071-.023.089-.071.054-.143-.036-.071-.077-.083-.125-.035zm.072-8.5c-.071 0-.112.042-.124.125-.013.083.029.124.124.124.071 0 .112-.041.124-.124s-.03-.125-.124-.125zm.177 7.682c-.071 0-.112.03-.124.089-.013.06.018.089.089.089s.106-.029.106-.089c.001-.059-.024-.089-.071-.089zm0 4.409v.427c.047-.094.089-.171.125-.23a4.9 4.9 0 0 0 .124-.231.627.627 0 0 1-.249.034zm.356-2.631c-.048.166-.083.338-.106.516s-.023.35 0 .516a.63.63 0 0 0 .143.302c.071.084.142.16.213.231a18.66 18.66 0 0 1-.053-.782 2.152 2.152 0 0 0-.197-.783zm.534 4.765c-.071 0-.107.03-.107.089 0 .06.036.09.107.09.047 0 .07-.03.07-.09 0-.059-.023-.089-.07-.089zm.853-1.528a.823.823 0 0 0-.142.284.622.622 0 0 0 .284-.071v-.178c-.071 0-.119-.012-.142-.035zm-.036 1.421c-.023.119.012.166.106.143.072-.143.037-.189-.106-.143zm.249-4.302c.047.237.059.469.035.693-.023.226-.048.457-.07.693.094-.071.183-.143.267-.213a.73.73 0 0 0 .195-.285c.023-.165.059-.338.106-.516s.012-.338-.106-.479a.645.645 0 0 0-.231.035 2.86 2.86 0 0 1-.196.072zm.57 3.876c-.071.024-.102.071-.089.143.012.071.053.095.124.071.047-.023.065-.071.054-.143-.013-.071-.042-.095-.089-.071zm.995-4.979a2.945 2.945 0 0 0 .178 1.85c.095-.309.166-.646.214-1.014.046-.367-.084-.645-.392-.836zm-.071 3.486c.189.048.32.083.392.106 0-.095.023-.189.071-.284-.071.048-.148.077-.231.089s-.161.041-.232.089zm3.982-23.33a8.607 8.607 0 0 0 1.209-.231 2.332 2.332 0 0 1 1.245.019c.236.07.42.195.551.373.13.178.243.373.338.587-.095.284-.089.563.018.836s.219.539.338.8c.071.19.101.373.089.551a2.189 2.189 0 0 1-.106.534c-.06.178-.106.355-.143.533-.035.178-.029.361.019.551.047.143.118.279.213.409.095.131.189.255.284.373-.095.167-.184.345-.267.534s-.077.379.018.568c.023.19.071.362.143.516.071.155.154.309.249.463s.172.314.231.479c.059.167.076.345.053.534a5.032 5.032 0 0 0 .071 1.884h-.355a.933.933 0 0 1-.355-.071c-.119-.048-.22-.106-.303-.178s-.172-.143-.267-.214c0 .262.036.504.106.729.071.226.143.468.214.729.095.237.16.469.195.693.036.226.112.457.231.693.189.19.414.333.676.427a.97.97 0 0 1 .568.534c.119.118.231.249.338.391a.524.524 0 0 0 .445.214c-.048.048-.084.112-.107.195s-.06.148-.106.195c.118-.07.231-.142.338-.213s.195-.166.267-.284c.095-.309.16-.623.195-.942.036-.32.071-.646.107-.979.035-.332.094-.651.178-.96.083-.308.23-.604.444-.89.023-.07.083-.178.178-.319.143.071.308.106.498.106a.865.865 0 0 1-.089-.284.487.487 0 0 1 .053-.285c.071-.189.112-.396.125-.622a3.986 3.986 0 0 0-.018-.658l-.214.214a.939.939 0 0 0-.178.249c-.023-.118-.042-.226-.054-.32s-.041-.201-.089-.32a.858.858 0 0 0 .143-.089c.047-.035.095-.076.143-.124a.623.623 0 0 0-.249.035c.095-.331.165-.663.213-.995l.143-.996c.118-.521.207-1.037.267-1.547.059-.51.147-1.025.267-1.547.048-.332.143-.652.285-.96a3.47 3.47 0 0 0 .284-.961.673.673 0 0 1 .143-.533c.118-.143.26-.284.427-.427a1.066 1.066 0 0 0-.036.32c.118-.118.243-.214.374-.284.13-.071.278-.071.444 0a.62.62 0 0 0 .498.07c.165-.047.331-.101.497-.159.166-.06.332-.107.498-.143a.685.685 0 0 1 .498.089c.332.023.628.124.889.302.261.179.427.422.498.729.118.261.112.498-.018.711a1.572 1.572 0 0 0-.231.676l-.213 1.813c-.071.356-.16.706-.267 1.05a6.368 6.368 0 0 0-.231 1.013c-.048.38-.131.747-.249 1.103-.119.355-.19.724-.213 1.103a27.563 27.563 0 0 1-.338 1.689 11.66 11.66 0 0 0-.268 1.725 7.26 7.26 0 0 1-.267 1.369c-.13.439-.255.884-.373 1.334a.148.148 0 0 0 .071-.019.166.166 0 0 1 .071-.018 1.876 1.876 0 0 0-.338 1.031c-.013.38-.065.735-.16 1.067-.095.475-.184.931-.267 1.369-.084.438-.185.895-.303 1.369a2.337 2.337 0 0 1-.23.568.828.828 0 0 0-.09.604c.048.451-.012.872-.178 1.263a7.434 7.434 0 0 0-.391 1.191 4.87 4.87 0 0 1-.587 1.28c-.249.38-.504.771-.765 1.174l.214-.143.213-.142c-.119.261-.309.45-.569.568s-.51.237-.746.355c-.498.143-1.002.16-1.512.054s-1.014-.184-1.512-.231c0-.427-.189-.711-.568-.854a1.665 1.665 0 0 0-.196-.925 2.707 2.707 0 0 1-.302-.889 3.033 3.033 0 0 1-.125-.729 2.26 2.26 0 0 0-.159-.729 11.792 11.792 0 0 1-.676-2.703 26.743 26.743 0 0 0-.498-2.738c-.19-.616-.32-1.227-.392-1.831s-.189-1.215-.355-1.831a11.747 11.747 0 0 0-.089-.641 1.149 1.149 0 0 1 .054-.604c.071-.071.16-.112.267-.124s.195-.041.267-.089a.387.387 0 0 1-.106-.071.43.43 0 0 0-.107-.071 2.14 2.14 0 0 1-.568.249c.071-.143.16-.255.267-.338s.219-.172.338-.267c0 .048.006.101.018.16s.018.112.018.16c.095-.403.012-.783-.249-1.139a1.386 1.386 0 0 0-.23-.053 1.815 1.815 0 0 1-.249-.054.37.37 0 0 1-.196-.124c-.047-.06-.059-.148-.035-.268a6.557 6.557 0 0 0-.249-1.173 3.899 3.899 0 0 1-.178-1.174 3.873 3.873 0 0 0-.249-.889 1.62 1.62 0 0 1-.106-.89 1.297 1.297 0 0 0-.125-.693c-.106-.225-.065-.433.125-.622a.297.297 0 0 1-.125.035.297.297 0 0 0-.124.036c-.023-.189-.023-.386 0-.587s-.013-.396-.106-.587a1.778 1.778 0 0 1-.214-.427l-.142-.427a7.19 7.19 0 0 0 .267-.071 1.13 1.13 0 0 0 .195-.071.577.577 0 0 0-.249-.07 3.707 3.707 0 0 0-.213-.694.79.79 0 0 1 .035-.693c.118-.261.308-.391.569-.391.256.007.493.019.707.042zm-.96 2.169c-.048.048-.071.084-.071.107.047.119.101.124.16.018s.029-.147-.089-.125zm.107-1.137c.236-.118.427-.32.569-.604-.309.118-.498.32-.569.604zm.355 3.805c.071 0 .166-.006.284-.019.119-.011.214-.018.285-.018 0-.047-.013-.094-.036-.142s-.035-.095-.035-.143a2.072 2.072 0 0 0-.267.16c-.084.062-.16.115-.231.162zm.392.32c-.048.048-.054.089-.019.125.036.035.077.03.125-.018.047-.048.047-.095 0-.143-.048-.046-.083-.035-.106.036zm.888.177c.118.498.35.938.693 1.316s.705.735 1.085 1.066a1.22 1.22 0 0 1-.071-.391c.047-.023.089-.041.124-.054a.347.347 0 0 0 .125-.089c.023.095.059.262.106.498.048-.023.089-.047.125-.071.035-.023.076-.047.124-.071a.804.804 0 0 1-.035-.249 5.601 5.601 0 0 0-.641-.338 1.11 1.11 0 0 1-.533-.479 2.324 2.324 0 0 1-.462-.658c-.118-.248-.332-.408-.64-.48zm1.779 2.597c-.048.071-.03.124.053.16.083.035.137.029.16-.019.048-.07.036-.13-.035-.178-.072-.046-.131-.034-.178.037zm.39.605c-.095.023-.137.083-.124.178.012.095.065.119.16.071.071-.023.101-.071.089-.143-.012-.071-.053-.106-.125-.106zm.392-2.739c-.048.048-.054.101-.018.16.035.06.076.065.124.018s.054-.101.018-.16c-.035-.059-.077-.065-.124-.018zm.249 1.707c-.048 0-.077.035-.089.106-.013.071.018.106.089.106.047 0 .071-.035.071-.106s-.024-.106-.071-.106zm0 2.134v.142c.118.048.219.102.302.16.083.06.172.113.268.16a.93.93 0 0 0 .089-.267.872.872 0 0 1 .089-.267c-.143 0-.273.006-.392.018-.12.013-.238.031-.356.054zm4.09.96l-.036.071c.023.142.071.16.143.053.07-.106.034-.147-.107-.124zm.782-3.592c-.048.048-.054.089-.018.124.035.036.076.03.124-.018.047-.047.047-.089 0-.124s-.083-.029-.106.018zm.925-5.227c-.119.166-.185.35-.196.551a3.15 3.15 0 0 1-.089.587c.119.048.243.084.374.106.13.024.254.06.373.107.118-.166.243-.338.373-.516.131-.178.255-.361.374-.552 0 .071-.006.16-.018.267a2.271 2.271 0 0 0-.019.267 3.95 3.95 0 0 1 .392-.319c.047.095.118.201.213.319.095.119.214.155.356.107.118-.023.195-.077.23-.16.036-.083.077-.16.125-.231.094-.213.195-.421.302-.622.107-.201.112-.421.018-.658a5.491 5.491 0 0 0-.516.089c-.154.036-.326.03-.516-.018a1.497 1.497 0 0 0-.96.106c-.307.143-.58.333-.816.57zm0 12.446c-.048.143 0 .178.142.107.071-.119.023-.154-.142-.107zm1.066-11.06c.047-.095.112-.184.195-.267l.231-.231-.231.231a1.03 1.03 0 0 0-.195.267zm.214 1.992c.118-.07.242-.13.373-.178a.43.43 0 0 0 .267-.249c-.143-.094-.302-.094-.48 0-.179.096-.231.237-.16.427zm.889-.32c-.119.166-.172.338-.16.516s-.006.35-.053.516c.165.023.331.083.497.178.189-.261.278-.539.267-.836a1.672 1.672 0 0 0-.23-.8 1.454 1.454 0 0 0-.16.195c-.061.083-.114.16-.161.231zm10.491-5.192a67.39 67.39 0 0 1 1.423-.054c.474-.012.936.042 1.387.16.213.048.444.102.693.16.249.06.421.208.516.444.047.119.13.249.249.392.095-.023.261-.059.498-.106 0 .118.005.219.018.302a.855.855 0 0 0 .089.267c.355.498.747.96 1.174 1.387.07.262.165.522.284.783l.355.782c.047.189.047.373 0 .551a2.11 2.11 0 0 0-.071.552.524.524 0 0 0 .178.249c.071.047.143.106.214.178-.048.07-.095.154-.143.249.048.189.089.361.125.516.035.154.076.314.124.479a.417.417 0 0 1-.018.355c-.06.119-.102.237-.125.355a3.903 3.903 0 0 0 .054 1.618c.13.534.219 1.073.267 1.618.023.333-.03.658-.16.979-.13.319-.137.646-.018.978.118.355.154.711.106 1.067a7.953 7.953 0 0 0-.071 1.066.633.633 0 0 1-.159.054.614.614 0 0 0-.16.053c.023-.118.041-.236.053-.355a.57.57 0 0 0-.089-.355 5.21 5.21 0 0 0-.035 1.066c.023.356.095.7.213 1.032.095.545.131 1.097.107 1.653a38.433 38.433 0 0 0-.036 1.653 11.042 11.042 0 0 1-.462 2.667 8.29 8.29 0 0 1-.729 1.139 22.66 22.66 0 0 1-.871 1.066c-.119.143-.261.255-.427.338s-.32.172-.462.267c-.19.119-.386.231-.587.338-.202.106-.421.16-.658.16-.189-.023-.361-.029-.516-.018s-.314.006-.479-.018a7.119 7.119 0 0 0-.249.355 16.825 16.825 0 0 1-.89-.249.325.325 0 0 1-.16.089.304.304 0 0 0-.159.089.558.558 0 0 1-.214-.143c-.023.048-.035.077-.035.089s-.013.041-.036.089c-.403.048-.776 0-1.12-.142a11.39 11.39 0 0 0-1.12-.392 1.981 1.981 0 0 1-.498-.267 3.435 3.435 0 0 0-.498-.303 2.452 2.452 0 0 1-.924-.782c-.167-.261-.374-.468-.623-.622s-.421-.396-.516-.729a.879.879 0 0 1 .231-.498c.13-.143.255-.272.373-.392a.334.334 0 0 0-.142-.089.308.308 0 0 1-.143-.089l-.213.284-.214.285a3.661 3.661 0 0 1-.284-1.174 3.39 3.39 0 0 1 .391-.569c0 .096.012.178.036.249.047-.023.094-.041.142-.053s.095-.03.143-.054a.632.632 0 0 1-.124-.178 2.157 2.157 0 0 0-.125-.214c.118-.047.255-.094.409-.142s.172-.178.054-.392a.965.965 0 0 0-.268-.338 5.056 5.056 0 0 0-.355-.249 4.064 4.064 0 0 1-.355-.249.687.687 0 0 1-.231-.338 1.158 1.158 0 0 1-.053-.604c.035-.213.041-.414.018-.604-.023-.521-.042-1.043-.054-1.564s.065-1.031.231-1.529c.071-.189.077-.379.018-.568s-.112-.38-.16-.569a1.413 1.413 0 0 1 .036-.711c.071-.214.118-.438.142-.676-.047-.45-.083-.895-.106-1.334-.023-.438-.048-.859-.071-1.263.071-.355.107-.705.107-1.049v-1.014a2.259 2.259 0 0 0-.036-.693 1.685 1.685 0 0 1 0-.693c0-.261.095-.462.285-.604.189-.143.367-.296.533-.462.047.379.053.765.018 1.155a1.27 1.27 0 0 0 .338 1.014c.118-.118.213-.249.284-.392.071-.142.143-.271.214-.391a3.12 3.12 0 0 1-.285-.569 1.394 1.394 0 0 0-.319-.498c.071-.189.16-.361.267-.516.106-.153.219-.29.338-.408a.36.36 0 0 0 .089-.409.65.65 0 0 0-.267-.338c.284-.023.456-.16.516-.409.059-.249.076-.48.053-.693 0-.214.071-.385.214-.516.142-.13.296-.255.462-.373.095-.119.201-.148.32-.09l.32.16c.023-.142.041-.284.053-.427a.714.714 0 0 1 .16-.391c.095-.118.207-.214.338-.285a5.5 5.5 0 0 1 .444-.213c-.048.143-.07.272-.07.392.189.047.379.106.568.178.189.07.379.118.569.142.047-.189.071-.396.071-.622a.56.56 0 0 1 .281-.513zm-5.726 16.43c0 .048-.023.071-.071.071.048.142.106.16.178.053.071-.107.036-.148-.107-.124zm1.103-9.246c-.071.023-.095.071-.071.143.023.07.059.095.106.07.071-.022.095-.076.071-.159s-.059-.101-.106-.054zm.32-3.379c.118 0 .147.054.089.16-.06.107-.113.089-.16-.053.023 0 .035-.012.035-.036 0-.023.012-.047.036-.071zm.071 19.666c.022.119.035.22.035.303v.302c.047.024.106.042.178.054s.13.03.178.054c.023-.095.083-.214.178-.356a3.68 3.68 0 0 1-.569-.357zm.96-19.203c.047.119.094.22.142.302.048.084.095.185.143.303 0-.261.035-.521.106-.782-.048.048-.106.077-.178.089s-.141.04-.213.088zm.285 15.611c.071.285.225.475.462.569a2.398 2.398 0 0 0-.213-.747.714.714 0 0 0-.249.178zm.213-19.026c.094-.047.147-.035.159.035.012.071-.018.119-.089.143-.07.048-.118.035-.142-.035-.023-.071.001-.119.072-.143zm.747 0c-.048.048-.053.095-.018.143s.077.048.125 0c.047-.048.053-.095.018-.143-.037-.046-.078-.046-.125 0zm.32 11.878a.327.327 0 0 0-.035.142.326.326 0 0 1-.036.143c.048-.023.112-.047.195-.071a4.34 4.34 0 0 0 .231-.071c-.048-.047-.101-.07-.16-.07s-.124-.025-.195-.073zm.889-8.57a13.206 13.206 0 0 1-.124-.125l-.125-.124c0 .118-.006.237-.018.355-.012.119-.006.237.018.355a.7.7 0 0 1-.07.533 2.247 2.247 0 0 0-.214.498c.071-.047.148-.101.231-.16.083-.059.172-.112.267-.16-.023.237-.054.469-.089.693-.035.226-.065.445-.089.658 0 .854.012 1.701.035 2.543s.012 1.689-.035 2.543c0 .332.035.675.106 1.031.071.355.083.711.036 1.066a.23.23 0 0 1-.089.054.224.224 0 0 0-.09.053c-.095-.118-.189-.23-.284-.338a1.868 1.868 0 0 0-.355-.302c0 .475.059.937.178 1.387.118.45.154.901.106 1.352.023 0 .048.006.071.018a.227.227 0 0 0 .106.018.56.56 0 0 1-.035-.23v-.231h.427a1.41 1.41 0 0 1-.214.355 3.14 3.14 0 0 0-.248.355.878.878 0 0 0-.125.374c-.012.13.041.255.16.373l.213-.641c.071.356.048.747-.07 1.174-.048.071-.042.143.018.214.059.07.112.154.16.249.213.403.272.83.178 1.279a4.305 4.305 0 0 0-.071 1.352c.118.333.278.617.48.854.201.237.385.498.551.782v.285c.214-.189.462-.332.747-.427.284-.095.521-.249.711-.463.143-.118.278-.219.409-.302.13-.083.254-.184.373-.303h-.142c.047-.284.029-.557-.054-.817s-.077-.521.018-.782c.047-.143.118-.297.214-.463.094-.165.082-.332-.036-.498.023-.047.06-.142.106-.284a2.17 2.17 0 0 1-.319.249c-.024-.308.012-.599.106-.871s.213-.539.355-.801l-.213-.106c0-.355-.024-.717-.071-1.085a16.007 16.007 0 0 1-.106-1.084c.07.023.171.041.302.053.13.013.231.019.303.019a7.691 7.691 0 0 1-.16.427c-.06.142-.113.308-.16.497.189-.236.332-.462.427-.675.095.047.184.089.267.124s.16.089.231.16c.118.261.178.539.178.836 0 .296.023.586.071.871.047.189.07.386.07.587s.095.361.285.479c.047-.118.083-.213.106-.284s.059-.166.106-.284c.048 0 .106.006.178.018s.143.018.214.018c.071-.213.095-.414.071-.604-.096-.545-.279-1.043-.552-1.493s-.516-.913-.729-1.388a1.355 1.355 0 0 1-.178-.498.746.746 0 0 0-.214-.427c-.166-.047-.302-.011-.409.107a1.447 1.447 0 0 1-.338.284 4.286 4.286 0 0 1-.106-1.974 6.652 6.652 0 0 0 .071-1.938l-.071-1.351a2.425 2.425 0 0 1 .284-1.28h-.178c.048-.048.077-.101.089-.16s.042-.112.089-.16c-.07 0-.118.012-.142.035.071-.236.089-.462.053-.676a12.776 12.776 0 0 1-.089-.64 1.278 1.278 0 0 1-.035-.303.24.24 0 0 0-.143-.23 4.424 4.424 0 0 0-.906-.463 1.848 1.848 0 0 1-.801-.568c-.213-.237-.462-.297-.746-.178a.852.852 0 0 0-.532.604zm-.64 2.418c-.048-.023-.102-.012-.16.035-.06.048-.077.096-.054.143.048.048.112.042.196-.018.082-.059.089-.112.018-.16zm-.071 7.859l.284-.071.285-.071c0 .048-.024.143-.071.284a7.642 7.642 0 0 0-.498-.142zm.213 11.238c-.048.023-.066.071-.054.143.012.071.041.095.089.071.071 0 .106-.042.106-.125s-.047-.113-.141-.089zm-.036-11.06h.355a.674.674 0 0 0-.035.479c.047.155.118.291.213.409a1.11 1.11 0 0 0-.178.018 1.01 1.01 0 0 1-.178.019 4.95 4.95 0 0 1-.177-.925zm.036-14.261a3.79 3.79 0 0 0 .319-.143c.095-.047.201-.094.32-.142a.857.857 0 0 1 .054.142.308.308 0 0 0 .089.143 2.843 2.843 0 0 1-.409.106l-.373.071v-.177zm.427 25.605c.118-.047.225-.089.319-.124.095-.036.201-.077.32-.125a.717.717 0 0 0-.639.249zM65.732 74.6c.213.213.438.272.676.178a2.176 2.176 0 0 0-.338-.107 8.583 8.583 0 0 0-.338-.071zm1.53 16.251c-.048.048-.054.102-.018.16.035.06.076.065.124.019.047-.048.054-.101.018-.16-.035-.06-.077-.066-.124-.019zm.071-5.796c.07-.023.118 0 .142.071.023.07 0 .118-.071.142-.095.024-.142-.005-.142-.089 0-.083.023-.124.071-.124zm1.528-6.437c.119.261.214.521.285.782s.201.486.391.676a.657.657 0 0 0-.07-.658 2.555 2.555 0 0 1-.32-.587.814.814 0 0 1 .16-.124.85.85 0 0 0 .16-.125h-.303c-.083 0-.184.013-.303.036zm0 11.095c.048-.047.131-.112.249-.195a1.99 1.99 0 0 0 .249-.195c-.071.07-.154.137-.249.195a1.452 1.452 0 0 0-.249.195zm1.068-10.028c-.024.095-.035.202-.035.32s-.024.237-.071.355a.803.803 0 0 1 .249-.036 2.916 2.916 0 0 1-.107.285c-.118-.048-.219-.089-.302-.125a3.808 3.808 0 0 1-.267-.124c-.024.189-.054.391-.089.604a2.1 2.1 0 0 0-.019.604c.023.332.119.646.285.942.165.297.308.599.427.907.047.118.106.226.178.319.071.096.153.19.249.285a2.81 2.81 0 0 0 .124-.409.804.804 0 0 0-.018-.444c-.071-.237-.213-.486-.427-.747.095-.047.184-.089.267-.124.083-.036.16-.077.231-.125-.024-.095-.036-.189-.036-.284s-.023-.189-.07-.285c-.048-.07-.119-.106-.214-.106s-.166-.012-.213-.035c0-.237.153-.379.462-.427 0-.261-.03-.521-.089-.782-.059-.26-.231-.449-.515-.568zm-.284 9.103c-.048.048-.054.102-.019.16.036.06.077.065.125.018.047-.047.054-.094.018-.142-.036-.048-.078-.059-.124-.036zm.71-1.636a.644.644 0 0 0-.195-.035.346.346 0 0 1-.16-.036 2.27 2.27 0 0 0-.089.961c.035.355.219.616.551.782.023-.189.06-.367.106-.533a1.007 1.007 0 0 0 0-.534 2.202 2.202 0 0 1-.035-.889.823.823 0 0 1-.178.284zm-.249-.533c-.023 0-.06.023-.106.071-.048.048-.048.095 0 .142.047.048.106.019.178-.089.071-.106.047-.147-.072-.124zm0-9.744c.047.284.095.521.143.711.165-.07.331-.153.498-.248a2.17 2.17 0 0 0-.641-.463zm.036 1.245c.189.023.374.018.552-.019a.838.838 0 0 0 .444-.23 8.544 8.544 0 0 1-.48.124c-.155.036-.327.077-.516.125zm.747-1.494c-.048-.023-.106-.012-.178.036s-.083.106-.035.178c.047.048.106.035.178-.036s.083-.13.035-.178zm.036 5.548c-.048.024-.066.071-.054.143.012.071.041.083.089.035.071 0 .106-.035.106-.106s-.047-.096-.141-.072zm.568 2.738c.023.119.036.243.036.373v.374h.178a.984.984 0 0 1 .213-.178c-.048-.023-.101-.036-.16-.036s-.124-.012-.195-.035c.118-.166.272-.367.462-.604a3.852 3.852 0 0 1-.248.053c-.072.012-.168.03-.286.053zm3.023-13.477c.047-.189.165-.29.355-.303.189-.012.355-.006.498.018.213.048.42.106.622.178.201.071.396.143.587.214a2.652 2.652 0 0 0-.036.498c0-.071.012-.131.036-.178a.55.55 0 0 1 .106-.143c.071.143.154.279.249.409s.213.23.355.302a.998.998 0 0 1 .32-.409 4.93 4.93 0 0 1 .391-.267 4.53 4.53 0 0 0-.302.071 7.19 7.19 0 0 1-.267.071 3.663 3.663 0 0 1-.285-.32 1.376 1.376 0 0 1-.213-.355.787.787 0 0 1 .498.018c.142.06.278.143.408.249.131.106.249.231.356.374.106.142.219.261.338.355a.814.814 0 0 0-.019-.16.807.807 0 0 1-.018-.16c.048.023.077.042.089.054s.041.029.089.053c-.048.332.018.641.196.925.178.284.29.593.337.925.048.379.054.753.019 1.12-.036.368-.054.741-.054 1.12a8.3 8.3 0 0 0-.054 1.209c.012.403.019.807.019 1.209 0 .333-.024.641-.071.925a9.326 9.326 0 0 0-.106.889c0 .309.022.611.07.907.048.297.071.587.071.871.023.403 0 .789-.071 1.156a3.56 3.56 0 0 0-.035 1.12c0 .213.029.433.089.658.059.226.065.456.018.693a9.8 9.8 0 0 0 .036 1.866c.07.629.023 1.239-.143 1.832.047.355.106.711.178 1.066s.083.712.035 1.067a4.778 4.778 0 0 0-.053 1.688 4.572 4.572 0 0 1-.054 1.654 8 8 0 0 0-.089.906 7.95 7.95 0 0 1-.089.907c-.284.498-.699.711-1.244.64-.38-.047-.741-.059-1.085-.035s-.693 0-1.049-.071a13.682 13.682 0 0 1-.693-.516 2.585 2.585 0 0 1-.587-.657 4.049 4.049 0 0 1-.107-1.191 20.8 20.8 0 0 1 .107-1.191 3.9 3.9 0 0 0-.054-.979 3.841 3.841 0 0 1-.054-.978c0-.261-.012-.51-.035-.747a3.672 3.672 0 0 1 0-.711c.047-.475.054-.96.018-1.458a8.628 8.628 0 0 1 .018-1.458 6.953 6.953 0 0 0 0-.979 27.36 27.36 0 0 1-.071-1.957c0-.319.047-.646.142-.978a1.23 1.23 0 0 0 .071-.711 1.778 1.778 0 0 1 0-.712c.071-.379.077-.734.018-1.066s-.137-.663-.23-.996v-.8c0-.273.118-.504.355-.693a.625.625 0 0 0-.249-.036c.095-.094.172-.183.231-.267.059-.082.124-.16.195-.23a.74.74 0 0 0-.178.018.74.74 0 0 1-.178.018c-.024-.284 0-.563.071-.836.07-.272.082-.539.035-.8a21.352 21.352 0 0 0-.124-1.529 4.585 4.585 0 0 1 .053-1.458c.047-.332.071-.658.071-.978.004-.318.051-.633.147-.94zm-.037 19.594c-.071.023-.089.065-.053.124.035.06.076.077.124.054.071-.023.089-.071.054-.143-.036-.071-.077-.083-.125-.035zm.072-8.5c-.071 0-.112.042-.124.125-.013.083.029.124.124.124.071 0 .112-.041.124-.124s-.029-.125-.124-.125zm.178 7.682c-.071 0-.112.03-.124.089-.013.06.018.089.089.089s.106-.03.106-.089-.025-.089-.071-.089zm0 4.409v.427c.047-.094.089-.171.125-.23a4.9 4.9 0 0 0 .124-.231.634.634 0 0 1-.249.034zm.355-2.631c-.048.166-.083.338-.106.516s-.023.35 0 .516a.63.63 0 0 0 .143.302c.071.084.142.16.213.231a18.66 18.66 0 0 1-.053-.782 2.152 2.152 0 0 0-.197-.783zm.534 4.765c-.071 0-.107.03-.107.089 0 .06.036.09.107.09.047 0 .07-.03.07-.09 0-.059-.023-.089-.07-.089zm.853-1.528a.823.823 0 0 0-.142.284.622.622 0 0 0 .284-.071v-.178c-.071 0-.119-.012-.142-.035zm-.035 1.421c-.023.119.012.166.106.143.071-.143.036-.189-.106-.143zm.249-4.302c.047.237.059.469.035.693-.023.226-.048.457-.07.693.094-.071.183-.143.267-.213a.73.73 0 0 0 .195-.285c.023-.165.059-.338.106-.516s.012-.338-.106-.479a.645.645 0 0 0-.231.035 3.31 3.31 0 0 1-.196.072zm.569 3.876c-.071.024-.102.071-.089.143.012.071.053.095.124.071.047-.023.065-.071.054-.143-.013-.071-.042-.095-.089-.071zm.995-4.979a2.945 2.945 0 0 0 .178 1.85c.095-.309.166-.646.214-1.014.047-.367-.084-.645-.392-.836zm-.071 3.486c.189.048.32.083.392.106 0-.095.023-.189.071-.284-.071.048-.148.077-.231.089s-.161.041-.232.089zm12.66-23.614a.539.539 0 0 1 .427.106l.355.284c.143-.26.344-.391.605-.391.26 0 .509.012.746.035-.048.096-.071.196-.071.303s-.012.22-.035.338c-.64.095-1.292.166-1.956.213.048-.142.071-.261.071-.355l-.64.747c.284.119.58.13.889.035a7.48 7.48 0 0 1 .854-.213c.095.048.172.089.231.124.059.036.136.077.23.125a8.98 8.98 0 0 1 .463-.214c.165-.071.343-.13.533-.178a.412.412 0 0 1 .16-.462.517.517 0 0 1 .479-.107c.261 0 .409.119.445.356.035.237.005.438-.089.604a1.943 1.943 0 0 1-.427.871 2.278 2.278 0 0 0-.463.871c-.142.403-.32.8-.533 1.191-.214.391-.403.788-.569 1.191-.189.332-.391.658-.604.978-.213.32-.427.646-.64.979-.143.189-.237.415-.285.676s-.166.485-.355.675c.048.262.018.498-.089.712a4.322 4.322 0 0 0-.267.676c-.119.261-.29.492-.516.693s-.361.468-.409.8c-.048.262-.089.51-.124.747-.034.239-.004.476.091.712.071.19.118.38.143.569.022.189.059.379.106.568.047.19.136.356.267.498.13.143.255.297.373.463.45.734.794 1.506 1.031 2.312.261.379.468.788.623 1.227.153.439.36.859.622 1.263a7.8 7.8 0 0 0 .16.302c.059.107.089.22.089.338a.308.308 0 0 1-.249.267 3.014 3.014 0 0 0-.392.125c.095.332.196.658.303.978.106.32.184.646.231.979 0 .213-.071.421-.214.622s-.131.409.035.622c.095.143.22.196.374.16.153-.035.29-.076.409-.124.047-.119.082-.255.106-.409.023-.154.143-.184.355-.089-.023.071.012.16.106.267s.106.208.036.302a.423.423 0 0 1-.285.214 2.08 2.08 0 0 0-.355.106c-.119.19-.297.255-.533.195a1.338 1.338 0 0 0-.641-.018c-.189-.023-.267.065-.23.267.035.202.112.326.23.374.166.048.338.101.516.16.179.06.361.065.552.018.095-.048.184-.048.267 0s.16.095.231.143a2 2 0 0 0-.125.319c-.035.118-.124.166-.267.143-.45 0-.901.006-1.352.018s-.912-.03-1.387-.124c.095-.096.154-.166.178-.214-.237.095-.433.06-.587-.106s-.29-.344-.408-.533a28.685 28.685 0 0 1-.338-.925 2.793 2.793 0 0 0-.48-.854 3.255 3.255 0 0 1-.569-1.103 22.926 22.926 0 0 0-.391-1.209c-.262-.641-.563-1.263-.907-1.867s-.705-1.203-1.084-1.796c-.024 0-.042-.012-.054-.035a.202.202 0 0 0-.089-.071 1.685 1.685 0 0 0 0 .693c.047.226.089.457.124.693.036.237.06.469.071.693.012.226-.03.457-.124.693a2.804 2.804 0 0 0-.106.996c.022.332.047.664.07.996a.939.939 0 0 1-.16.355.995.995 0 0 1-.302.284.15.15 0 0 1-.178-.054 1.9 1.9 0 0 0-.143-.159 1.21 1.21 0 0 0-.124.142 1.331 1.331 0 0 1-.125.143 3.166 3.166 0 0 0-.16-.392 2.134 2.134 0 0 0-.23-.355c-.048.19-.089.373-.125.552-.035.178-.077.361-.124.551a3.107 3.107 0 0 1-.303.444c-.106.131-.219.279-.338.444a4.723 4.723 0 0 0-.408-.427 1.182 1.182 0 0 0-.552-.284c-.119.119-.226.255-.32.409s-.226.255-.391.302c.071.237.076.463.018.676-.06.214-.124.415-.195.604a2.95 2.95 0 0 1-.392-.23.655.655 0 0 1-.249-.338 29.413 29.413 0 0 1-.106-2.508c0-.841-.013-1.677-.035-2.507-.048-.64-.042-1.286.018-1.938a7.109 7.109 0 0 0-.089-1.938c.261-.048.462-.16.604-.338.142-.178.236-.373.284-.587.023-.118-.012-.195-.106-.231l-.249-.089v.463c-.071-.048-.148-.101-.231-.16s-.137-.137-.16-.231c0-.236.019-.462.054-.676a1.888 1.888 0 0 0-.018-.676c0-.118-.006-.236-.018-.355a3.606 3.606 0 0 1-.019-.391c.048-.071.101-.148.16-.231s.112-.172.16-.267a.853.853 0 0 1-.267-.569 1.007 1.007 0 0 1 .16-.604.406.406 0 0 0-.178-.035v-.747c0-.236-.024-.474-.071-.711a2.237 2.237 0 0 1 .018-1.156c.106-.367.101-.74-.018-1.12a3.041 3.041 0 0 1-.054-1.174c.06-.379.089-.77.089-1.173 0-.214.036-.45.107-.712-.071 0-.107-.012-.107-.035a4.23 4.23 0 0 1 .089-.303.474.474 0 0 0-.018-.338 6.66 6.66 0 0 1-.053-1.103c.012-.379.041-.746.089-1.102-.119-.332-.024-.51.284-.534.047.167.095.326.143.48.047.154.094.303.142.444.023-.071.041-.13.054-.178a.661.661 0 0 1 .054-.143c.047 0 .094.024.142.071l.303-.302.302-.303-.16-.391c-.059-.143-.018-.272.125-.392.261-.047.516-.054.765-.018.249.035.503.065.765.089.213.023.427.023.64 0 .214-.023.427-.012.641.035.142.048.219.131.23.249.012.119.03.237.054.355a3.85 3.85 0 0 0-.284.16c-.096.06-.19.113-.285.16a4.621 4.621 0 0 1-.355-.16 3.15 3.15 0 0 0-.391-.16 6.11 6.11 0 0 0-.48.089c-.154.036-.314.078-.48.125.071.048.143.077.214.089s.13.054.178.124c.166.333.45.582.854.747.118 0 .225-.006.32-.018.094-.012.201-.029.319-.054.071.355.172.712.303 1.067.13.355.172.735.124 1.138-.07.19-.13.392-.178.604a2.607 2.607 0 0 1-.213.604c-.071.237-.226.374-.463.409s-.45.077-.64.124c.308.427.663.818 1.066 1.174.095-.023.214-.059.356-.106.022.143.047.278.07.409.023.13.048.267.071.408.095.024.226.096.392.214.095-.118.184-.236.267-.355.083-.118.184-.237.302-.355.119-.166.208-.338.268-.516.059-.179.136-.35.23-.516.189-.285.386-.575.587-.872.201-.296.421-.574.658-.835.189-.189.385-.374.587-.552.201-.178.361-.396.479-.658-.118-.022-.219-.041-.302-.053a4.587 4.587 0 0 1-.303-.054c.048-.071.101-.147.16-.23.059-.083.112-.148.16-.196-.048.024-.143.036-.284.036.165-.237.367-.475.604-.712a.229.229 0 0 1-.107-.018.24.24 0 0 0-.106-.018c.071-.118.13-.255.178-.409.048-.153.095-.302.143-.444.047-.071.124-.089.231-.054a.43.43 0 0 0 .267.019c.023-.048.059-.143.106-.285-.095.024-.178.036-.249.036s-.143.012-.213.035c.165-.189.338-.392.516-.604a.947.947 0 0 1 .657-.352zm-9.637 18.741c-.096.023-.125.071-.089.142.035.071.101.084.195.036.071-.047.089-.101.054-.16-.036-.059-.089-.065-.16-.018zm.213-4.445a.713.713 0 0 1 .054.195c.012.084.029.16.053.231a.82.82 0 0 0 .179-.16 2.23 2.23 0 0 1 .178-.195 2.047 2.047 0 0 0-.464-.071zm.214-.355c-.048 0-.096.029-.143.089-.048.06-.048.112 0 .16.071.048.143.012.214-.107.071-.119.047-.166-.071-.142zm1.849 10.455c.214.095.45.178.712.249v.213a4.456 4.456 0 0 0-.303.089.31.31 0 0 1-.302-.053c-.096-.048-.131-.125-.107-.231s.023-.196 0-.267zm1.6-.463c.095-.094.189-.136.284-.124.095.013.201.018.32.018l-.143.143-.142.143c.094 0 .213-.023.355-.071a3.75 3.75 0 0 0-.125.835 1.896 1.896 0 0 1-.23.836.804.804 0 0 1-.267.231c-.107.06-.22.124-.338.195l.071-.142c.022-.048.047-.095.07-.143a7.072 7.072 0 0 1-.497.124.577.577 0 0 1-.463-.089.83.83 0 0 1-.178-.373 1.978 1.978 0 0 0-.106-.373l.284-.071.284-.071c.143-.189.279-.373.409-.551.133-.179.27-.35.412-.517zm-1.351-19.879c0 .285.029.575.089.871.06.297.137.575.231.836.071-.047.136-.106.195-.178s.125-.13.196-.178a1.965 1.965 0 0 0-.214-.124c-.071-.036-.131-.112-.178-.231.071-.189.166-.379.284-.569a4.43 4.43 0 0 1-.284-.231 1.11 1.11 0 0 0-.319-.196zm.32 4.766c0 .023-.023.06-.071.106.023.119.077.125.16.018s.053-.148-.089-.124zm.32-4.872c-.048 0-.089.03-.125.089-.035.06-.029.112.018.16.071.048.137.03.196-.054.059-.083.029-.148-.089-.195zm.64-2.739c.071 0 .178-.023.32-.071.047.262-.035.498-.249.711a2.611 2.611 0 0 1-.071-.64zm3.698 10.1c-.048 0-.065.035-.053.106.012.071.041.096.089.071.071-.023.101-.071.089-.143-.013-.069-.054-.081-.125-.034zm.285-.711c.047.023.101.053.16.089.059.035.124.077.195.124a.308.308 0 0 1-.089-.143.235.235 0 0 0-.054-.106c.166-.142.285-.308.355-.498a5.16 5.16 0 0 0 .178-.568 2 2 0 0 0-.497.444 1.21 1.21 0 0 0-.248.658zm0 10.135c0 .19.005.386.018.587.012.201.065.397.16.587.213.355.414.717.604 1.084.189.368.402.729.64 1.085.119-.023.226-.029.32-.018s.201.006.32-.018a.56.56 0 0 0 .551-.355c.107-.237.219-.45.338-.641 0-.284-.13-.503-.391-.658-.262-.153-.498-.29-.712-.408a.671.671 0 0 1 .125.178c.035.071.076.142.124.213a1.965 1.965 0 0 1-.267-.16c-.083-.059-.16-.112-.231-.16a.44.44 0 0 0 .143-.319 1.551 1.551 0 0 1-.213.142 2.344 2.344 0 0 1-.196-.427c-.06-.165-.16-.271-.302-.319a2.194 2.194 0 0 1-.516-.196 2.17 2.17 0 0 0-.515-.197zm.213-9.708v.355c.048-.071.089-.148.125-.231a1.34 1.34 0 0 1 .124-.231 1.213 1.213 0 0 0-.124.071.219.219 0 0 1-.125.036zm.498 9.068c-.095.048-.124.106-.089.178s.089.083.16.035c.071-.047.101-.106.089-.178-.012-.071-.065-.083-.16-.035zm.178-18.528c-.071.024-.095.065-.071.125.023.059.06.065.107.018.047-.023.064-.065.053-.125-.012-.059-.042-.065-.089-.018zm.178 19.345a1.57 1.57 0 0 1 .249-.071v-.355a1.814 1.814 0 0 0-.124.214c-.036.07-.077.141-.125.212zm2.276-18.812c0 .119.005.226.018.32.012.095.018.202.018.32l.392-.16c.142-.059.284-.112.427-.16v.284c.047-.118.106-.219.178-.302s.143-.184.213-.303c-.189-.142-.391-.189-.604-.142-.215.049-.429.096-.642.143zm1.6 23.507c.048-.118.083-.213.107-.284.023-.071.059-.154.106-.249 0 .048.006.101.018.16s.018.112.018.16a1.646 1.646 0 0 0-.249.213zm.356-.605c.047-.047.101-.047.16 0 .059.048.064.095.018.143-.048.07-.102.083-.16.035-.06-.047-.066-.106-.018-.178z"/></svg>