<svg xmlns="http://www.w3.org/2000/svg" width="198.75" height="43.5"><path fill="#3BAA35" d="M61.485 30.527h-9.671l-1.438 3.086h-6.134v-.914L55.284 8.764h2.696L69.054 32.7v.914H62.92l-1.435-3.087zm-4.872-11.809l-2.767 6.448h5.606l-2.839-6.448zm15.715 14.895V9.081h6.378v9.288h.457c6.271 0 5.957-4.697 5.957-9.288h6.446c0 5.014.141 9.637-4.73 12.758l6.657 10.792v.982h-6.975l-5.394-9.497c-.844.14-1.614.14-2.419.14v9.357h-6.377zm40.069-3.086h-9.671l-1.438 3.086h-6.133v-.914l11.04-23.936h2.697l11.073 23.936v.914h-6.134l-1.434-3.086zm-4.871-11.809l-2.768 6.448h5.606l-2.838-6.448zm25.385 14.895h-6.203V23.312l-8.235-13.286v-.945h6.766l4.448 8.163h.246l4.451-8.163h6.8v.944l-8.272 13.286v10.302z"/><path fill="#FFF" d="M154.86 8.764c4.942.037 10.096 2.597 11.286 8.692h-6.167c-1.016-2.101-2.631-2.945-5.119-2.945-3.961 0-6.095 3.088-6.095 6.837 0 4.063 2.379 6.729 6.095 6.729 2.522 0 4.138-.669 5.256-3.014h-5.222V19.63h11.603c.14 2.453.14 4.799-.702 7.185-1.752 5.114-6.414 7.076-10.935 7.076-6.237 0-12.544-4.168-12.578-12.544.034-8.376 6.341-12.583 12.578-12.583z"/><path fill="#3BAA35" d="M31.614 28.724v-5.412l-8.235-13.286v-.945h6.766l4.448 8.163h.246l4.451-8.163h6.8v.944l-8.272 13.286v10.302h-3.173l-3.031-4.889z"/><path fill="#FFF" d="M169.98 21.404c0-16.989 25.201-16.989 25.201 0 .001 17.02-25.201 17.02-25.201 0zm18.776 0c0-8.85-12.319-8.85-12.319 0 0 8.912 12.319 8.912 12.319 0zM35.551 40.953l-24.345-39m24.345 39.1a.1.1 0 0 1-.085-.047l-24.345-39a.1.1 0 0 1 .032-.138.1.1 0 0 1 .138.032l24.345 39a.1.1 0 0 1-.085.153z"/><path fill="#FFF" d="M16.839 10.891l.008.013-.009-.006c-1.317.025-2.482.394-3.733 1.033-.585.302-1.059.23-1.59-.084a5.118 5.118 0 0 1-.733-.534c-.066-.058-.13-.122-.194-.182-.642-.593-1.206-1.315-1.769-2.038l-.006.01c-.675-.872-1.372-1.707-2.125-2.45-1.294-1.279-2.694-2.248-4.323-2.527-.273-.048-.609-.386-.738.27C3.366 5.534 4.64 7.35 5.776 9.375c.378.68.757 1.361 1.14 2.033l-.004.008c.105.182.216.36.325.541a25.88 25.88 0 0 0 1.076 1.641c.104.141.212.277.321.416.375.479.768.948 1.22 1.389-.968.448-1.252.478-2.033.894-.875.466-.888.631-.233 1.455.971 1.227 2.168 1.958 3.389 2.634l.302.419c.062 1.424.284 2.987.681 4.602.479 1.952 1.151 3.72 1.92 5.175.282.497.463 1.134.603 1.66.217.817.978 1.271 1.53 1.567a6.838 6.838 0 0 0 3.446.824c1.25.03 2.462-.2 3.593-.946.319-.209.682-.443.611-1.003-.008-.074-.011-.146-.015-.216a7.002 7.002 0 0 1-.146.158c-.764.799-4.614.938-5.059.951.248-.01 1.586-.111 3.777-1.117 0 0 2.404-.911 2.88-1.879.476-.967 1.071-1.933 1.551-3.884l-9.812-15.806zm1.336 19.689c-.592 0-1.08-.484-1.08-1.077 0-.598.488-.256 1.08-.256.6 0 1.08-.342 1.08.256 0 .593-.481 1.077-1.08 1.077zm2.996 0a1.08 1.08 0 0 1-1.083-1.077c0-.598.484-.256 1.083-.256.596 0 1.081-.342 1.081.256a1.08 1.08 0 0 1-1.081 1.077z"/><path fill="#1E1E1C" d="M16.719 11.818c3.225-1.174 7.102-1.118 7.102-1.118s-4.407 2.102-5.622 2.991c-3.399 2.489-.247 5.438-.247 5.438-1.651-1.148-3.291-3.671-3.031-4.431-1.688 2.054 2.026 6.22 2.026 6.22-3.344-2.013-4.496-4.682-3.794-6.442-.001 0 .341-1.483 3.566-2.658z"/></svg>