<svg xmlns="http://www.w3.org/2000/svg" width="70.87" height="70.87"><g fill="#FFF"><path d="M34.479 22.646c-.119 0-.241.009-.375.03a2.175 2.175 0 0 0-1.771 2.493 2.157 2.157 0 0 0 2.133 1.804c.113 0 .225-.009.362-.028a2.17 2.17 0 0 0 1.773-2.49 2.147 2.147 0 0 0-2.122-1.809z"/><path d="M65.469 31.776c-3.113 1.436-5.661 2.94-7.793 4.604l-.677.537.748 1.789a35.256 35.256 0 0 0-.854-.011c-1.463 0-1.938.103-2.308.497l-.586.624 1.446 2.426-4.517.456 1.988 3.711-3.866.385-2.55-14.746a2.655 2.655 0 0 0-1.636-2.028l-1.266-4.262c-.149-.896-.664-1.579-1.182-2.07l.084-.04c.332-.188.71-.576.779-1.099.218-1.148.579-3.211.549-4.122-.12-3.695-2.845-14.002-2.88-14.133-.217-.706-.774-1.185-1.489-1.28l-1.705-.234-.14-.009c-.565 0-1.051.419-1.132.979l-.735 5.346a1.134 1.134 0 0 0 .744 1.227c.771.275 1.254 1.374 1.098 2.503-.157 1.146-.902 2.054-1.738 2.11-.534.04-.974.455-1.045.993l-.245 1.94c-.138.001-.285.002-.423.01a5.782 5.782 0 0 0-.453.053l-.358-2.13a1.145 1.145 0 0 0-1.073-.941c-.819-.034-1.607-.938-1.794-2.058-.189-1.141.252-2.23 1.04-2.538.495-.204.779-.715.69-1.242l-.891-5.328a1.164 1.164 0 0 0-.474-.744 1.16 1.16 0 0 0-.649-.203l-1.856.299c-.715.111-1.248.596-1.479 1.39-.406 1.768-2.436 10.756-2.447 14.147-.004 1.131.661 4.062.664 4.062.069.475.378.888.895 1.155l1.196.522c-.383.567-.771 1.151-.894 1.694-.199.86-.646 2.973-.87 4.027l-.005.026a2.686 2.686 0 0 0-1.517 1.976l-3.064 17.715c-3.878-5.326-7.842-10.411-11.023-14.137l-.134-.153c-.598-.684-2.185-2.499-2.891-3.252l-1.97-2.104.006 2.883c.004 8.127 2.437 12.452 6.735 19.398 1.277 2.064 4.518 6.548 7.086 10.046l-.151.875c-.121.707.04 1.418.453 1.998.415.588 1.03.978 1.731 1.099l4.505.779a2.697 2.697 0 0 0 3.097-2.186l5.406-31.269a2.668 2.668 0 0 0-.297-1.753l.38-.611c.622.255 1.215.296 1.696.296.603 0 1.125-.156 1.598-.37l.219.332c-.027.034-.054.068-.08.105-.413.59-.573 1.3-.452 2.001l5.407 31.269a2.676 2.676 0 0 0 2.643 2.223c.149 0 .3-.011.457-.037l4.502-.779a2.65 2.65 0 0 0 1.731-1.099 2.653 2.653 0 0 0 .454-1.999l-.178-1.028c8.081-8.906 12.235-20.342 14.246-25.877a75.567 75.567 0 0 0 1.058-3.277l.715-2.406-2.279 1.048zM8.055 37.109c3.536 4.144 7.975 9.88 12.205 15.775l-1.113 6.443c-1.978-2.713-4.608-6.379-5.692-8.13-3.621-5.851-5.705-9.463-6.251-15.064l.851.976zm27.374-7.713c-.624 0-.948-.106-1.289-.424a1.144 1.144 0 0 0-.772-.302l-.161.012a1.14 1.14 0 0 0-.802.525l-.896 1.438-.044-.009-3.745-.646c.236-1.115.583-2.74.747-3.459.052-.178.421-.724.615-1.011.442-.653.717-1.076.801-1.525a1.122 1.122 0 0 0-.66-1.242l-2.014-.891c-.335-1.558-.545-2.822-.543-3.274.007-2.535 1.439-9.479 2.321-13.35l.258-.044.576 3.43c-1.256.952-1.906 2.739-1.604 4.552.309 1.846 1.483 3.3 3 3.784l.41 2.455a1.139 1.139 0 0 0 1.118.956l.198-.019a32.228 32.228 0 0 1 1.304-.207l.211-.004A4.65 4.65 0 0 1 39 23.738c.076.323.289.596.583.747l.459.232c.455.307 1.217.82 1.346 1.548l1.105 3.752-3.225.556-.918-1.392c-.314-.48-1.063-.627-1.579-.321-.508.3-.911.536-1.342.536zm-4.018 3.953L26.003 64.62c-.032.188-.229.337-.473.331l-4.509-.78a.387.387 0 0 1-.256-.165.405.405 0 0 1-.069-.307l.078-.453 5.328-30.816c.031-.185.212-.335.374-.339l4.864.955c.065.091.09.196.071.303zm8.428-20.211c.254-1.829-.446-3.6-1.732-4.511l.472-3.439.266.037c.443 1.714 2.615 10.264 2.714 13.279.021.625-.302 2.505-.449 3.295l-.336.159a6.779 6.779 0 0 0-3.974-3.682l.162-1.272c1.479-.536 2.629-2.049 2.877-3.866zm-.816 19.908a.433.433 0 0 1 .161-.129l4.726-.818a.424.424 0 0 1 .351.332l5.407 31.271a.395.395 0 0 1-.073.306.382.382 0 0 1-.26.164l-4.572.786a.423.423 0 0 1-.403-.337L38.952 33.35a.401.401 0 0 1 .071-.304zm15.375 19.926l-2.364-4.189 4.493-.448-1.993-3.716 4.692-.475-1.894-3.173c.944.014 1.955.067 2.085.076l1.815.109-1.466-3.505c1.261-.922 2.677-1.796 4.287-2.646-.073.214-.146.43-.222.646-1.843 5.076-5.587 15.389-12.603 23.756l-1.143-6.614 4.313.179zm-3.984-2.439l-.722-.029-.311-1.798 1.033 1.827z"/></g></svg>