<svg xmlns="http://www.w3.org/2000/svg" width="70.87" height="70.87"><path fill="#FFF" d="M63.166 21.251h-6.834l.114-.085c1.8-1.363 3.044-3.239 3.697-5.573.887-3.164.042-5.187-.822-6.326-1.305-1.721-3.497-2.629-6.341-2.629-2.279 0-4.903.59-7.39 1.662l-.378.163c-2.858 1.231-4.923 2.12-6.758 3.721-1.127.983-2.09 2.168-3.035 3.774-.564-1.523-1.218-2.738-2.03-3.82-1.505-2.002-3.384-3.324-5.985-5.153l-.344-.241c-3.031-2.134-6.483-3.408-9.235-3.408-2.08 0-3.822.689-5.037 1.994-1.321 1.42-1.902 3.398-1.725 5.882.178 2.499 1.034 4.65 2.544 6.396 1.374 1.589 3.284 2.813 5.679 3.645H7.703v12.308h2.482v31.355h24.302V24.019l1.896.176v40.719h24.302V33.559h2.481V21.251zM32.315 62.74H12.358V34.407h19.957V62.74zm26.197 0H38.555V34.407h19.957V62.74zM39.883 13.822c1.579-1.378 3.513-2.211 6.189-3.363l.378-.163c2.222-.958 4.54-1.485 6.53-1.485 1.49 0 3.5.307 4.61 1.77.567.748 1.106 2.123.461 4.429-.522 1.866-1.504 3.356-2.917 4.427-1.165.883-2.642 1.491-4.4 1.816h-9.951c.046-.375.131-.583.234-.707 1.2.056 2.535.097 3.874.097 1.723 0 3.239-.067 4.506-.198 4.231-.441 6.75-2.305 7.699-5.701.432-1.538.331-2.736-.296-3.563-.684-.902-2.004-1.378-3.82-1.378-1.831 0-4.068.512-6.138 1.404l-.379.163c-4.016 1.729-6.04 2.602-7.96 5.59a26.153 26.153 0 0 0-.949-.332c.737-1.179 1.484-2.07 2.329-2.806zM21.458 16.25c-3.248-1.016-4.782-2.688-4.977-5.424-.073-1.021.098-1.597.282-1.795.156-.168.544-.264 1.063-.264 1.625 0 4.023.949 6.109 2.418l.346.242c3.451 2.428 4.918 3.459 5.979 6.199a3.249 3.249 0 0 0-.557.35c-2.532-.373-5.756-.949-8.245-1.726zm19.818 2.131a5.05 5.05 0 0 0-.768-.521c1.502-2.209 3.123-2.907 6.814-4.497l.38-.163c1.808-.78 3.731-1.227 5.277-1.227 1.339 0 1.943.325 2.09.518.108.144.218.655-.064 1.664-.702 2.507-2.501 3.779-5.833 4.126-1.192.124-2.633.187-4.281.187-1.244 0-2.486-.036-3.615-.087zm-20.791.978c-2.263-.708-4.024-1.775-5.234-3.174-1.197-1.382-1.876-3.107-2.02-5.128-.132-1.858.254-3.287 1.148-4.247.794-.852 1.985-1.302 3.447-1.302 2.321 0 5.307 1.126 7.985 3.012l.344.242c2.438 1.714 4.2 2.953 5.498 4.683.603.801 1.107 1.708 1.556 2.818-.35.17-.675.32-.975.457-1.303-3.271-3.142-4.564-6.704-7.07l-.345-.242c-2.503-1.762-5.254-2.813-7.36-2.813-1.169 0-2.062.322-2.652.957-.681.729-.969 1.884-.859 3.429.26 3.656 2.385 6.057 6.495 7.342 2.707.848 6.196 1.459 8.848 1.844.164.402.308.764.45 1.086h-.556c-2.748-.397-6.265-1.017-9.066-1.894zM9.876 23.423h19.529c1.144.164 2.148.287 2.91.375v7.59H9.876v-7.965zm51.117 7.965H38.555v-7.69a5.11 5.11 0 0 0 .831-.071c1.581.095 3.525.178 5.506.178 1.833 0 3.458-.072 4.833-.215.411-.043.813-.099 1.202-.166h10.066v7.964z"/></svg>