<svg xmlns="http://www.w3.org/2000/svg" width="70.87" height="70.87"><g fill="#FFF"><path d="M67.296 49.75a90.596 90.596 0 0 0-2.69-2.184c.202.063.266-.093.389-.168.217-.131.439-.619.408-.819-.019-.117-.703.383-.627.237.25-.477.872-2.336.121-2.812-.59-.371-1.241.148-1.902.557-.102-.03-.684.389-.612.253.25-.476.872-2.336.122-2.811-.603-.379-1.268.168-1.943.581a.354.354 0 0 0 0-.073c-.018-.119-.702.384-.627.238.252-.477.872-2.338.122-2.811-.624-.395-1.315.208-2.018.624 0-.02.002-.04 0-.056-.019-.116-.702.384-.626.238.25-.476.871-2.337.121-2.811s-1.599.494-2.443.844c-.13.055-.31.064-.48.064l.111-2.394c-.321-.266-.686-.564-1.084-.888l2.132-2.74 7.343-8.842.51-3.313-2.842 1.18-9.733 11.132-.273.287c-3.922-3.105-8.983-6.972-11.811-8.822-.023-.011-.046-.019-.071-.028L21.011 10.479c-2.467-1.923-5.882-3.071-9.136-3.071-.212 0-.425.005-.628.016l-1.153.06.602.986c.941 1.541 3.599 4.72 5.488 6.358 3.464 3.002 6.83 5.367 10.392 7.873.874.614 1.764 1.239 2.672 1.886l.191.138.633-.026.206.779 1.325.781L3.386 43.605h2.32l.353.117-1.716 2.45 5.991-2.779.17-.385.783-.075.51-.648.817-.057.375-.564.904-.021.337-.606.93-.009.271-.657 1.043.113.305-.784.865.124.254-.677.666.124.421-.755.902.043.48-.76.856.172.405-.81.937.224.391-.924.916.197.251-.749.833.254.369-.944 1.02.245.272-.845 1.045.307.189-.973.789.181-1.261 2.52-2.246.801-1.141 1.143-.619 1.652.268 1.874-.015.233-5.643 4.862c-.827.711-1.566 1.685-2.263 2.975-1.379 2.556-1.091 3.038-.968 3.244a.752.752 0 0 0 .652.369.972.972 0 0 0 .556-.193l4.813-3.349L18 55.243c-.225.404-.148.701-.044.88a.75.75 0 0 0 .657.366c.833 0 2.808-1.747 2.825-1.765 1.115-1.079 2.174-2.44 3.062-3.935l3.161-5.316 11.554-8.037c.371-.258.415-.625.335-.882-.14-.448-.539-.708-2.159-.708-.556 0-1.261.057-1.788.497l-1.525 1.271-3.023 2.604-2.309 1.911-.615.123-.522.011-.153-.396-.062-1.036 6.959-7.613 1.177-1.246c5.458 4.745 16.937 14.412 22.981 18.953l-3.145 3.125 1.596.049c.259.008.483.012.687.015.899.016 1.125.026 1.479.272.312.611.468 1.774.192 2.226-.375.616-1.152 1.117-1.975 1.647-.769.497-1.562 1.009-2.151 1.692l-.081.095-1.562 4.217.848.118c.055.007.113.011.175.011 1.212 0 4.118-1.749 5.322-3.007 1.202-1.257 1.94-2.945 2.656-4.579.284-.65.579-1.323.891-1.938l.022-.043c.408-.8.6-1.3.624-1.674 1.882-.328 3.61-1.56 3.207-3.401zM36.482 37.399c.137-.113.401-.154.621-.168l-2.458 1.709 1.837-1.541zm26.035 8.065c.67-.293 1.71-1.1 1.928-.896.596.558-.388 2.205-.277 2.653l-2.146-1.686c.059.021.12.032.183.026.155.055.232-.024.312-.097zM52.053 33.918l9.553-10.923.284-.119-.08.519-7.113 8.566-2.129 2.737-.713-.572.198-.208zM31.462 24.58l-.343-1.3-1.265.05a501.22 501.22 0 0 0-2.488-1.755c-3.534-2.484-6.871-4.83-10.282-7.787-1.396-1.209-3.319-3.406-4.49-4.982 2.235.138 5.205.913 7.571 2.758l15.962 12.44a3.498 3.498 0 0 0-1.4.56l-.087-.174-1.713 1.053-1.465-.863zm-3.582 7.97l-1.106-.255-.174.888-.882-.259-.292.907-.946-.228-.341.874-.895-.274-.287.854-.827-.178-.38.899-.864-.208-.426.847-.756-.151-.555.882-.952-.044-.354.635-.831-.154-.27.721-.848-.123-.321.822-1.021-.109-.316.767-.82.006-.345.62-.832.019-.398.598-.75.051-.524.668-.995.096-.288.646-1.236.574-.615-.206 24.698-15.183-1.297 2.842-.052.01L29.381 32l-1.265-.563-.236 1.113zM16.93 50.849c.616-1.14 1.254-1.986 1.95-2.587l3.487-3.003-1.026 1.656.159 1.17-4.894 3.404c.105-.222.216-.441.324-.64zm9.056-10.519l.108 1.83.051.132.238.621.472 1.226-.519.873-3.019 5.076c-.827 1.391-1.807 2.652-2.835 3.648a2.607 2.607 0 0 1-.14.127l2.678-4.807-.044-.323-.205-1.513 2.151-3.477.034-.583.322-.853-.271.005.014-.246-.001-.001.16-2.711.706-.707 2.43-.868-2.33 2.551zm7.358-8.05l-4.947 5.413 1.676-3.352 1.659-2.715.002-.001.161-.266 1.213-2.642c.099.59.314 1.175.662 1.709.217.192.459.407.723.638l-.072.078h.001l-1.078 1.138zm21.239 7.159c.087.044.18.066.274.052.6-.099 1.971-1.232 2.224-.994.497.468-.11 1.698-.255 2.349-.107.005-.178.02-.17.07.021.136.25.467.527.556.118.056.195.044.258.008.626-.156 1.916-1.208 2.161-.979.516.482-.15 1.778-.269 2.411-.141.001-.239.011-.23.071.026.166.367.637.725.578.6-.098 1.97-1.231 2.222-.995.5.468-.106 1.694-.253 2.347-.178-.002-.311.003-.3.072a.666.666 0 0 0 .123.239c-2.441-1.918-5.09-4.014-7.04-5.714l.003-.071zm7.655 14.759l-.021.044c-.331.651-.633 1.343-.926 2.012-.667 1.522-1.355 3.098-2.389 4.179-.822.859-2.272 1.747-3.292 2.226l.703-1.897c.46-.497 1.129-.928 1.776-1.347.918-.591 1.866-1.203 2.405-2.088.635-1.046.278-2.899-.256-3.769l-.067-.107-.102-.078c-.522-.399-.947-.54-1.473-.595l.837-.832 1.228.531c.026.02.056.038.082.057.401.324.926.528 1.499.629l.394.171a8.471 8.471 0 0 1-.398.864z"/><ellipse cx="25.38" cy="44.707" rx=".806" ry=".759"/></g></svg>