<?xml version="1.0" encoding="utf-8"?>
<!-- Generator: Adobe Illustrator 15.0.0, SVG Export Plug-In . SVG Version: 6.00 Build 0)  -->
<!DOCTYPE svg PUBLIC "-//W3C//DTD SVG 1.1//EN" "http://www.w3.org/Graphics/SVG/1.1/DTD/svg11.dtd">
<svg version="1.1" id="Calque_1" xmlns="http://www.w3.org/2000/svg" xmlns:xlink="http://www.w3.org/1999/xlink" x="0px" y="0px"
	 width="70.87px" height="70.87px" viewBox="0 0 70.87 70.87" enable-background="new 0 0 70.87 70.87" xml:space="preserve">
<path fill="#FFFFFF" d="M43.826,24.498l-0.257-0.137c-0.476-0.247-0.926-0.987-0.926-1.524v-3.139c0-0.868-0.387-1.668-1.029-2.203
	c0.146-0.358,0.211-0.749,0.184-1.147l-0.575-8.441c-0.101-1.432-1.35-2.597-2.785-2.597h-6.856c-1.438,0-2.687,1.166-2.781,2.599
	l-0.577,8.442c-0.026,0.398,0.038,0.788,0.184,1.145c-0.644,0.535-1.031,1.335-1.031,2.203v3.139c0,0.537-0.45,1.279-0.935,1.53
	l-0.237,0.127c-1.226,0.638-2.15,2.159-2.15,3.541v34.008c0,1.582,1.287,2.869,2.87,2.869h16.175c1.583,0,2.87-1.287,2.87-2.869
	V28.035C45.968,26.655,45.045,25.133,43.826,24.498z M31.064,8.065c0.018-0.249,0.269-0.484,0.517-0.484h2.453
	c-1.635,0.435-2.849,1.913-2.849,3.684c0,2.109,1.715,3.826,3.823,3.826c2.109,0,3.825-1.717,3.825-3.826
	c0-1.771-1.215-3.249-2.85-3.684h2.453c0.249,0,0.499,0.233,0.516,0.482l0.576,8.441c0.007,0.092-0.019,0.169-0.085,0.24
	c-0.064,0.07-0.155,0.085-0.22,0.085h-8.429c-0.065,0-0.159-0.016-0.23-0.093c-0.069-0.075-0.079-0.171-0.075-0.235L31.064,8.065z
	 M35.009,9.709c0.856,0,1.554,0.697,1.554,1.555s-0.697,1.555-1.554,1.555c-0.855,0-1.551-0.697-1.551-1.555
	S34.153,9.709,35.009,9.709z M39.777,19.1c0.328,0,0.596,0.269,0.596,0.598v3.139c0,1.38,0.923,2.902,2.141,3.537l0.256,0.137
	c0.468,0.242,0.926,0.997,0.926,1.524v34.008c0,0.328-0.269,0.596-0.598,0.596H26.923c-0.33,0-0.599-0.268-0.599-0.596V28.035
	c0-0.537,0.451-1.279,0.932-1.528l0.244-0.128c1.224-0.641,2.146-2.163,2.146-3.542v-3.139c0-0.329,0.268-0.598,0.597-0.598H39.777z
	"/>
</svg>
