<svg xmlns="http://www.w3.org/2000/svg" width="70.87" height="70.87"><path fill="#FFF" d="M43.826 24.498l-.257-.137c-.476-.247-.926-.987-.926-1.524v-3.139c0-.868-.387-1.668-1.029-2.203.146-.358.211-.749.184-1.147l-.575-8.441c-.101-1.432-1.35-2.597-2.785-2.597h-6.856c-1.438 0-2.687 1.166-2.781 2.599l-.577 8.442c-.026.398.038.788.184 1.145a2.858 2.858 0 0 0-1.031 2.203v3.139c0 .537-.45 1.279-.935 1.53l-.237.127c-1.226.638-2.15 2.159-2.15 3.541v34.008a2.872 2.872 0 0 0 2.87 2.869H43.1a2.872 2.872 0 0 0 2.87-2.869V28.035c-.002-1.38-.925-2.902-2.144-3.537zM31.064 8.065c.018-.249.269-.484.517-.484h2.453c-1.635.435-2.849 1.913-2.849 3.684a3.83 3.83 0 0 0 3.823 3.826 3.83 3.83 0 0 0 3.825-3.826c0-1.771-1.215-3.249-2.85-3.684h2.453c.249 0 .499.233.516.482l.576 8.441a.293.293 0 0 1-.305.325h-8.429a.307.307 0 0 1-.23-.093.316.316 0 0 1-.075-.235l.575-8.436zm3.945 1.644a1.556 1.556 0 0 1 0 3.11 1.555 1.555 0 0 1 0-3.11zm4.768 9.391c.328 0 .596.269.596.598v3.139c0 1.38.923 2.902 2.141 3.537l.256.137c.468.242.926.997.926 1.524v34.008a.599.599 0 0 1-.598.596H26.923a.599.599 0 0 1-.599-.596V28.035c0-.537.451-1.279.932-1.528l.244-.128c1.224-.641 2.146-2.163 2.146-3.542v-3.139c0-.329.268-.598.597-.598h9.534z"/></svg>