<svg xmlns="http://www.w3.org/2000/svg" width="70.87" height="70.87"><path fill="#FFF" d="M67.552 22.188c-.136-.083-3.376-2.051-7.744-3.688-1.096-.412-2.367-.629-3.676-.629-1.933 0-3.746.445-5.089 1.201-.127-.232-.342-.449-.693-.637-.29-.66-.763-1.161-1.259-1.685-.213-.226-.432-.457-.658-.721a44.604 44.604 0 0 1-1.07-1.318c-.872-1.096-1.86-2.339-3.133-3.612-1.753-1.752-3.384-2.141-5.449-2.631a75.511 75.511 0 0 1-.934-.227c-1.079-.269-1.977-.401-2.746-.401-.441 0-.763.044-.998.074-.115.016-.215.03-.27.03-.341 0-.827.132-2.131.51-1.03.299-2.314.67-3.041.761-1.165.146-2.119.506-3.226.923-.404.153-.822.31-1.296.476-1.228.43-1.58.693-1.892 1.407-.08.183-.17.39-.484.755-.345.401-.679.582-1.065.791-.621.335-1.393.752-1.842 2.027-.573 1.627-.569 2.46-.564 3.723l.001.371c0 .188-.011.375-.027.559l-.115.043c-.491.188-1.102.423-1.369 1.086-.187.465-.14.949-.059 1.826.039.417.089.937.127 1.599.099 1.688.293 4.997 1.968 5.715.133 2.256.427 5.026.886 6.637-1.936 3.339-2.301 6.7-.966 9.051.7 1.234 2.352 2.874 4.912 4.873.492 2.646.667 5.815-1.049 6.639-.728.348-2.089-.028-3.665-.465-3.925-1.088-9.856-2.73-15.805 4.265a.904.904 0 0 0 1.377 1.171c5.203-6.118 10.051-4.774 13.946-3.695 1.927.532 3.59.995 4.928.354 1.269-.607 2.047-1.811 2.313-3.573.136-.903.139-1.947.01-3.156 1.074.771 1.917 1.327 2.144 1.454.741.41 4.425 1.216 7.124 1.216 2.53 0 4.836-.271 6.327-.743.175-.055.571-.182 1.87-1.114.116 2.197.838 3.993 2.074 5.077 1.062.927 2.407 1.26 3.792.938 7.309-1.699 12.929-1.854 16.608 2.91a.909.909 0 0 0 1.266.163.904.904 0 0 0 .164-1.268c-4.52-5.853-11.537-5.173-18.447-3.566-.813.191-1.571.003-2.191-.54-1.082-.946-1.604-2.79-1.453-5.096 2.08-1.647 4.586-3.809 5.717-4.941 1.086-1.083.899-3.113.551-4.626-.359-1.553-1.041-3.2-1.824-4.425.861-2.535 1.293-7.533 1.295-9.828 2.007 1.913 4.921 3.696 6.81 4.345 3.047 1.048 6.268 1.376 6.403 1.39a.91.91 0 0 0 .833-.385.905.905 0 0 0 .067-.915c-.067-.134-1.553-3.117-4.058-6.543.195-.034.38-.071.55-.111 3.138-.739 6.037-2.178 6.16-2.239a.904.904 0 0 0 .065-1.582zm-21.143 5.071c-1.934 0-4.349-.431-6.29-.777-1.476-.262-2.641-.47-3.396-.47-.202 0-.473-.009-.801-.022-.255-.012-.546-.024-.865-.04-1.204-.058-2.854-.137-4.583-.137-5.323 0-8.483.729-9.949 2.292a6.461 6.461 0 0 1-.315.312c-.408.372-.624.423-.67.432a.02.02 0 0 0-.008.001c-.039-.028-.237-.204-.438-.904l.019.001c.899 0 2.068-.562 3.487-1.675 4.129-3.245 9.164-3.989 9.213-3.996a.903.903 0 1 0-.25-1.79c-.225.031-5.556.81-10.08 4.364-1.037.815-1.692 1.116-2.051 1.226.202-.423.733-1.148 1.84-1.918a.904.904 0 0 0-1.032-1.483 9.056 9.056 0 0 0-1.627 1.425 52.157 52.157 0 0 0-.091-1.064c-.034-.36-.068-.729-.063-.916.063-.031.167-.076.34-.142a42.506 42.506 0 0 1 1.285-.471c6.892-2.422 13.342-2.939 17.594-2.939 3.352 0 5.971.308 7.576.567.144.022.281.047.415.067l.39.065c.253.042.489.082.71.121l.322.058c.154.027.302.055.442.082.881.167 1.45.304 1.795.429l.058.021a2.907 2.907 0 0 0-.002.499 3.182 3.182 0 0 0-.619 1.502c-3.752-.429-6.561-2.928-6.588-2.954a.904.904 0 0 0-1.215 1.338c.131.119 3.052 2.736 7.174 3.356-1.633.62-4.31 1.28-5.929 1.038a.903.903 0 0 0-.266 1.788c.289.043.612.063.962.063 1.955 0 4.691-.637 6.454-1.436.101.158.205.285.283.377.065.076.159.19.188.247a.657.657 0 0 1-.079.167c-.001.001-.003.002-.003.005-.018.028-.039.061-.065.098a4.09 4.09 0 0 1-.508.562c-.02.019-.041.036-.063.055-.337.275-1.077.576-2.701.576zM20.561 16.194c.217-.617.461-.75.995-1.038.454-.244 1.018-.548 1.58-1.205.49-.572.658-.956.768-1.209.013-.032.03-.069.042-.094.058-.039.24-.136.791-.329.495-.172.942-.341 1.338-.491 1.08-.407 1.86-.701 2.813-.82.868-.108 2.171-.486 3.32-.819.639-.186 1.43-.416 1.646-.439.169-.001.325-.022.489-.045.206-.026.438-.058.76-.058.619 0 1.374.113 2.308.347.332.083.649.158.952.23 1.996.474 3.199.761 4.589 2.152 1.201 1.2 2.155 2.4 2.997 3.458.391.492.76.957 1.113 1.369.146.171.29.329.427.477l-.041-.007c-.045-.008-.09-.017-.135-.023l-.096-.018-.097-.017-.109-.02a6.527 6.527 0 0 1-.245-.042l-.284-.048-.093-.016a5.327 5.327 0 0 0-.124-.02l-.112-.019-.119-.02-.142-.024-.097-.015c-.083-.015-.167-.027-.253-.042-1.567-.252-4.056-.551-7.223-.586-.211-.002-.425-.005-.642-.005l-.42.002-.141.001-.293.003-.171.003-.273.006c-.063.001-.126.002-.189.005l-.27.007-.2.007-.271.01-.206.009-.276.013-.215.011-.279.016-.222.014-.284.018-.227.016a132.746 132.746 0 0 1-.521.039l-.301.024-.229.021c-.103.008-.206.019-.312.028l-.229.022-.324.033-.226.023-.343.037-.216.025c-.123.014-.247.029-.37.046l-.198.023-.437.059-.139.018c-.389.054-.784.113-1.184.177l-.177.029c-.141.023-.281.046-.423.071l-.226.039a61.462 61.462 0 0 0-.995.184l-.263.053a22.432 22.432 0 0 0-.63.13l-.353.075-.282.063-.35.08c-.096.021-.192.045-.289.067l-.35.084c-.098.023-.195.048-.295.073l-.348.088-.298.078-.352.095-.301.082a36.34 36.34 0 0 0-.656.187l-.357.104-.303.093c-.121.036-.241.074-.361.111l-.303.096c-.123.039-.248.081-.372.122-.098.032-.196.063-.293.097l-.032.01c-.002-.091-.002-.185-.002-.276-.005-1.187-.008-1.784.461-3.115zm28.861 29.634c-.995.99-3.548 3.222-5.796 4.986a.936.936 0 0 0-.133.104c-2.155 1.683-2.687 1.884-2.74 1.899-1.303.414-3.464.661-5.781.661-2.479 0-5.768-.755-6.247-.991-.216-.119-1.874-1.22-3.699-2.631-2.453-1.893-4.129-3.507-4.716-4.546-1.053-1.853-.623-4.685 1.149-7.57a.907.907 0 0 0 .081-.776c-.448-1.26-.779-4.185-.92-6.617a.188.188 0 0 0 .024-.014l.089-.053c.017-.009.034-.02.051-.031a8.3 8.3 0 0 0 .139-.091c.046-.033.093-.066.14-.102l.033-.026c.036-.027.072-.056.108-.085l.052-.044.092-.078.055-.05c.031-.027.062-.055.091-.083.019-.018.038-.034.056-.053l.099-.096c.015-.017.032-.032.048-.049.048-.049.098-.1.147-.153.736-.785 2.831-1.721 8.631-1.721 1.687 0 3.31.078 4.496.135l.049.002a40.41 40.41 0 0 0 1.704.063c.596 0 1.802.215 3.078.442 2.007.357 4.504.803 6.595.804l.013.001h.002c.12 0 .238-.002.354-.005l.103-.005c.08-.002.16-.004.237-.009l.127-.008c.066-.005.134-.008.199-.014.047-.003.092-.009.138-.013a9.152 9.152 0 0 0 .317-.038c.052-.007.104-.013.153-.021.05-.007.099-.017.147-.025l.135-.023.149-.032.119-.026.151-.039c.034-.01.069-.02.103-.028l.063-.017c-.063 2.727-.565 7.251-1.324 9.062a.912.912 0 0 0 .1.876c1.716 2.396 2.514 6.352 1.739 7.128zm8.694-14.967c-1.732-.596-4.604-2.4-6.376-4.165 2.373 1.264 4.563 1.939 4.663 1.971a.906.906 0 0 0 .527-1.729 27.397 27.397 0 0 1-4.87-2.127c-.54-.308-.834-.549-.99-.707.19-.046.488-.085.919-.073a.901.901 0 0 0 .928-.877c.002-.027 0-.055-.001-.081 1.609.213 3.44 1.083 4.807 2.278.242.212.47.434.681.664v.001c.147.163.284.327.406.489a50.28 50.28 0 0 1 3.563 5.409c-1.163-.2-2.749-.534-4.257-1.053zm2.794-6.612c-.404.094-.911.171-1.481.223l-.031-.029-.089-.087-.103-.099a1.446 1.446 0 0 0-.091-.083l-.104-.097-.093-.082c-.037-.032-.074-.063-.11-.096l-.093-.078a11.853 11.853 0 0 0-.208-.169c-.04-.033-.081-.064-.123-.096-.029-.023-.059-.047-.09-.069l-.13-.097c-.029-.021-.057-.043-.087-.063l-.14-.1-.08-.056-.155-.104a2.854 2.854 0 0 0-.07-.047c-.058-.038-.118-.075-.177-.112l-.051-.033-.212-.128-.021-.012a11.984 11.984 0 0 0-1.735-.848l-.006-.003a8.238 8.238 0 0 0-.247-.092l-.01-.004c-.081-.029-.163-.059-.245-.086l-.008-.002c-.083-.028-.166-.054-.248-.08l-.006-.001c-.851-.263-1.699-.407-2.492-.407-.307 0-.598.021-.875.064-.007-.064-.016-.126-.024-.188 1.009-.848 2.891-1.411 4.857-1.411 1.094 0 2.146.178 3.042.515a50.246 50.246 0 0 1 5.899 2.676c-1.088.451-2.606 1.014-4.163 1.381z"/></svg>