<?xml version="1.0" encoding="utf-8"?>
<!-- Generator: Adobe Illustrator 15.0.0, SVG Export Plug-In . SVG Version: 6.00 Build 0)  -->
<!DOCTYPE svg PUBLIC "-//W3C//DTD SVG 1.1//EN" "http://www.w3.org/Graphics/SVG/1.1/DTD/svg11.dtd">
<svg version="1.1" id="Calque_1" xmlns="http://www.w3.org/2000/svg" xmlns:xlink="http://www.w3.org/1999/xlink" x="0px" y="0px"
	 width="70.87px" height="70.87px" viewBox="0 0 70.87 70.87" enable-background="new 0 0 70.87 70.87" xml:space="preserve">
<path fill="#FFFFFF" d="M67.552,22.188c-0.136-0.083-3.376-2.051-7.744-3.688c-1.096-0.412-2.367-0.629-3.676-0.629
	c-1.933,0-3.746,0.445-5.089,1.201c-0.127-0.232-0.342-0.449-0.693-0.637c-0.29-0.66-0.763-1.161-1.259-1.685
	c-0.213-0.226-0.432-0.457-0.658-0.721c-0.332-0.387-0.691-0.839-1.07-1.318c-0.872-1.096-1.86-2.339-3.133-3.612
	c-1.753-1.752-3.384-2.141-5.449-2.631c-0.298-0.071-0.608-0.145-0.934-0.227C36.768,7.972,35.87,7.84,35.101,7.84
	c-0.441,0-0.763,0.044-0.998,0.074c-0.115,0.016-0.215,0.03-0.27,0.03c-0.341,0-0.827,0.132-2.131,0.51
	c-1.03,0.299-2.314,0.67-3.041,0.761c-1.165,0.146-2.119,0.506-3.226,0.923c-0.404,0.153-0.822,0.31-1.296,0.476
	c-1.228,0.43-1.58,0.693-1.892,1.407c-0.08,0.183-0.17,0.39-0.484,0.755c-0.345,0.401-0.679,0.582-1.065,0.791
	c-0.621,0.335-1.393,0.752-1.842,2.027c-0.573,1.627-0.569,2.46-0.564,3.723c0.001,0.119,0.001,0.241,0.001,0.371
	c0,0.188-0.011,0.375-0.027,0.559c-0.038,0.015-0.077,0.028-0.115,0.043c-0.491,0.188-1.102,0.423-1.369,1.086
	c-0.187,0.465-0.14,0.949-0.059,1.826c0.039,0.417,0.089,0.937,0.127,1.599c0.099,1.688,0.293,4.997,1.968,5.715
	c0.133,2.256,0.427,5.026,0.886,6.637c-1.936,3.339-2.301,6.7-0.966,9.051c0.7,1.234,2.352,2.874,4.912,4.873
	c0.492,2.646,0.667,5.815-1.049,6.639c-0.728,0.348-2.089-0.028-3.665-0.465c-3.925-1.088-9.856-2.73-15.805,4.265
	c-0.323,0.382-0.277,0.95,0.103,1.274c0.17,0.145,0.378,0.215,0.586,0.215c0.256,0,0.509-0.109,0.688-0.318
	c5.203-6.118,10.051-4.774,13.946-3.695c1.927,0.532,3.59,0.995,4.928,0.354c1.269-0.607,2.047-1.811,2.313-3.573
	c0.136-0.903,0.139-1.947,0.01-3.156c1.074,0.771,1.917,1.327,2.144,1.454c0.741,0.41,4.425,1.216,7.124,1.216
	c2.53,0,4.836-0.271,6.327-0.743c0.175-0.055,0.571-0.182,1.87-1.114c0.116,2.197,0.838,3.993,2.074,5.077
	c1.062,0.927,2.407,1.26,3.792,0.938c7.309-1.699,12.929-1.854,16.608,2.91c0.176,0.229,0.444,0.349,0.715,0.349
	c0.192,0,0.387-0.061,0.551-0.186c0.396-0.307,0.469-0.874,0.164-1.268c-4.52-5.853-11.537-5.173-18.447-3.566
	c-0.813,0.191-1.571,0.003-2.191-0.54c-1.082-0.946-1.604-2.79-1.453-5.096c2.08-1.647,4.586-3.809,5.717-4.941
	c1.086-1.083,0.899-3.113,0.551-4.626c-0.359-1.553-1.041-3.2-1.824-4.425c0.861-2.535,1.293-7.533,1.295-9.828
	c2.007,1.913,4.921,3.696,6.81,4.345c3.047,1.048,6.268,1.376,6.403,1.39c0.03,0.003,0.061,0.004,0.089,0.004
	c0.295,0,0.574-0.144,0.744-0.389c0.187-0.271,0.212-0.621,0.067-0.915c-0.067-0.134-1.553-3.117-4.058-6.543
	c0.195-0.034,0.38-0.071,0.55-0.111c3.138-0.739,6.037-2.178,6.16-2.239c0.293-0.146,0.484-0.442,0.498-0.77
	C67.997,22.67,67.833,22.359,67.552,22.188z M46.409,27.259c-1.934,0-4.349-0.431-6.29-0.777c-1.476-0.262-2.641-0.47-3.396-0.47
	c-0.202,0-0.473-0.009-0.801-0.022c-0.255-0.012-0.546-0.024-0.865-0.04c-1.204-0.058-2.854-0.137-4.583-0.137
	c-5.323,0-8.483,0.729-9.949,2.292c-0.116,0.123-0.221,0.225-0.315,0.312c-0.408,0.372-0.624,0.423-0.67,0.432l0,0
	c-0.003,0-0.006,0-0.008,0.001c-0.039-0.028-0.237-0.204-0.438-0.904c0.006,0,0.012,0.001,0.019,0.001
	c0.899,0,2.068-0.562,3.487-1.675c4.129-3.245,9.164-3.989,9.213-3.996c0.495-0.069,0.839-0.526,0.77-1.02
	c-0.069-0.493-0.526-0.838-1.02-0.77c-0.225,0.031-5.556,0.81-10.08,4.364c-1.037,0.815-1.692,1.116-2.051,1.226
	c0.202-0.423,0.733-1.148,1.84-1.918c0.41-0.284,0.51-0.849,0.226-1.258c-0.285-0.41-0.848-0.509-1.258-0.225
	c-0.648,0.451-1.195,0.934-1.627,1.425c-0.031-0.417-0.063-0.767-0.091-1.064c-0.034-0.36-0.068-0.729-0.063-0.916
	c0.063-0.031,0.167-0.076,0.34-0.142c0.206-0.079,0.411-0.156,0.616-0.231c0.223-0.082,0.446-0.162,0.669-0.24
	c6.892-2.422,13.342-2.939,17.594-2.939c3.352,0,5.971,0.308,7.576,0.567c0.144,0.022,0.281,0.047,0.415,0.067
	c0.134,0.022,0.264,0.044,0.39,0.065c0.253,0.042,0.489,0.082,0.71,0.121c0.111,0.021,0.22,0.039,0.322,0.058
	c0.154,0.027,0.302,0.055,0.442,0.082c0.881,0.167,1.45,0.304,1.795,0.429c0.021,0.007,0.039,0.015,0.058,0.021
	c-0.008,0.074-0.012,0.158-0.012,0.253c0,0.081,0.003,0.164,0.01,0.246c-0.347,0.471-0.554,0.978-0.619,1.502
	c-3.752-0.429-6.561-2.928-6.588-2.954c-0.369-0.335-0.94-0.308-1.276,0.061c-0.336,0.369-0.308,0.942,0.061,1.277
	c0.131,0.119,3.052,2.736,7.174,3.356c-1.633,0.62-4.31,1.28-5.929,1.038c-0.493-0.073-0.953,0.267-1.026,0.76
	c-0.074,0.495,0.267,0.954,0.76,1.028c0.289,0.043,0.612,0.063,0.962,0.063c1.955,0,4.691-0.637,6.454-1.436
	c0.101,0.158,0.205,0.285,0.283,0.377c0.065,0.076,0.159,0.19,0.188,0.247c-0.006,0.021-0.022,0.069-0.068,0.148
	c-0.005,0.006-0.008,0.012-0.011,0.019c-0.001,0.001-0.003,0.002-0.003,0.005c-0.018,0.028-0.039,0.061-0.065,0.098
	c-0.116,0.162-0.283,0.348-0.498,0.553c-0.005,0.003-0.008,0.006-0.01,0.009c-0.02,0.019-0.041,0.036-0.063,0.055
	C48.773,26.958,48.033,27.259,46.409,27.259z M20.561,16.194c0.217-0.617,0.461-0.75,0.995-1.038
	c0.454-0.244,1.018-0.548,1.58-1.205c0.49-0.572,0.658-0.956,0.768-1.209c0.013-0.032,0.03-0.069,0.042-0.094
	c0.058-0.039,0.24-0.136,0.791-0.329c0.495-0.172,0.942-0.341,1.338-0.491c1.08-0.407,1.86-0.701,2.813-0.82
	c0.868-0.108,2.171-0.486,3.32-0.819c0.639-0.186,1.43-0.416,1.646-0.439c0.169-0.001,0.325-0.022,0.489-0.045
	c0.206-0.026,0.438-0.058,0.76-0.058c0.619,0,1.374,0.113,2.308,0.347c0.332,0.083,0.649,0.158,0.952,0.23
	c1.996,0.474,3.199,0.761,4.589,2.152c1.201,1.2,2.155,2.4,2.997,3.458c0.391,0.492,0.76,0.957,1.113,1.369
	c0.146,0.171,0.29,0.329,0.427,0.477c-0.013-0.002-0.028-0.005-0.041-0.007c-0.045-0.008-0.09-0.017-0.135-0.023
	c-0.03-0.006-0.063-0.012-0.096-0.018c-0.031-0.006-0.063-0.011-0.097-0.017c-0.036-0.007-0.072-0.013-0.109-0.02
	c-0.028-0.005-0.057-0.01-0.086-0.014c-0.042-0.007-0.081-0.014-0.124-0.022c-0.012-0.001-0.023-0.003-0.035-0.006
	c-0.092-0.016-0.188-0.032-0.284-0.048c-0.031-0.005-0.062-0.01-0.093-0.016c-0.041-0.007-0.083-0.014-0.124-0.02
	c-0.037-0.007-0.075-0.013-0.112-0.019c-0.039-0.007-0.079-0.013-0.119-0.02c-0.046-0.007-0.095-0.016-0.142-0.024
	c-0.032-0.004-0.063-0.01-0.097-0.015c-0.083-0.015-0.167-0.027-0.253-0.042c-1.567-0.252-4.056-0.551-7.223-0.586
	c-0.211-0.002-0.425-0.005-0.642-0.005c-0.139,0-0.277,0.001-0.42,0.002c-0.047,0-0.094,0.001-0.141,0.001
	c-0.098,0.001-0.193,0.002-0.293,0.003c-0.056,0.001-0.113,0.002-0.171,0.003c-0.091,0.001-0.182,0.004-0.273,0.006
	c-0.063,0.001-0.126,0.002-0.189,0.005c-0.09,0.002-0.18,0.005-0.27,0.007c-0.066,0.002-0.134,0.005-0.2,0.007
	c-0.09,0.003-0.179,0.007-0.271,0.01c-0.068,0.003-0.138,0.006-0.206,0.009c-0.092,0.004-0.184,0.008-0.276,0.013
	c-0.071,0.004-0.143,0.007-0.215,0.011c-0.092,0.006-0.186,0.011-0.279,0.016c-0.075,0.004-0.147,0.009-0.222,0.014
	c-0.094,0.005-0.188,0.012-0.284,0.018c-0.075,0.005-0.149,0.01-0.227,0.016c-0.096,0.007-0.193,0.014-0.292,0.021
	c-0.075,0.006-0.152,0.012-0.229,0.018c-0.1,0.008-0.201,0.017-0.301,0.024c-0.077,0.007-0.152,0.013-0.229,0.021
	c-0.103,0.008-0.206,0.019-0.312,0.028c-0.076,0.007-0.152,0.014-0.229,0.022c-0.106,0.011-0.215,0.021-0.324,0.033
	c-0.074,0.007-0.149,0.015-0.226,0.023c-0.113,0.012-0.229,0.024-0.343,0.037c-0.072,0.009-0.144,0.017-0.216,0.025
	c-0.123,0.014-0.247,0.029-0.37,0.046c-0.066,0.008-0.133,0.016-0.198,0.023c-0.145,0.019-0.291,0.039-0.437,0.059
	c-0.047,0.006-0.093,0.012-0.139,0.018c-0.389,0.054-0.784,0.113-1.184,0.177c-0.059,0.009-0.118,0.02-0.177,0.029
	c-0.141,0.023-0.281,0.046-0.423,0.071c-0.075,0.013-0.151,0.026-0.226,0.039c-0.126,0.022-0.253,0.045-0.38,0.068
	c-0.084,0.015-0.167,0.031-0.25,0.047c-0.121,0.022-0.242,0.045-0.365,0.069c-0.087,0.018-0.175,0.035-0.263,0.053
	c-0.119,0.023-0.237,0.047-0.356,0.072c-0.092,0.019-0.183,0.038-0.274,0.058c-0.117,0.024-0.235,0.049-0.353,0.075
	c-0.093,0.021-0.188,0.041-0.282,0.063c-0.116,0.026-0.233,0.053-0.35,0.08c-0.096,0.021-0.192,0.045-0.289,0.067
	c-0.116,0.027-0.232,0.056-0.35,0.084c-0.098,0.023-0.195,0.048-0.295,0.073c-0.115,0.029-0.232,0.059-0.348,0.088
	c-0.1,0.026-0.199,0.052-0.298,0.078c-0.117,0.031-0.234,0.063-0.352,0.095c-0.1,0.027-0.2,0.054-0.301,0.082
	c-0.118,0.033-0.236,0.066-0.353,0.1c-0.101,0.028-0.203,0.057-0.303,0.087c-0.119,0.034-0.238,0.069-0.357,0.104
	c-0.101,0.031-0.202,0.061-0.303,0.093c-0.121,0.036-0.241,0.074-0.361,0.111c-0.101,0.032-0.202,0.063-0.303,0.096
	c-0.123,0.039-0.248,0.081-0.372,0.122c-0.098,0.032-0.196,0.063-0.293,0.097c-0.011,0.003-0.021,0.007-0.032,0.01
	C20.1,19.494,20.1,19.4,20.1,19.309C20.095,18.122,20.092,17.525,20.561,16.194z M49.422,45.828
	c-0.995,0.99-3.548,3.222-5.796,4.986c-0.047,0.031-0.091,0.064-0.133,0.104c-2.155,1.683-2.687,1.884-2.74,1.899
	c-1.303,0.414-3.464,0.661-5.781,0.661c-2.479,0-5.768-0.755-6.247-0.991c-0.216-0.119-1.874-1.22-3.699-2.631
	c-2.453-1.893-4.129-3.507-4.716-4.546c-1.053-1.853-0.623-4.685,1.149-7.57c0.143-0.233,0.172-0.52,0.081-0.776
	c-0.448-1.26-0.779-4.185-0.92-6.617c0.008-0.004,0.017-0.009,0.024-0.014c0.03-0.018,0.059-0.034,0.089-0.053
	c0.017-0.009,0.034-0.02,0.051-0.031c0.033-0.021,0.067-0.043,0.102-0.066c0.013-0.01,0.024-0.017,0.037-0.025
	c0.046-0.033,0.093-0.066,0.14-0.102c0.011-0.008,0.022-0.018,0.033-0.026c0.036-0.027,0.072-0.056,0.108-0.085
	c0.018-0.014,0.034-0.029,0.052-0.044c0.031-0.025,0.062-0.052,0.092-0.078c0.019-0.016,0.038-0.034,0.055-0.05
	c0.031-0.027,0.062-0.055,0.091-0.083c0.019-0.018,0.038-0.034,0.056-0.053c0.033-0.031,0.066-0.063,0.099-0.096
	c0.015-0.017,0.032-0.032,0.048-0.049c0.048-0.049,0.098-0.1,0.147-0.153c0.736-0.785,2.831-1.721,8.631-1.721
	c1.687,0,3.31,0.078,4.496,0.135c0.017,0.001,0.033,0.002,0.049,0.002c0.731,0.036,1.312,0.063,1.704,0.063
	c0.596,0,1.802,0.215,3.078,0.442c2.007,0.357,4.504,0.803,6.595,0.804c0.005,0,0.008,0.001,0.013,0.001c0,0,0,0,0.002,0
	c0.12,0,0.238-0.002,0.354-0.005c0.035-0.001,0.068-0.003,0.103-0.005c0.08-0.002,0.16-0.004,0.237-0.009
	c0.044-0.002,0.086-0.006,0.127-0.008c0.066-0.005,0.134-0.008,0.199-0.014c0.047-0.003,0.092-0.009,0.138-0.013
	c0.058-0.006,0.116-0.012,0.173-0.019c0.049-0.005,0.097-0.012,0.144-0.019c0.052-0.007,0.104-0.013,0.153-0.021
	c0.05-0.007,0.099-0.017,0.147-0.025c0.045-0.008,0.091-0.016,0.135-0.023c0.05-0.011,0.1-0.021,0.149-0.032
	c0.04-0.008,0.08-0.018,0.119-0.026c0.051-0.013,0.102-0.026,0.151-0.039c0.034-0.01,0.069-0.02,0.103-0.028
	c0.021-0.006,0.043-0.011,0.063-0.017c-0.063,2.727-0.565,7.251-1.324,9.062c-0.119,0.29-0.082,0.621,0.1,0.876
	C49.399,41.096,50.197,45.052,49.422,45.828z M58.116,30.861c-1.732-0.596-4.604-2.4-6.376-4.165
	c2.373,1.264,4.563,1.939,4.663,1.971c0.087,0.027,0.177,0.04,0.264,0.04c0.388,0,0.744-0.252,0.864-0.641
	c0.146-0.477-0.124-0.981-0.601-1.128c-0.025-0.007-2.462-0.759-4.87-2.127c-0.54-0.308-0.834-0.549-0.99-0.707
	c0.19-0.046,0.488-0.085,0.919-0.073c0.498,0.015,0.915-0.378,0.928-0.877c0.002-0.027,0-0.055-0.001-0.081
	c1.609,0.213,3.44,1.083,4.807,2.278c0.242,0.212,0.47,0.434,0.681,0.664c0,0,0,0,0,0.001c0.147,0.163,0.284,0.327,0.406,0.489
	c1.582,2.081,2.811,4.09,3.563,5.409C61.21,31.714,59.624,31.38,58.116,30.861z M60.91,24.249c-0.404,0.094-0.911,0.171-1.481,0.223
	c-0.01-0.009-0.021-0.02-0.031-0.029c-0.029-0.029-0.059-0.059-0.089-0.087c-0.034-0.033-0.068-0.065-0.103-0.099
	c-0.028-0.028-0.06-0.057-0.091-0.083c-0.034-0.033-0.069-0.065-0.104-0.097c-0.031-0.027-0.062-0.054-0.093-0.082
	c-0.037-0.032-0.074-0.063-0.11-0.096c-0.03-0.026-0.062-0.052-0.093-0.078c-0.038-0.032-0.077-0.064-0.116-0.096
	c-0.03-0.025-0.062-0.05-0.092-0.073c-0.04-0.033-0.081-0.064-0.123-0.096c-0.029-0.023-0.059-0.047-0.09-0.069
	c-0.043-0.033-0.087-0.065-0.13-0.097c-0.029-0.021-0.057-0.043-0.087-0.063c-0.046-0.033-0.093-0.066-0.14-0.1
	c-0.028-0.019-0.054-0.038-0.08-0.056c-0.053-0.035-0.103-0.069-0.155-0.104c-0.023-0.016-0.047-0.032-0.07-0.047
	c-0.058-0.038-0.118-0.075-0.177-0.112c-0.016-0.011-0.034-0.022-0.051-0.033c-0.071-0.043-0.142-0.086-0.212-0.128
	c-0.008-0.004-0.014-0.008-0.021-0.012c-0.56-0.332-1.143-0.616-1.735-0.848c-0.002-0.001-0.004-0.002-0.006-0.003
	c-0.082-0.032-0.165-0.063-0.247-0.092c-0.003-0.001-0.006-0.002-0.01-0.004c-0.081-0.029-0.163-0.059-0.245-0.086
	c-0.004-0.001-0.006-0.002-0.008-0.002c-0.083-0.028-0.166-0.054-0.248-0.08c-0.002-0.001-0.004-0.001-0.006-0.001
	c-0.851-0.263-1.699-0.407-2.492-0.407c-0.307,0-0.598,0.021-0.875,0.064c-0.007-0.064-0.016-0.126-0.024-0.188
	c1.009-0.848,2.891-1.411,4.857-1.411c1.094,0,2.146,0.178,3.042,0.515c2.448,0.917,4.56,1.961,5.899,2.676
	C63.985,23.319,62.467,23.882,60.91,24.249z"/>
</svg>
