<svg xmlns="http://www.w3.org/2000/svg" width="70.87" height="70.87"><g fill="#FFF"><path d="M46.35 22.469c.128 0 .255-.021.371-.063 6.813-2.34 6.234-7.359 5.722-11.808-.226-1.949-.458-3.966.002-5.593a1.137 1.137 0 0 0-.746-1.387l.019-.188-.118.161a1.14 1.14 0 0 0-1.075.331c-3.012 3.205-3.281 6.427-3.542 9.547-.194 2.313-.395 4.706-1.657 7.377a1.12 1.12 0 0 0 .172 1.23c.213.251.523.393.852.393zm3.644-13.414c.054.625.125 1.239.192 1.823.398 3.434.726 6.255-1.769 8.145.541-1.946.69-3.738.827-5.368.139-1.646.265-3.15.75-4.6zm-.814 36.806a1.137 1.137 0 0 0 1.398 1.556c8.439-2.896 8.884-8.666 8.449-13.963 3.854-2.162 3.445-5.784 3.083-8.998-.176-1.555-.358-3.163.003-4.44a1.138 1.138 0 0 0-.795-1.398l.014-.209-.127.184a1.164 1.164 0 0 0-1.016.344c-.666.71-1.17 1.419-1.555 2.127a1.15 1.15 0 0 0-.561-.501l.03-.204-.135.168a1.141 1.141 0 0 0-1.153.311c-4.349 4.629-4.724 9.114-5.122 13.882-.293 3.483-.595 7.085-2.513 11.141zm6.87-20.156c.022 1.665.218 3.363.41 5.032l.084.728c.03.27.155.511.342.689a1.136 1.136 0 0 0-.189.743c.445 4.621.394 8.691-4.391 11.304 1.154-3.354 1.407-6.373 1.652-9.309.277-3.315.524-6.27 2.092-9.187zm2.993 4.89c.289-1.279.389-2.466.486-3.638.074-.871.144-1.691.295-2.479l.026.235c.298 2.628.423 4.529-.807 5.882zm-42.909 18.8a1.13 1.13 0 0 0 1.225-.309 1.13 1.13 0 0 0 .184-1.246c-1.921-4.066-2.222-7.67-2.513-11.154-.397-4.75-.773-9.237-5.119-13.867a1.143 1.143 0 0 0-1.154-.31l-.134-.167.029.203a1.133 1.133 0 0 0-.665 1.359c.715 2.525.361 5.588.019 8.557-.737 6.377-1.572 13.603 8.128 16.934zm-5.871-16.676c.192-1.664.389-3.364.411-5.032 1.568 2.918 1.815 5.872 2.092 9.186.245 2.934.498 5.953 1.65 9.303-5.364-2.955-4.8-7.856-4.153-13.457zm21.134-2.154l-.037-.021.094-.463-.302.382c-.4-.116-.854.011-1.14.313-1.665 1.774-2.74 3.551-3.454 5.268.109-4.101.742-6.912 1.32-9.479 1.07-4.734 1.915-8.475-.967-17.154a1.137 1.137 0 0 0-.982-.772L25.744 8l-.069.646-.011.002a1.139 1.139 0 0 0-.966 1.1c-.099 4.729-1.754 9.216-3.358 13.564-3.221 8.732-6.551 17.76 2.334 29.038a22.9 22.9 0 0 1-1.295 3.453c-.198.42-.124.91.172 1.23a1.14 1.14 0 0 0 1.225.328c1.047-.359 4.544-1.688 5.593-3.662 1.428-2.686 1.479-6.684 1.534-10.943.046-3.727.094-7.579 1.033-10.898a1.132 1.132 0 0 0-.539-1.293zm-4.034 22.068c-.24.451-.916.988-1.871 1.51.193-.57.369-1.156.531-1.77a1.134 1.134 0 0 0-.221-.998c-8.521-10.482-5.516-18.638-2.331-27.28 1.016-2.744 2.055-5.555 2.735-8.498.812 4.456.197 7.183-.544 10.473-.935 4.145-2.098 9.303-.831 19.557.052.432.342.781.738.928l.178 2.434.305-2.365c.553-.045.993-.48 1.037-1.035l.063-.75c.254-3.027.483-5.752 1.711-8.42-.181 2.088-.207 4.221-.233 6.309-.049 3.96-.096 7.7-1.267 9.905z"/><path d="M46.129 38.105c1.605-3.374 2.992-6.288 1.25-11.618a1.168 1.168 0 0 0-.932-.77l-.071-.286-.087.275c-.503.004-.937.33-1.078.811-1.742 5.869-2.991 7.709-3.529 8.271-.104-.412-.17-1.139.013-2.029.135-.652.271-1.279.406-1.896 1.181-5.4 2.112-9.666-1.246-18.274a1.126 1.126 0 0 0-1.021-.725l-.189-.551-.05.568-.002.001a1.145 1.145 0 0 0-.933 1.102c-.073 5.172-1.93 10.508-3.729 15.676-3.972 11.407-8.078 23.2 6.554 33.809.191.133.423.207.654.207.204 0 .397-.053.585-.16.395-.238.606-.682.542-1.121-1.768-13.584.907-19.19 2.863-23.29zM40.707 58.98c-10.749-9.115-7.439-18.627-3.63-29.572 1.245-3.574 2.522-7.24 3.25-10.948 1.1 4.843.4 8.046-.445 11.922l-.028.127c-.127.581-.258 1.175-.385 1.793-.353 1.721-.121 3.394.587 4.26.377.465.894.721 1.453.721.98 0 2.442-.658 4.391-5.685-.122 1.962-.886 3.565-1.825 5.537-1.931 4.051-4.542 9.531-3.368 21.845zm-20.402-8.906c-.307-.461-.956-.629-1.436-.396l-.191.004-.129.172L7.01 56.287a3.96 3.96 0 0 0-1.89 2.395 3.939 3.939 0 0 0 .35 3.027l.577 1.039a3.994 3.994 0 0 0 5.424 1.539l7.541-4.203a1.13 1.13 0 0 0 .471-.506l1.32-2.801a23.64 23.64 0 0 0 1.297-3.426 1.138 1.138 0 0 0-.193-1.025 31.81 31.81 0 0 1-1.602-2.252zM8.032 61.641l-.577-1.035c-.224-.4-.277-.863-.152-1.305s.414-.807.813-1.029l10.882-6.068c.252.363.502.711.756 1.049a21.62 21.62 0 0 1-1.006 2.559l-1.166 2.467-7.218 4.025c-.798.446-1.89.128-2.332-.663z"/><path d="M66.355 58.682a3.968 3.968 0 0 0-1.892-2.395l-14.22-7.928c-.533-.297-1.257-.084-1.54.436-1.05 1.865-2.559 3.4-4.616 4.693-.335.213-.538.59-.529.992.012.396.233.764.584.961l15.859 8.844a3.994 3.994 0 0 0 5.425-1.537l.576-1.035c.52-.926.645-2.002.353-3.031zm-2.913 2.959c-.439.791-1.533 1.109-2.332.662l-14.282-7.965c1.301-1.02 2.394-2.18 3.261-3.465l13.27 7.398c.397.223.685.588.81 1.031a1.7 1.7 0 0 1-.148 1.303l-.579 1.036z"/></g></svg>