<svg xmlns="http://www.w3.org/2000/svg" width="70.87" height="70.87"><g fill="#FFF"><path d="M60.628 52.037a2.927 2.927 0 0 0-2.07 4.99 2.89 2.89 0 0 0 2.066.859h.003a2.93 2.93 0 0 0 2.069-4.996 2.906 2.906 0 0 0-2.068-.853zm0 2.272h.004a.63.63 0 0 1 .459.191.654.654 0 0 1-.925.924.653.653 0 0 1 .462-1.115z"/><path d="M68.278 53.777c-1.624-2.861-8.293-11.293-13.88-15.928a250.83 250.83 0 0 0-4.17-3.378c-2.39-1.9-3.589-2.854-5.425-4.926-1.484-1.676-2.805-4.075-3.98-6.213-.981-1.777-1.757-3.182-2.489-3.913l-1.951-1.951a10.2 10.2 0 0 0 .239-1.098c.383-2.32-3.964-7.021-5.271-8.37a2.322 2.322 0 0 0-.194-.181c-.366-.294-.979-.786-1.789-.786-.522 0-1.007.208-1.398.601l-.644.644c-.399-.367-.961-.561-1.631-.561-1.68 0-3.905 1.185-5.808 3.091-2.022 2.02-3.278 4.319-3.278 6.001 0 .653.195 1.21.569 1.617l-1.665 1.661c-2.396 2.396-5.704 6.308-8.058 9.167-.772.936-1.99 2.53-3.064 3.938l-.293.384c-.592.778-1.082 1.424-1.319 1.719l-.239.299a1.127 1.127 0 0 0 .043 1.476c5.63 6.193 13.659 9.973 19.136 10.973l.188.016c.25 0 .489-.08.691-.234a1.13 1.13 0 0 0 .442-.82l.083-.75c.163-1.469.658-5.939.894-7.324a1.07 1.07 0 0 0-.023-.492c-.504-1.873.611-8.189 2.063-11.125a834.734 834.734 0 0 1 6.809 6.938c2.3 2.374 4.167 3.838 6.774 5.881a215.113 215.113 0 0 1 5.649 4.535c6.026 5.01 8.985 11.975 9.203 14.033.297 2.826 2.395 2.826 3.084 2.826.219 0 .438-.01.659-.02.223-.01.451-.02.686-.02 1.952 0 7.655-2.066 8.46-2.604.056-.035.112-.072.196-.119 1.22-.741 2.402-1.975.701-4.987zm-1.95 3.084l-.201.127c-.605.389-5.823 2.225-7.206 2.225-.239 0-.475.01-.791.023-.226.01-.432.02-.618.02-.6 0-.677 0-.761-.795-.282-2.672-3.605-10.217-10.008-15.545-2.432-2.02-4.322-3.496-5.731-4.598-2.605-2.039-4.327-3.386-6.515-5.649a866.129 866.129 0 0 0-6.611-6.744l.129-.237-.225-.154.613-.356.357-.208c2.882-1.671 5.229-3.031 6.629-5.282l1.339 1.34c.498.497 1.265 1.883 2.115 3.423 1.162 2.112 2.607 4.742 4.258 6.603 1.957 2.209 3.277 3.259 5.712 5.196l.082.066c1.071.852 2.372 1.887 4.055 3.283 5.4 4.48 11.803 12.566 13.35 15.301.833 1.475.588 1.623.028 1.961zM20.913 45.543c-4.456-1.102-10.951-4.094-15.993-9.299.266-.345.616-.803 1.008-1.318.689-.906 1.476-1.938 2.171-2.83.752.666 1.865 1.155 3.157 1.365 1.18.19 2.134 1.069 3.241 2.088.816.753 1.66 1.533 2.665 2.042.55.279 1.075.557 1.566.814l.183.096c1.24.658 2.061 1.078 2.683 1.311-.204 1.54-.468 3.829-.681 5.731zm4.269-20.942l-.323.333-.01.063c-1.952 2.575-3.26 8.893-3.229 12.349-.499-.244-1.091-.557-1.648-.85-.549-.291-1.146-.609-1.775-.928-.743-.38-1.462-1.044-2.162-1.691-1.201-1.105-2.563-2.358-4.414-2.659-1.117-.182-1.801-.596-2.109-.886 2.299-2.78 5.381-6.405 7.609-8.638l12.324-12.32c.089.06.193.141.273.204 2.752 2.863 4.73 5.75 4.665 6.423-.56 3.407-2.892 4.76-6.758 7.003-.576.333-1.177.68-1.808 1.056-.222.133-.44.321-.635.541zm.429-14.61l-6.729 6.729c.053-.767.768-2.467 2.61-4.307 1.612-1.614 3.24-2.376 4.119-2.422z"/></g></svg>