<?xml version="1.0" encoding="utf-8"?>
<!-- Generator: Adobe Illustrator 15.0.0, SVG Export Plug-In . SVG Version: 6.00 Build 0)  -->
<!DOCTYPE svg PUBLIC "-//W3C//DTD SVG 1.1//EN" "http://www.w3.org/Graphics/SVG/1.1/DTD/svg11.dtd">
<svg version="1.1" id="Calque_1" xmlns="http://www.w3.org/2000/svg" xmlns:xlink="http://www.w3.org/1999/xlink" x="0px" y="0px"
	 width="70.87px" height="70.87px" viewBox="0 0 70.87 70.87" enable-background="new 0 0 70.87 70.87" xml:space="preserve">
<g>
	<path fill="#FFFFFF" d="M47.876,52.356c-0.626,0-1.136,0.51-1.136,1.136v3.089c0,0.626,0.51,1.136,1.136,1.136
		c0.627,0,1.137-0.51,1.137-1.136v-3.089C49.013,52.866,48.503,52.356,47.876,52.356z"/>
	<path fill="#FFFFFF" d="M48.016,58.541l-0.171-0.013c-0.565,0-1.047,0.427-1.119,0.995c-0.078,0.621-0.507,1.168-1.151,1.466
		c-0.56,0.265-0.806,0.938-0.547,1.504c0.185,0.401,0.589,0.661,1.03,0.661c0.187,0,0.354-0.039,0.479-0.105
		c1.35-0.624,2.263-1.835,2.442-3.237C49.061,59.192,48.621,58.622,48.016,58.541z"/>
	<path fill="#FFFFFF" d="M36.841,61.203h-3.088c-0.626,0-1.136,0.509-1.136,1.135s0.51,1.136,1.136,1.136h3.088
		c0.627,0,1.137-0.51,1.137-1.136S37.468,61.203,36.841,61.203z"/>
	<path fill="#FFFFFF" d="M43.019,61.203H39.93c-0.626,0-1.136,0.509-1.136,1.135s0.51,1.136,1.136,1.136h3.089
		c0.626,0,1.136-0.51,1.136-1.136S43.645,61.203,43.019,61.203z"/>
	<path fill="#FFFFFF" d="M47.876,46.18c-0.626,0-1.136,0.51-1.136,1.136v3.088c0,0.627,0.51,1.137,1.136,1.137
		c0.627,0,1.137-0.51,1.137-1.137v-3.088C49.013,46.689,48.503,46.18,47.876,46.18z"/>
	<path fill="#FFFFFF" d="M22.992,57.438c0.626,0,1.136-0.51,1.136-1.136v-3.088c0-0.626-0.51-1.136-1.136-1.136
		s-1.136,0.51-1.136,1.136v3.088C21.856,56.929,22.366,57.438,22.992,57.438z"/>
	<path fill="#FFFFFF" d="M22.992,51.263c0.626,0,1.136-0.51,1.136-1.136v-3.088c0-0.627-0.51-1.138-1.136-1.138
		s-1.136,0.511-1.136,1.138v3.088C21.856,50.753,22.366,51.263,22.992,51.263z"/>
	<path fill="#FFFFFF" d="M30.664,61.203h-3.087c-0.627,0-1.137,0.509-1.137,1.135s0.51,1.136,1.137,1.136h3.087
		c0.627,0,1.137-0.51,1.137-1.136S31.291,61.203,30.664,61.203z"/>
	<path fill="#FFFFFF" d="M25.126,60.903c-0.605-0.342-0.978-0.92-0.995-1.549c-0.019-0.57-0.468-1.03-1.164-1.099
		c-0.305,0.007-0.588,0.133-0.797,0.354c-0.21,0.222-0.32,0.512-0.311,0.815c0.041,1.425,0.843,2.717,2.134,3.449
		c0.169,0.101,0.367,0.153,0.571,0.153c0.406,0,0.785-0.219,0.988-0.573C25.861,61.914,25.673,61.221,25.126,60.903z"/>
	<path fill="#FFFFFF" d="M52.259,16.123c-1.041-1.079-2.525-1.698-4.071-1.698h-5.723V6.201c0-1.434-1.206-2.601-2.688-2.601h-8.683
		c-1.482,0-2.688,1.167-2.688,2.601v8.224h-5.724c-1.549,0-3.032,0.619-4.069,1.698c-0.997,1.034-1.516,2.387-1.462,3.808
		l0.586,15.712c0.03,0.796,0.251,1.576,0.654,2.323v23.489c0,2.763,2.389,5.011,5.325,5.011h23.437c2.937,0,5.325-2.248,5.325-5.011
		V37.964c0.405-0.742,0.625-1.522,0.654-2.322l0.588-15.711C53.773,18.514,53.256,17.162,52.259,16.123z M31.903,9.745
		c0.627,0,1.138-0.51,1.138-1.136V6.378c0-0.185-0.055-0.352-0.133-0.506h5.014c-0.078,0.154-0.133,0.321-0.133,0.506v2.231
		c0,0.626,0.51,1.136,1.136,1.136c0.627,0,1.137-0.51,1.137-1.136V6.378c0-0.169-0.042-0.326-0.108-0.471
		c0.139,0.054,0.239,0.165,0.239,0.294v8.224h-0.661c0.312-0.203,0.53-0.537,0.53-0.936v-2.231c0-0.627-0.51-1.137-1.137-1.137
		c-0.626,0-1.136,0.51-1.136,1.137v2.231c0,0.398,0.219,0.732,0.53,0.936h-5.81c0.313-0.203,0.531-0.537,0.531-0.936v-2.231
		c0-0.627-0.511-1.137-1.138-1.137c-0.626,0-1.136,0.51-1.136,1.137v2.231c0,0.398,0.219,0.732,0.53,0.936h-0.621V6.201
		c0-0.108,0.074-0.201,0.18-0.262c-0.057,0.136-0.089,0.283-0.089,0.438v2.231C30.768,9.235,31.277,9.745,31.903,9.745z
		 M47.152,64.194H23.716c-1.684,0-3.053-1.229-3.053-2.739V40.288c0.382,0.219,0.788,0.384,1.206,0.512
		c-0.002,0.021-0.013,0.04-0.013,0.062v3.089c0,0.626,0.51,1.136,1.136,1.136s1.136-0.51,1.136-1.136v-2.884h22.627
		c-0.001,0.025-0.015,0.047-0.015,0.073v3.088c0,0.626,0.51,1.136,1.136,1.136c0.627,0,1.137-0.51,1.137-1.136V41.14
		c0-0.114-0.034-0.218-0.065-0.322c0.438-0.129,0.861-0.302,1.259-0.529v21.167C50.206,62.966,48.836,64.194,47.152,64.194z
		 M22.682,16.696h1.686c-0.301,0.204-0.512,0.532-0.512,0.923c0,0.627,0.51,1.137,1.136,1.137h3.007c0.627,0,1.137-0.51,1.137-1.137
		c0-0.391-0.211-0.719-0.512-0.923h1.756c-0.301,0.204-0.511,0.532-0.511,0.923c0,0.627,0.51,1.137,1.136,1.137h3.005
		c0.627,0,1.137-0.51,1.137-1.137c0-0.391-0.21-0.719-0.512-0.923h1.758c-0.301,0.204-0.511,0.532-0.511,0.923
		c0,0.627,0.509,1.137,1.135,1.137h3.005c0.626,0,1.136-0.51,1.136-1.137c0-0.391-0.211-0.719-0.512-0.923h1.758
		c-0.301,0.204-0.512,0.532-0.512,0.923c0,0.627,0.51,1.137,1.137,1.137h3.049c0.624,0,1.112-0.499,1.112-1.137
		c0-0.391-0.214-0.719-0.521-0.923h1.52c0.946,0,1.811,0.356,2.434,1.005c0.563,0.585,0.857,1.347,0.828,2.144l-0.588,15.714
		c-0.067,1.783-1.675,3.234-3.584,3.234H46.67c1.025-0.293,1.959-0.883,2.615-1.707c0.191-0.235,0.28-0.532,0.248-0.834
		c-0.031-0.302-0.18-0.573-0.425-0.771c-0.476-0.373-1.219-0.286-1.59,0.181c-0.448,0.559-1.115,0.938-1.838,1.041
		c-0.611,0.095-1.039,0.67-0.953,1.285c0.05,0.352,0.271,0.634,0.562,0.805h-1.815c0.302-0.205,0.512-0.533,0.512-0.924
		c0-0.626-0.51-1.136-1.137-1.136h-3.006c-0.627,0-1.137,0.51-1.137,1.136c0,0.391,0.21,0.719,0.512,0.924h-1.755
		c0.301-0.205,0.512-0.533,0.512-0.924c0-0.626-0.51-1.136-1.136-1.136h-3.008c-0.626,0-1.136,0.51-1.136,1.136
		c0,0.391,0.211,0.719,0.512,0.924h-1.755c0.302-0.205,0.512-0.533,0.512-0.924c0-0.626-0.51-1.136-1.137-1.136h-3.006
		c-0.627,0-1.137,0.51-1.137,1.136c0,0.391,0.21,0.719,0.512,0.924h-1.868c0.303-0.155,0.537-0.429,0.606-0.779
		c0.059-0.3-0.004-0.604-0.175-0.857c-0.171-0.251-0.429-0.421-0.718-0.475c-0.714-0.142-1.359-0.553-1.772-1.131
		c-0.358-0.493-1.113-0.607-1.583-0.261c-0.247,0.176-0.41,0.438-0.46,0.738c-0.05,0.301,0.02,0.603,0.197,0.849
		c0.667,0.933,1.67,1.602,2.785,1.916h-0.616c-1.91,0-3.519-1.451-3.586-3.234l-0.588-15.713c-0.029-0.799,0.265-1.561,0.83-2.146
		C20.871,17.053,21.735,16.696,22.682,16.696z"/>
	<path fill="#FFFFFF" d="M49.326,29.412c-0.604,0-1.108,0.496-1.121,1.095l-0.116,3.011c-0.017,0.619,0.472,1.144,1.121,1.17h0.015
		c0.619,0,1.118-0.483,1.135-1.093l0.116-3.013c0.008-0.3-0.101-0.587-0.306-0.808C49.961,29.55,49.678,29.422,49.326,29.412z"/>
	<path fill="#FFFFFF" d="M48.554,21.061l-0.016,0.442c-0.017,0.622,0.474,1.147,1.121,1.171h0.015c0.61,0,1.109-0.479,1.136-1.097
		l0.016-0.489c0-1.151-0.438-2.251-1.23-3.09c-0.409-0.443-1.164-0.473-1.613-0.051c-0.219,0.208-0.344,0.488-0.354,0.79
		c-0.01,0.305,0.102,0.595,0.309,0.813C48.334,19.975,48.554,20.521,48.554,21.061z"/>
	<path fill="#FFFFFF" d="M49.531,23.406c-0.596,0.037-1.08,0.516-1.104,1.093l-0.116,3.012c-0.017,0.625,0.477,1.149,1.124,1.17
		h0.013c0.616,0,1.115-0.482,1.135-1.095l0.115-3.007C50.718,23.952,50.227,23.426,49.531,23.406z"/>
	<path fill="#FFFFFF" d="M21.188,22.475h0.026l0.014-0.001c0.627-0.022,1.118-0.551,1.096-1.174l-0.008-0.21
		c0.001-0.618,0.255-1.198,0.717-1.638c0.45-0.432,0.467-1.151,0.041-1.6c-0.411-0.439-1.166-0.463-1.609-0.045
		c-0.914,0.869-1.419,2.033-1.421,3.305l0.009,0.264C20.069,21.992,20.568,22.475,21.188,22.475z"/>
	<path fill="#FFFFFF" d="M21.413,28.482h0.027l0.014-0.001c0.626-0.022,1.116-0.551,1.093-1.177l-0.111-3.011
		c-0.028-0.609-0.518-1.076-1.182-1.086c-0.302,0.012-0.582,0.141-0.788,0.362c-0.207,0.224-0.313,0.514-0.301,0.814l0.111,3.011
		C20.305,28.005,20.804,28.482,21.413,28.482z"/>
	<path fill="#FFFFFF" d="M21.489,29.216c-0.303,0.009-0.584,0.135-0.792,0.355c-0.209,0.223-0.319,0.513-0.309,0.821l0.111,3.011
		c0.028,0.61,0.526,1.088,1.134,1.088h0.032l0.018-0.001c0.302-0.014,0.581-0.143,0.785-0.363c0.208-0.224,0.314-0.516,0.301-0.814
		l-0.11-3.001C22.64,29.718,22.161,29.246,21.489,29.216z"/>
	<path fill="#FFFFFF" d="M35.437,32.73c2.869,0,5.204-2.335,5.204-5.205c0-2.871-2.335-5.206-5.204-5.206
		c-2.872,0-5.208,2.335-5.208,5.206C30.229,30.396,32.564,32.73,35.437,32.73z M35.437,24.592c1.616,0,2.932,1.316,2.932,2.934
		s-1.315,2.934-2.932,2.934c-1.619,0-2.937-1.316-2.937-2.934S33.817,24.592,35.437,24.592z"/>
	<path fill="#FFFFFF" d="M35.437,59.822c0.626,0,1.136-0.51,1.136-1.136V43.383c0-0.626-0.51-1.136-1.136-1.136
		c-0.627,0-1.137,0.51-1.137,1.136v15.304C34.3,59.313,34.81,59.822,35.437,59.822z"/>
</g>
</svg>
