<svg xmlns="http://www.w3.org/2000/svg" width="70.87" height="70.87"><g fill="#FFF"><path d="M47.876 52.356c-.626 0-1.136.51-1.136 1.136v3.089c0 .626.51 1.136 1.136 1.136.627 0 1.137-.51 1.137-1.136v-3.089c0-.626-.51-1.136-1.137-1.136zm.14 6.185l-.171-.013c-.565 0-1.047.427-1.119.995-.078.621-.507 1.168-1.151 1.466-.56.265-.806.938-.547 1.504a1.139 1.139 0 0 0 1.509.556c1.35-.624 2.263-1.835 2.442-3.237a1.134 1.134 0 0 0-.963-1.271zm-11.175 2.662h-3.088c-.626 0-1.136.509-1.136 1.135s.51 1.136 1.136 1.136h3.088c.627 0 1.137-.51 1.137-1.136s-.51-1.135-1.137-1.135zm6.178 0H39.93c-.626 0-1.136.509-1.136 1.135s.51 1.136 1.136 1.136h3.089c.626 0 1.136-.51 1.136-1.136s-.51-1.135-1.136-1.135zm4.857-15.023c-.626 0-1.136.51-1.136 1.136v3.088c0 .627.51 1.137 1.136 1.137.627 0 1.137-.51 1.137-1.137v-3.088c0-.627-.51-1.136-1.137-1.136zM22.992 57.438c.626 0 1.136-.51 1.136-1.136v-3.088c0-.626-.51-1.136-1.136-1.136s-1.136.51-1.136 1.136v3.088c0 .627.51 1.136 1.136 1.136zm0-6.175c.626 0 1.136-.51 1.136-1.136v-3.088c0-.627-.51-1.138-1.136-1.138s-1.136.511-1.136 1.138v3.088c0 .626.51 1.136 1.136 1.136zm7.672 9.94h-3.087c-.627 0-1.137.509-1.137 1.135s.51 1.136 1.137 1.136h3.087c.627 0 1.137-.51 1.137-1.136s-.51-1.135-1.137-1.135zm-5.538-.3c-.605-.342-.978-.92-.995-1.549-.019-.57-.468-1.03-1.164-1.099a1.125 1.125 0 0 0-.797.354 1.13 1.13 0 0 0-.311.815c.041 1.425.843 2.717 2.134 3.449a1.142 1.142 0 0 0 1.559-.42 1.14 1.14 0 0 0-.426-1.55z"/><path d="M52.259 16.123c-1.041-1.079-2.525-1.698-4.071-1.698h-5.723V6.201c0-1.434-1.206-2.601-2.688-2.601h-8.683c-1.482 0-2.688 1.167-2.688 2.601v8.224h-5.724c-1.549 0-3.032.619-4.069 1.698a5.162 5.162 0 0 0-1.462 3.808l.586 15.712c.03.796.251 1.576.654 2.323v23.489c0 2.763 2.389 5.011 5.325 5.011h23.437c2.937 0 5.325-2.248 5.325-5.011V37.964a5.206 5.206 0 0 0 .654-2.322l.588-15.711a5.18 5.18 0 0 0-1.461-3.808zM31.903 9.745c.627 0 1.138-.51 1.138-1.136V6.378a1.11 1.11 0 0 0-.133-.506h5.014a1.11 1.11 0 0 0-.133.506v2.231c0 .626.51 1.136 1.136 1.136.627 0 1.137-.51 1.137-1.136V6.378a1.13 1.13 0 0 0-.108-.471c.139.054.239.165.239.294v8.224h-.661c.312-.203.53-.537.53-.936v-2.231c0-.627-.51-1.137-1.137-1.137-.626 0-1.136.51-1.136 1.137v2.231c0 .398.219.732.53.936h-5.81c.313-.203.531-.537.531-.936v-2.231a1.138 1.138 0 0 0-2.274 0v2.231c0 .398.219.732.53.936h-.621V6.201c0-.108.074-.201.18-.262a1.127 1.127 0 0 0-.089.438v2.231a1.14 1.14 0 0 0 1.137 1.137zm15.249 54.449H23.716c-1.684 0-3.053-1.229-3.053-2.739V40.288c.382.219.788.384 1.206.512-.002.021-.013.04-.013.062v3.089c0 .626.51 1.136 1.136 1.136s1.136-.51 1.136-1.136v-2.884h22.627c-.001.025-.015.047-.015.073v3.088c0 .626.51 1.136 1.136 1.136.627 0 1.137-.51 1.137-1.136V41.14c0-.114-.034-.218-.065-.322a5.893 5.893 0 0 0 1.259-.529v21.167c-.001 1.51-1.371 2.738-3.055 2.738zm-24.47-47.498h1.686c-.301.204-.512.532-.512.923 0 .627.51 1.137 1.136 1.137h3.007c.627 0 1.137-.51 1.137-1.137 0-.391-.211-.719-.512-.923h1.756a1.115 1.115 0 0 0-.511.923c0 .627.51 1.137 1.136 1.137h3.005c.627 0 1.137-.51 1.137-1.137 0-.391-.21-.719-.512-.923h1.758a1.115 1.115 0 0 0-.511.923c0 .627.509 1.137 1.135 1.137h3.005c.626 0 1.136-.51 1.136-1.137 0-.391-.211-.719-.512-.923h1.758c-.301.204-.512.532-.512.923 0 .627.51 1.137 1.137 1.137h3.049c.624 0 1.112-.499 1.112-1.137 0-.391-.214-.719-.521-.923h1.52c.946 0 1.811.356 2.434 1.005.563.585.857 1.347.828 2.144l-.588 15.714c-.067 1.783-1.675 3.234-3.584 3.234h-.609c1.025-.293 1.959-.883 2.615-1.707a1.132 1.132 0 0 0-.177-1.605c-.476-.373-1.219-.286-1.59.181a2.894 2.894 0 0 1-1.838 1.041 1.144 1.144 0 0 0-.953 1.285c.05.352.271.634.562.805h-1.815c.302-.205.512-.533.512-.924 0-.626-.51-1.136-1.137-1.136h-3.006c-.627 0-1.137.51-1.137 1.136 0 .391.21.719.512.924h-1.755c.301-.205.512-.533.512-.924 0-.626-.51-1.136-1.136-1.136h-3.008c-.626 0-1.136.51-1.136 1.136 0 .391.211.719.512.924h-1.755c.302-.205.512-.533.512-.924 0-.626-.51-1.136-1.137-1.136h-3.006c-.627 0-1.137.51-1.137 1.136 0 .391.21.719.512.924h-1.868c.303-.155.537-.429.606-.779a1.13 1.13 0 0 0-.175-.857 1.12 1.12 0 0 0-.718-.475 2.881 2.881 0 0 1-1.772-1.131c-.358-.493-1.113-.607-1.583-.261-.247.176-.41.438-.46.738-.05.301.02.603.197.849.667.933 1.67 1.602 2.785 1.916h-.616c-1.91 0-3.519-1.451-3.586-3.234l-.588-15.713a2.914 2.914 0 0 1 .83-2.146c.623-.647 1.487-1.004 2.434-1.004z"/><path d="M49.326 29.412a1.13 1.13 0 0 0-1.121 1.095l-.116 3.011a1.149 1.149 0 0 0 1.121 1.17h.015c.619 0 1.118-.483 1.135-1.093l.116-3.013c.008-.3-.101-.587-.306-.808a1.157 1.157 0 0 0-.844-.362zm-.772-8.351l-.016.442a1.148 1.148 0 0 0 1.121 1.171h.015c.61 0 1.109-.479 1.136-1.097l.016-.489a4.491 4.491 0 0 0-1.23-3.09c-.409-.443-1.164-.473-1.613-.051a1.133 1.133 0 0 0-.045 1.603c.396.425.616.971.616 1.511zm.977 2.345c-.596.037-1.08.516-1.104 1.093l-.116 3.012a1.146 1.146 0 0 0 1.124 1.17h.013a1.13 1.13 0 0 0 1.135-1.095l.115-3.007c.02-.627-.471-1.153-1.167-1.173zm-28.343-.931h.026l.014-.001a1.138 1.138 0 0 0 1.096-1.174l-.008-.21a2.251 2.251 0 0 1 .717-1.638c.45-.432.467-1.151.041-1.6-.411-.439-1.166-.463-1.609-.045a4.514 4.514 0 0 0-1.421 3.305l.009.264a1.126 1.126 0 0 0 1.135 1.099zm.225 6.007h.027l.014-.001a1.136 1.136 0 0 0 1.093-1.177l-.111-3.011c-.028-.609-.518-1.076-1.182-1.086a1.133 1.133 0 0 0-1.089 1.176l.111 3.011a1.138 1.138 0 0 0 1.137 1.088zm.076.734a1.136 1.136 0 0 0-1.101 1.176l.111 3.011c.028.61.526 1.088 1.134 1.088h.032l.018-.001a1.136 1.136 0 0 0 1.086-1.177l-.11-3.001c-.019-.594-.498-1.066-1.17-1.096zm13.948 3.514a5.21 5.21 0 0 0 5.204-5.205 5.211 5.211 0 0 0-5.204-5.206 5.212 5.212 0 0 0-5.208 5.206 5.211 5.211 0 0 0 5.208 5.205zm0-8.138c1.616 0 2.932 1.316 2.932 2.934s-1.315 2.934-2.932 2.934c-1.619 0-2.937-1.316-2.937-2.934s1.317-2.934 2.937-2.934zm0 35.23c.626 0 1.136-.51 1.136-1.136V43.383c0-.626-.51-1.136-1.136-1.136-.627 0-1.137.51-1.137 1.136v15.304c0 .626.51 1.135 1.137 1.135z"/></g></svg>