<?xml version="1.0" encoding="utf-8"?>
<!-- Generator: Adobe Illustrator 15.0.0, SVG Export Plug-In . SVG Version: 6.00 Build 0)  -->
<!DOCTYPE svg PUBLIC "-//W3C//DTD SVG 1.1//EN" "http://www.w3.org/Graphics/SVG/1.1/DTD/svg11.dtd">
<svg version="1.1" id="Calque_1" xmlns="http://www.w3.org/2000/svg" xmlns:xlink="http://www.w3.org/1999/xlink" x="0px" y="0px"
	 width="70.87px" height="70.87px" viewBox="0 0 70.87 70.87" enable-background="new 0 0 70.87 70.87" xml:space="preserve">
<g>
	<path fill="#FFFFFF" d="M35.698,6.674c-16.024,0-29.061,13.038-29.061,29.064c0,16.024,13.036,29.061,29.061,29.061
		c16.025,0,29.063-13.036,29.063-29.061C64.762,19.712,51.724,6.674,35.698,6.674z M35.698,62.527
		C20.927,62.527,8.91,50.51,8.91,35.738c0-14.772,12.017-26.791,26.788-26.791c14.773,0,26.792,12.019,26.792,26.791
		C62.49,50.51,50.472,62.527,35.698,62.527z"/>
	<path fill="#FFFFFF" d="M35.698,11.292c-13.479,0-24.443,10.967-24.443,24.446c0,13.479,10.965,24.443,24.443,24.443
		s24.443-10.965,24.443-24.443C60.142,22.259,49.177,11.292,35.698,11.292z M57.798,37.449c-0.088-0.317-0.366-0.556-0.711-0.556
		h-2.308v-0.194h2.006c0.414,0,0.75-0.336,0.75-0.75v-0.585c0-0.414-0.336-0.75-0.75-0.75h-2.006l2.193-0.025
		c0.414,0,0.75-0.336,0.75-0.75V33.25c0-0.414-0.336-0.75-0.75-0.75h-3.605c-0.414,0-0.75,0.336-0.75,0.75v4.982
		c0,0.414,0.336,0.75,0.75,0.75h3.72c0.24,0,0.443-0.12,0.581-0.295c-0.609,4.561-2.604,8.689-5.556,11.939
		c-0.046-0.079-0.083-0.162-0.149-0.23l-2.292-2.292c-0.428-0.428-1.172-0.434-1.607,0c-0.215,0.215-0.333,0.501-0.332,0.805
		c0,0.304,0.119,0.589,0.332,0.801l2.293,2.293c0.066,0.066,0.148,0.105,0.227,0.152c-3.481,3.16-7.971,5.225-12.92,5.662
		c0.18-0.146,0.338-0.31,0.463-0.502c0.229-0.356,0.346-0.744,0.346-1.153c0-0.423-0.112-0.803-0.335-1.131
		c-0.083-0.122-0.182-0.235-0.295-0.341c0.292-0.111,0.493-0.399,0.48-0.728c-0.016-0.429-0.139-0.822-0.368-1.173
		c-0.237-0.356-0.568-0.626-0.987-0.803c-0.73-0.306-1.724-0.319-2.462-0.01c-0.417,0.17-0.744,0.435-0.965,0.775
		c-0.226,0.337-0.341,0.715-0.341,1.123c0,0.372,0.098,0.715,0.289,1.017c0.072,0.115,0.157,0.223,0.255,0.322l-0.049,0.004
		c-0.393,0.034-0.691,0.366-0.685,0.76c0.009,0.477,0.142,0.913,0.395,1.296c0.146,0.221,0.328,0.401,0.532,0.559
		c-5.029-0.397-9.594-2.475-13.123-5.677c0.079-0.048,0.164-0.088,0.228-0.153l2.288-2.289c0.216-0.214,0.336-0.5,0.336-0.805
		c0.001-0.305-0.118-0.592-0.331-0.803c-0.43-0.432-1.179-0.432-1.608-0.002l-2.297,2.297c-0.064,0.066-0.101,0.147-0.146,0.225
		c-3.575-3.938-5.757-9.163-5.757-14.888c0-0.588,0.03-1.169,0.075-1.745l1.21,4.555c0.087,0.329,0.385,0.558,0.725,0.558h0.673
		c0.337,0,0.632-0.225,0.723-0.549l0.484-1.737l0.479,1.735c0.09,0.325,0.386,0.551,0.723,0.551h0.637
		c0.338,0,0.634-0.226,0.724-0.552l1.367-4.981c0.062-0.226,0.015-0.467-0.127-0.653c-0.143-0.186-0.362-0.295-0.597-0.295h-0.664
		c-0.346,0-0.646,0.236-0.729,0.572l-0.312,1.274l-0.366-1.3c-0.091-0.323-0.386-0.547-0.722-0.547h-0.798
		c-0.336,0-0.631,0.223-0.722,0.546l-0.383,1.354l-0.306-1.318c-0.079-0.341-0.382-0.581-0.73-0.581h-0.679
		c-0.187,0-0.353,0.085-0.49,0.207c0.603-4.577,2.601-8.721,5.559-11.981c0.047,0.08,0.085,0.164,0.152,0.233l2.288,2.289
		c0.215,0.217,0.502,0.336,0.809,0.336c0.303,0,0.587-0.118,0.8-0.331c0.216-0.214,0.335-0.499,0.335-0.803
		c0.001-0.305-0.117-0.591-0.333-0.806l-2.289-2.29c-0.068-0.068-0.153-0.108-0.235-0.156c3.325-3.02,7.569-5.039,12.256-5.597
		c-0.015,0.059-0.036,0.114-0.036,0.178v4.98c0,0.414,0.336,0.75,0.75,0.75h0.633c0.414,0,0.75-0.336,0.75-0.75V17.44l1.244,1.86
		c0.139,0.208,0.373,0.333,0.623,0.333h0.677c0.414,0,0.75-0.336,0.75-0.75v-4.98c0-0.06-0.021-0.111-0.033-0.167
		c4.651,0.573,8.864,2.586,12.168,5.587c-0.08,0.046-0.166,0.086-0.232,0.153l-2.295,2.294c-0.44,0.443-0.439,1.163,0.002,1.604
		c0.212,0.212,0.504,0.333,0.802,0.333c0.305,0,0.591-0.118,0.806-0.333l2.299-2.299c0.064-0.066,0.101-0.148,0.146-0.226
		c3.573,3.938,5.754,9.163,5.754,14.888C57.87,36.314,57.841,36.884,57.798,37.449z M36.286,56.232
		c-0.012,0.006-0.025,0.012-0.042,0.019c-0.216,0.086-0.607,0.086-0.863-0.027c-0.107-0.046-0.156-0.089-0.176-0.119
		c-0.017-0.025-0.045-0.079-0.065-0.182c0.096,0.025,0.197,0.051,0.305,0.076c0.407,0.097,0.673,0.167,0.784,0.209
		C36.251,56.217,36.27,56.226,36.286,56.232z M35.937,53.896c-0.1-0.022-0.185-0.044-0.259-0.063c0.3-0.027,0.436,0.063,0.444,0.071
		c0.013,0.01,0.022,0.023,0.03,0.041C36.083,53.93,36.012,53.913,35.937,53.896z M36.32,13.903v1.442l-1.184-1.768
		c0.187-0.005,0.373-0.015,0.562-0.015c0.235,0,0.468,0.011,0.701,0.018C36.353,13.68,36.32,13.787,36.32,13.903z"/>
	<path fill="#FFFFFF" d="M40.951,28.655L43.2,18.053c0.114-0.551-0.197-1.11-0.736-1.306c-0.523-0.178-1.13,0.061-1.38,0.543
		l-5.043,9.62c-0.117-0.006-0.231-0.01-0.343-0.01c-4.874,0-8.839,3.965-8.839,8.838c0,2.765,1.301,5.354,3.505,7.021l-2.227,10.686
		c-0.117,0.559,0.201,1.119,0.721,1.296c0.128,0.047,0.26,0.071,0.392,0.071c0.423,0,0.809-0.232,1.01-0.612l4.999-9.639
		c0.152,0.01,0.299,0.016,0.439,0.016c4.873,0,8.838-3.965,8.838-8.839C44.536,32.935,43.205,30.324,40.951,28.655z M36.458,42.261
		l0.742-1.434c2.232-0.659,3.817-2.745,3.817-5.092c0-1.061-0.323-2.083-0.938-2.979l0.335-1.584
		c1.188,1.212,1.851,2.822,1.851,4.565C42.265,39.103,39.723,41.884,36.458,42.261z M34.826,29.229l-0.773,1.479
		c-2.171,0.71-3.658,2.729-3.658,5.026c0,1.009,0.29,1.985,0.843,2.845l-0.341,1.633c-1.134-1.202-1.766-2.779-1.766-4.475
		C29.131,32.413,31.615,29.657,34.826,29.229z M34.995,38.681c-0.155-0.038-0.309-0.078-0.491-0.16
		c-0.013-0.007-0.107-0.058-0.12-0.063c-0.217-0.105-0.423-0.241-0.617-0.404c-0.105-0.093-0.213-0.188-0.308-0.291
		c-0.512-0.565-0.793-1.285-0.793-2.026c0-1.324,0.861-2.483,2.079-2.865l0.313-0.068c0.225-0.048,0.451-0.072,0.675-0.072
		c0.343,0,0.675,0.057,0.989,0.168c0.48,0.171,0.907,0.471,1.316,0.94l0.067,0.065c0.418,0.545,0.638,1.178,0.638,1.832
		c0,1.558-1.177,2.85-2.742,3.006c-0.118,0.013-0.255,0.015-0.393,0.021c-0.144-0.004-0.28-0.018-0.425-0.043L34.995,38.681z
		 M37.991,28.079l1.277-2.435l-0.568,2.68c-0.006,0.021-0.012,0.041-0.016,0.062l-0.561,2.638c-0.447-0.236-0.92-0.404-1.41-0.501
		l1.247-2.378C37.973,28.123,37.982,28.102,37.991,28.079z M32.609,43.115c0.008-0.024,0.015-0.049,0.02-0.074l0.546-2.627
		c0.257,0.147,0.5,0.261,0.742,0.345c0.215,0.078,0.437,0.14,0.668,0.186l-2.541,4.891L32.609,43.115z"/>
</g>
</svg>
