<svg xmlns="http://www.w3.org/2000/svg" width="70.87" height="70.87"><g fill="#FFF"><path d="M35.698 6.674c-16.024 0-29.061 13.038-29.061 29.064 0 16.024 13.036 29.061 29.061 29.061s29.063-13.036 29.063-29.061c.001-16.026-13.037-29.064-29.063-29.064zm0 55.853C20.927 62.527 8.91 50.51 8.91 35.738c0-14.772 12.017-26.791 26.788-26.791 14.773 0 26.792 12.019 26.792 26.791S50.472 62.527 35.698 62.527z"/><path d="M35.698 11.292c-13.479 0-24.443 10.967-24.443 24.446 0 13.479 10.965 24.443 24.443 24.443s24.443-10.965 24.443-24.443c.001-13.479-10.964-24.446-24.443-24.446zm22.1 26.157a.742.742 0 0 0-.711-.556h-2.308v-.194h2.006a.75.75 0 0 0 .75-.75v-.585a.75.75 0 0 0-.75-.75h-2.006l2.193-.025a.75.75 0 0 0 .75-.75v-.589a.75.75 0 0 0-.75-.75h-3.605a.75.75 0 0 0-.75.75v4.982c0 .414.336.75.75.75h3.72c.24 0 .443-.12.581-.295a22.089 22.089 0 0 1-5.556 11.939c-.046-.079-.083-.162-.149-.23l-2.292-2.292a1.16 1.16 0 0 0-1.607 0 1.126 1.126 0 0 0-.332.805c0 .304.119.589.332.801l2.293 2.293c.066.066.148.105.227.152a22.087 22.087 0 0 1-12.92 5.662 2.103 2.103 0 0 0 .809-1.655 1.97 1.97 0 0 0-.335-1.131 2.05 2.05 0 0 0-.295-.341.747.747 0 0 0 .48-.728 2.266 2.266 0 0 0-.368-1.173 2.174 2.174 0 0 0-.987-.803c-.73-.306-1.724-.319-2.462-.01a2.047 2.047 0 0 0-1.306 1.898 1.875 1.875 0 0 0 .544 1.339l-.049.004a.75.75 0 0 0-.685.76c.009.477.142.913.395 1.296.146.221.328.401.532.559a22.088 22.088 0 0 1-13.123-5.677c.079-.048.164-.088.228-.153l2.288-2.289c.216-.214.336-.5.336-.805a1.12 1.12 0 0 0-.331-.803 1.161 1.161 0 0 0-1.608-.002L19.43 50.4c-.064.066-.101.147-.146.225a22.085 22.085 0 0 1-5.757-14.888c0-.588.03-1.169.075-1.745l1.21 4.555a.75.75 0 0 0 .725.558h.673a.752.752 0 0 0 .723-.549l.484-1.737.479 1.735c.09.325.386.551.723.551h.637a.751.751 0 0 0 .724-.552l1.367-4.981a.749.749 0 0 0-.724-.948h-.664a.75.75 0 0 0-.729.572l-.312 1.274-.366-1.3a.75.75 0 0 0-.722-.547h-.798a.75.75 0 0 0-.722.546l-.383 1.354-.306-1.318a.75.75 0 0 0-.73-.581h-.679a.74.74 0 0 0-.49.207 22.114 22.114 0 0 1 5.559-11.981c.047.08.085.164.152.233l2.288 2.289c.215.217.502.336.809.336.303 0 .587-.118.8-.331.216-.214.335-.499.335-.803a1.123 1.123 0 0 0-.333-.806l-2.289-2.29c-.068-.068-.153-.108-.235-.156a22.094 22.094 0 0 1 12.256-5.597c-.015.059-.036.114-.036.178v4.98c0 .414.336.75.75.75h.633a.75.75 0 0 0 .75-.75V17.44l1.244 1.86a.75.75 0 0 0 .623.333h.677a.75.75 0 0 0 .75-.75v-4.98c0-.06-.021-.111-.033-.167a22.1 22.1 0 0 1 12.168 5.587c-.08.046-.166.086-.232.153l-2.295 2.294a1.139 1.139 0 0 0 .002 1.604c.212.212.504.333.802.333.305 0 .591-.118.806-.333l2.299-2.299c.064-.066.101-.148.146-.226a22.092 22.092 0 0 1 5.754 14.888 23.604 23.604 0 0 1-.074 1.712zM36.286 56.232a.612.612 0 0 1-.042.019c-.216.086-.607.086-.863-.027-.107-.046-.156-.089-.176-.119a.493.493 0 0 1-.065-.182c.096.025.197.051.305.076.407.097.673.167.784.209l.057.024zm-.349-2.336c-.1-.022-.185-.044-.259-.063.3-.027.436.063.444.071a.1.1 0 0 1 .03.041l-.215-.049zm.383-39.993v1.442l-1.184-1.768c.187-.005.373-.015.562-.015.235 0 .468.011.701.018a.77.77 0 0 0-.079.323z"/><path d="M40.951 28.655L43.2 18.053a1.147 1.147 0 0 0-.736-1.306c-.523-.178-1.13.061-1.38.543l-5.043 9.62a6.708 6.708 0 0 0-.343-.01c-4.874 0-8.839 3.965-8.839 8.838a8.798 8.798 0 0 0 3.505 7.021l-2.227 10.686a1.127 1.127 0 0 0 .721 1.296 1.135 1.135 0 0 0 1.402-.541l4.999-9.639c.152.01.299.016.439.016 4.873 0 8.838-3.965 8.838-8.839a8.799 8.799 0 0 0-3.585-7.083zm-4.493 13.606l.742-1.434c2.232-.659 3.817-2.745 3.817-5.092a5.23 5.23 0 0 0-.938-2.979l.335-1.584a6.463 6.463 0 0 1 1.851 4.565 6.575 6.575 0 0 1-5.807 6.524zm-1.632-13.032l-.773 1.479a5.294 5.294 0 0 0-3.658 5.026c0 1.009.29 1.985.843 2.845l-.341 1.633a6.472 6.472 0 0 1-1.766-4.475c0-3.324 2.484-6.08 5.695-6.508zm.169 9.452a2.654 2.654 0 0 1-.491-.16c-.013-.007-.107-.058-.12-.063a2.977 2.977 0 0 1-.617-.404c-.105-.093-.213-.188-.308-.291a3.018 3.018 0 0 1-.793-2.026c0-1.324.861-2.483 2.079-2.865l.313-.068c.225-.048.451-.072.675-.072.343 0 .675.057.989.168.48.171.907.471 1.316.94l.067.065c.418.545.638 1.178.638 1.832a3.02 3.02 0 0 1-2.742 3.006c-.118.013-.255.015-.393.021a2.93 2.93 0 0 1-.425-.043l-.188-.04zm2.996-10.602l1.277-2.435-.568 2.68c-.006.021-.012.041-.016.062l-.561 2.638a5.161 5.161 0 0 0-1.41-.501l1.247-2.378a.439.439 0 0 0 .031-.066zm-5.382 15.036a.621.621 0 0 0 .02-.074l.546-2.627a4.57 4.57 0 0 0 1.41.531l-2.541 4.891.565-2.721z"/></g></svg>