<svg xmlns="http://www.w3.org/2000/svg" width="70.87" height="70.87"><g fill="#FFF"><path d="M64.379 54.362c-3.723-7.308-9.012-12.262-21.681-23.751-.161-.146-2.338-2.07-2.904-2.555a1.607 1.607 0 0 0-1.393-.374c-6.413-5.671-17.641-13.864-25.72-18.031l-.161-.083h-.012c-.773-.379-3.188-1.557-4.274-2.003a1.152 1.152 0 0 0-1.008.081c-.31.185-.514.51-.545.861-1.16 11.693 2.37 15.876 8.226 21.731 2.372 2.375 9.729 7.625 11.928 9.177.312.22.799.573 1.205.869-.175.807.087 1.616.714 2.043.796.541 1.406.938 2.344 1.484.642.377 1.354.407 1.986.084l.2-.113a.634.634 0 0 1 .326-.068c2.486 0 9.396 6.165 14.999 16.204 1.362 2.448 3.349 3.402 7.086 3.402.457 0 .945-.016 1.471-.043 1.326-.068 5.783-.519 7.469-3.434.892-1.552.806-3.396-.256-5.481zM8.809 10.313c.623.291 1.39.657 2.275 1.088.371 4.02 1.481 9.717 6.245 14.483.357.356.733.704 1.119 1.038 1.344 1.164 8.402 6.248 10.148 7.453.054.039.098.078.109.088.163.165.212.332-.054.664l-1.395 1.8c-2.596-1.847-8.716-6.268-10.742-8.296-5.444-5.441-8.336-8.819-7.705-18.318zm21.624 26.224c1.091-1.355.728-2.821-.121-3.679a3.364 3.364 0 0 0-.408-.34c-1.805-1.25-8.69-6.206-9.969-7.311-.346-.3-.681-.609-1-.93-3.756-3.757-4.948-8.028-5.424-11.601 7.818 4.352 17.428 11.48 23.127 16.48l-7.398 9.19-.132-.097 1.325-1.712zm9.933-4.956l-8.283 10.175a31.78 31.78 0 0 1-1.772-1.118l8.382-10.411.056-.07c.456.4 1.104.971 1.617 1.424zm15.329 29.468c-3.564 0-4.42-1.014-5.103-2.237-4.824-8.647-11.301-15.686-15.538-17.108l7.005-8.604c11.814 10.724 16.813 15.463 20.294 22.293.691 1.36.797 2.476.313 3.314-.883 1.525-3.58 2.194-5.617 2.304-.482.022-.931.038-1.354.038z"/><path d="M42.381 40.571c-.489.487-.758 1.136-.758 1.825s.269 1.338.756 1.823c.486.488 1.135.757 1.824.757s1.337-.269 1.824-.756c.488-.488.757-1.136.757-1.824s-.269-1.336-.757-1.824c-.939-.939-2.714-.937-3.646-.001zm1.514 1.825c0-.083.031-.157.095-.221.058-.058.132-.089.214-.089s.157.032.219.093a.305.305 0 0 1-.002.435c-.101.102-.328.104-.437-.004a.294.294 0 0 1-.089-.214zm10.06 11.596c-1 1.007-1 2.644.003 3.651a2.577 2.577 0 0 0 1.825.753 2.578 2.578 0 0 0 1.824-4.405c-.938-.937-2.71-.94-3.652.001zm2.139 1.824a.306.306 0 0 1-.088.216c-.105.104-.343.099-.44.004a.315.315 0 0 1-.002-.438.304.304 0 0 1 .22-.09c.083 0 .158.031.221.094a.299.299 0 0 1 .089.214z"/></g></svg>