<?xml version="1.0" encoding="utf-8"?>
<!-- Generator: Adobe Illustrator 15.0.0, SVG Export Plug-In . SVG Version: 6.00 Build 0)  -->
<!DOCTYPE svg PUBLIC "-//W3C//DTD SVG 1.1//EN" "http://www.w3.org/Graphics/SVG/1.1/DTD/svg11.dtd">
<svg version="1.1" id="Calque_1" xmlns="http://www.w3.org/2000/svg" xmlns:xlink="http://www.w3.org/1999/xlink" x="0px" y="0px"
	 width="70.87px" height="70.87px" viewBox="0 0 70.87 70.87" enable-background="new 0 0 70.87 70.87" xml:space="preserve">
<g>
	<path fill="#FFFFFF" d="M64.379,54.362c-3.723-7.308-9.012-12.262-21.681-23.751c-0.161-0.146-2.338-2.07-2.904-2.555
		c-0.391-0.338-0.895-0.479-1.393-0.374c-6.413-5.671-17.641-13.864-25.72-18.031L12.52,9.568h-0.012
		C11.735,9.189,9.32,8.011,8.234,7.565C7.912,7.437,7.541,7.462,7.226,7.646c-0.31,0.185-0.514,0.51-0.545,0.861
		C5.521,20.2,9.051,24.383,14.907,30.238c2.372,2.375,9.729,7.625,11.928,9.177c0.312,0.22,0.799,0.573,1.205,0.869
		c-0.175,0.807,0.087,1.616,0.714,2.043c0.796,0.541,1.406,0.938,2.344,1.484c0.642,0.377,1.354,0.407,1.986,0.084l0.2-0.113
		c0.073-0.045,0.183-0.068,0.326-0.068c2.486,0,9.396,6.165,14.999,16.204c1.362,2.448,3.349,3.402,7.086,3.402
		c0.457,0,0.945-0.016,1.471-0.043c1.326-0.068,5.783-0.519,7.469-3.434C65.527,58.291,65.441,56.447,64.379,54.362z M8.809,10.313
		c0.623,0.291,1.39,0.657,2.275,1.088c0.371,4.02,1.481,9.717,6.245,14.483c0.357,0.356,0.733,0.704,1.119,1.038
		c1.344,1.164,8.402,6.248,10.148,7.453c0.054,0.039,0.098,0.078,0.109,0.088c0.163,0.165,0.212,0.332-0.054,0.664l-1.395,1.8
		c-2.596-1.847-8.716-6.268-10.742-8.296C11.07,23.19,8.178,19.812,8.809,10.313z M30.433,36.537
		c1.091-1.355,0.728-2.821-0.121-3.679c-0.108-0.107-0.235-0.215-0.408-0.34c-1.805-1.25-8.69-6.206-9.969-7.311
		c-0.346-0.3-0.681-0.609-1-0.93c-3.756-3.757-4.948-8.028-5.424-11.601c7.818,4.352,17.428,11.48,23.127,16.48l-7.398,9.19
		c-0.043-0.032-0.088-0.064-0.132-0.097L30.433,36.537z M40.366,31.581l-8.283,10.175c-0.705-0.415-1.207-0.737-1.772-1.118
		l8.382-10.411l0.056-0.07C39.205,30.557,39.853,31.128,40.366,31.581z M55.695,61.049c-3.564,0-4.42-1.014-5.103-2.237
		c-4.824-8.647-11.301-15.686-15.538-17.108l7.005-8.604c11.814,10.724,16.813,15.463,20.294,22.293
		c0.691,1.36,0.797,2.476,0.313,3.314c-0.883,1.525-3.58,2.194-5.617,2.304C56.567,61.033,56.118,61.049,55.695,61.049z"/>
	<path fill="#FFFFFF" d="M42.381,40.571c-0.489,0.487-0.758,1.136-0.758,1.825s0.269,1.338,0.756,1.823
		c0.486,0.488,1.135,0.757,1.824,0.757s1.337-0.269,1.824-0.756c0.488-0.488,0.757-1.136,0.757-1.824s-0.269-1.336-0.757-1.824
		C45.088,39.633,43.313,39.635,42.381,40.571z M43.895,42.396c0-0.083,0.031-0.157,0.095-0.221c0.058-0.058,0.132-0.089,0.214-0.089
		s0.157,0.032,0.219,0.093c0.059,0.059,0.091,0.136,0.091,0.217c0,0.082-0.031,0.156-0.093,0.218
		c-0.101,0.102-0.328,0.104-0.437-0.004C43.926,42.553,43.895,42.479,43.895,42.396z"/>
	<path fill="#FFFFFF" d="M53.955,53.992c-1,1.007-1,2.644,0.003,3.651c0.489,0.485,1.137,0.753,1.825,0.753
		c0.687,0,1.335-0.268,1.827-0.756c0.486-0.488,0.755-1.136,0.755-1.824c0-0.687-0.269-1.335-0.758-1.825
		C56.669,53.054,54.897,53.051,53.955,53.992z M56.094,55.816c0,0.083-0.032,0.159-0.088,0.216c-0.105,0.104-0.343,0.099-0.44,0.004
		c-0.119-0.119-0.119-0.32-0.002-0.438c0.059-0.059,0.135-0.09,0.22-0.09c0.083,0,0.158,0.031,0.221,0.094
		C56.063,55.661,56.094,55.734,56.094,55.816z"/>
</g>
</svg>
