<svg xmlns="http://www.w3.org/2000/svg" width="70.87" height="70.87"><path fill="#FFF" d="M45.78 40.093c-1.192-4.775-2.819-11.289-2.896-23.945a4.128 4.128 0 0 0 2.804-3.909 4.145 4.145 0 0 0-4.14-4.14 4.145 4.145 0 0 0-4.141 4.14 4.118 4.118 0 0 0 2.818 3.914c.077 12.974 1.751 19.676 2.978 24.588.707 2.83 1.266 5.064 1.266 7.578 0 6.505-5.292 11.797-11.796 11.797-6.505 0-11.797-5.292-11.797-11.796a11.703 11.703 0 0 1 1.133-5.048l2.342-4.94-9.019 6.872a1.33 1.33 0 0 0 1.611 2.115l1.426-1.088c-.1.688-.149 1.385-.149 2.087 0 7.97 6.484 14.454 14.454 14.454s14.454-6.484 14.454-14.454c-.001-2.846-.596-5.22-1.348-8.225zm-4.232-29.336c.816 0 1.481.665 1.481 1.481 0 .817-.665 1.482-1.481 1.482a1.482 1.482 0 0 1 0-2.963z"/></svg>