<?xml version="1.0" encoding="utf-8"?>
<!-- Generator: Adobe Illustrator 15.0.0, SVG Export Plug-In . SVG Version: 6.00 Build 0)  -->
<!DOCTYPE svg PUBLIC "-//W3C//DTD SVG 1.1//EN" "http://www.w3.org/Graphics/SVG/1.1/DTD/svg11.dtd">
<svg version="1.1" id="Calque_1" xmlns="http://www.w3.org/2000/svg" xmlns:xlink="http://www.w3.org/1999/xlink" x="0px" y="0px"
	 width="70.87px" height="70.87px" viewBox="0 0 70.87 70.87" enable-background="new 0 0 70.87 70.87" xml:space="preserve">
<path fill="#FFFFFF" d="M64.437,17.653l0.141-0.146l-1.326-1.022l-1.063-0.821l-0.104,0.108c-0.938-0.465-1.964-0.72-3.035-0.72
	H13.191c-1.445,0-2.839,0.46-3.996,1.285L9.063,16.21l-1.037,1.175l-0.949,1.076l0.114,0.11c-0.574,1.021-0.887,2.178-0.887,3.367
	v29.662c0,3.797,3.09,6.887,6.887,6.887h45.856c3.797,0,6.887-3.09,6.887-6.887V21.938C65.935,20.353,65.399,18.857,64.437,17.653z
	 M11.42,18.479c0.543-0.278,1.149-0.428,1.771-0.428h45.856c0.261,0,0.517,0.025,0.766,0.075L39.036,39.69
	c-0.739,0.768-1.733,1.19-2.799,1.19c-1.011,0-1.969-0.387-2.696-1.088L11.42,18.479z M62.935,51.601
	c0,2.144-1.743,3.887-3.887,3.887H13.191c-2.144,0-3.887-1.743-3.887-3.887V21.938c0-0.397,0.061-0.788,0.177-1.16l21.978,21.175
	c0.968,0.933,2.165,1.551,3.458,1.801c0.431,0.084,0.873,0.127,1.32,0.127c1.889,0,3.649-0.749,4.959-2.108l21.128-21.928
	c0.396,0.616,0.61,1.337,0.61,2.094V51.601z"/>
</svg>
